<?xml version="1.0" standalone="no"?>
<!DOCTYPE svg PUBLIC "-//W3C//DTD SVG 1.1//EN" "http://www.w3.org/Graphics/SVG/1.1/DTD/svg11.dtd" >
<svg xmlns="http://www.w3.org/2000/svg" xmlns:xlink="http://www.w3.org/1999/xlink" version="1.1">
<metadata>
Created by FontForge 20170731 at Sun Feb  2 02:53:57 2020
 By Aleksey,,,
</metadata>
<defs>
<font id="Metropolis-BlackItalic" horiz-adv-x="626" >
  <font-face 
    font-family="Metropolis Black"
    font-weight="900"
    font-style="italic"
    font-stretch="normal"
    units-per-em="1000"
    panose-1="0 0 10 0 0 0 0 0 0 0"
    ascent="795"
    descent="-205"
    x-height="517"
    cap-height="687"
    bbox="-274 -306 1234 987"
    underline-thickness="20"
    underline-position="-153"
    slope="-11.75"
    unicode-range="U+0020-2212"
  />
<missing-glyph horiz-adv-x="500" 
d="M410 -205h-317v1000h317v-1000zM168 728v-33h65v-37h-66v-33h166v33h-66v37h66v33h-165zM167 599v-104h166v34h-66v70h-100zM233 529h-33v36h33v-36zM167 468v-33h66v-37h-66v-33h100v70h66v33h-166zM300 408v-66h-133v-34h166v100h-33zM233 286v-56h34v23h33v-47h-100
v80h-33v-113h166v113h-100zM167 113v-113h166v113h-166zM300 33h-100v47h100v-47zM167 -23v-33h70l-70 -47v-33h166v33h-102l70 47h32v33h-166z" />
    <glyph glyph-name=".notdef" horiz-adv-x="500" 
d="M410 -205h-317v1000h317v-1000zM168 728v-33h65v-37h-66v-33h166v33h-66v37h66v33h-165zM167 599v-104h166v34h-66v70h-100zM233 529h-33v36h33v-36zM167 468v-33h66v-37h-66v-33h100v70h66v33h-166zM300 408v-66h-133v-34h166v100h-33zM233 286v-56h34v23h33v-47h-100
v80h-33v-113h166v113h-100zM167 113v-113h166v113h-166zM300 33h-100v47h100v-47zM167 -23v-33h70l-70 -47v-33h166v33h-102l70 47h32v33h-166z" />
    <glyph glyph-name=".null" horiz-adv-x="0" 
 />
    <glyph glyph-name="nonmarkingreturn" horiz-adv-x="333" 
 />
    <glyph glyph-name="space" unicode=" " horiz-adv-x="270" 
 />
    <glyph glyph-name="exclam" unicode="!" horiz-adv-x="342" 
d="M148 687h215l-128 -413h-130zM57 18q-29 30 -29 75q0 35 18 64t48 45.5t63 16.5q44 0 72.5 -30t28.5 -73q0 -34 -17.5 -63.5t-46.5 -47t-61 -17.5q-47 0 -76 30z" />
    <glyph glyph-name="quotedbl" unicode="&#x22;" horiz-adv-x="573" 
d="M116 544q0 71 33 116t89 45q34 0 56 -22.5t22 -56.5q0 -37 -33 -105t-81 -151h-68q-18 118 -18 174zM398 544q0 71 33 116t89 45q34 0 56 -22.5t22 -56.5q0 -37 -33 -105t-81 -151h-68q-18 118 -18 174z" />
    <glyph glyph-name="numbersign" unicode="#" horiz-adv-x="692" 
d="M657 404h-83l-57 -123h83l-61 -134h-83l-68 -147h-138l68 147h-89l-68 -147h-138l68 147h-81l61 134h81l57 123h-85l61 134h85l69 149h138l-69 -149h89l69 149h138l-69 -149h83zM379 281l57 123h-89l-57 -123h89z" />
    <glyph glyph-name="dollar" unicode="$" horiz-adv-x="723" 
d="M559 382.5q49 -21.5 73 -55t24 -87.5q0 -67 -34.5 -120t-95.5 -86t-138 -42l-13 -66h-110l13 65q-77 8 -143.5 39t-112.5 79l126 119q42 -39 94 -59t102 -20q54 0 84.5 21t30.5 46q0 10 -6 15.5t-24 11t-44 11.5l-24 6q-83 21 -129 39t-75.5 53.5t-29.5 95.5q0 68 37 124
t105 90t157 37l12 60h110l-14 -69q108 -22 178 -89l-116 -128q-39 34 -85.5 49.5t-85.5 15.5q-46 0 -73 -21t-27 -46q0 -12 9 -19t27 -12.5t63 -15.5q86 -20 135 -41.5z" />
    <glyph glyph-name="percent" unicode="%" horiz-adv-x="903" 
d="M139 379.5q-42 41.5 -42 107.5q0 56 27 103.5t74 75.5t104 28q74 0 116 -42t42 -108q0 -56 -27.5 -103t-75 -75t-104.5 -28q-72 0 -114 41.5zM709 687h147l-626 -687h-147zM296.5 461q20.5 16 32.5 40t12 48q0 18 -9.5 27.5t-26.5 9.5q-25 0 -45.5 -16t-32 -40t-11.5 -48
q0 -18 9.5 -27.5t25.5 -9.5q25 0 45.5 16zM519.5 31q-42.5 42 -42.5 108q0 55 27.5 103t75 76t104.5 28q72 0 114 -42.5t42 -108.5q0 -55 -27.5 -102.5t-74.5 -75.5t-103 -28q-73 0 -115.5 42zM677.5 112.5q20.5 15.5 32.5 40t12 47.5q0 19 -10 28.5t-26 9.5
q-25 0 -46 -15.5t-32.5 -40t-11.5 -48.5q0 -18 9.5 -27.5t26.5 -9.5q25 0 45.5 15.5z" />
    <glyph glyph-name="ampersand" unicode="&#x26;" horiz-adv-x="733" 
d="M567 146l78 -106l-157 -57l-44 64q-97 -59 -201 -59q-97 0 -155 45.5t-58 124.5q0 88 47.5 140.5t144.5 92.5q-14 26 -20 45t-6 40q0 62 33.5 112.5t88 79t115.5 28.5q86 0 138 -44t52 -115q0 -50 -22.5 -85t-63 -62t-107.5 -57q7 -11 15.5 -22.5t17.5 -24.5l19 -26
q50 55 91 119l124 -79q-70 -94 -130 -154zM379 540.5q-26 -26.5 -26 -57.5q0 -21 11 -43q52 18 77.5 40t25.5 58q0 14 -8.5 21.5t-23.5 7.5q-30 0 -56 -26.5zM366 160q-16 23 -59 88l-16 25q-70 -41 -70 -98q0 -22 15 -34t39 -12q39 0 91 31z" />
    <glyph glyph-name="quotesingle" unicode="'" horiz-adv-x="291" 
d="M116 544q0 71 33 116t89 45q34 0 56 -22.5t22 -56.5q0 -37 -33 -105t-81 -151h-68q-18 118 -18 174z" />
    <glyph glyph-name="parenleft" unicode="(" horiz-adv-x="403" 
d="M76 -22.5q-41 86.5 -41 190.5q0 107 40.5 208.5t114 186t171.5 141.5l86 -111q-111 -95 -170 -205.5t-59 -235.5q0 -61 20 -115t64 -109l-109 -94q-76 57 -117 143.5z" />
    <glyph glyph-name="parenright" unicode=")" horiz-adv-x="403" 
d="M188 379q0 60 -20.5 114.5t-63.5 109.5l109 93q76 -58 117 -143.5t41 -188.5q0 -108 -40.5 -210t-114 -186t-171.5 -142l-86 112q229 194 229 441z" />
    <glyph glyph-name="asterisk" unicode="*" horiz-adv-x="429" 
d="M198.5 338q-11.5 13 -7.5 30q4 20 26 63q14 27 20 45q-12 -8 -40 -32q-28 -25 -45 -37t-32 -12t-26 11t-11 29q0 14 8 27t21 20q20 10 64 20q29 5 47 12q-14 6 -41 13q-41 10 -57 20q-14 9 -14 28q0 18 13 34q9 12 21.5 18.5t24.5 6.5q15 0 27 -12t31 -38q16 -24 25 -32
q1 18 -2 46q-2 24 -2 36q0 18 2 26q4 17 20.5 30t35.5 13t30.5 -13t7.5 -30q-4 -21 -28 -64q-18 -35 -21 -44q12 8 40 32t46 36.5t32 12.5q16 0 27 -10.5t11 -28.5q0 -15 -8 -28t-21 -20q-19 -10 -66 -20q-26 -5 -47 -12q17 -7 42 -12q16 -4 32.5 -9.5t25.5 -11.5
q13 -9 13 -27t-12 -35q-9 -12 -21.5 -18.5t-24.5 -6.5q-15 0 -28 13t-30 37q-20 27 -26 32q-1 -13 3 -43q1 -7 2 -17.5t1 -24.5q0 -16 -2 -23q-4 -17 -20.5 -30t-35.5 -13t-30.5 13z" />
    <glyph glyph-name="plus" unicode="+" horiz-adv-x="601" 
d="M581 408l-31 -149h-169l-36 -175h-160l36 175h-170l31 149h171l36 175h160l-36 -175h168z" />
    <glyph glyph-name="comma" unicode="," horiz-adv-x="316" 
d="M98 -5q-39 0 -65 26.5t-26 68.5q0 34 18 63.5t47 47.5t60 18q46 0 73 -33t27 -88q0 -73 -46 -138.5t-121 -119.5l-63 58q57 38 96 97z" />
    <glyph glyph-name="hyphen" unicode="-" horiz-adv-x="367" 
d="M62 357h284l-33 -158h-284z" />
    <glyph glyph-name="period" unicode="." horiz-adv-x="319" 
d="M41 18q-29 30 -29 75q0 35 18 64t48 45.5t63 16.5q44 0 72.5 -30t28.5 -73q0 -34 -17.5 -63.5t-46.5 -47t-61 -17.5q-47 0 -76 30z" />
    <glyph glyph-name="slash" unicode="/" horiz-adv-x="546" 
d="M442 743h204l-510 -817h-204z" />
    <glyph glyph-name="zero" unicode="0" horiz-adv-x="737" 
d="M181 22.5q-61 34.5 -93.5 97t-32.5 145.5q0 114 51.5 214t141.5 160t199 60q82 0 143 -34.5t94 -97t33 -145.5q0 -113 -51.5 -213t-142 -160.5t-199.5 -60.5q-82 0 -143 34.5zM427.5 202q42.5 38 67 96.5t24.5 115.5q0 51 -22 80t-61 29q-50 0 -92 -37.5t-66.5 -96
t-24.5 -116.5q0 -51 22 -80t61 -29q49 0 91.5 38z" />
    <glyph glyph-name="one" unicode="1" horiz-adv-x="491" 
d="M259 469l-127 -70l-51 134l260 154h156l-143 -687h-194z" />
    <glyph glyph-name="two" unicode="2" horiz-adv-x="660" 
d="M322 345q56 36 89 70t33 70q0 18 -15 28t-41 10q-47 0 -89 -21.5t-93 -64.5l-103 132q136 130 301 130q73 0 127.5 -25t83.5 -70t29 -102q0 -90 -52 -154t-152 -122l-105 -53h251l-36 -173h-549l30 157z" />
    <glyph glyph-name="three" unicode="3" horiz-adv-x="647" 
d="M107.5 19q-69.5 32 -111.5 87l127 119q29 -34 69 -49.5t83 -15.5q49 0 85 22t36 55q0 16 -19.5 22t-72.5 5l-90 -1l34 162h76q47 0 76.5 17t35.5 46q7 38 -71 38q-80 0 -171 -73l-90 130q124 116 293 116q115 0 178.5 -46t63.5 -121q0 -68 -43 -114.5t-117 -67.5
q48 -11 79 -46.5t31 -87.5q0 -69 -43.5 -121t-115.5 -80t-155 -28q-98 0 -167.5 32z" />
    <glyph glyph-name="four" unicode="4" horiz-adv-x="692" 
d="M352 122h-330l12 146l389 419h240l-84 -405h83l-33 -160h-83l-26 -122h-194zM385 282l45 206l-190 -206h145z" />
    <glyph glyph-name="five" unicode="5" horiz-adv-x="661" 
d="M8 95l130 126q31 -32 70 -49.5t79 -17.5q34 0 64.5 13.5t49 36.5t18.5 49q0 21 -19 32t-55 11q-71 0 -137 -45l-121 53l89 383h489l-36 -173h-311l-28 -94q55 34 125 34q86 0 141.5 -48t55.5 -132q0 -86 -44 -151.5t-120.5 -100.5t-170.5 -35q-169 0 -269 108z" />
    <glyph glyph-name="six" unicode="6" horiz-adv-x="677" 
d="M578.5 404.5q56.5 -49.5 56.5 -133.5q0 -80 -43.5 -145t-116.5 -101.5t-159 -36.5q-130 0 -196.5 67t-66.5 185q0 125 52.5 230t147 167t214.5 62q124 0 216 -73l-109 -138q-26 22 -53 32t-62 10q-52 0 -93 -28.5t-70 -79.5q31 15 66.5 23.5t69.5 8.5q90 0 146.5 -49.5z
M372 166q28 14 45 37t17 49q0 23 -20 35t-51 12q-34 0 -65.5 -18t-53.5 -48v-19q0 -34 15.5 -48t53.5 -14q31 0 59 14z" />
    <glyph glyph-name="seven" unicode="7" horiz-adv-x="618" 
d="M407 514h-317l36 173h542l-28 -146l-377 -541h-223z" />
    <glyph glyph-name="eight" unicode="8" horiz-adv-x="675" 
d="M158 8.5q-60 20.5 -94.5 60.5t-34.5 95q0 69 43.5 118.5t117.5 78.5q-34 18 -55 49.5t-21 75.5q0 69 43 117t112.5 72t146.5 24q70 0 126.5 -20t89.5 -58t33 -90q0 -121 -140 -182q43 -21 67 -57t24 -82q0 -72 -45 -122t-119 -75t-159 -25q-75 0 -135 20.5zM436 448
q36 26 36 57q0 16 -17 25.5t-47 9.5q-43 0 -77 -24.5t-34 -56.5q0 -17 17 -27t44 -12q42 2 78 28zM389 173q39 25 39 59q0 17 -22 27.5t-54 12.5q-47 -2 -86 -27.5t-39 -59.5q0 -18 19.5 -27.5t55.5 -9.5q48 0 87 25z" />
    <glyph glyph-name="nine" unicode="9" horiz-adv-x="678" 
d="M593.5 632q66.5 -67 66.5 -185q0 -125 -52.5 -230t-147 -167t-214.5 -62q-124 0 -216 73l109 138q26 -22 53 -32t62 -10q52 0 93 28.5t70 79.5q-31 -15 -66.5 -23.5t-69.5 -8.5q-90 0 -146.5 49.5t-56.5 133.5q0 80 43.5 145t116.5 101.5t159 36.5q130 0 196.5 -67z
M415.5 406q31.5 18 53.5 48v19q0 34 -15.5 48t-53.5 14q-31 0 -59 -14t-45 -37t-17 -49q0 -23 20 -35t51 -12q34 0 65.5 18z" />
    <glyph glyph-name="colon" unicode=":" horiz-adv-x="333" 
d="M115.5 343q-29.5 30 -29.5 76q0 34 18.5 63t48 45.5t62.5 16.5q44 0 73 -30.5t29 -73.5q0 -34 -18 -63t-46.5 -46.5t-60.5 -17.5q-47 0 -76.5 30zM48 18q-29 30 -29 75q0 35 18 64t48 45.5t63 16.5q44 0 72.5 -30t28.5 -73q0 -34 -17.5 -63.5t-46.5 -47t-61 -17.5
q-47 0 -76 30z" />
    <glyph glyph-name="semicolon" unicode=";" horiz-adv-x="327" 
d="M111 343q-29 30 -29 75q0 35 18 64t48 45.5t63 16.5q44 0 72.5 -30t28.5 -73q0 -34 -17.5 -63.5t-46.5 -47t-61 -17.5q-47 0 -76 30zM104 -5q-39 0 -65 26.5t-26 68.5q0 34 18 63.5t47 47.5t60 18q46 0 73 -33t27 -88q0 -73 -46 -138.5t-121 -119.5l-63 58q57 38 96 97z
" />
    <glyph glyph-name="less" unicode="&#x3c;" horiz-adv-x="603" 
d="M55 267l30 153l514 189l-29 -150l-356 -116l306 -114l-30 -151z" />
    <glyph glyph-name="equal" unicode="=" horiz-adv-x="675" 
d="M145 531h499l-31 -149h-499zM96 297h499l-31 -149h-499z" />
    <glyph glyph-name="greater" unicode="&#x3e;" horiz-adv-x="603" 
d="M70 229l355 114l-306 116l29 150l436 -189l-30 -153l-514 -189z" />
    <glyph glyph-name="question" unicode="?" horiz-adv-x="534" 
d="M272.5 424.5q35.5 10.5 58.5 27.5t23 36q0 38 -58 38q-27 0 -58.5 -13t-53.5 -31l-92 119q55 47 120.5 72.5t132.5 25.5q94 0 150.5 -48t56.5 -126q0 -55 -26.5 -102t-71.5 -79.5t-99 -45.5l-7 -34h-176l30 150q35 0 70.5 10.5zM149 18q-29 30 -29 75q0 35 18 64t48 45.5
t63 16.5q44 0 72.5 -30t28.5 -73q0 -34 -17.5 -63.5t-46.5 -47t-61 -17.5q-47 0 -76 30z" />
    <glyph glyph-name="at" unicode="@" horiz-adv-x="900" 
d="M201 -77.5q-71 38.5 -111.5 106t-40.5 150.5q0 140 67.5 253.5t185 178.5t262.5 65q87 0 157.5 -36t111 -99t40.5 -141q0 -81 -38.5 -157.5t-103 -124t-138.5 -47.5q-97 0 -114 75q-35 -35 -74 -54t-79 -19q-64 0 -100 37t-36 100q0 71 40.5 141t104.5 114t130 44
q44 0 72.5 -17.5t42.5 -47.5l22 52l153 -12q-19 -48 -53 -130q-31 -73 -43 -106t-12 -50t9.5 -26t28.5 -9q40 0 72.5 37t51 92t18.5 105q0 67 -35.5 121t-98.5 85t-140 31q-130 0 -235 -58.5t-165 -161t-60 -228.5q0 -73 36.5 -133t100.5 -94t142 -34q109 0 225 61l15 -33
q-130 -69 -252 -69q-88 0 -159 38.5zM467 222q27 20 43.5 50.5t16.5 58.5q0 23 -13 36t-36 13q-31 0 -59.5 -19t-45.5 -48.5t-17 -58.5q0 -25 14.5 -38.5t40.5 -13.5q29 0 56 20z" />
    <glyph glyph-name="A" unicode="A" horiz-adv-x="767" 
d="M488 0l-16 92h-239l-54 -92h-223l407 687h222l-2 -4l120 -683h-215zM318 235h128l-29 167z" />
    <glyph glyph-name="B" unicode="B" horiz-adv-x="715" 
d="M519 687q57 0 101 -19.5t68 -54.5t24 -79q0 -58 -35 -106t-94 -74q43 -20 68 -58.5t25 -86.5q0 -64 -37.5 -111.5t-100 -72.5t-135.5 -25h-391l143 687h364zM482 440.5q25 20.5 25 52.5q-1 17 -14 24t-42 7h-137l-21 -104h124q40 0 65 20.5zM459.5 184q26.5 21 26.5 55
q0 18 -14 26t-45 8h-165l-23 -110h153q41 0 67.5 21z" />
    <glyph glyph-name="C" unicode="C" horiz-adv-x="693" 
d="M196 29q-72 41 -114.5 112t-42.5 157q0 103 61 195.5t160.5 149t208.5 56.5q85 0 157 -35t115 -91l-160 -114q-17 29 -48.5 46.5t-72.5 17.5q-56 0 -108 -32t-84 -83t-32 -106q0 -42 18.5 -73.5t48.5 -48t64 -16.5q39 0 84 21.5t76 54.5l123 -136q-57 -51 -140 -83.5
t-158 -32.5q-84 0 -156 41z" />
    <glyph glyph-name="D" unicode="D" horiz-adv-x="755" 
d="M405 687q101 0 181 -36.5t124.5 -102t44.5 -148.5q0 -107 -65.5 -199t-176 -146.5t-238.5 -54.5h-263l143 687h250zM443 205.5q52 29.5 83 79.5t31 108q0 52 -40.5 85t-103.5 33h-100l-70 -335h88q60 0 112 29.5z" />
    <glyph glyph-name="E" unicode="E" horiz-adv-x="672" 
d="M672 514h-359l-15 -77h326l-36 -173h-327l-18 -91h358l-36 -173h-553l143 687h553z" />
    <glyph glyph-name="F" unicode="F" horiz-adv-x="651" 
d="M672 514h-359l-19 -97h326l-36 -173h-328l-50 -244h-194l143 687h553z" />
    <glyph glyph-name="G" unicode="G" horiz-adv-x="728" 
d="M398 396h322l-61 -292q-64 -57 -143 -86.5t-157 -29.5q-92 0 -165 40t-114.5 109t-41.5 153q0 107 64.5 201.5t167.5 151t212 56.5q84 0 154 -34t114 -92l-160 -114q-18 32 -49.5 48t-69.5 16q-58 0 -113 -34t-89 -86.5t-34 -106.5q0 -57 38 -94.5t98 -37.5t119 38l10 51
h-132z" />
    <glyph glyph-name="H" unicode="H" horiz-adv-x="771" 
d="M600 687h194l-143 -687h-193l53 264h-251l-54 -264h-194l143 687h194l-50 -250h251z" />
    <glyph glyph-name="I" unicode="I" horiz-adv-x="326" 
d="M155 687h194l-143 -687h-194z" />
    <glyph glyph-name="J" unicode="J" horiz-adv-x="548" 
d="M64.5 22.5q-63.5 34.5 -91.5 85.5l143 109q8 -25 28 -39t43 -14q39 0 71.5 26t40.5 62l90 435h194l-98 -471q-14 -68 -54.5 -119.5t-100 -80t-129.5 -28.5q-73 0 -136.5 34.5z" />
    <glyph glyph-name="K" unicode="K" horiz-adv-x="744" 
d="M155 687h194l-52 -243l268 243h247l-321 -292l187 -395h-221l-121 260l-89 -78l-41 -182h-194z" />
    <glyph glyph-name="L" unicode="L" horiz-adv-x="600" 
d="M244 173h318l-36 -173h-514l143 687h194z" />
    <glyph glyph-name="M" unicode="M" horiz-adv-x="888" 
d="M155 687h192l114 -328l254 328h196l-143 -687h-194l79 368l-250 -328l-118 328l-79 -368h-194z" />
    <glyph glyph-name="N" unicode="N" horiz-adv-x="788" 
d="M155 687h192l191 -368l79 368h194l-143 -687h-191l-192 368l-79 -368h-194z" />
    <glyph glyph-name="O" unicode="O" horiz-adv-x="806" 
d="M196 27.5q-73 39.5 -114.5 108t-41.5 153.5q0 111 59.5 205t161 149.5t221.5 55.5q90 0 163 -39.5t115 -108t42 -152.5q0 -111 -59.5 -205.5t-161.5 -150t-222 -55.5q-90 0 -163 39.5zM486.5 195q53.5 31 84.5 83.5t31 113.5q0 56 -37.5 93.5t-93.5 37.5
q-62 0 -115.5 -31t-84.5 -83.5t-31 -113.5q0 -56 37.5 -93.5t93.5 -37.5q62 0 115.5 31z" />
    <glyph glyph-name="P" unicode="P" horiz-adv-x="678" 
d="M478 687q66 0 116.5 -25t78 -70.5t27.5 -104.5q0 -80 -41 -144t-112 -100t-156 -36h-141l-44 -207h-194l143 687h323zM448 396q24 13 39 33.5t15 41.5q0 19 -16.5 29.5t-47.5 10.5h-125l-27 -128h113q25 0 49 13z" />
    <glyph glyph-name="Q" unicode="Q" horiz-adv-x="812" 
d="M777.5 265q-24.5 -64 -69.5 -118l40 -41l-109 -106l-48 49q-108 -61 -232 -61q-90 0 -163 39.5t-114.5 108t-41.5 153.5q0 111 59.5 205t161 149.5t221.5 55.5q90 0 163 -39.5t115 -108t42 -152.5q0 -70 -24.5 -134zM463 183l-49 51l109 106l52 -54q27 51 27 106
q0 56 -37.5 93.5t-93.5 37.5q-62 0 -115.5 -31t-84.5 -83.5t-31 -113.5q0 -56 37.5 -93.5t93.5 -37.5q48 0 92 19z" />
    <glyph glyph-name="R" unicode="R" horiz-adv-x="716" 
d="M648.5 328q-51.5 -69 -136.5 -100l138 -228h-216l-125 207h-59l-44 -207h-194l143 687h323q66 0 116.5 -25t78 -70.5t27.5 -104.5q0 -90 -51.5 -159zM286 383h113q25 0 49 13t39 33.5t15 41.5q0 19 -16.5 29.5t-47.5 10.5h-125z" />
    <glyph glyph-name="S" unicode="S" horiz-adv-x="650" 
d="M120 20q-81 32 -135 89l126 119q42 -39 94 -59t102 -20q54 0 84.5 21t30.5 46q0 10 -6 15.5t-24 11t-44 11.5l-24 6q-83 21 -129 39t-75.5 53.5t-29.5 95.5q0 70 39.5 127.5t111.5 90.5t165 33q79 0 148.5 -25t120.5 -73l-116 -128q-39 34 -85.5 49.5t-85.5 15.5
q-46 0 -73 -21t-27 -46q0 -12 9 -19t27 -12.5t63 -15.5q86 -20 135 -41.5t73 -55t24 -87.5q0 -75 -43 -132t-117.5 -88.5t-165.5 -31.5q-92 0 -173 32z" />
    <glyph glyph-name="T" unicode="T" horiz-adv-x="640" 
d="M276 514h-203l36 173h600l-36 -173h-203l-107 -514h-194z" />
    <glyph glyph-name="U" unicode="U" horiz-adv-x="750" 
d="M182 20.5q-63 32.5 -97 90t-34 132.5q0 36 7 70l78 374h194l-79 -380q-5 -25 -5 -42q0 -47 25.5 -74t70.5 -27q62 0 113.5 46t65.5 113l75 364h194l-81 -390q-19 -92 -73 -162t-134 -108.5t-172 -38.5q-85 0 -148 32.5z" />
    <glyph glyph-name="V" unicode="V" horiz-adv-x="801" 
d="M640 687h223l-407 -687h-222l2 4l-120 683h215l71 -402z" />
    <glyph glyph-name="W" unicode="W" horiz-adv-x="1088" 
d="M103 687h206v-397l217 397h209l48 -397l168 397h212l-333 -687h-196l-58 397l-229 -397h-196z" />
    <glyph glyph-name="X" unicode="X" horiz-adv-x="754" 
d="M831 687l-324 -351l168 -336h-218l-91 182l-168 -182h-240l324 351l-168 336h218l91 -182l168 182h240z" />
    <glyph glyph-name="Y" unicode="Y" horiz-adv-x="735" 
d="M264 226l-168 461h180l106 -293l217 293h218l-359 -461l-50 -226h-194z" />
    <glyph glyph-name="Z" unicode="Z" horiz-adv-x="674" 
d="M12 145l403 369h-316l36 173h584l-28 -145l-400 -369h326l-36 -173h-595z" />
    <glyph glyph-name="bracketleft" unicode="[" horiz-adv-x="424" 
d="M174 689h295l-25 -121h-148l-127 -607h148l-25 -121h-295z" />
    <glyph glyph-name="backslash" unicode="\" horiz-adv-x="538" 
d="M102 743h196l170 -817h-196z" />
    <glyph glyph-name="bracketright" unicode="]" horiz-adv-x="423" 
d="M-18 -39h148l127 607h-148l25 121h295l-177 -849h-295z" />
    <glyph glyph-name="asciicircum" unicode="^" horiz-adv-x="506" 
d="M278 687h129l85 -274h-125l-43 160l-112 -160h-134z" />
    <glyph glyph-name="underscore" unicode="_" horiz-adv-x="666" 
d="M-31 -61h596l-21 -98h-596z" />
    <glyph glyph-name="grave" unicode="`" horiz-adv-x="292" 
d="M101 710l167 28l78 -164h-121z" />
    <glyph glyph-name="a" unicode="a" horiz-adv-x="673" 
d="M672 517l-108 -517h-193l11 51q-74 -63 -166 -63q-91 0 -144.5 58.5t-53.5 153.5q0 85 37.5 160.5t103 122t145.5 46.5q53 0 94 -21.5t66 -61.5l15 71h193zM373 181q39 33 52 80l5 22q1 5 1 15q0 33 -20 52t-54 19q-41 0 -76.5 -21t-57 -55t-21.5 -72q0 -34 22 -53.5
t62 -19.5q48 0 87 33z" />
    <glyph glyph-name="b" unicode="b" horiz-adv-x="682" 
d="M610.5 471q53.5 -58 53.5 -153q0 -85 -37 -161.5t-102.5 -122.5t-146.5 -46q-53 0 -94.5 21.5t-65.5 60.5l-15 -70h-193l145 699h193l-49 -235q75 65 167 65q91 0 144.5 -58zM401.5 169q35.5 21 57 55.5t21.5 71.5q0 34 -22 53.5t-61 19.5q-49 0 -89.5 -35t-52.5 -83
l-2 -11q-2 -14 -2 -21q0 -33 20 -52t55 -19q40 0 75.5 21z" />
    <glyph glyph-name="c" unicode="c" horiz-adv-x="540" 
d="M136.5 19q-56.5 31 -88.5 84.5t-32 118.5q0 82 49.5 152.5t128 112.5t161.5 42q70 0 121 -27.5t83 -74.5l-140 -92q-11 16 -32 25t-42 9q-36 0 -70.5 -21.5t-56 -55.5t-21.5 -67t22 -55t56 -22q28 0 58.5 14t49.5 33l113 -114q-99 -93 -232 -93q-71 0 -127.5 31z" />
    <glyph glyph-name="d" unicode="d" horiz-adv-x="683" 
d="M710 699l-145 -699h-193l11 52q-74 -64 -167 -64q-91 0 -144.5 58.5t-53.5 153.5q0 85 37.5 160.5t103 122t145.5 46.5q53 0 94.5 -21.5t66.5 -61.5l52 253h193zM224 167.5q22 -19.5 62 -19.5q39 0 72 22t53 57t20 71q0 33 -20 52t-54 19q-41 0 -76.5 -21t-57 -55
t-21.5 -72q0 -34 22 -53.5z" />
    <glyph glyph-name="e" unicode="e" horiz-adv-x="539" 
d="M472.5 255q-67.5 -46 -188.5 -42h-104q0 -38 20 -59.5t55 -21.5q63 0 131 48l93 -117q-41 -34 -103 -54.5t-118 -20.5q-73 0 -127.5 28t-83.5 78t-29 116q0 87 42.5 160.5t116 116t161.5 42.5q58 0 104 -18t72 -50t26 -73q0 -87 -67.5 -133zM266.5 365.5
q-31.5 -19.5 -53.5 -51.5h92q37 0 58 12t22 33q0 11 -14.5 18.5t-37.5 7.5q-35 0 -66.5 -19.5z" />
    <glyph glyph-name="f" unicode="f" horiz-adv-x="403" 
d="M352.5 554.5q-18.5 -15.5 -26.5 -37.5h102l-32 -152h-102l-76 -365h-184l76 365h-65l32 152h65l7 36q16 76 70 121.5t123 45.5q42 0 77.5 -16.5t57.5 -41.5l-46 -102q-12 10 -32 10q-28 0 -46.5 -15.5z" />
    <glyph glyph-name="g" unicode="g" horiz-adv-x="659" 
d="M654 517l-98 -470q-14 -66 -60 -116t-115.5 -76.5t-151.5 -26.5q-73 0 -134.5 20.5t-100.5 52.5l81 124q18 -18 54.5 -27.5t74.5 -9.5q62 0 109 25t55 60l5 23q-35 -29 -77 -43.5t-84 -14.5q-56 0 -98.5 25.5t-66 70.5t-23.5 104q0 73 35.5 140.5t96 109t131.5 41.5
q53 0 97 -23t62 -57l14 68h194zM365 224q36 26 47 63l3 15q1 3 1 10q0 27 -17.5 42t-48.5 15q-32 0 -62 -16t-48.5 -42t-18.5 -55t18 -43.5t48 -14.5q42 0 78 26z" />
    <glyph glyph-name="h" unicode="h" horiz-adv-x="634" 
d="M563.5 484.5q44.5 -44.5 44.5 -115.5q0 -21 -8.5 -64.5t-27.5 -131.5l-36 -173h-184l13 60q10 47 24.5 117.5t20.5 101.5t6 38q0 25 -14 38.5t-38 13.5q-33 0 -61.5 -22t-38.5 -53l-61 -294h-193l145 699h193l-46 -223q27 25 64 39t78 14q75 0 119.5 -44.5z" />
    <glyph glyph-name="i" unicode="i" horiz-adv-x="305" 
d="M110 517h193l-108 -517h-193zM166 599.5q-26 26.5 -26 64.5q0 29 15.5 53.5t40.5 39t52 14.5q38 0 63.5 -26.5t25.5 -64.5q0 -43 -32 -75t-73 -32q-40 0 -66 26.5z" />
    <glyph glyph-name="j" unicode="j" horiz-adv-x="319" 
d="M-72 -170q-33 8 -54 19l35 133q11 -5 39 -5q24 0 44 18.5t25 42.5l100 479h193l-108 -519q-16 -80 -73.5 -128t-134.5 -48q-33 0 -66 8zM173 599.5q-26 26.5 -26 64.5q0 29 15.5 53.5t40.5 39t52 14.5q38 0 63.5 -26.5t25.5 -64.5q0 -43 -32 -75t-73 -32q-40 0 -66 26.5z
" />
    <glyph glyph-name="k" unicode="k" horiz-adv-x="616" 
d="M155 699h193l-74 -356l164 174h220l-229 -223l121 -294h-211l-57 171l-54 -51l-25 -120h-193z" />
    <glyph glyph-name="l" unicode="l" horiz-adv-x="321" 
d="M155 699h193l-145 -699h-193z" />
    <glyph glyph-name="m" unicode="m" horiz-adv-x="952" 
d="M844.5 509q38.5 -21 60.5 -59t22 -85q0 -16 -7 -54t-25 -121l-40 -190h-184l32 155q16 73 25 117.5t8 50.5q-2 21 -11.5 34t-36.5 13q-35 0 -64 -22t-37 -50q-8 -45 -54 -261l-8 -37h-184l32 155q16 73 25 117.5t8 50.5q-2 21 -11.5 34t-36.5 13q-35 0 -63.5 -21
t-36.5 -49l-63 -300h-193l108 517h193l-11 -52q24 32 59 48.5t77 16.5q62 0 106.5 -34t57.5 -90q17 58 62 91t104 33q48 0 86.5 -21z" />
    <glyph glyph-name="n" unicode="n" 
d="M555.5 484.5q44.5 -44.5 44.5 -115.5q0 -21 -8.5 -64.5t-27.5 -131.5l-36 -173h-184l13 60q10 47 24.5 117.5t20.5 101.5t6 38q0 25 -14 38.5t-38 13.5q-32 0 -60 -20.5t-39 -50.5l-62 -298h-193l108 517h193l-8 -40q27 25 63.5 38.5t77.5 13.5q75 0 119.5 -44.5z" />
    <glyph glyph-name="o" unicode="o" 
d="M138 17.5q-57 29.5 -89 82.5t-32 122q0 83 46 153.5t124 112t170 41.5q74 0 131 -29.5t89 -82.5t32 -121q0 -83 -46 -154t-124 -112.5t-170 -41.5q-74 0 -131 29.5zM352.5 167.5q34.5 19.5 54.5 53t20 72.5q0 34 -21.5 55t-56.5 21q-41 0 -75.5 -19.5t-54.5 -52.5
t-20 -72q0 -34 22 -55.5t57 -21.5q40 0 74.5 19.5z" />
    <glyph glyph-name="p" unicode="p" horiz-adv-x="683" 
d="M611.5 471q53.5 -58 53.5 -153q0 -85 -37 -161.5t-102.5 -122.5t-146.5 -46q-53 0 -94.5 21.5t-66.5 61.5l-50 -243h-193l143 689h193l-11 -53q75 65 167 65q91 0 144.5 -58zM402.5 169q35.5 21 57 55.5t21.5 71.5q0 34 -22 53.5t-61 19.5t-72.5 -22t-53.5 -57t-20 -71
q0 -33 20 -52t55 -19q40 0 75.5 21z" />
    <glyph glyph-name="q" unicode="q" horiz-adv-x="682" 
d="M672 517l-143 -689h-193l47 224q-74 -64 -167 -64q-91 0 -144.5 58.5t-53.5 153.5q0 85 37.5 160.5t103 122t145.5 46.5q53 0 94 -21.5t66 -61.5l15 71h193zM374.5 183q39.5 35 52.5 83l2 12q2 12 2 20q0 33 -20 52t-54 19q-41 0 -76.5 -21t-57 -55t-21.5 -72
q0 -34 22 -53.5t62 -19.5q49 0 88.5 35z" />
    <glyph glyph-name="r" unicode="r" horiz-adv-x="431" 
d="M365 504.5q45 24.5 96 24.5l-21 -160q-74 0 -128.5 -42t-71.5 -111l-45 -216h-193l108 517h193l-17 -82q34 45 79 69.5z" />
    <glyph glyph-name="s" unicode="s" horiz-adv-x="506" 
d="M83.5 10.5q-62.5 22.5 -105.5 60.5l87 108q31 -25 76.5 -41t82.5 -16q32 0 51 11.5t19 28.5q0 7 -11 12.5t-49 14.5q-62 14 -97 27t-58 40.5t-23 75.5q0 57 32.5 102t88 70t121.5 25q110 0 210 -72l-80 -110q-28 22 -65 36.5t-65 14.5t-49 -13.5t-21 -28.5q0 -7 11 -12
t48 -14q60 -14 95.5 -27.5t59.5 -42.5t24 -79q0 -59 -33 -102.5t-90 -67t-127 -23.5t-132.5 22.5z" />
    <glyph glyph-name="t" unicode="t" horiz-adv-x="419" 
d="M291 365q-20 -96 -28.5 -138t-8.5 -52q0 -27 25 -27q15 0 32 6.5t25 14.5l15 -133q-27 -22 -64.5 -35t-74.5 -13q-66 0 -107.5 40.5t-41.5 103.5q0 18 10 70t34 163h-65l32 152h65l30 142h184l-30 -142h102l-32 -152h-102z" />
    <glyph glyph-name="u" unicode="u" horiz-adv-x="624" 
d="M623 517l-108 -517h-193l8 40q-27 -25 -63.5 -38.5t-77.5 -13.5q-75 0 -119.5 44.5t-44.5 115.5q0 21 8.5 64.5t27.5 131.5l36 173h184l-13 -60q-10 -47 -24.5 -117.5t-20.5 -101.5t-6 -38q0 -25 14 -38.5t38 -13.5q32 0 60 20.5t39 50.5l62 298h193z" />
    <glyph glyph-name="v" unicode="v" horiz-adv-x="637" 
d="M59 517h194l54 -296l177 296h202l-330 -517h-178z" />
    <glyph glyph-name="w" unicode="w" horiz-adv-x="850" 
d="M62 517h181l22 -258l132 258h158l21 -258l131 258h189l-284 -517h-171l-13 266l-125 -266h-171z" />
    <glyph glyph-name="x" unicode="x" horiz-adv-x="588" 
d="M626 517l-229 -253l127 -264h-199l-58 120l-109 -120h-204l242 267l-121 250h200l51 -107l97 107h203z" />
    <glyph glyph-name="y" unicode="y" horiz-adv-x="614" 
d="M39 -166.5q-44 13.5 -74 32.5l54 116q39 -25 66 -25q15 0 35.5 8t24.5 15l17 13l-98 524h193l38 -319l168 319h198l-305 -528q-48 -83 -109 -126t-126 -43q-38 0 -82 13.5z" />
    <glyph glyph-name="z" unicode="z" horiz-adv-x="558" 
d="M10 133l276 224h-220l33 160h472l-27 -133l-275 -224h230l-34 -160h-480z" />
    <glyph glyph-name="braceleft" unicode="{" horiz-adv-x="436" 
d="M126.5 -121.5q-54.5 37.5 -54.5 106.5q0 18 5.5 46t11.5 55q15 58 15 80q0 25 -17 35t-58 10l10 110q100 0 119 89l20 106q13 61 45 98.5t89.5 57.5t149.5 26l5 -115q-53 -6 -82.5 -17t-44.5 -29.5t-22 -51.5l-22 -115q-9 -44 -32.5 -69t-69.5 -40q27 -9 42.5 -31.5
t15.5 -54.5q0 -15 -5.5 -42.5t-11.5 -54.5q-15 -60 -15 -79q0 -18 9.5 -27.5t30 -15t63.5 -10.5l-27 -112q-115 7 -169.5 44.5z" />
    <glyph glyph-name="bar" unicode="|" horiz-adv-x="321" 
d="M197 743h129l-170 -817h-129z" />
    <glyph glyph-name="braceright" unicode="}" horiz-adv-x="436" 
d="M52.5 -35q29.5 11 45 30t22.5 52l23 114q9 44 32 69.5t70 40.5q-27 9 -42.5 31.5t-15.5 54.5q0 17 7.5 52.5t9.5 42.5q15 62 15 81q0 18 -9 27t-30 14.5t-64 10.5l26 112q115 -7 170 -44.5t55 -106.5q0 -24 -19 -106q-2 -7 -8 -35t-6 -40q0 -25 17 -34.5t59 -9.5
l-10 -110q-49 0 -79.5 -23t-39.5 -66l-20 -107q-13 -61 -44.5 -98t-89.5 -57t-151 -26l-5 114q52 6 81.5 17z" />
    <glyph glyph-name="asciitilde" unicode="~" horiz-adv-x="494" 
d="M288 297.5q-21 7.5 -46 20.5q-4 2 -14.5 7.5t-17.5 5.5q-19 0 -34 -13t-24 -36l-86 27q22 71 54.5 102.5t82.5 31.5q42 0 93 -29q22 -12 31 -12q19 0 34 13.5t24 35.5l87 -28q-22 -71 -54.5 -102t-82.5 -31q-26 0 -47 7.5z" />
    <glyph glyph-name="exclamdown" unicode="&#xa1;" horiz-adv-x="344" 
d="M285 499q29 -30 29 -75q0 -35 -18 -64t-48 -45.5t-63 -16.5q-44 0 -72.5 30t-28.5 73q0 34 17.5 63.5t46.5 47t61 17.5q47 0 76 -30zM-21 -170l128 413h130l-43 -413h-215z" />
    <glyph glyph-name="cent" unicode="&#xa2;" horiz-adv-x="627" 
d="M539 81q-83 -77 -189 -90l-13 -65h-110l14 70q-82 20 -132 82t-50 144q0 74 41 139.5t108.5 109t143.5 55.5l13 63h110l-14 -67q89 -19 141 -95l-140 -92q-11 16 -32 25t-42 9q-36 0 -70.5 -21.5t-56 -55.5t-21.5 -67t22 -55t56 -22q28 0 58.5 14t49.5 33z" />
    <glyph glyph-name="sterling" unicode="&#xa3;" horiz-adv-x="735" 
d="M332 143h318l-30 -143h-613l14 76l114 67l23 107h-74l19 87h73l28 134q14 68 55 119.5t100.5 80t128.5 28.5q73 0 137 -34.5t92 -85.5l-143 -109q-9 25 -29 39t-42 14q-40 0 -72 -26t-40 -62l-20 -98h137l-19 -87h-135z" />
    <glyph glyph-name="yen" unicode="&#xa5;" horiz-adv-x="815" 
d="M857 687l-288 -370h106l-18 -87h-156l-3 -4l-11 -49h159l-18 -87h-160l-20 -90h-194l20 90h-142l18 87h143l11 49l-1 4h-142l18 87h92l-135 370h180l106 -293l217 293h218z" />
    <glyph glyph-name="dieresis" unicode="&#xa8;" horiz-adv-x="440" 
d="M128 598q-22 23 -22 58q0 39 27.5 65.5t64.5 26.5q34 0 56.5 -24t22.5 -58q0 -38 -27.5 -64.5t-62.5 -26.5q-37 0 -59 23zM353.5 598.5q-22.5 23.5 -22.5 58.5q0 39 28 65t64 26q35 0 57 -23.5t22 -57.5q0 -39 -27 -65.5t-63 -26.5t-58.5 23.5z" />
    <glyph glyph-name="copyright" unicode="&#xa9;" horiz-adv-x="900" 
d="M202.5 -76.5q-73.5 39.5 -113.5 110t-40 160.5q0 126 67 237t179.5 177.5t241.5 66.5q97 0 170.5 -39t113 -109t39.5 -161q0 -41 -9 -86q-23 -111 -93 -201.5t-171.5 -142.5t-213.5 -52q-97 0 -170.5 39.5zM572 -27q90 46 152.5 126.5t82.5 180.5q7 36 7 75
q0 82 -35.5 145t-100 97.5t-150.5 34.5q-115 0 -215 -60t-159.5 -159t-59.5 -210q0 -81 35.5 -143.5t101 -97.5t151.5 -35q100 0 190 46zM292.5 40q-56.5 31 -88.5 84.5t-32 118.5q0 82 49.5 152.5t128 112.5t161.5 42q70 0 121 -27.5t83 -74.5l-140 -92q-11 16 -32 25
t-42 9q-36 0 -70.5 -21.5t-56 -55.5t-21.5 -67t22 -55t56 -22q28 0 58.5 14t49.5 33l113 -114q-99 -93 -232 -93q-71 0 -127.5 31z" />
    <glyph glyph-name="guillemotleft" unicode="&#xab;" horiz-adv-x="632" 
d="M26 256l207 206l140 -30l-177 -176l100 -177l-144 -31zM283 256l207 206l140 -30l-177 -176l100 -177l-144 -31z" />
    <glyph glyph-name="registered" unicode="&#xae;" horiz-adv-x="603" 
d="M492.5 649.5q45.5 -25.5 71 -70t25.5 -100.5q0 -74 -43.5 -142.5t-113.5 -110.5t-145 -42q-58 0 -104 25.5t-71.5 70.5t-25.5 101q0 75 43 143t113.5 109.5t146.5 41.5q58 0 103.5 -25.5zM417 260.5q58 34.5 93.5 91t35.5 119.5q0 46 -21 83t-58.5 58t-86.5 21
q-63 0 -121 -34.5t-94 -91t-36 -118.5q0 -46 21 -83.5t59 -58.5t87 -21q63 0 121 34.5zM451 556.5q28 -23.5 28 -60.5q0 -38 -24.5 -68.5t-62.5 -45.5l50 -102h-106l-45 91h-4l-19 -91h-95l62 300h143q45 0 73 -23.5zM305 458h48q11 0 19 6t8 15q0 7 -5 11t-15 4h-48z" />
    <glyph glyph-name="macron" unicode="&#xaf;" horiz-adv-x="443" 
d="M124 679h369l-22 -106h-369z" />
    <glyph glyph-name="degree" unicode="&#xb0;" horiz-adv-x="425" 
d="M155 430q-39 37 -39 93q0 50 22.5 90.5t62.5 63t90 22.5q59 0 98 -37t39 -93q0 -50 -22.5 -90.5t-62.5 -63t-90 -22.5q-59 0 -98 37zM312.5 506.5q21.5 21.5 21.5 53.5q0 20 -14 33.5t-35 13.5q-32 0 -53.5 -21.5t-21.5 -53.5q0 -20 14 -33.5t35 -13.5q32 0 53.5 21.5z
" />
    <glyph glyph-name="acute" unicode="&#xb4;" horiz-adv-x="303" 
d="M224 738l165 -28l-180 -136h-131z" />
    <glyph glyph-name="paragraph" unicode="&#xb6;" horiz-adv-x="782" 
d="M145 318.5q-56 46.5 -56 125.5q0 70 35.5 125t97.5 85t138 30h416l-153 -734h-137l126 606h-123l-126 -606h-137l73 322q-98 0 -154 46.5z" />
    <glyph glyph-name="periodcentered" unicode="&#xb7;" horiz-adv-x="294" 
d="M76 203.5q-26 26.5 -26 65.5q0 46 32.5 79t77.5 33q40 0 66.5 -27t26.5 -66q0 -45 -32.5 -78t-77.5 -33q-41 0 -67 26.5z" />
    <glyph glyph-name="cedilla" unicode="&#xb8;" horiz-adv-x="247" 
d="M134 -66.5q15 -17.5 15 -42.5q0 -44 -33.5 -67.5t-86.5 -23.5q-57 0 -101 34l35 59q19 -18 47 -18q25 0 41 9t16 23q0 15 -14 15q-18 0 -36 -13l-26 29l44 73h93l-35 -55q26 -5 41 -22.5z" />
    <glyph glyph-name="guillemotright" unicode="&#xbb;" horiz-adv-x="631" 
d="M0 79l178 177l-101 176l144 30l127 -206l-208 -208zM255 79l178 177l-101 176l144 30l127 -206l-208 -208z" />
    <glyph glyph-name="questiondown" unicode="&#xbf;" horiz-adv-x="534" 
d="M385 499q29 -30 29 -75q0 -35 -18 -64t-48 -45.5t-63 -16.5q-44 0 -72.5 30t-28.5 73q0 34 17.5 63.5t46.5 47t61 17.5q47 0 76 -30zM261.5 92.5q-35.5 -10.5 -58.5 -27.5t-23 -36q0 -38 58 -38q27 0 58.5 13t53.5 31l92 -119q-55 -47 -120.5 -72.5t-132.5 -25.5
q-94 0 -150.5 48t-56.5 126q0 55 26.5 102t71.5 79.5t99 45.5l7 34h176l-30 -150q-35 0 -70.5 -10.5z" />
    <glyph glyph-name="Agrave" unicode="&#xc0;" horiz-adv-x="767" 
d="M488 0l-16 92h-239l-54 -92h-223l407 687h222l-2 -4l120 -683h-215zM318 235h128l-29 167zM300 880l167 28l78 -164h-121z" />
    <glyph glyph-name="Aacute" unicode="&#xc1;" horiz-adv-x="767" 
d="M488 0l-16 92h-239l-54 -92h-223l407 687h222l-2 -4l120 -683h-215zM318 235h128l-29 167zM559 908l165 -28l-180 -136h-131z" />
    <glyph glyph-name="Acircumflex" unicode="&#xc2;" horiz-adv-x="767" 
d="M488 0l-16 92h-239l-54 -92h-223l407 687h222l-2 -4l120 -683h-215zM318 235h128l-29 167zM428 898h155l77 -154h-108l-58 67l-89 -67h-117z" />
    <glyph glyph-name="Atilde" unicode="&#xc3;" horiz-adv-x="767" 
d="M488 0l-16 92h-239l-54 -92h-223l407 687h222l-2 -4l120 -683h-215zM318 235h128l-29 167zM515 748.5q-21 7.5 -46 20.5q-4 2 -14.5 7.5t-17.5 5.5q-19 0 -34 -13t-24 -36l-86 27q22 71 54.5 102.5t82.5 31.5q42 0 93 -29q22 -12 31 -12q19 0 34 13.5t24 35.5l87 -28
q-22 -71 -54.5 -102t-82.5 -31q-26 0 -47 7.5z" />
    <glyph glyph-name="Adieresis" unicode="&#xc4;" horiz-adv-x="767" 
d="M488 0l-16 92h-239l-54 -92h-223l407 687h222l-2 -4l120 -683h-215zM318 235h128l-29 167zM323 768q-22 23 -22 58q0 39 27.5 65.5t64.5 26.5q34 0 56.5 -24t22.5 -58q0 -38 -27.5 -64.5t-62.5 -26.5q-37 0 -59 23zM548.5 768.5q-22.5 23.5 -22.5 58.5q0 39 28 65t64 26
q35 0 57 -23.5t22 -57.5q0 -39 -27 -65.5t-63 -26.5t-58.5 23.5z" />
    <glyph glyph-name="Aring" unicode="&#xc5;" horiz-adv-x="767" 
d="M488 0l-16 92h-239l-54 -92h-223l407 687h222l-2 -4l120 -683h-215zM318 235h128l-29 167zM410 772.5q-28 27.5 -28 68.5q0 38 21.5 72t56 54t71.5 20q43 0 71 -27.5t28 -68.5q0 -38 -21.5 -71.5t-56 -54t-71.5 -20.5q-43 0 -71 27.5zM537.5 835q18.5 18 18.5 41
q0 17 -11.5 28t-28.5 11q-23 0 -41.5 -17.5t-18.5 -40.5q0 -17 11 -28.5t29 -11.5q23 0 41.5 18z" />
    <glyph glyph-name="AE" unicode="&#xc6;" horiz-adv-x="1065" 
d="M493 687h608l-36 -173h-359l-15 -77h326l-36 -173h-327l-18 -91h358l-36 -173h-553l19 92h-171l-72 -92h-228zM454 235l32 153l-120 -153h88z" />
    <glyph glyph-name="Ccedilla" unicode="&#xc7;" horiz-adv-x="693" 
d="M525.5 27q-72.5 -31 -143.5 -38l-21 -33q26 -5 41 -22.5t15 -42.5q0 -44 -33.5 -67.5t-86.5 -23.5q-57 0 -101 34l35 59q19 -18 47 -18q25 0 41 9t16 23q0 15 -14 15q-18 0 -36 -13l-26 29l34 56q-71 13 -129 56t-91.5 108t-33.5 140q0 103 61 195.5t160.5 149
t208.5 56.5q85 0 157 -35t115 -91l-160 -114q-17 29 -48.5 46.5t-72.5 17.5q-56 0 -108 -32t-84 -83t-32 -106q0 -42 18.5 -73.5t48.5 -48t64 -16.5q39 0 84 21.5t76 54.5l123 -136q-52 -46 -124.5 -77z" />
    <glyph glyph-name="Egrave" unicode="&#xc8;" horiz-adv-x="672" 
d="M672 514h-359l-15 -77h326l-36 -173h-327l-18 -91h358l-36 -173h-553l143 687h553zM259 880l167 28l78 -164h-121z" />
    <glyph glyph-name="Eacute" unicode="&#xc9;" horiz-adv-x="672" 
d="M672 514h-359l-15 -77h326l-36 -173h-327l-18 -91h358l-36 -173h-553l143 687h553zM518 908l165 -28l-180 -136h-131z" />
    <glyph glyph-name="Ecircumflex" unicode="&#xca;" horiz-adv-x="672" 
d="M672 514h-359l-15 -77h326l-36 -173h-327l-18 -91h358l-36 -173h-553l143 687h553zM387 898h155l77 -154h-108l-58 67l-89 -67h-117z" />
    <glyph glyph-name="Edieresis" unicode="&#xcb;" horiz-adv-x="672" 
d="M672 514h-359l-15 -77h326l-36 -173h-327l-18 -91h358l-36 -173h-553l143 687h553zM282 768q-22 23 -22 58q0 39 27.5 65.5t64.5 26.5q34 0 56.5 -24t22.5 -58q0 -38 -27.5 -64.5t-62.5 -26.5q-37 0 -59 23zM507.5 768.5q-22.5 23.5 -22.5 58.5q0 39 28 65t64 26
q35 0 57 -23.5t22 -57.5q0 -39 -27 -65.5t-63 -26.5t-58.5 23.5z" />
    <glyph glyph-name="Igrave" unicode="&#xcc;" horiz-adv-x="326" 
d="M155 687h194l-143 -687h-194zM83 880l167 28l78 -164h-121z" />
    <glyph glyph-name="Iacute" unicode="&#xcd;" horiz-adv-x="330" 
d="M155 687h194l-143 -687h-194zM354 908l165 -28l-180 -136h-131z" />
    <glyph glyph-name="Icircumflex" unicode="&#xce;" horiz-adv-x="326" 
d="M155 687h194l-143 -687h-194zM211 898h155l77 -154h-108l-58 67l-89 -67h-117z" />
    <glyph glyph-name="Idieresis" unicode="&#xcf;" horiz-adv-x="326" 
d="M155 687h194l-143 -687h-194zM106 768q-22 23 -22 58q0 39 27.5 65.5t64.5 26.5q34 0 56.5 -24t22.5 -58q0 -38 -27.5 -64.5t-62.5 -26.5q-37 0 -59 23zM331.5 768.5q-22.5 23.5 -22.5 58.5q0 39 28 65t64 26q35 0 57 -23.5t22 -57.5q0 -39 -27 -65.5t-63 -26.5
t-58.5 23.5z" />
    <glyph glyph-name="Eth" unicode="&#xd0;" horiz-adv-x="794" 
d="M625 650.5q80 -36.5 124.5 -102t44.5 -148.5q0 -107 -65.5 -199t-176 -146.5t-238.5 -54.5h-263l54 258h-85l36 173h85l53 256h250q101 0 181 -36.5zM482 205.5q52 29.5 83 79.5t31 108q0 52 -40.5 85t-103.5 33h-100l-17 -80h120l-37 -173h-119l-17 -82h88
q60 0 112 29.5z" />
    <glyph glyph-name="Ntilde" unicode="&#xd1;" horiz-adv-x="788" 
d="M155 687h192l191 -368l79 368h194l-143 -687h-191l-192 368l-79 -368h-194zM528 748.5q-21 7.5 -46 20.5q-4 2 -14.5 7.5t-17.5 5.5q-19 0 -34 -13t-24 -36l-86 27q22 71 54.5 102.5t82.5 31.5q42 0 93 -29q22 -12 31 -12q19 0 34 13.5t24 35.5l87 -28
q-22 -71 -54.5 -102t-82.5 -31q-26 0 -47 7.5z" />
    <glyph glyph-name="Ograve" unicode="&#xd2;" horiz-adv-x="806" 
d="M196 27.5q-73 39.5 -114.5 108t-41.5 153.5q0 111 59.5 205t161 149.5t221.5 55.5q90 0 163 -39.5t115 -108t42 -152.5q0 -111 -59.5 -205.5t-161.5 -150t-222 -55.5q-90 0 -163 39.5zM486.5 195q53.5 31 84.5 83.5t31 113.5q0 56 -37.5 93.5t-93.5 37.5
q-62 0 -115.5 -31t-84.5 -83.5t-31 -113.5q0 -56 37.5 -93.5t93.5 -37.5q62 0 115.5 31zM318 880l167 28l78 -164h-121z" />
    <glyph glyph-name="Oacute" unicode="&#xd3;" horiz-adv-x="806" 
d="M196 27.5q-73 39.5 -114.5 108t-41.5 153.5q0 111 59.5 205t161 149.5t221.5 55.5q90 0 163 -39.5t115 -108t42 -152.5q0 -111 -59.5 -205.5t-161.5 -150t-222 -55.5q-90 0 -163 39.5zM486.5 195q53.5 31 84.5 83.5t31 113.5q0 56 -37.5 93.5t-93.5 37.5
q-62 0 -115.5 -31t-84.5 -83.5t-31 -113.5q0 -56 37.5 -93.5t93.5 -37.5q62 0 115.5 31zM577 908l165 -28l-180 -136h-131z" />
    <glyph glyph-name="Ocircumflex" unicode="&#xd4;" horiz-adv-x="806" 
d="M196 27.5q-73 39.5 -114.5 108t-41.5 153.5q0 111 59.5 205t161 149.5t221.5 55.5q90 0 163 -39.5t115 -108t42 -152.5q0 -111 -59.5 -205.5t-161.5 -150t-222 -55.5q-90 0 -163 39.5zM486.5 195q53.5 31 84.5 83.5t31 113.5q0 56 -37.5 93.5t-93.5 37.5
q-62 0 -115.5 -31t-84.5 -83.5t-31 -113.5q0 -56 37.5 -93.5t93.5 -37.5q62 0 115.5 31zM446 898h155l77 -154h-108l-58 67l-89 -67h-117z" />
    <glyph glyph-name="Otilde" unicode="&#xd5;" horiz-adv-x="806" 
d="M196 27.5q-73 39.5 -114.5 108t-41.5 153.5q0 111 59.5 205t161 149.5t221.5 55.5q90 0 163 -39.5t115 -108t42 -152.5q0 -111 -59.5 -205.5t-161.5 -150t-222 -55.5q-90 0 -163 39.5zM486.5 195q53.5 31 84.5 83.5t31 113.5q0 56 -37.5 93.5t-93.5 37.5
q-62 0 -115.5 -31t-84.5 -83.5t-31 -113.5q0 -56 37.5 -93.5t93.5 -37.5q62 0 115.5 31zM533 748.5q-21 7.5 -46 20.5q-4 2 -14.5 7.5t-17.5 5.5q-19 0 -34 -13t-24 -36l-86 27q22 71 54.5 102.5t82.5 31.5q42 0 93 -29q22 -12 31 -12q19 0 34 13.5t24 35.5l87 -28
q-22 -71 -54.5 -102t-82.5 -31q-26 0 -47 7.5z" />
    <glyph glyph-name="Odieresis" unicode="&#xd6;" horiz-adv-x="806" 
d="M196 27.5q-73 39.5 -114.5 108t-41.5 153.5q0 111 59.5 205t161 149.5t221.5 55.5q90 0 163 -39.5t115 -108t42 -152.5q0 -111 -59.5 -205.5t-161.5 -150t-222 -55.5q-90 0 -163 39.5zM486.5 195q53.5 31 84.5 83.5t31 113.5q0 56 -37.5 93.5t-93.5 37.5
q-62 0 -115.5 -31t-84.5 -83.5t-31 -113.5q0 -56 37.5 -93.5t93.5 -37.5q62 0 115.5 31zM341 768q-22 23 -22 58q0 39 27.5 65.5t64.5 26.5q34 0 56.5 -24t22.5 -58q0 -38 -27.5 -64.5t-62.5 -26.5q-37 0 -59 23zM566.5 768.5q-22.5 23.5 -22.5 58.5q0 39 28 65t64 26
q35 0 57 -23.5t22 -57.5q0 -39 -27 -65.5t-63 -26.5t-58.5 23.5z" />
    <glyph glyph-name="multiply" unicode="&#xd7;" horiz-adv-x="558" 
d="M550 457l-145 -121l98 -122l-132 -113l-99 123l-144 -120l-89 106l146 122l-98 122l132 113l99 -123l143 119z" />
    <glyph glyph-name="Oslash" unicode="&#xd8;" horiz-adv-x="817" 
d="M751 572q55 -77 55 -173q0 -111 -59.5 -205.5t-161.5 -150t-222 -55.5q-95 0 -172 44l-33 -32h-165l112 108q-29 37 -45 83.5t-16 97.5q0 111 59.5 205t161 149.5t221.5 55.5q100 0 181 -49l39 37h165zM252 249l274 265q-24 9 -51 9q-62 0 -115.5 -31t-84.5 -83.5
t-31 -113.5q0 -24 8 -46zM602 427l-268 -257q20 -6 41 -6q62 0 115.5 31t84.5 83.5t31 113.5q0 13 -4 35z" />
    <glyph glyph-name="Ugrave" unicode="&#xd9;" horiz-adv-x="750" 
d="M182 20.5q-63 32.5 -97 90t-34 132.5q0 36 7 70l78 374h194l-79 -380q-5 -25 -5 -42q0 -47 25.5 -74t70.5 -27q62 0 113.5 46t65.5 113l75 364h194l-81 -390q-19 -92 -73 -162t-134 -108.5t-172 -38.5q-85 0 -148 32.5zM279 880l167 28l78 -164h-121z" />
    <glyph glyph-name="Uacute" unicode="&#xda;" horiz-adv-x="750" 
d="M182 20.5q-63 32.5 -97 90t-34 132.5q0 36 7 70l78 374h194l-79 -380q-5 -25 -5 -42q0 -47 25.5 -74t70.5 -27q62 0 113.5 46t65.5 113l75 364h194l-81 -390q-19 -92 -73 -162t-134 -108.5t-172 -38.5q-85 0 -148 32.5zM538 908l165 -28l-180 -136h-131z" />
    <glyph glyph-name="Ucircumflex" unicode="&#xdb;" horiz-adv-x="750" 
d="M182 20.5q-63 32.5 -97 90t-34 132.5q0 36 7 70l78 374h194l-79 -380q-5 -25 -5 -42q0 -47 25.5 -74t70.5 -27q62 0 113.5 46t65.5 113l75 364h194l-81 -390q-19 -92 -73 -162t-134 -108.5t-172 -38.5q-85 0 -148 32.5zM407 898h155l77 -154h-108l-58 67l-89 -67h-117z
" />
    <glyph glyph-name="Udieresis" unicode="&#xdc;" horiz-adv-x="750" 
d="M182 20.5q-63 32.5 -97 90t-34 132.5q0 36 7 70l78 374h194l-79 -380q-5 -25 -5 -42q0 -47 25.5 -74t70.5 -27q62 0 113.5 46t65.5 113l75 364h194l-81 -390q-19 -92 -73 -162t-134 -108.5t-172 -38.5q-85 0 -148 32.5zM302 768q-22 23 -22 58q0 39 27.5 65.5t64.5 26.5
q34 0 56.5 -24t22.5 -58q0 -38 -27.5 -64.5t-62.5 -26.5q-37 0 -59 23zM527.5 768.5q-22.5 23.5 -22.5 58.5q0 39 28 65t64 26q35 0 57 -23.5t22 -57.5q0 -39 -27 -65.5t-63 -26.5t-58.5 23.5z" />
    <glyph glyph-name="Yacute" unicode="&#xdd;" horiz-adv-x="735" 
d="M264 226l-168 461h180l106 -293l217 293h218l-359 -461l-50 -226h-194zM528 908l165 -28l-180 -136h-131z" />
    <glyph glyph-name="Thorn" unicode="&#xde;" horiz-adv-x="678" 
d="M344 687l-21 -102h134q66 0 116.5 -25t78 -70.5t27.5 -104.5q0 -80 -41 -144t-112 -100t-156 -36h-142l-22 -105h-194l143 687h189zM427 294q24 13 38.5 33.5t14.5 41.5q0 19 -16.5 29.5t-46.5 10.5h-125l-27 -128h113q25 0 49 13z" />
    <glyph glyph-name="germandbls" unicode="&#xdf;" horiz-adv-x="650" 
d="M171.5 628.5q41.5 45.5 104 70.5t137.5 25q71 0 124.5 -23t82.5 -64.5t29 -94.5q0 -62 -34 -111.5t-96 -76.5q43 -20 68 -58.5t25 -86.5q0 -64 -37.5 -111.5t-100 -72.5t-135.5 -25h-69l34 163h24q32 0 59.5 20.5t33.5 49.5q4 19 -11.5 29.5t-46.5 10.5h-36l31 147h-5
q22 0 43 11t34 28.5t13 33.5q0 15 -12.5 23t-37.5 8q-35 0 -63 -20t-34 -49l-95 -455h-193l109 522q13 61 54.5 106.5z" />
    <glyph glyph-name="agrave" unicode="&#xe0;" horiz-adv-x="673" 
d="M672 517l-108 -517h-193l11 51q-74 -63 -166 -63q-91 0 -144.5 58.5t-53.5 153.5q0 85 37.5 160.5t103 122t145.5 46.5q53 0 94 -21.5t66 -61.5l15 71h193zM373 181q39 33 52 80l5 22q1 5 1 15q0 33 -20 52t-54 19q-41 0 -76.5 -21t-57 -55t-21.5 -72q0 -34 22 -53.5
t62 -19.5q48 0 87 33zM226 710l167 28l78 -164h-121z" />
    <glyph glyph-name="aacute" unicode="&#xe1;" horiz-adv-x="673" 
d="M672 517l-108 -517h-193l11 51q-74 -63 -166 -63q-91 0 -144.5 58.5t-53.5 153.5q0 85 37.5 160.5t103 122t145.5 46.5q53 0 94 -21.5t66 -61.5l15 71h193zM373 181q39 33 52 80l5 22q1 5 1 15q0 33 -20 52t-54 19q-41 0 -76.5 -21t-57 -55t-21.5 -72q0 -34 22 -53.5
t62 -19.5q48 0 87 33zM485 738l165 -28l-180 -136h-131z" />
    <glyph glyph-name="acircumflex" unicode="&#xe2;" horiz-adv-x="673" 
d="M672 517l-108 -517h-193l11 51q-74 -63 -166 -63q-91 0 -144.5 58.5t-53.5 153.5q0 85 37.5 160.5t103 122t145.5 46.5q53 0 94 -21.5t66 -61.5l15 71h193zM373 181q39 33 52 80l5 22q1 5 1 15q0 33 -20 52t-54 19q-41 0 -76.5 -21t-57 -55t-21.5 -72q0 -34 22 -53.5
t62 -19.5q48 0 87 33zM354 728h155l77 -154h-108l-58 67l-89 -67h-117z" />
    <glyph glyph-name="atilde" unicode="&#xe3;" horiz-adv-x="673" 
d="M672 517l-108 -517h-193l11 51q-74 -63 -166 -63q-91 0 -144.5 58.5t-53.5 153.5q0 85 37.5 160.5t103 122t145.5 46.5q53 0 94 -21.5t66 -61.5l15 71h193zM373 181q39 33 52 80l5 22q1 5 1 15q0 33 -20 52t-54 19q-41 0 -76.5 -21t-57 -55t-21.5 -72q0 -34 22 -53.5
t62 -19.5q48 0 87 33zM441 578.5q-21 7.5 -46 20.5q-4 2 -14.5 7.5t-17.5 5.5q-19 0 -34 -13t-24 -36l-86 27q22 71 54.5 102.5t82.5 31.5q42 0 93 -29q22 -12 31 -12q19 0 34 13.5t24 35.5l87 -28q-22 -71 -54.5 -102t-82.5 -31q-26 0 -47 7.5z" />
    <glyph glyph-name="adieresis" unicode="&#xe4;" horiz-adv-x="673" 
d="M672 517l-108 -517h-193l11 51q-74 -63 -166 -63q-91 0 -144.5 58.5t-53.5 153.5q0 85 37.5 160.5t103 122t145.5 46.5q53 0 94 -21.5t66 -61.5l15 71h193zM373 181q39 33 52 80l5 22q1 5 1 15q0 33 -20 52t-54 19q-41 0 -76.5 -21t-57 -55t-21.5 -72q0 -34 22 -53.5
t62 -19.5q48 0 87 33zM249 598q-22 23 -22 58q0 39 27.5 65.5t64.5 26.5q34 0 56.5 -24t22.5 -58q0 -38 -27.5 -64.5t-62.5 -26.5q-37 0 -59 23zM474.5 598.5q-22.5 23.5 -22.5 58.5q0 39 28 65t64 26q35 0 57 -23.5t22 -57.5q0 -39 -27 -65.5t-63 -26.5t-58.5 23.5z" />
    <glyph glyph-name="aring" unicode="&#xe5;" horiz-adv-x="673" 
d="M672 517l-108 -517h-193l11 51q-74 -63 -166 -63q-91 0 -144.5 58.5t-53.5 153.5q0 85 37.5 160.5t103 122t145.5 46.5q53 0 94 -21.5t66 -61.5l15 71h193zM373 181q39 33 52 80l5 22q1 5 1 15q0 33 -20 52t-54 19q-41 0 -76.5 -21t-57 -55t-21.5 -72q0 -34 22 -53.5
t62 -19.5q48 0 87 33zM336 602.5q-28 27.5 -28 68.5q0 38 21.5 72t56 54t71.5 20q43 0 71 -27.5t28 -68.5q0 -38 -21.5 -71.5t-56 -54t-71.5 -20.5q-43 0 -71 27.5zM463.5 665q18.5 18 18.5 41q0 17 -11.5 28t-28.5 11q-23 0 -41.5 -17.5t-18.5 -40.5q0 -17 11 -28.5
t29 -11.5q23 0 41.5 18z" />
    <glyph glyph-name="ae" unicode="&#xe6;" horiz-adv-x="865" 
d="M799 257.5q-67 -44.5 -189 -44.5h-104q0 -38 20 -59.5t55 -21.5q63 0 131 48l93 -117q-41 -34 -103 -54.5t-118 -20.5q-58 0 -105 18t-78 51q-72 -69 -202 -69q-62 0 -109 19t-72.5 52.5t-25.5 76.5q0 16 3 32q10 46 45 82t87.5 55.5t111.5 19.5t115 -28l3 16q2 12 2 15
q0 25 -20.5 36.5t-61.5 11.5q-66 0 -134 -33l-48 128q66 30 115 44t106 14q51 0 91 -16.5t64 -46.5q41 30 90 46.5t103 16.5q58 0 104 -18t72 -50t26 -73q0 -86 -67 -130.5zM592.5 365.5q-31.5 -19.5 -53.5 -51.5h92q37 0 58.5 12t21.5 33q0 11 -14.5 18.5t-37.5 7.5
q-35 0 -66.5 -19.5zM333 195q-24 13 -67 13q-32 0 -57.5 -19t-31.5 -46q-3 -14 8 -22.5t32 -8.5q45 0 75.5 17t35.5 42z" />
    <glyph glyph-name="ccedilla" unicode="&#xe7;" horiz-adv-x="540" 
d="M289 -11l-21 -33q26 -5 41 -22.5t15 -42.5q0 -44 -33.5 -67.5t-86.5 -23.5q-57 0 -101 34l35 59q19 -18 47 -18q25 0 41 9t16 23q0 15 -14 15q-18 0 -36 -13l-26 29l34 57q-83 19 -133.5 81.5t-50.5 145.5q0 82 49.5 152.5t128 112.5t161.5 42q70 0 121 -27.5t83 -74.5
l-140 -92q-11 16 -32 25t-42 9q-36 0 -70.5 -21.5t-56 -55.5t-21.5 -67t22 -55t56 -22q28 0 58.5 14t49.5 33l113 -114q-91 -85 -207 -92z" />
    <glyph glyph-name="egrave" unicode="&#xe8;" horiz-adv-x="539" 
d="M472.5 255q-67.5 -46 -188.5 -42h-104q0 -38 20 -59.5t55 -21.5q63 0 131 48l93 -117q-41 -34 -103 -54.5t-118 -20.5q-73 0 -127.5 28t-83.5 78t-29 116q0 87 42.5 160.5t116 116t161.5 42.5q58 0 104 -18t72 -50t26 -73q0 -87 -67.5 -133zM266.5 365.5
q-31.5 -19.5 -53.5 -51.5h92q37 0 58 12t22 33q0 11 -14.5 18.5t-37.5 7.5q-35 0 -66.5 -19.5zM174 710l167 28l78 -164h-121z" />
    <glyph glyph-name="eacute" unicode="&#xe9;" horiz-adv-x="539" 
d="M472.5 255q-67.5 -46 -188.5 -42h-104q0 -38 20 -59.5t55 -21.5q63 0 131 48l93 -117q-41 -34 -103 -54.5t-118 -20.5q-73 0 -127.5 28t-83.5 78t-29 116q0 87 42.5 160.5t116 116t161.5 42.5q58 0 104 -18t72 -50t26 -73q0 -87 -67.5 -133zM266.5 365.5
q-31.5 -19.5 -53.5 -51.5h92q37 0 58 12t22 33q0 11 -14.5 18.5t-37.5 7.5q-35 0 -66.5 -19.5zM433 738l165 -28l-180 -136h-131z" />
    <glyph glyph-name="ecircumflex" unicode="&#xea;" horiz-adv-x="539" 
d="M472.5 255q-67.5 -46 -188.5 -42h-104q0 -38 20 -59.5t55 -21.5q63 0 131 48l93 -117q-41 -34 -103 -54.5t-118 -20.5q-73 0 -127.5 28t-83.5 78t-29 116q0 87 42.5 160.5t116 116t161.5 42.5q58 0 104 -18t72 -50t26 -73q0 -87 -67.5 -133zM266.5 365.5
q-31.5 -19.5 -53.5 -51.5h92q37 0 58 12t22 33q0 11 -14.5 18.5t-37.5 7.5q-35 0 -66.5 -19.5zM302 728h155l77 -154h-108l-58 67l-89 -67h-117z" />
    <glyph glyph-name="edieresis" unicode="&#xeb;" horiz-adv-x="539" 
d="M472.5 255q-67.5 -46 -188.5 -42h-104q0 -38 20 -59.5t55 -21.5q63 0 131 48l93 -117q-41 -34 -103 -54.5t-118 -20.5q-73 0 -127.5 28t-83.5 78t-29 116q0 87 42.5 160.5t116 116t161.5 42.5q58 0 104 -18t72 -50t26 -73q0 -87 -67.5 -133zM266.5 365.5
q-31.5 -19.5 -53.5 -51.5h92q37 0 58 12t22 33q0 11 -14.5 18.5t-37.5 7.5q-35 0 -66.5 -19.5zM197 598q-22 23 -22 58q0 39 27.5 65.5t64.5 26.5q34 0 56.5 -24t22.5 -58q0 -38 -27.5 -64.5t-62.5 -26.5q-37 0 -59 23zM422.5 598.5q-22.5 23.5 -22.5 58.5q0 39 28 65t64 26
q35 0 57 -23.5t22 -57.5q0 -39 -27 -65.5t-63 -26.5t-58.5 23.5z" />
    <glyph glyph-name="igrave" unicode="&#xec;" horiz-adv-x="305" 
d="M110 517h193l-108 -517h-193zM38 710l167 28l78 -164h-121z" />
    <glyph glyph-name="iacute" unicode="&#xed;" horiz-adv-x="305" 
d="M110 517h193l-108 -517h-193zM297 738l165 -28l-180 -136h-131z" />
    <glyph glyph-name="icircumflex" unicode="&#xee;" horiz-adv-x="305" 
d="M110 517h193l-108 -517h-193zM166 728h155l77 -154h-108l-58 67l-89 -67h-117z" />
    <glyph glyph-name="idieresis" unicode="&#xef;" horiz-adv-x="305" 
d="M110 517h193l-108 -517h-193zM61 598q-22 23 -22 58q0 39 27.5 65.5t64.5 26.5q34 0 56.5 -24t22.5 -58q0 -38 -27.5 -64.5t-62.5 -26.5q-37 0 -59 23zM286.5 598.5q-22.5 23.5 -22.5 58.5q0 39 28 65t64 26q35 0 57 -23.5t22 -57.5q0 -39 -27 -65.5t-63 -26.5
t-58.5 23.5z" />
    <glyph glyph-name="eth" unicode="&#xf0;" horiz-adv-x="613" 
d="M573.5 488.5q27.5 -61.5 27.5 -130.5q0 -100 -44.5 -185t-122.5 -135t-174 -50q-74 0 -129.5 27t-85.5 76.5t-30 113.5q0 75 34.5 141t94.5 106t132 40q48 0 80 -17.5t60 -47.5q-14 65 -75 128l-106 -44l-23 88l53 22l-58 43l172 63l43 -41l97 40l23 -88l-53 -22
q57 -66 84.5 -127.5zM337.5 167q31.5 18 50.5 47.5t19 62.5q0 28 -19.5 44.5t-54.5 16.5q-36 0 -67.5 -18.5t-50.5 -47.5t-19 -61q0 -29 19.5 -45.5t54.5 -16.5q36 0 67.5 18z" />
    <glyph glyph-name="ntilde" unicode="&#xf1;" 
d="M555.5 484.5q44.5 -44.5 44.5 -115.5q0 -21 -8.5 -64.5t-27.5 -131.5l-36 -173h-184l13 60q10 47 24.5 117.5t20.5 101.5t6 38q0 25 -14 38.5t-38 13.5q-32 0 -60 -20.5t-39 -50.5l-62 -298h-193l108 517h193l-8 -40q27 25 63.5 38.5t77.5 13.5q75 0 119.5 -44.5z
M418 578.5q-21 7.5 -46 20.5q-4 2 -14.5 7.5t-17.5 5.5q-19 0 -34 -13t-24 -36l-86 27q22 71 54.5 102.5t82.5 31.5q42 0 93 -29q22 -12 31 -12q19 0 34 13.5t24 35.5l87 -28q-22 -71 -54.5 -102t-82.5 -31q-26 0 -47 7.5z" />
    <glyph glyph-name="ograve" unicode="&#xf2;" 
d="M138 17.5q-57 29.5 -89 82.5t-32 122q0 83 46 153.5t124 112t170 41.5q74 0 131 -29.5t89 -82.5t32 -121q0 -83 -46 -154t-124 -112.5t-170 -41.5q-74 0 -131 29.5zM352.5 167.5q34.5 19.5 54.5 53t20 72.5q0 34 -21.5 55t-56.5 21q-41 0 -75.5 -19.5t-54.5 -52.5
t-20 -72q0 -34 22 -55.5t57 -21.5q40 0 74.5 19.5zM194 710l167 28l78 -164h-121z" />
    <glyph glyph-name="oacute" unicode="&#xf3;" 
d="M138 17.5q-57 29.5 -89 82.5t-32 122q0 83 46 153.5t124 112t170 41.5q74 0 131 -29.5t89 -82.5t32 -121q0 -83 -46 -154t-124 -112.5t-170 -41.5q-74 0 -131 29.5zM352.5 167.5q34.5 19.5 54.5 53t20 72.5q0 34 -21.5 55t-56.5 21q-41 0 -75.5 -19.5t-54.5 -52.5
t-20 -72q0 -34 22 -55.5t57 -21.5q40 0 74.5 19.5zM453 738l165 -28l-180 -136h-131z" />
    <glyph glyph-name="ocircumflex" unicode="&#xf4;" 
d="M138 17.5q-57 29.5 -89 82.5t-32 122q0 83 46 153.5t124 112t170 41.5q74 0 131 -29.5t89 -82.5t32 -121q0 -83 -46 -154t-124 -112.5t-170 -41.5q-74 0 -131 29.5zM352.5 167.5q34.5 19.5 54.5 53t20 72.5q0 34 -21.5 55t-56.5 21q-41 0 -75.5 -19.5t-54.5 -52.5
t-20 -72q0 -34 22 -55.5t57 -21.5q40 0 74.5 19.5zM322 728h155l77 -154h-108l-58 67l-89 -67h-117z" />
    <glyph glyph-name="otilde" unicode="&#xf5;" 
d="M138 17.5q-57 29.5 -89 82.5t-32 122q0 83 46 153.5t124 112t170 41.5q74 0 131 -29.5t89 -82.5t32 -121q0 -83 -46 -154t-124 -112.5t-170 -41.5q-74 0 -131 29.5zM352.5 167.5q34.5 19.5 54.5 53t20 72.5q0 34 -21.5 55t-56.5 21q-41 0 -75.5 -19.5t-54.5 -52.5
t-20 -72q0 -34 22 -55.5t57 -21.5q40 0 74.5 19.5zM409 578.5q-21 7.5 -46 20.5q-4 2 -14.5 7.5t-17.5 5.5q-19 0 -34 -13t-24 -36l-86 27q22 71 54.5 102.5t82.5 31.5q42 0 93 -29q22 -12 31 -12q19 0 34 13.5t24 35.5l87 -28q-22 -71 -54.5 -102t-82.5 -31q-26 0 -47 7.5z
" />
    <glyph glyph-name="odieresis" unicode="&#xf6;" 
d="M138 17.5q-57 29.5 -89 82.5t-32 122q0 83 46 153.5t124 112t170 41.5q74 0 131 -29.5t89 -82.5t32 -121q0 -83 -46 -154t-124 -112.5t-170 -41.5q-74 0 -131 29.5zM352.5 167.5q34.5 19.5 54.5 53t20 72.5q0 34 -21.5 55t-56.5 21q-41 0 -75.5 -19.5t-54.5 -52.5
t-20 -72q0 -34 22 -55.5t57 -21.5q40 0 74.5 19.5zM217 598q-22 23 -22 58q0 39 27.5 65.5t64.5 26.5q34 0 56.5 -24t22.5 -58q0 -38 -27.5 -64.5t-62.5 -26.5q-37 0 -59 23zM442.5 598.5q-22.5 23.5 -22.5 58.5q0 39 28 65t64 26q35 0 57 -23.5t22 -57.5q0 -39 -27 -65.5
t-63 -26.5t-58.5 23.5z" />
    <glyph glyph-name="divide" unicode="&#xf7;" horiz-adv-x="595" 
d="M284.5 468.5q-25.5 26.5 -25.5 65.5q0 45 32.5 74.5t74.5 29.5q38 0 62.5 -26t24.5 -64q0 -43 -31 -74.5t-72 -31.5q-40 0 -65.5 26.5zM79 409h499l-31 -149h-499zM199 56q-25 26 -25 65q0 46 31.5 75.5t74.5 29.5q38 0 63 -26t25 -63q0 -28 -14.5 -53t-38.5 -39.5
t-51 -14.5q-40 0 -65 26z" />
    <glyph glyph-name="oslash" unicode="&#xf8;" horiz-adv-x="642" 
d="M574 432q42 -58 42 -136q0 -83 -46 -154t-124 -112.5t-170 -41.5q-78 0 -142 35l-25 -23h-125l86 80q-46 58 -46 142q0 83 46 153.5t124 112t170 41.5q86 0 148 -39l30 27h124zM208 207l171 159q-10 3 -23 3q-41 0 -75.5 -19.5t-54.5 -52.5t-20 -72q0 -6 2 -18zM434 301
l-164 -152q5 -1 15 -1q40 0 74.5 19.5t54.5 53t20 72.5v8z" />
    <glyph glyph-name="ugrave" unicode="&#xf9;" horiz-adv-x="624" 
d="M623 517l-108 -517h-193l8 40q-27 -25 -63.5 -38.5t-77.5 -13.5q-75 0 -119.5 44.5t-44.5 115.5q0 21 8.5 64.5t27.5 131.5l36 173h184l-13 -60q-10 -47 -24.5 -117.5t-20.5 -101.5t-6 -38q0 -25 14 -38.5t38 -13.5q32 0 60 20.5t39 50.5l62 298h193zM186 710l167 28
l78 -164h-121z" />
    <glyph glyph-name="uacute" unicode="&#xfa;" horiz-adv-x="624" 
d="M623 517l-108 -517h-193l8 40q-27 -25 -63.5 -38.5t-77.5 -13.5q-75 0 -119.5 44.5t-44.5 115.5q0 21 8.5 64.5t27.5 131.5l36 173h184l-13 -60q-10 -47 -24.5 -117.5t-20.5 -101.5t-6 -38q0 -25 14 -38.5t38 -13.5q32 0 60 20.5t39 50.5l62 298h193zM445 738l165 -28
l-180 -136h-131z" />
    <glyph glyph-name="ucircumflex" unicode="&#xfb;" horiz-adv-x="624" 
d="M623 517l-108 -517h-193l8 40q-27 -25 -63.5 -38.5t-77.5 -13.5q-75 0 -119.5 44.5t-44.5 115.5q0 21 8.5 64.5t27.5 131.5l36 173h184l-13 -60q-10 -47 -24.5 -117.5t-20.5 -101.5t-6 -38q0 -25 14 -38.5t38 -13.5q32 0 60 20.5t39 50.5l62 298h193zM314 728h155
l77 -154h-108l-58 67l-89 -67h-117z" />
    <glyph glyph-name="udieresis" unicode="&#xfc;" horiz-adv-x="624" 
d="M623 517l-108 -517h-193l8 40q-27 -25 -63.5 -38.5t-77.5 -13.5q-75 0 -119.5 44.5t-44.5 115.5q0 21 8.5 64.5t27.5 131.5l36 173h184l-13 -60q-10 -47 -24.5 -117.5t-20.5 -101.5t-6 -38q0 -25 14 -38.5t38 -13.5q32 0 60 20.5t39 50.5l62 298h193zM209 598
q-22 23 -22 58q0 39 27.5 65.5t64.5 26.5q34 0 56.5 -24t22.5 -58q0 -38 -27.5 -64.5t-62.5 -26.5q-37 0 -59 23zM434.5 598.5q-22.5 23.5 -22.5 58.5q0 39 28 65t64 26q35 0 57 -23.5t22 -57.5q0 -39 -27 -65.5t-63 -26.5t-58.5 23.5z" />
    <glyph glyph-name="yacute" unicode="&#xfd;" horiz-adv-x="614" 
d="M39 -166.5q-44 13.5 -74 32.5l54 116q39 -25 66 -25q15 0 35.5 8t24.5 15l17 13l-98 524h193l38 -319l168 319h198l-305 -528q-48 -83 -109 -126t-126 -43q-38 0 -82 13.5zM453 738l165 -28l-180 -136h-131z" />
    <glyph glyph-name="thorn" unicode="&#xfe;" horiz-adv-x="691" 
d="M619.5 471q53.5 -58 53.5 -153q0 -85 -37 -161.5t-102.5 -122.5t-146.5 -46q-54 0 -95.5 22t-65.5 62l-51 -244h-193l181 871h193l-49 -236q35 32 78 49t90 17q91 0 144.5 -58zM410.5 169q35.5 21 57 55.5t21.5 71.5q0 34 -22 53.5t-61 19.5t-72.5 -22t-53.5 -57t-20 -71
q0 -33 20 -52t55 -19q40 0 75.5 21z" />
    <glyph glyph-name="ydieresis" unicode="&#xff;" horiz-adv-x="614" 
d="M39 -166.5q-44 13.5 -74 32.5l54 116q39 -25 66 -25q15 0 35.5 8t24.5 15l17 13l-98 524h193l38 -319l168 319h198l-305 -528q-48 -83 -109 -126t-126 -43q-38 0 -82 13.5zM217 598q-22 23 -22 58q0 39 27.5 65.5t64.5 26.5q34 0 56.5 -24t22.5 -58q0 -38 -27.5 -64.5
t-62.5 -26.5q-37 0 -59 23zM442.5 598.5q-22.5 23.5 -22.5 58.5q0 39 28 65t64 26q35 0 57 -23.5t22 -57.5q0 -39 -27 -65.5t-63 -26.5t-58.5 23.5z" />
    <glyph glyph-name="Amacron" unicode="&#x100;" horiz-adv-x="767" 
d="M488 0l-16 92h-239l-54 -92h-223l407 687h222l-2 -4l120 -683h-215zM318 235h128l-29 167zM318 849h369l-22 -106h-369z" />
    <glyph glyph-name="amacron" unicode="&#x101;" horiz-adv-x="673" 
d="M672 517l-108 -517h-193l11 51q-74 -63 -166 -63q-91 0 -144.5 58.5t-53.5 153.5q0 85 37.5 160.5t103 122t145.5 46.5q53 0 94 -21.5t66 -61.5l15 71h193zM373 181q39 33 52 80l5 22q1 5 1 15q0 33 -20 52t-54 19q-41 0 -76.5 -21t-57 -55t-21.5 -72q0 -34 22 -53.5
t62 -19.5q48 0 87 33zM244 679h369l-22 -106h-369z" />
    <glyph glyph-name="Abreve" unicode="&#x102;" horiz-adv-x="767" 
d="M488 0l-16 92h-239l-54 -92h-223l407 687h222l-2 -4l120 -683h-215zM318 235h128l-29 167zM393.5 763q-40.5 18 -68.5 53l89 74q17 -20 40 -31.5t48 -11.5q26 0 54 11.5t52 31.5l59 -74q-42 -35 -90.5 -53t-95.5 -18t-87.5 18z" />
    <glyph glyph-name="abreve" unicode="&#x103;" horiz-adv-x="673" 
d="M672 517l-108 -517h-193l11 51q-74 -63 -166 -63q-91 0 -144.5 58.5t-53.5 153.5q0 85 37.5 160.5t103 122t145.5 46.5q53 0 94 -21.5t66 -61.5l15 71h193zM373 181q39 33 52 80l5 22q1 5 1 15q0 33 -20 52t-54 19q-41 0 -76.5 -21t-57 -55t-21.5 -72q0 -34 22 -53.5
t62 -19.5q48 0 87 33zM319.5 593q-40.5 18 -68.5 53l89 74q17 -20 40 -31.5t48 -11.5q26 0 54 11.5t52 31.5l59 -74q-42 -35 -90.5 -53t-95.5 -18t-87.5 18z" />
    <glyph glyph-name="Aogonek" unicode="&#x104;" horiz-adv-x="767" 
d="M724 -143q-39 -30 -91 -30q-47 0 -74 26.5t-27 73.5q0 42 22 73h-66l-16 92h-239l-54 -92h-223l407 687h222l-2 -4l120 -683q-22 0 -39 -13.5t-17 -31.5q0 -21 20 -21q28 0 44 16zM318 235h128l-29 167z" />
    <glyph glyph-name="aogonek" unicode="&#x105;" horiz-adv-x="673" 
d="M572 -50l13 -93q-39 -30 -91 -30q-47 0 -74 26.5t-27 73.5q0 42 22 73h-44l11 51q-74 -63 -166 -63q-91 0 -144.5 58.5t-53.5 153.5q0 85 37.5 160.5t103 122t145.5 46.5q53 0 94 -21.5t66 -61.5l15 71h193l-108 -517q-22 0 -39 -13.5t-17 -31.5q0 -21 20 -21q28 0 44 16
zM373 181q39 33 52 80l5 22q1 5 1 15q0 33 -20 52t-54 19q-41 0 -76.5 -21t-57 -55t-21.5 -72q0 -34 22 -53.5t62 -19.5q48 0 87 33z" />
    <glyph glyph-name="Cacute" unicode="&#x106;" horiz-adv-x="693" 
d="M196 29q-72 41 -114.5 112t-42.5 157q0 103 61 195.5t160.5 149t208.5 56.5q85 0 157 -35t115 -91l-160 -114q-17 29 -48.5 46.5t-72.5 17.5q-56 0 -108 -32t-84 -83t-32 -106q0 -42 18.5 -73.5t48.5 -48t64 -16.5q39 0 84 21.5t76 54.5l123 -136q-57 -51 -140 -83.5
t-158 -32.5q-84 0 -156 41zM570 908l165 -28l-180 -136h-131z" />
    <glyph glyph-name="cacute" unicode="&#x107;" horiz-adv-x="540" 
d="M136.5 19q-56.5 31 -88.5 84.5t-32 118.5q0 82 49.5 152.5t128 112.5t161.5 42q70 0 121 -27.5t83 -74.5l-140 -92q-11 16 -32 25t-42 9q-36 0 -70.5 -21.5t-56 -55.5t-21.5 -67t22 -55t56 -22q28 0 58.5 14t49.5 33l113 -114q-99 -93 -232 -93q-71 0 -127.5 31zM430 738
l165 -28l-180 -136h-131z" />
    <glyph glyph-name="Ccaron" unicode="&#x10c;" horiz-adv-x="693" 
d="M196 29q-72 41 -114.5 112t-42.5 157q0 103 61 195.5t160.5 149t208.5 56.5q85 0 157 -35t115 -91l-160 -114q-17 29 -48.5 46.5t-72.5 17.5q-56 0 -108 -32t-84 -83t-32 -106q0 -42 18.5 -73.5t48.5 -48t64 -16.5q39 0 84 21.5t76 54.5l123 -136q-57 -51 -140 -83.5
t-158 -32.5q-84 0 -156 41zM344 898h108l57 -67l90 67h117l-141 -154h-155z" />
    <glyph glyph-name="ccaron" unicode="&#x10d;" horiz-adv-x="540" 
d="M136.5 19q-56.5 31 -88.5 84.5t-32 118.5q0 82 49.5 152.5t128 112.5t161.5 42q70 0 121 -27.5t83 -74.5l-140 -92q-11 16 -32 25t-42 9q-36 0 -70.5 -21.5t-56 -55.5t-21.5 -67t22 -55t56 -22q28 0 58.5 14t49.5 33l113 -114q-99 -93 -232 -93q-71 0 -127.5 31zM204 728
h108l57 -67l90 67h117l-141 -154h-155z" />
    <glyph glyph-name="Dcaron" unicode="&#x10e;" horiz-adv-x="755" 
d="M405 687q101 0 181 -36.5t124.5 -102t44.5 -148.5q0 -107 -65.5 -199t-176 -146.5t-238.5 -54.5h-263l143 687h250zM443 205.5q52 29.5 83 79.5t31 108q0 52 -40.5 85t-103.5 33h-100l-70 -335h88q60 0 112 29.5zM269 898h108l57 -67l90 67h117l-141 -154h-155z" />
    <glyph glyph-name="dcaron" unicode="&#x10f;" horiz-adv-x="865" 
d="M517 699h193l-145 -699h-193l11 52q-74 -64 -167 -64q-91 0 -144.5 58.5t-53.5 153.5q0 85 37.5 160.5t103 122t145.5 46.5q53 0 94.5 -21.5t66.5 -61.5zM906 673q21 -26 21 -68q0 -53 -34 -101.5t-89 -87.5l-48 46q42 28 73 72q-34 0 -50.5 20t-16.5 53q0 37 26.5 64.5
t61.5 27.5t56 -26zM224 167.5q22 -19.5 62 -19.5q39 0 72 22t53 57t20 71q0 33 -20 52t-54 19q-41 0 -76.5 -21t-57 -55t-21.5 -72q0 -34 22 -53.5z" />
    <glyph glyph-name="Dcroat" unicode="&#x110;" horiz-adv-x="794" 
d="M625 650.5q80 -36.5 124.5 -102t44.5 -148.5q0 -107 -65.5 -199t-176 -146.5t-238.5 -54.5h-263l54 258h-85l36 173h85l53 256h250q101 0 181 -36.5zM482 205.5q52 29.5 83 79.5t31 108q0 52 -40.5 85t-103.5 33h-100l-17 -80h120l-37 -173h-119l-17 -82h88
q60 0 112 29.5z" />
    <glyph glyph-name="dcroat" unicode="&#x111;" horiz-adv-x="695" 
d="M744 565h-62l-117 -565h-193l11 52q-74 -64 -167 -64q-91 0 -144.5 58.5t-53.5 153.5q0 85 37.5 160.5t103 122t145.5 46.5q53 0 94.5 -21.5t66.5 -61.5l24 119h-135l19 90h135l9 44h193l-9 -44h62zM224 167.5q22 -19.5 62 -19.5q39 0 72 22t53 57t20 71q0 33 -20 52
t-54 19q-41 0 -76.5 -21t-57 -55t-21.5 -72q0 -34 22 -53.5z" />
    <glyph glyph-name="Emacron" unicode="&#x112;" horiz-adv-x="672" 
d="M672 514h-359l-15 -77h326l-36 -173h-327l-18 -91h358l-36 -173h-553l143 687h553zM277 849h369l-22 -106h-369z" />
    <glyph glyph-name="emacron" unicode="&#x113;" horiz-adv-x="539" 
d="M472.5 255q-67.5 -46 -188.5 -42h-104q0 -38 20 -59.5t55 -21.5q63 0 131 48l93 -117q-41 -34 -103 -54.5t-118 -20.5q-73 0 -127.5 28t-83.5 78t-29 116q0 87 42.5 160.5t116 116t161.5 42.5q58 0 104 -18t72 -50t26 -73q0 -87 -67.5 -133zM266.5 365.5
q-31.5 -19.5 -53.5 -51.5h92q37 0 58 12t22 33q0 11 -14.5 18.5t-37.5 7.5q-35 0 -66.5 -19.5zM192 679h369l-22 -106h-369z" />
    <glyph glyph-name="Edotaccent" unicode="&#x116;" horiz-adv-x="672" 
d="M672 514h-359l-15 -77h326l-36 -173h-327l-18 -91h358l-36 -173h-553l143 687h553zM394 768q-22 23 -22 58q0 39 27.5 65.5t64.5 26.5q34 0 56.5 -24t22.5 -58q0 -38 -27.5 -64.5t-62.5 -26.5q-37 0 -59 23z" />
    <glyph glyph-name="edotaccent" unicode="&#x117;" horiz-adv-x="539" 
d="M472.5 255q-67.5 -46 -188.5 -42h-104q0 -38 20 -59.5t55 -21.5q63 0 131 48l93 -117q-41 -34 -103 -54.5t-118 -20.5q-73 0 -127.5 28t-83.5 78t-29 116q0 87 42.5 160.5t116 116t161.5 42.5q58 0 104 -18t72 -50t26 -73q0 -87 -67.5 -133zM266.5 365.5
q-31.5 -19.5 -53.5 -51.5h92q37 0 58 12t22 33q0 11 -14.5 18.5t-37.5 7.5q-35 0 -66.5 -19.5zM309 598q-22 23 -22 58q0 39 27.5 65.5t64.5 26.5q34 0 56.5 -24t22.5 -58q0 -38 -27.5 -64.5t-62.5 -26.5q-37 0 -59 23z" />
    <glyph glyph-name="Eogonek" unicode="&#x118;" horiz-adv-x="672" 
d="M313 514l-15 -77h326l-36 -173h-327l-18 -91h358l-36 -173q-22 0 -39 -13.5t-17 -31.5q0 -21 20 -21q28 0 44 16l13 -93q-39 -30 -91 -30q-47 0 -74 26.5t-27 73.5q0 42 22 73h-404l143 687h553l-36 -173h-359z" />
    <glyph glyph-name="eogonek" unicode="&#x119;" horiz-adv-x="539" 
d="M472.5 255q-67.5 -46 -188.5 -42h-104q0 -38 20 -59.5t55 -21.5q63 0 131 48l93 -117q-41 -34 -103 -54.5t-118 -20.5q-22 0 -39 -13.5t-17 -31.5q0 -21 20 -21q28 0 44 16l13 -93q-39 -30 -91 -30q-47 0 -74 26.5t-27 73.5q0 60 46 100q-55 27 -85 77.5t-30 117.5
q0 87 42.5 160.5t116 116t161.5 42.5q58 0 104 -18t72 -50t26 -73q0 -87 -67.5 -133zM266.5 365.5q-31.5 -19.5 -53.5 -51.5h92q37 0 58 12t22 33q0 11 -14.5 18.5t-37.5 7.5q-35 0 -66.5 -19.5z" />
    <glyph glyph-name="Ecaron" unicode="&#x11a;" horiz-adv-x="672" 
d="M672 514h-359l-15 -77h326l-36 -173h-327l-18 -91h358l-36 -173h-553l143 687h553zM292 898h108l57 -67l90 67h117l-141 -154h-155z" />
    <glyph glyph-name="ecaron" unicode="&#x11b;" horiz-adv-x="539" 
d="M472.5 255q-67.5 -46 -188.5 -42h-104q0 -38 20 -59.5t55 -21.5q63 0 131 48l93 -117q-41 -34 -103 -54.5t-118 -20.5q-73 0 -127.5 28t-83.5 78t-29 116q0 87 42.5 160.5t116 116t161.5 42.5q58 0 104 -18t72 -50t26 -73q0 -87 -67.5 -133zM266.5 365.5
q-31.5 -19.5 -53.5 -51.5h92q37 0 58 12t22 33q0 11 -14.5 18.5t-37.5 7.5q-35 0 -66.5 -19.5zM207 728h108l57 -67l90 67h117l-141 -154h-155z" />
    <glyph glyph-name="Gbreve" unicode="&#x11e;" horiz-adv-x="728" 
d="M398 396h322l-61 -292q-64 -57 -143 -86.5t-157 -29.5q-92 0 -165 40t-114.5 109t-41.5 153q0 107 64.5 201.5t167.5 151t212 56.5q84 0 154 -34t114 -92l-160 -114q-18 32 -49.5 48t-69.5 16q-58 0 -113 -34t-89 -86.5t-34 -106.5q0 -57 38 -94.5t98 -37.5t119 38l10 51
h-132zM408.5 763q-40.5 18 -68.5 53l89 74q17 -20 40 -31.5t48 -11.5q26 0 54 11.5t52 31.5l59 -74q-42 -35 -90.5 -53t-95.5 -18t-87.5 18z" />
    <glyph glyph-name="gbreve" unicode="&#x11f;" horiz-adv-x="659" 
d="M654 517l-98 -470q-14 -66 -60 -116t-115.5 -76.5t-151.5 -26.5q-73 0 -134.5 20.5t-100.5 52.5l81 124q18 -18 54.5 -27.5t74.5 -9.5q62 0 109 25t55 60l5 23q-35 -29 -77 -43.5t-84 -14.5q-56 0 -98.5 25.5t-66 70.5t-23.5 104q0 73 35.5 140.5t96 109t131.5 41.5
q53 0 97 -23t62 -57l14 68h194zM365 224q36 26 47 63l3 15q1 3 1 10q0 27 -17.5 42t-48.5 15q-32 0 -62 -16t-48.5 -42t-18.5 -55t18 -43.5t48 -14.5q42 0 78 26zM310.5 593q-40.5 18 -68.5 53l89 74q17 -20 40 -31.5t48 -11.5q26 0 54 11.5t52 31.5l59 -74
q-42 -35 -90.5 -53t-95.5 -18t-87.5 18z" />
    <glyph glyph-name="uni0122" unicode="&#x122;" horiz-adv-x="728" 
d="M398 396h322l-61 -292q-64 -57 -143 -86.5t-157 -29.5q-92 0 -165 40t-114.5 109t-41.5 153q0 107 64.5 201.5t167.5 151t212 56.5q84 0 154 -34t114 -92l-160 -114q-18 32 -49.5 48t-69.5 16q-58 0 -113 -34t-89 -86.5t-34 -106.5q0 -57 38 -94.5t98 -37.5t119 38l10 51
h-132zM328 -188q-34 0 -50.5 20t-16.5 53q0 37 26.5 64.5t61.5 27.5t56 -26t21 -68q0 -53 -34 -101.5t-89 -87.5l-48 46q42 28 73 72z" />
    <glyph glyph-name="uni0123" unicode="&#x123;" horiz-adv-x="659" 
d="M352 600q-21 26 -21 68q0 53 34 101.5t89 87.5l48 -46q-42 -28 -73 -72q34 0 50.5 -20t16.5 -53q0 -37 -26.5 -64.5t-61.5 -27.5t-56 26zM654 517l-98 -470q-14 -66 -60 -116t-115.5 -76.5t-151.5 -26.5q-73 0 -134.5 20.5t-100.5 52.5l81 124q18 -18 54.5 -27.5
t74.5 -9.5q62 0 109 25t55 60l5 23q-35 -29 -77 -43.5t-84 -14.5q-56 0 -98.5 25.5t-66 70.5t-23.5 104q0 73 35.5 140.5t96 109t131.5 41.5q53 0 97 -23t62 -57l14 68h194zM365 224q36 26 47 63l3 15q1 3 1 10q0 27 -17.5 42t-48.5 15q-32 0 -62 -16t-48.5 -42t-18.5 -55
t18 -43.5t48 -14.5q42 0 78 26z" />
    <glyph glyph-name="Imacron" unicode="&#x12a;" horiz-adv-x="326" 
d="M155 687h194l-143 -687h-194zM101 849h369l-22 -106h-369z" />
    <glyph glyph-name="imacron" unicode="&#x12b;" horiz-adv-x="305" 
d="M110 517h193l-108 -517h-193zM56 679h369l-22 -106h-369z" />
    <glyph glyph-name="Iogonek" unicode="&#x12e;" horiz-adv-x="326" 
d="M214 -50l13 -93q-39 -30 -91 -30q-47 0 -74 26.5t-27 73.5q0 42 22 73h-45l143 687h194l-143 -687q-22 0 -39 -13.5t-17 -31.5q0 -21 20 -21q28 0 44 16z" />
    <glyph glyph-name="iogonek" unicode="&#x12f;" horiz-adv-x="305" 
d="M173 598q-22 23 -22 58q0 39 27.5 65.5t64.5 26.5q34 0 56.5 -24t22.5 -58q0 -38 -27.5 -64.5t-62.5 -26.5q-37 0 -59 23zM156 -13.5q-17 -13.5 -17 -31.5q0 -21 20 -21q28 0 44 16l13 -93q-39 -30 -91 -30q-47 0 -74 26.5t-27 73.5q0 42 22 73h-44l108 517h193
l-108 -517q-22 0 -39 -13.5z" />
    <glyph glyph-name="Idotaccent" unicode="&#x130;" horiz-adv-x="326" 
d="M155 687h194l-143 -687h-194zM218 768q-22 23 -22 58q0 39 27.5 65.5t64.5 26.5q34 0 56.5 -24t22.5 -58q0 -38 -27.5 -64.5t-62.5 -26.5q-37 0 -59 23z" />
    <glyph glyph-name="dotlessi" unicode="&#x131;" horiz-adv-x="305" 
d="M110 517h193l-108 -517h-193z" />
    <glyph glyph-name="uni0136" unicode="&#x136;" horiz-adv-x="744" 
d="M155 687h194l-52 -243l268 243h247l-321 -292l187 -395h-221l-121 260l-89 -78l-41 -182h-194zM304 -188q-34 0 -50.5 20t-16.5 53q0 37 26.5 64.5t61.5 27.5t56 -26t21 -68q0 -53 -34 -101.5t-89 -87.5l-48 46q42 28 73 72z" />
    <glyph glyph-name="uni0137" unicode="&#x137;" horiz-adv-x="616" 
d="M155 699h193l-74 -356l164 174h220l-229 -223l121 -294h-211l-57 171l-54 -51l-25 -120h-193zM245 -188q-34 0 -50.5 20t-16.5 53q0 37 26.5 64.5t61.5 27.5t56 -26t21 -68q0 -53 -34 -101.5t-89 -87.5l-48 46q42 28 73 72z" />
    <glyph glyph-name="Lacute" unicode="&#x139;" horiz-adv-x="600" 
d="M244 173h318l-36 -173h-514l143 687h194zM338 908l165 -28l-180 -136h-131z" />
    <glyph glyph-name="lacute" unicode="&#x13a;" horiz-adv-x="321" 
d="M155 699h193l-145 -699h-193zM340 920l165 -28l-180 -136h-131z" />
    <glyph glyph-name="Lcaron" unicode="&#x13d;" horiz-adv-x="600" 
d="M244 173h318l-36 -173h-514l143 687h194zM457 533q-34 0 -50.5 20t-16.5 53q0 37 26.5 64.5t61.5 27.5t56 -26t21 -68q0 -53 -34 -101.5t-89 -87.5l-48 46q42 28 73 72z" />
    <glyph glyph-name="lcaron" unicode="&#x13e;" horiz-adv-x="500" 
d="M155 699h193l-145 -699h-193zM464 534q-34 0 -50.5 20t-16.5 53q0 37 26.5 64.5t61.5 27.5t56 -26t21 -68q0 -53 -34 -101.5t-89 -87.5l-48 46q42 28 73 72z" />
    <glyph glyph-name="Lslash" unicode="&#x141;" horiz-adv-x="635" 
d="M279 173h318l-36 -173h-514l45 217l-87 -39l32 167l90 40l63 302h194l-42 -206l99 44l-33 -167l-100 -45z" />
    <glyph glyph-name="lslash" unicode="&#x142;" horiz-adv-x="388" 
d="M419 517l-33 -167l-81 -36l-65 -314h-193l45 218l-89 -40l32 167l92 41l65 313h193l-45 -217z" />
    <glyph glyph-name="Nacute" unicode="&#x143;" horiz-adv-x="788" 
d="M155 687h192l191 -368l79 368h194l-143 -687h-191l-192 368l-79 -368h-194zM572 908l165 -28l-180 -136h-131z" />
    <glyph glyph-name="nacute" unicode="&#x144;" 
d="M555.5 484.5q44.5 -44.5 44.5 -115.5q0 -21 -8.5 -64.5t-27.5 -131.5l-36 -173h-184l13 60q10 47 24.5 117.5t20.5 101.5t6 38q0 25 -14 38.5t-38 13.5q-32 0 -60 -20.5t-39 -50.5l-62 -298h-193l108 517h193l-8 -40q27 25 63.5 38.5t77.5 13.5q75 0 119.5 -44.5z
M462 738l165 -28l-180 -136h-131z" />
    <glyph glyph-name="uni0145" unicode="&#x145;" horiz-adv-x="788" 
d="M155 687h192l191 -368l79 368h194l-143 -687h-191l-192 368l-79 -368h-194zM315 -188q-34 0 -50.5 20t-16.5 53q0 37 26.5 64.5t61.5 27.5t56 -26t21 -68q0 -53 -34 -101.5t-89 -87.5l-48 46q42 28 73 72z" />
    <glyph glyph-name="uni0146" unicode="&#x146;" 
d="M555.5 484.5q44.5 -44.5 44.5 -115.5q0 -21 -8.5 -64.5t-27.5 -131.5l-36 -173h-184l13 60q10 47 24.5 117.5t20.5 101.5t6 38q0 25 -14 38.5t-38 13.5q-32 0 -60 -20.5t-39 -50.5l-62 -298h-193l108 517h193l-8 -40q27 25 63.5 38.5t77.5 13.5q75 0 119.5 -44.5z
M241 -188q-34 0 -50.5 20t-16.5 53q0 37 26.5 64.5t61.5 27.5t56 -26t21 -68q0 -53 -34 -101.5t-89 -87.5l-48 46q42 28 73 72z" />
    <glyph glyph-name="Ncaron" unicode="&#x147;" horiz-adv-x="788" 
d="M155 687h192l191 -368l79 368h194l-143 -687h-191l-192 368l-79 -368h-194zM346 898h108l57 -67l90 67h117l-141 -154h-155z" />
    <glyph glyph-name="ncaron" unicode="&#x148;" 
d="M555.5 484.5q44.5 -44.5 44.5 -115.5q0 -21 -8.5 -64.5t-27.5 -131.5l-36 -173h-184l13 60q10 47 24.5 117.5t20.5 101.5t6 38q0 25 -14 38.5t-38 13.5q-32 0 -60 -20.5t-39 -50.5l-62 -298h-193l108 517h193l-8 -40q27 25 63.5 38.5t77.5 13.5q75 0 119.5 -44.5z
M236 728h108l57 -67l90 67h117l-141 -154h-155z" />
    <glyph glyph-name="Omacron" unicode="&#x14c;" horiz-adv-x="806" 
d="M196 27.5q-73 39.5 -114.5 108t-41.5 153.5q0 111 59.5 205t161 149.5t221.5 55.5q90 0 163 -39.5t115 -108t42 -152.5q0 -111 -59.5 -205.5t-161.5 -150t-222 -55.5q-90 0 -163 39.5zM486.5 195q53.5 31 84.5 83.5t31 113.5q0 56 -37.5 93.5t-93.5 37.5
q-62 0 -115.5 -31t-84.5 -83.5t-31 -113.5q0 -56 37.5 -93.5t93.5 -37.5q62 0 115.5 31zM336 849h369l-22 -106h-369z" />
    <glyph glyph-name="omacron" unicode="&#x14d;" 
d="M138 17.5q-57 29.5 -89 82.5t-32 122q0 83 46 153.5t124 112t170 41.5q74 0 131 -29.5t89 -82.5t32 -121q0 -83 -46 -154t-124 -112.5t-170 -41.5q-74 0 -131 29.5zM352.5 167.5q34.5 19.5 54.5 53t20 72.5q0 34 -21.5 55t-56.5 21q-41 0 -75.5 -19.5t-54.5 -52.5
t-20 -72q0 -34 22 -55.5t57 -21.5q40 0 74.5 19.5zM212 679h369l-22 -106h-369z" />
    <glyph glyph-name="Ohungarumlaut" unicode="&#x150;" horiz-adv-x="806" 
d="M196 27.5q-73 39.5 -114.5 108t-41.5 153.5q0 111 59.5 205t161 149.5t221.5 55.5q90 0 163 -39.5t115 -108t42 -152.5q0 -111 -59.5 -205.5t-161.5 -150t-222 -55.5q-90 0 -163 39.5zM486.5 195q53.5 31 84.5 83.5t31 113.5q0 56 -37.5 93.5t-93.5 37.5
q-62 0 -115.5 -31t-84.5 -83.5t-31 -113.5q0 -56 37.5 -93.5t93.5 -37.5q62 0 115.5 31zM449 908l165 -28l-180 -136h-131zM707 908l165 -28l-180 -136h-131z" />
    <glyph glyph-name="ohungarumlaut" unicode="&#x151;" 
d="M138 17.5q-57 29.5 -89 82.5t-32 122q0 83 46 153.5t124 112t170 41.5q74 0 131 -29.5t89 -82.5t32 -121q0 -83 -46 -154t-124 -112.5t-170 -41.5q-74 0 -131 29.5zM352.5 167.5q34.5 19.5 54.5 53t20 72.5q0 34 -21.5 55t-56.5 21q-41 0 -75.5 -19.5t-54.5 -52.5
t-20 -72q0 -34 22 -55.5t57 -21.5q40 0 74.5 19.5zM325 738l165 -28l-180 -136h-131zM583 738l165 -28l-180 -136h-131z" />
    <glyph glyph-name="OE" unicode="&#x152;" horiz-adv-x="1044" 
d="M100 488.5q63 91.5 165.5 145t214.5 53.5h600l-36 -173h-359l-15 -77h326l-36 -173h-327l-18 -91h358l-36 -173h-587q-88 0 -159.5 38t-112.5 104.5t-41 148.5q0 106 63 197.5zM273.5 209.5q38.5 -33.5 100.5 -33.5h47l69 335h-34q-54 0 -105.5 -30.5t-83.5 -80.5
t-32 -103q0 -54 38.5 -87.5z" />
    <glyph glyph-name="oe" unicode="&#x153;" horiz-adv-x="951" 
d="M596 213l-3 -11q3 -33 22.5 -51.5t51.5 -18.5q63 0 131 48l93 -117q-41 -34 -103 -54.5t-118 -20.5q-59 0 -106 18.5t-79 52.5q-45 -34 -100.5 -52.5t-115.5 -18.5q-74 0 -131 29.5t-89 82.5t-32 122q0 83 46 153.5t124 112t170 41.5q59 0 107 -18.5t82 -53.5
q42 34 94 53t110 19t104 -18t72 -50t26 -73q0 -87 -67.5 -133t-188.5 -42h-100zM678.5 365.5q-31.5 -19.5 -53.5 -51.5h92q37 0 58 12t22 33q0 11 -14.5 18.5t-37.5 7.5q-35 0 -66.5 -19.5zM352.5 167.5q34.5 19.5 54.5 53t20 72.5q0 34 -21.5 55t-56.5 21
q-41 0 -75.5 -19.5t-54.5 -52.5t-20 -72q0 -34 22 -55.5t57 -21.5q40 0 74.5 19.5z" />
    <glyph glyph-name="Racute" unicode="&#x154;" horiz-adv-x="716" 
d="M648.5 328q-51.5 -69 -136.5 -100l138 -228h-216l-125 207h-59l-44 -207h-194l143 687h323q66 0 116.5 -25t78 -70.5t27.5 -104.5q0 -90 -51.5 -159zM286 383h113q25 0 49 13t39 33.5t15 41.5q0 19 -16.5 29.5t-47.5 10.5h-125zM537 908l165 -28l-180 -136h-131z" />
    <glyph glyph-name="racute" unicode="&#x155;" horiz-adv-x="431" 
d="M365 504.5q45 24.5 96 24.5l-21 -160q-74 0 -128.5 -42t-71.5 -111l-45 -216h-193l108 517h193l-17 -82q34 45 79 69.5zM370 738l165 -28l-180 -136h-131z" />
    <glyph glyph-name="uni0156" unicode="&#x156;" horiz-adv-x="716" 
d="M648.5 328q-51.5 -69 -136.5 -100l138 -228h-216l-125 207h-59l-44 -207h-194l143 687h323q66 0 116.5 -25t78 -70.5t27.5 -104.5q0 -90 -51.5 -159zM286 383h113q25 0 49 13t39 33.5t15 41.5q0 19 -16.5 29.5t-47.5 10.5h-125zM281 -188q-34 0 -50.5 20t-16.5 53
q0 37 26.5 64.5t61.5 27.5t56 -26t21 -68q0 -53 -34 -101.5t-89 -87.5l-48 46q42 28 73 72z" />
    <glyph glyph-name="uni0157" unicode="&#x157;" horiz-adv-x="431" 
d="M365 504.5q45 24.5 96 24.5l-21 -160q-74 0 -128.5 -42t-71.5 -111l-45 -216h-193l108 517h193l-17 -82q34 45 79 69.5zM149 -188q-34 0 -50.5 20t-16.5 53q0 37 26.5 64.5t61.5 27.5t56 -26t21 -68q0 -53 -34 -101.5t-89 -87.5l-48 46q42 28 73 72z" />
    <glyph glyph-name="Rcaron" unicode="&#x158;" horiz-adv-x="716" 
d="M648.5 328q-51.5 -69 -136.5 -100l138 -228h-216l-125 207h-59l-44 -207h-194l143 687h323q66 0 116.5 -25t78 -70.5t27.5 -104.5q0 -90 -51.5 -159zM286 383h113q25 0 49 13t39 33.5t15 41.5q0 19 -16.5 29.5t-47.5 10.5h-125zM311 898h108l57 -67l90 67h117l-141 -154
h-155z" />
    <glyph glyph-name="rcaron" unicode="&#x159;" horiz-adv-x="431" 
d="M365 504.5q45 24.5 96 24.5l-21 -160q-74 0 -128.5 -42t-71.5 -111l-45 -216h-193l108 517h193l-17 -82q34 45 79 69.5zM144 728h108l57 -67l90 67h117l-141 -154h-155z" />
    <glyph glyph-name="Sacute" unicode="&#x15a;" horiz-adv-x="650" 
d="M120 20q-81 32 -135 89l126 119q42 -39 94 -59t102 -20q54 0 84.5 21t30.5 46q0 10 -6 15.5t-24 11t-44 11.5l-24 6q-83 21 -129 39t-75.5 53.5t-29.5 95.5q0 70 39.5 127.5t111.5 90.5t165 33q79 0 148.5 -25t120.5 -73l-116 -128q-39 34 -85.5 49.5t-85.5 15.5
q-46 0 -73 -21t-27 -46q0 -12 9 -19t27 -12.5t63 -15.5q86 -20 135 -41.5t73 -55t24 -87.5q0 -75 -43 -132t-117.5 -88.5t-165.5 -31.5q-92 0 -173 32zM507 908l165 -28l-180 -136h-131z" />
    <glyph glyph-name="sacute" unicode="&#x15b;" horiz-adv-x="506" 
d="M83.5 10.5q-62.5 22.5 -105.5 60.5l87 108q31 -25 76.5 -41t82.5 -16q32 0 51 11.5t19 28.5q0 7 -11 12.5t-49 14.5q-62 14 -97 27t-58 40.5t-23 75.5q0 57 32.5 102t88 70t121.5 25q110 0 210 -72l-80 -110q-28 22 -65 36.5t-65 14.5t-49 -13.5t-21 -28.5q0 -7 11 -12
t48 -14q60 -14 95.5 -27.5t59.5 -42.5t24 -79q0 -59 -33 -102.5t-90 -67t-127 -23.5t-132.5 22.5zM400 738l165 -28l-180 -136h-131z" />
    <glyph glyph-name="Scedilla" unicode="&#x15e;" horiz-adv-x="650" 
d="M522 382.5q49 -21.5 73 -55t24 -87.5q0 -71 -39.5 -126.5t-107.5 -87.5t-153 -37l-21 -33q26 -5 41 -22.5t15 -42.5q0 -44 -33.5 -67.5t-86.5 -23.5q-57 0 -101 34l35 59q19 -18 47 -18q25 0 41 9t16 23q0 15 -14 15q-18 0 -36 -13l-26 29l33 54q-74 10 -137 40t-107 77
l126 119q42 -39 94 -59t102 -20q54 0 84.5 21t30.5 46q0 10 -6 15.5t-24 11t-44 11.5l-24 6q-83 21 -129 39t-75.5 53.5t-29.5 95.5q0 70 39.5 127.5t111.5 90.5t165 33q79 0 148.5 -25t120.5 -73l-116 -128q-39 34 -85.5 49.5t-85.5 15.5q-46 0 -73 -21t-27 -46
q0 -12 9 -19t27 -12.5t63 -15.5q86 -20 135 -41.5z" />
    <glyph glyph-name="scedilla" unicode="&#x15f;" horiz-adv-x="506" 
d="M382.5 302.5q35.5 -13.5 59.5 -42.5t24 -79q0 -82 -62.5 -133.5t-159.5 -58.5l-21 -33q26 -5 41 -22.5t15 -42.5q0 -44 -33.5 -67.5t-86.5 -23.5q-57 0 -101 34l35 59q19 -18 47 -18q25 0 41 9t16 23q0 15 -14 15q-18 0 -36 -13l-26 29l33 55q-52 8 -97.5 28.5
t-78.5 49.5l87 108q31 -25 76.5 -41t82.5 -16q32 0 51 11.5t19 28.5q0 7 -11 12.5t-49 14.5q-62 14 -97 27t-58 40.5t-23 75.5q0 57 32.5 102t88 70t121.5 25q110 0 210 -72l-80 -110q-28 22 -65 36.5t-65 14.5t-49 -13.5t-21 -28.5q0 -7 11 -12t48 -14q60 -14 95.5 -27.5z
" />
    <glyph glyph-name="Scaron" unicode="&#x160;" horiz-adv-x="650" 
d="M120 20q-81 32 -135 89l126 119q42 -39 94 -59t102 -20q54 0 84.5 21t30.5 46q0 10 -6 15.5t-24 11t-44 11.5l-24 6q-83 21 -129 39t-75.5 53.5t-29.5 95.5q0 70 39.5 127.5t111.5 90.5t165 33q79 0 148.5 -25t120.5 -73l-116 -128q-39 34 -85.5 49.5t-85.5 15.5
q-46 0 -73 -21t-27 -46q0 -12 9 -19t27 -12.5t63 -15.5q86 -20 135 -41.5t73 -55t24 -87.5q0 -75 -43 -132t-117.5 -88.5t-165.5 -31.5q-92 0 -173 32zM281 898h108l57 -67l90 67h117l-141 -154h-155z" />
    <glyph glyph-name="scaron" unicode="&#x161;" horiz-adv-x="506" 
d="M83.5 10.5q-62.5 22.5 -105.5 60.5l87 108q31 -25 76.5 -41t82.5 -16q32 0 51 11.5t19 28.5q0 7 -11 12.5t-49 14.5q-62 14 -97 27t-58 40.5t-23 75.5q0 57 32.5 102t88 70t121.5 25q110 0 210 -72l-80 -110q-28 22 -65 36.5t-65 14.5t-49 -13.5t-21 -28.5q0 -7 11 -12
t48 -14q60 -14 95.5 -27.5t59.5 -42.5t24 -79q0 -59 -33 -102.5t-90 -67t-127 -23.5t-132.5 22.5zM174 728h108l57 -67l90 67h117l-141 -154h-155z" />
    <glyph glyph-name="uni0162" unicode="&#x162;" horiz-adv-x="640" 
d="M709 687l-36 -173h-203l-107 -514h-54l-28 -44q26 -5 41 -22.5t15 -42.5q0 -44 -33.5 -67.5t-86.5 -23.5q-57 0 -101 34l35 59q19 -18 47 -18q25 0 41 9t16 23q0 15 -14 15q-18 0 -36 -13l-26 29l37 62h-47l107 514h-203l36 173h600z" />
    <glyph glyph-name="uni0163" unicode="&#x163;" horiz-adv-x="419" 
d="M291 365q-20 -96 -28.5 -138t-8.5 -52q0 -27 25 -27q15 0 32 6.5t25 14.5l15 -133q-22 -18 -52 -30t-61 -16l-22 -34q26 -5 41 -22.5t15 -42.5q0 -44 -33.5 -67.5t-86.5 -23.5q-57 0 -101 34l35 59q19 -18 47 -18q25 0 41 9t16 23q0 15 -14 15q-18 0 -36 -13l-26 29
l37 61q-41 16 -64.5 51t-23.5 82q0 18 10 70t34 163h-65l32 152h65l30 142h184l-30 -142h102l-32 -152h-102z" />
    <glyph glyph-name="Tcaron" unicode="&#x164;" horiz-adv-x="640" 
d="M276 514h-203l36 173h600l-36 -173h-203l-107 -514h-194zM273 898h108l57 -67l90 67h117l-141 -154h-155z" />
    <glyph glyph-name="tcaron" unicode="&#x165;" horiz-adv-x="611" 
d="M652 673q21 -26 21 -68q0 -53 -34 -101.5t-89 -87.5l-48 46q42 28 73 72q-34 0 -50.5 20t-16.5 53q0 37 26.5 64.5t61.5 27.5t56 -26zM323 517h102l-32 -152h-102q-20 -96 -28.5 -138t-8.5 -52q0 -27 25 -27q15 0 32 6.5t25 14.5l15 -133q-27 -22 -64.5 -35t-74.5 -13
q-66 0 -107.5 40.5t-41.5 103.5q0 18 10 70t34 163h-65l32 152h65l30 142h184z" />
    <glyph glyph-name="Umacron" unicode="&#x16a;" horiz-adv-x="750" 
d="M182 20.5q-63 32.5 -97 90t-34 132.5q0 36 7 70l78 374h194l-79 -380q-5 -25 -5 -42q0 -47 25.5 -74t70.5 -27q62 0 113.5 46t65.5 113l75 364h194l-81 -390q-19 -92 -73 -162t-134 -108.5t-172 -38.5q-85 0 -148 32.5zM297 849h369l-22 -106h-369z" />
    <glyph glyph-name="umacron" unicode="&#x16b;" horiz-adv-x="624" 
d="M623 517l-108 -517h-193l8 40q-27 -25 -63.5 -38.5t-77.5 -13.5q-75 0 -119.5 44.5t-44.5 115.5q0 21 8.5 64.5t27.5 131.5l36 173h184l-13 -60q-10 -47 -24.5 -117.5t-20.5 -101.5t-6 -38q0 -25 14 -38.5t38 -13.5q32 0 60 20.5t39 50.5l62 298h193zM204 679h369
l-22 -106h-369z" />
    <glyph glyph-name="Uring" unicode="&#x16e;" horiz-adv-x="750" 
d="M182 20.5q-63 32.5 -97 90t-34 132.5q0 36 7 70l78 374h194l-79 -380q-5 -25 -5 -42q0 -47 25.5 -74t70.5 -27q62 0 113.5 46t65.5 113l75 364h194l-81 -390q-19 -92 -73 -162t-134 -108.5t-172 -38.5q-85 0 -148 32.5zM389 772.5q-28 27.5 -28 68.5q0 38 21.5 72t56 54
t71.5 20q43 0 71 -27.5t28 -68.5q0 -38 -21.5 -71.5t-56 -54t-71.5 -20.5q-43 0 -71 27.5zM516.5 835q18.5 18 18.5 41q0 17 -11.5 28t-28.5 11q-23 0 -41.5 -17.5t-18.5 -40.5q0 -17 11 -28.5t29 -11.5q23 0 41.5 18z" />
    <glyph glyph-name="uring" unicode="&#x16f;" horiz-adv-x="624" 
d="M623 517l-108 -517h-193l8 40q-27 -25 -63.5 -38.5t-77.5 -13.5q-75 0 -119.5 44.5t-44.5 115.5q0 21 8.5 64.5t27.5 131.5l36 173h184l-13 -60q-10 -47 -24.5 -117.5t-20.5 -101.5t-6 -38q0 -25 14 -38.5t38 -13.5q32 0 60 20.5t39 50.5l62 298h193zM296 602.5
q-28 27.5 -28 68.5q0 38 21.5 72t56 54t71.5 20q43 0 71 -27.5t28 -68.5q0 -38 -21.5 -71.5t-56 -54t-71.5 -20.5q-43 0 -71 27.5zM423.5 665q18.5 18 18.5 41q0 17 -11.5 28t-28.5 11q-23 0 -41.5 -17.5t-18.5 -40.5q0 -17 11 -28.5t29 -11.5q23 0 41.5 18z" />
    <glyph glyph-name="Uhungarumlaut" unicode="&#x170;" horiz-adv-x="750" 
d="M182 20.5q-63 32.5 -97 90t-34 132.5q0 36 7 70l78 374h194l-79 -380q-5 -25 -5 -42q0 -47 25.5 -74t70.5 -27q62 0 113.5 46t65.5 113l75 364h194l-81 -390q-19 -92 -73 -162t-134 -108.5t-172 -38.5q-85 0 -148 32.5zM410 908l165 -28l-180 -136h-131zM668 908l165 -28
l-180 -136h-131z" />
    <glyph glyph-name="uhungarumlaut" unicode="&#x171;" horiz-adv-x="624" 
d="M623 517l-108 -517h-193l8 40q-27 -25 -63.5 -38.5t-77.5 -13.5q-75 0 -119.5 44.5t-44.5 115.5q0 21 8.5 64.5t27.5 131.5l36 173h184l-13 -60q-10 -47 -24.5 -117.5t-20.5 -101.5t-6 -38q0 -25 14 -38.5t38 -13.5q32 0 60 20.5t39 50.5l62 298h193zM317 738l165 -28
l-180 -136h-131zM575 738l165 -28l-180 -136h-131z" />
    <glyph glyph-name="Uogonek" unicode="&#x172;" horiz-adv-x="750" 
d="M790 687l-81 -390q-19 -92 -73 -162t-134 -108.5t-172 -38.5q-18 0 -27 1q-9 -6 -14.5 -15t-5.5 -19q0 -21 20 -21q28 0 44 16l13 -93q-39 -30 -91 -30q-47 0 -74 26.5t-27 73.5q0 49 31 85q-70 30 -109 90.5t-39 140.5q0 36 7 70l78 374h194l-79 -380q-5 -25 -5 -42
q0 -47 25.5 -74t70.5 -27q62 0 113.5 46t65.5 113l75 364h194z" />
    <glyph glyph-name="uogonek" unicode="&#x173;" horiz-adv-x="624" 
d="M528 -50l13 -93q-39 -30 -91 -30q-47 0 -74 26.5t-27 73.5q0 42 22 73h-49l8 40q-27 -25 -63.5 -38.5t-77.5 -13.5q-75 0 -119.5 44.5t-44.5 115.5q0 21 8.5 64.5t27.5 131.5l36 173h184l-13 -60q-10 -47 -24.5 -117.5t-20.5 -101.5t-6 -38q0 -25 14 -38.5t38 -13.5
q32 0 60 20.5t39 50.5l62 298h193l-108 -515l5 -2q-22 0 -39 -13.5t-17 -31.5q0 -21 20 -21q28 0 44 16z" />
    <glyph glyph-name="Wcircumflex" unicode="&#x174;" horiz-adv-x="1088" 
d="M103 687h206v-397l217 397h209l48 -397l168 397h212l-333 -687h-196l-58 397l-229 -397h-196zM590 898h155l77 -154h-108l-58 67l-89 -67h-117z" />
    <glyph glyph-name="wcircumflex" unicode="&#x175;" horiz-adv-x="850" 
d="M62 517h181l22 -258l132 258h158l21 -258l131 258h189l-284 -517h-171l-13 266l-125 -266h-171zM435 728h155l77 -154h-108l-58 67l-89 -67h-117z" />
    <glyph glyph-name="Ycircumflex" unicode="&#x176;" horiz-adv-x="735" 
d="M264 226l-168 461h180l106 -293l217 293h218l-359 -461l-50 -226h-194zM397 898h155l77 -154h-108l-58 67l-89 -67h-117z" />
    <glyph glyph-name="ycircumflex" unicode="&#x177;" horiz-adv-x="614" 
d="M39 -166.5q-44 13.5 -74 32.5l54 116q39 -25 66 -25q15 0 35.5 8t24.5 15l17 13l-98 524h193l38 -319l168 319h198l-305 -528q-48 -83 -109 -126t-126 -43q-38 0 -82 13.5zM322 728h155l77 -154h-108l-58 67l-89 -67h-117z" />
    <glyph glyph-name="Ydieresis" unicode="&#x178;" horiz-adv-x="735" 
d="M264 226l-168 461h180l106 -293l217 293h218l-359 -461l-50 -226h-194zM292 768q-22 23 -22 58q0 39 27.5 65.5t64.5 26.5q34 0 56.5 -24t22.5 -58q0 -38 -27.5 -64.5t-62.5 -26.5q-37 0 -59 23zM517.5 768.5q-22.5 23.5 -22.5 58.5q0 39 28 65t64 26q35 0 57 -23.5
t22 -57.5q0 -39 -27 -65.5t-63 -26.5t-58.5 23.5z" />
    <glyph glyph-name="Zacute" unicode="&#x179;" horiz-adv-x="674" 
d="M12 145l403 369h-316l36 173h584l-28 -145l-400 -369h326l-36 -173h-595zM517 908l165 -28l-180 -136h-131z" />
    <glyph glyph-name="zacute" unicode="&#x17a;" horiz-adv-x="558" 
d="M10 133l276 224h-220l33 160h472l-27 -133l-275 -224h230l-34 -160h-480zM428 738l165 -28l-180 -136h-131z" />
    <glyph glyph-name="Zdotaccent" unicode="&#x17b;" horiz-adv-x="674" 
d="M12 145l403 369h-316l36 173h584l-28 -145l-400 -369h326l-36 -173h-595zM393 768q-22 23 -22 58q0 39 27.5 65.5t64.5 26.5q34 0 56.5 -24t22.5 -58q0 -38 -27.5 -64.5t-62.5 -26.5q-37 0 -59 23z" />
    <glyph glyph-name="zdotaccent" unicode="&#x17c;" horiz-adv-x="558" 
d="M10 133l276 224h-220l33 160h472l-27 -133l-275 -224h230l-34 -160h-480zM304 598q-22 23 -22 58q0 39 27.5 65.5t64.5 26.5q34 0 56.5 -24t22.5 -58q0 -38 -27.5 -64.5t-62.5 -26.5q-37 0 -59 23z" />
    <glyph glyph-name="Zcaron" unicode="&#x17d;" horiz-adv-x="674" 
d="M12 145l403 369h-316l36 173h584l-28 -145l-400 -369h326l-36 -173h-595zM291 898h108l57 -67l90 67h117l-141 -154h-155z" />
    <glyph glyph-name="zcaron" unicode="&#x17e;" horiz-adv-x="558" 
d="M10 133l276 224h-220l33 160h472l-27 -133l-275 -224h230l-34 -160h-480zM202 728h108l57 -67l90 67h117l-141 -154h-155z" />
    <glyph glyph-name="uni0237" unicode="&#x237;" horiz-adv-x="319" 
d="M-72 -170q-33 8 -54 19l35 133q11 -5 39 -5q24 0 44 18.5t25 42.5l100 479h193l-108 -519q-16 -80 -73.5 -128t-134.5 -48q-33 0 -66 8z" />
    <glyph glyph-name="circumflex" unicode="&#x2c6;" horiz-adv-x="396" 
d="M218 728h155l77 -154h-108l-58 67l-89 -67h-117z" />
    <glyph glyph-name="caron" unicode="&#x2c7;" horiz-adv-x="396" 
d="M110 728h108l57 -67l90 67h117l-141 -154h-155z" />
    <glyph glyph-name="breve" unicode="&#x2d8;" horiz-adv-x="359" 
d="M157.5 593q-40.5 18 -68.5 53l89 74q17 -20 40 -31.5t48 -11.5q26 0 54 11.5t52 31.5l59 -74q-42 -35 -90.5 -53t-95.5 -18t-87.5 18z" />
    <glyph glyph-name="dotaccent" unicode="&#x2d9;" horiz-adv-x="215" 
d="M128 598q-22 23 -22 58q0 39 27.5 65.5t64.5 26.5q34 0 56.5 -24t22.5 -58q0 -38 -27.5 -64.5t-62.5 -26.5q-37 0 -59 23z" />
    <glyph glyph-name="ring" unicode="&#x2da;" horiz-adv-x="283" 
d="M136 602.5q-28 27.5 -28 68.5q0 38 21.5 72t56 54t71.5 20q43 0 71 -27.5t28 -68.5q0 -38 -21.5 -71.5t-56 -54t-71.5 -20.5q-43 0 -71 27.5zM263.5 665q18.5 18 18.5 41q0 17 -11.5 28t-28.5 11q-23 0 -41.5 -17.5t-18.5 -40.5q0 -17 11 -28.5t29 -11.5q23 0 41.5 18z
" />
    <glyph glyph-name="ogonek" unicode="&#x2db;" horiz-adv-x="249" 
d="M-16 -146.5q-27 26.5 -27 73.5q0 36 17 65.5t50 49.5l104 -42q-22 0 -39 -13.5t-17 -31.5q0 -21 20 -21q28 0 44 16l13 -93q-39 -30 -91 -30q-47 0 -74 26.5z" />
    <glyph glyph-name="tilde" unicode="&#x2dc;" horiz-adv-x="421" 
d="M310 578.5q-21 7.5 -46 20.5q-4 2 -14.5 7.5t-17.5 5.5q-19 0 -34 -13t-24 -36l-86 27q22 71 54.5 102.5t82.5 31.5q42 0 93 -29q22 -12 31 -12q19 0 34 13.5t24 35.5l87 -28q-22 -71 -54.5 -102t-82.5 -31q-26 0 -47 7.5z" />
    <glyph glyph-name="hungarumlaut" unicode="&#x2dd;" horiz-adv-x="561" 
d="M224 738l165 -28l-180 -136h-131zM482 738l165 -28l-180 -136h-131z" />
    <glyph glyph-name="uni0307" unicode="&#x307;" horiz-adv-x="0" 
d="M-106 599.5q-26 26.5 -26 64.5q0 29 15.5 53.5t40.5 39t52 14.5q38 0 63.5 -26.5t25.5 -64.5q0 -43 -32 -75t-73 -32q-40 0 -66 26.5z" />
    <glyph glyph-name="uni0326" unicode="&#x326;" horiz-adv-x="0" 
d="M-201 -188q-34 0 -50.5 20t-16.5 53q0 37 26.5 64.5t61.5 27.5t56 -26t21 -68q0 -53 -34 -101.5t-89 -87.5l-48 46q42 28 73 72z" />
    <glyph glyph-name="Wgrave" unicode="&#x1e80;" horiz-adv-x="1088" 
d="M103 687h206v-397l217 397h209l48 -397l168 397h212l-333 -687h-196l-58 397l-229 -397h-196zM462 880l167 28l78 -164h-121z" />
    <glyph glyph-name="wgrave" unicode="&#x1e81;" horiz-adv-x="850" 
d="M62 517h181l22 -258l132 258h158l21 -258l131 258h189l-284 -517h-171l-13 266l-125 -266h-171zM307 710l167 28l78 -164h-121z" />
    <glyph glyph-name="Wacute" unicode="&#x1e82;" horiz-adv-x="1088" 
d="M103 687h206v-397l217 397h209l48 -397l168 397h212l-333 -687h-196l-58 397l-229 -397h-196zM721 908l165 -28l-180 -136h-131z" />
    <glyph glyph-name="wacute" unicode="&#x1e83;" horiz-adv-x="850" 
d="M62 517h181l22 -258l132 258h158l21 -258l131 258h189l-284 -517h-171l-13 266l-125 -266h-171zM566 738l165 -28l-180 -136h-131z" />
    <glyph glyph-name="Wdieresis" unicode="&#x1e84;" horiz-adv-x="1088" 
d="M103 687h206v-397l217 397h209l48 -397l168 397h212l-333 -687h-196l-58 397l-229 -397h-196zM485 768q-22 23 -22 58q0 39 27.5 65.5t64.5 26.5q34 0 56.5 -24t22.5 -58q0 -38 -27.5 -64.5t-62.5 -26.5q-37 0 -59 23zM710.5 768.5q-22.5 23.5 -22.5 58.5q0 39 28 65
t64 26q35 0 57 -23.5t22 -57.5q0 -39 -27 -65.5t-63 -26.5t-58.5 23.5z" />
    <glyph glyph-name="wdieresis" unicode="&#x1e85;" horiz-adv-x="850" 
d="M62 517h181l22 -258l132 258h158l21 -258l131 258h189l-284 -517h-171l-13 266l-125 -266h-171zM330 598q-22 23 -22 58q0 39 27.5 65.5t64.5 26.5q34 0 56.5 -24t22.5 -58q0 -38 -27.5 -64.5t-62.5 -26.5q-37 0 -59 23zM555.5 598.5q-22.5 23.5 -22.5 58.5q0 39 28 65
t64 26q35 0 57 -23.5t22 -57.5q0 -39 -27 -65.5t-63 -26.5t-58.5 23.5z" />
    <glyph glyph-name="uni1EB8" unicode="&#x1eb8;" horiz-adv-x="672" 
d="M672 514h-359l-15 -77h326l-36 -173h-327l-18 -91h358l-36 -173h-553l143 687h553zM186 -171q-22 23 -22 58q0 39 27.5 65.5t64.5 26.5q34 0 56.5 -24t22.5 -58q0 -38 -27.5 -64.5t-62.5 -26.5q-37 0 -59 23z" />
    <glyph glyph-name="uni1EB9" unicode="&#x1eb9;" horiz-adv-x="548" 
d="M472.5 255q-67.5 -46 -188.5 -42h-104q0 -38 20 -59.5t55 -21.5q63 0 131 48l93 -117q-41 -34 -103 -54.5t-118 -20.5q-73 0 -127.5 28t-83.5 78t-29 116q0 87 42.5 160.5t116 116t161.5 42.5q58 0 104 -18t72 -50t26 -73q0 -87 -67.5 -133zM266.5 365.5
q-31.5 -19.5 -53.5 -51.5h92q37 0 58 12t22 33q0 11 -14.5 18.5t-37.5 7.5q-35 0 -66.5 -19.5zM87 -214q-22 23 -22 58q0 39 27.5 65.5t64.5 26.5q34 0 56.5 -24t22.5 -58q0 -38 -27.5 -64.5t-62.5 -26.5q-37 0 -59 23z" />
    <glyph glyph-name="uni1EBC" unicode="&#x1ebc;" horiz-adv-x="672" 
d="M672 514h-359l-15 -77h326l-36 -173h-327l-18 -91h358l-36 -173h-553l143 687h553zM474 748.5q-21 7.5 -46 20.5q-4 2 -14.5 7.5t-17.5 5.5q-19 0 -34 -13t-24 -36l-86 27q22 71 54.5 102.5t82.5 31.5q42 0 93 -29q22 -12 31 -12q19 0 34 13.5t24 35.5l87 -28
q-22 -71 -54.5 -102t-82.5 -31q-26 0 -47 7.5z" />
    <glyph glyph-name="uni1EBD" unicode="&#x1ebd;" horiz-adv-x="539" 
d="M472.5 255q-67.5 -46 -188.5 -42h-104q0 -38 20 -59.5t55 -21.5q63 0 131 48l93 -117q-41 -34 -103 -54.5t-118 -20.5q-73 0 -127.5 28t-83.5 78t-29 116q0 87 42.5 160.5t116 116t161.5 42.5q58 0 104 -18t72 -50t26 -73q0 -87 -67.5 -133zM266.5 365.5
q-31.5 -19.5 -53.5 -51.5h92q37 0 58 12t22 33q0 11 -14.5 18.5t-37.5 7.5q-35 0 -66.5 -19.5zM389 578.5q-21 7.5 -46 20.5q-4 2 -14.5 7.5t-17.5 5.5q-19 0 -34 -13t-24 -36l-86 27q22 71 54.5 102.5t82.5 31.5q42 0 93 -29q22 -12 31 -12q19 0 34 13.5t24 35.5l87 -28
q-22 -71 -54.5 -102t-82.5 -31q-26 0 -47 7.5z" />
    <glyph glyph-name="Ygrave" unicode="&#x1ef2;" horiz-adv-x="735" 
d="M264 226l-168 461h180l106 -293l217 293h218l-359 -461l-50 -226h-194zM269 880l167 28l78 -164h-121z" />
    <glyph glyph-name="ygrave" unicode="&#x1ef3;" horiz-adv-x="614" 
d="M39 -166.5q-44 13.5 -74 32.5l54 116q39 -25 66 -25q15 0 35.5 8t24.5 15l17 13l-98 524h193l38 -319l168 319h198l-305 -528q-48 -83 -109 -126t-126 -43q-38 0 -82 13.5zM194 710l167 28l78 -164h-121z" />
    <glyph glyph-name="uni2002" unicode="&#x2002;" horiz-adv-x="500" 
 />
    <glyph glyph-name="uni2003" unicode="&#x2003;" horiz-adv-x="1000" 
 />
    <glyph glyph-name="uni2004" unicode="&#x2004;" horiz-adv-x="333" 
 />
    <glyph glyph-name="uni2005" unicode="&#x2005;" horiz-adv-x="250" 
 />
    <glyph glyph-name="uni2006" unicode="&#x2006;" horiz-adv-x="166" 
 />
    <glyph glyph-name="endash" unicode="&#x2013;" horiz-adv-x="574" 
d="M62 356h491l-33 -156h-491z" />
    <glyph glyph-name="emdash" unicode="&#x2014;" horiz-adv-x="879" 
d="M62 356h796l-33 -156h-796z" />
    <glyph glyph-name="quoteleft" unicode="&#x2018;" horiz-adv-x="316" 
d="M224 554q39 0 65 -26.5t26 -68.5q0 -34 -18 -63.5t-47 -47.5t-60 -18q-46 0 -73 33t-27 88q0 73 46 138.5t121 119.5l63 -58q-57 -38 -96 -97z" />
    <glyph glyph-name="quoteright" unicode="&#x2019;" horiz-adv-x="317" 
d="M200 481q-39 0 -65 26.5t-26 68.5q0 34 18 63.5t47 47.5t60 18q46 0 73 -33t27 -88q0 -73 -46 -138.5t-121 -119.5l-63 58q57 38 96 97z" />
    <glyph glyph-name="quotesinglbase" unicode="&#x201a;" horiz-adv-x="316" 
d="M98 -5q-39 0 -65 26.5t-26 68.5q0 34 18 63.5t47 47.5t60 18q46 0 73 -33t27 -88q0 -73 -46 -138.5t-121 -119.5l-63 58q57 38 96 97z" />
    <glyph glyph-name="quotedblleft" unicode="&#x201c;" horiz-adv-x="616" 
d="M222 545q39 0 65 -26.5t26 -68.5q0 -34 -18 -63.5t-47 -47.5t-60 -18q-46 0 -73 33t-27 88q0 73 46 138.5t121 119.5l63 -58q-57 -38 -96 -97zM522 545q39 0 65 -26.5t26 -68.5q0 -34 -18 -63.5t-47 -47.5t-60 -18q-46 0 -73 33t-27 88q0 73 46 138.5t121 119.5l63 -58
q-57 -38 -96 -97z" />
    <glyph glyph-name="quotedblright" unicode="&#x201d;" horiz-adv-x="617" 
d="M200 481q-39 0 -65 26.5t-26 68.5q0 34 18 63.5t47 47.5t60 18q46 0 73 -33t27 -88q0 -73 -46 -138.5t-121 -119.5l-63 58q57 38 96 97zM500 481q-39 0 -65 26.5t-26 68.5q0 34 18 63.5t47 47.5t60 18q46 0 73 -33t27 -88q0 -73 -46 -138.5t-121 -119.5l-63 58
q57 38 96 97z" />
    <glyph glyph-name="quotedblbase" unicode="&#x201e;" horiz-adv-x="616" 
d="M398 -5q-39 0 -65 26.5t-26 68.5q0 34 18 63.5t47 47.5t60 18q46 0 73 -33t27 -88q0 -73 -46 -138.5t-121 -119.5l-63 58q57 38 96 97zM98 -5q-39 0 -65 26.5t-26 68.5q0 34 18 63.5t47 47.5t60 18q46 0 73 -33t27 -88q0 -73 -46 -138.5t-121 -119.5l-63 58q57 38 96 97z
" />
    <glyph glyph-name="bullet" unicode="&#x2022;" horiz-adv-x="387" 
d="M89 185.5q-37 37.5 -37 93.5q0 44 23 83t62 62t84 23q57 0 94 -37.5t37 -93.5q0 -43 -23 -82t-62 -62.5t-83 -23.5q-58 0 -95 37.5z" />
    <glyph glyph-name="ellipsis" unicode="&#x2026;" horiz-adv-x="919" 
d="M41 18q-29 30 -29 75q0 35 18 64t48 45.5t63 16.5q44 0 72.5 -30t28.5 -73q0 -34 -17.5 -63.5t-46.5 -47t-61 -17.5q-47 0 -76 30zM341 18q-29 30 -29 75q0 35 18 64t48 45.5t63 16.5q44 0 72.5 -30t28.5 -73q0 -34 -17.5 -63.5t-46.5 -47t-61 -17.5q-47 0 -76 30z
M641 18q-29 30 -29 75q0 35 18 64t48 45.5t63 16.5q44 0 72.5 -30t28.5 -73q0 -34 -17.5 -63.5t-46.5 -47t-61 -17.5q-47 0 -76 30z" />
    <glyph glyph-name="uni202F" unicode="&#x202f;" horiz-adv-x="270" 
 />
    <glyph glyph-name="perthousand" unicode="&#x2030;" horiz-adv-x="1297" 
d="M139 379.5q-42 41.5 -42 107.5q0 56 27 103.5t74 75.5t104 28q74 0 116 -42t42 -108q0 -56 -27.5 -103t-75 -75t-104.5 -28q-72 0 -114 41.5zM709 687h147l-626 -687h-147zM296.5 461q20.5 16 32.5 40t12 48q0 18 -9.5 27.5t-26.5 9.5q-25 0 -45.5 -16t-32 -40t-11.5 -48
q0 -18 9.5 -27.5t25.5 -9.5q25 0 45.5 16zM519.5 31q-42.5 42 -42.5 108q0 55 27.5 103t75 76t104.5 28q72 0 114 -42.5t42 -108.5q0 -55 -27.5 -102.5t-74.5 -75.5t-103 -28q-73 0 -115.5 42zM913.5 31q-42.5 42 -42.5 108q0 55 27.5 103t75 76t104.5 28q72 0 114 -42.5
t42 -108.5q0 -55 -27.5 -102.5t-74.5 -75.5t-103 -28q-73 0 -115.5 42zM677.5 112.5q20.5 15.5 32.5 40t12 47.5q0 19 -10 28.5t-26 9.5q-25 0 -46 -15.5t-32.5 -40t-11.5 -48.5q0 -18 9.5 -27.5t26.5 -9.5q25 0 45.5 15.5zM1071.5 112.5q20.5 15.5 32.5 40t12 47.5
q0 19 -10 28.5t-26 9.5q-25 0 -46 -15.5t-32.5 -40t-11.5 -48.5q0 -18 9.5 -27.5t26.5 -9.5q25 0 45.5 15.5z" />
    <glyph glyph-name="guilsinglleft" unicode="&#x2039;" horiz-adv-x="375" 
d="M26 256l207 206l140 -30l-177 -176l100 -177l-144 -31z" />
    <glyph glyph-name="guilsinglright" unicode="&#x203a;" horiz-adv-x="376" 
d="M0 79l178 177l-101 176l144 30l127 -206l-208 -208z" />
    <glyph glyph-name="Euro" unicode="&#x20ac;" horiz-adv-x="805" 
d="M523 185.5q45 21.5 76 54.5l123 -136q-57 -51 -140 -83.5t-158 -32.5q-76 0 -142 33.5t-110.5 92.5t-56.5 133h-56l16 77h37q1 21 8 48h-35l16 77h46q34 71 95 128t139 89.5t160 32.5q85 0 157 -35t115 -91l-160 -114q-17 29 -48.5 46.5t-72.5 17.5q-44 0 -86 -20
t-75 -54h196l-16 -77h-229q-10 -28 -13 -48h232l-16 -77h-207q15 -39 48.5 -61t72.5 -22t84 21.5z" />
    <glyph glyph-name="trademark" unicode="&#x2122;" horiz-adv-x="776" 
d="M186 495h-84l17 85h262l-17 -85h-83l-45 -215h-95zM415 580h96l50 -123l100 123h95l-62 -300h-95l29 141l-100 -124l-50 124l-29 -141h-96z" />
    <glyph glyph-name="minus" unicode="&#x2212;" horiz-adv-x="651" 
d="M107 408h499l-31 -149h-499z" />
    <glyph glyph-name="a.alt" horiz-adv-x="572" 
d="M444.5 506.5q47.5 -22.5 74.5 -63.5t27 -96q0 -18 -8 -59t-26 -126l-34 -162h-185l6 29q-28 -20 -61.5 -30.5t-67.5 -10.5q-78 0 -127.5 41t-49.5 106q0 56 35 99.5t91.5 67t120.5 23.5q58 0 114 -28l6 30q0 26 -20.5 37.5t-61.5 11.5q-66 0 -134 -33l-48 128
q127 58 241 58q60 0 107.5 -22.5zM328 168l6 28q-25 12 -67 12q-34 0 -62 -22.5t-28 -48.5q0 -12 11 -18.5t30 -6.5q39 0 70.5 18t37.5 41z" />
    <glyph glyph-name="aacute.alt" horiz-adv-x="572" 
d="M444.5 506.5q47.5 -22.5 74.5 -63.5t27 -96q0 -18 -8 -59t-26 -126l-34 -162h-185l6 29q-28 -20 -61.5 -30.5t-67.5 -10.5q-78 0 -127.5 41t-49.5 106q0 56 35 99.5t91.5 67t120.5 23.5q58 0 114 -28l6 30q0 26 -20.5 37.5t-61.5 11.5q-66 0 -134 -33l-48 128
q127 58 241 58q60 0 107.5 -22.5zM328 168l6 28q-25 12 -67 12q-34 0 -62 -22.5t-28 -48.5q0 -12 11 -18.5t30 -6.5q39 0 70.5 18t37.5 41zM416 738l165 -28l-180 -136h-131z" />
    <glyph glyph-name="abreve.alt" horiz-adv-x="572" 
d="M444.5 506.5q47.5 -22.5 74.5 -63.5t27 -96q0 -18 -8 -59t-26 -126l-34 -162h-185l6 29q-28 -20 -61.5 -30.5t-67.5 -10.5q-78 0 -127.5 41t-49.5 106q0 56 35 99.5t91.5 67t120.5 23.5q58 0 114 -28l6 30q0 26 -20.5 37.5t-61.5 11.5q-66 0 -134 -33l-48 128
q127 58 241 58q60 0 107.5 -22.5zM328 168l6 28q-25 12 -67 12q-34 0 -62 -22.5t-28 -48.5q0 -12 11 -18.5t30 -6.5q39 0 70.5 18t37.5 41zM250.5 593q-40.5 18 -68.5 53l89 74q17 -20 40 -31.5t48 -11.5q26 0 54 11.5t52 31.5l59 -74q-42 -35 -90.5 -53t-95.5 -18t-87.5 18
z" />
    <glyph glyph-name="acircumflex.alt" horiz-adv-x="572" 
d="M444.5 506.5q47.5 -22.5 74.5 -63.5t27 -96q0 -18 -8 -59t-26 -126l-34 -162h-185l6 29q-28 -20 -61.5 -30.5t-67.5 -10.5q-78 0 -127.5 41t-49.5 106q0 56 35 99.5t91.5 67t120.5 23.5q58 0 114 -28l6 30q0 26 -20.5 37.5t-61.5 11.5q-66 0 -134 -33l-48 128
q127 58 241 58q60 0 107.5 -22.5zM328 168l6 28q-25 12 -67 12q-34 0 -62 -22.5t-28 -48.5q0 -12 11 -18.5t30 -6.5q39 0 70.5 18t37.5 41zM285 728h155l77 -154h-108l-58 67l-89 -67h-117z" />
    <glyph glyph-name="adieresis.alt" horiz-adv-x="572" 
d="M444.5 506.5q47.5 -22.5 74.5 -63.5t27 -96q0 -18 -8 -59t-26 -126l-34 -162h-185l6 29q-28 -20 -61.5 -30.5t-67.5 -10.5q-78 0 -127.5 41t-49.5 106q0 56 35 99.5t91.5 67t120.5 23.5q58 0 114 -28l6 30q0 26 -20.5 37.5t-61.5 11.5q-66 0 -134 -33l-48 128
q127 58 241 58q60 0 107.5 -22.5zM328 168l6 28q-25 12 -67 12q-34 0 -62 -22.5t-28 -48.5q0 -12 11 -18.5t30 -6.5q39 0 70.5 18t37.5 41zM180 598q-22 23 -22 58q0 39 27.5 65.5t64.5 26.5q34 0 56.5 -24t22.5 -58q0 -38 -27.5 -64.5t-62.5 -26.5q-37 0 -59 23z
M405.5 598.5q-22.5 23.5 -22.5 58.5q0 39 28 65t64 26q35 0 57 -23.5t22 -57.5q0 -39 -27 -65.5t-63 -26.5t-58.5 23.5z" />
    <glyph glyph-name="agrave.alt" horiz-adv-x="572" 
d="M444.5 506.5q47.5 -22.5 74.5 -63.5t27 -96q0 -18 -8 -59t-26 -126l-34 -162h-185l6 29q-28 -20 -61.5 -30.5t-67.5 -10.5q-78 0 -127.5 41t-49.5 106q0 56 35 99.5t91.5 67t120.5 23.5q58 0 114 -28l6 30q0 26 -20.5 37.5t-61.5 11.5q-66 0 -134 -33l-48 128
q127 58 241 58q60 0 107.5 -22.5zM328 168l6 28q-25 12 -67 12q-34 0 -62 -22.5t-28 -48.5q0 -12 11 -18.5t30 -6.5q39 0 70.5 18t37.5 41zM157 710l167 28l78 -164h-121z" />
    <glyph glyph-name="amacron.alt" horiz-adv-x="572" 
d="M444.5 506.5q47.5 -22.5 74.5 -63.5t27 -96q0 -18 -8 -59t-26 -126l-34 -162h-185l6 29q-28 -20 -61.5 -30.5t-67.5 -10.5q-78 0 -127.5 41t-49.5 106q0 56 35 99.5t91.5 67t120.5 23.5q58 0 114 -28l6 30q0 26 -20.5 37.5t-61.5 11.5q-66 0 -134 -33l-48 128
q127 58 241 58q60 0 107.5 -22.5zM328 168l6 28q-25 12 -67 12q-34 0 -62 -22.5t-28 -48.5q0 -12 11 -18.5t30 -6.5q39 0 70.5 18t37.5 41zM175 679h369l-22 -106h-369z" />
    <glyph glyph-name="aogonek.alt" horiz-adv-x="572" 
d="M486 -50l13 -93q-39 -30 -91 -30q-47 0 -74 26.5t-27 73.5q0 42 22 73h-36l6 29q-28 -20 -61.5 -30.5t-67.5 -10.5q-78 0 -127.5 41t-49.5 106q0 56 35 99.5t91.5 67t120.5 23.5q58 0 114 -28l6 30q0 26 -20.5 37.5t-61.5 11.5q-66 0 -134 -33l-48 128q127 58 241 58
q60 0 107.5 -22.5t74.5 -63.5t27 -96q0 -18 -8 -59t-26 -126l-34 -162q-22 0 -39 -13.5t-17 -31.5q0 -21 20 -21q28 0 44 16zM328 168l6 28q-25 12 -67 12q-34 0 -62 -22.5t-28 -48.5q0 -12 11 -18.5t30 -6.5q39 0 70.5 18t37.5 41z" />
    <glyph glyph-name="aring.alt" horiz-adv-x="572" 
d="M444.5 506.5q47.5 -22.5 74.5 -63.5t27 -96q0 -18 -8 -59t-26 -126l-34 -162h-185l6 29q-28 -20 -61.5 -30.5t-67.5 -10.5q-78 0 -127.5 41t-49.5 106q0 56 35 99.5t91.5 67t120.5 23.5q58 0 114 -28l6 30q0 26 -20.5 37.5t-61.5 11.5q-66 0 -134 -33l-48 128
q127 58 241 58q60 0 107.5 -22.5zM328 168l6 28q-25 12 -67 12q-34 0 -62 -22.5t-28 -48.5q0 -12 11 -18.5t30 -6.5q39 0 70.5 18t37.5 41zM267 602.5q-28 27.5 -28 68.5q0 38 21.5 72t56 54t71.5 20q43 0 71 -27.5t28 -68.5q0 -38 -21.5 -71.5t-56 -54t-71.5 -20.5
q-43 0 -71 27.5zM394.5 665q18.5 18 18.5 41q0 17 -11.5 28t-28.5 11q-23 0 -41.5 -17.5t-18.5 -40.5q0 -17 11 -28.5t29 -11.5q23 0 41.5 18z" />
    <glyph glyph-name="atilde.alt" horiz-adv-x="572" 
d="M444.5 506.5q47.5 -22.5 74.5 -63.5t27 -96q0 -18 -8 -59t-26 -126l-34 -162h-185l6 29q-28 -20 -61.5 -30.5t-67.5 -10.5q-78 0 -127.5 41t-49.5 106q0 56 35 99.5t91.5 67t120.5 23.5q58 0 114 -28l6 30q0 26 -20.5 37.5t-61.5 11.5q-66 0 -134 -33l-48 128
q127 58 241 58q60 0 107.5 -22.5zM328 168l6 28q-25 12 -67 12q-34 0 -62 -22.5t-28 -48.5q0 -12 11 -18.5t30 -6.5q39 0 70.5 18t37.5 41zM372 578.5q-21 7.5 -46 20.5q-4 2 -14.5 7.5t-17.5 5.5q-19 0 -34 -13t-24 -36l-86 27q22 71 54.5 102.5t82.5 31.5q42 0 93 -29
q22 -12 31 -12q19 0 34 13.5t24 35.5l87 -28q-22 -71 -54.5 -102t-82.5 -31q-26 0 -47 7.5z" />
    </font>
</defs>
</svg>
