<?xml version="1.0" standalone="no"?>
<!DOCTYPE svg PUBLIC "-//W3C//DTD SVG 1.1//EN" "http://www.w3.org/Graphics/SVG/1.1/DTD/svg11.dtd" >
<svg xmlns="http://www.w3.org/2000/svg" xmlns:xlink="http://www.w3.org/1999/xlink" version="1.1">
<metadata>
Created by FontForge 20170731 at Sun Feb  2 02:54:09 2020
 By Aleksey,,,
</metadata>
<defs>
<font id="Metropolis-Medium" horiz-adv-x="252" >
  <font-face 
    font-family="Metropolis Medium"
    font-weight="500"
    font-stretch="normal"
    units-per-em="1000"
    panose-1="0 0 6 0 0 0 0 0 0 0"
    ascent="795"
    descent="-205"
    x-height="517"
    cap-height="687"
    bbox="-155 -280 1165 969"
    underline-thickness="20"
    underline-position="-153"
    unicode-range="U+0020-2212"
  />
<missing-glyph horiz-adv-x="500" 
d="M410 -205h-317v1000h317v-1000zM168 728v-33h65v-37h-66v-33h166v33h-66v37h66v33h-165zM167 599v-104h166v34h-66v70h-100zM233 529h-33v36h33v-36zM167 468v-33h66v-37h-66v-33h100v70h66v33h-166zM300 408v-66h-133v-34h166v100h-33zM233 286v-56h34v23h33v-47h-100
v80h-33v-113h166v113h-100zM167 113v-113h166v113h-166zM300 33h-100v47h100v-47zM167 -23v-33h70l-70 -47v-33h166v33h-102l70 47h32v33h-166z" />
    <glyph glyph-name=".notdef" horiz-adv-x="500" 
d="M410 -205h-317v1000h317v-1000zM168 728v-33h65v-37h-66v-33h166v33h-66v37h66v33h-165zM167 599v-104h166v34h-66v70h-100zM233 529h-33v36h33v-36zM167 468v-33h66v-37h-66v-33h100v70h66v33h-166zM300 408v-66h-133v-34h166v100h-33zM233 286v-56h34v23h33v-47h-100
v80h-33v-113h166v113h-100zM167 113v-113h166v113h-166zM300 33h-100v47h100v-47zM167 -23v-33h70l-70 -47v-33h166v33h-102l70 47h32v33h-166z" />
    <glyph glyph-name=".null" horiz-adv-x="0" 
 />
    <glyph glyph-name="nonmarkingreturn" horiz-adv-x="333" 
 />
    <glyph glyph-name="space" unicode=" " horiz-adv-x="274" 
 />
    <glyph glyph-name="exclam" unicode="!" 
d="M68 687h116l-24 -478h-68zM78.5 8q-19.5 20 -19.5 48q0 26 19.5 45.5t47.5 19.5q27 0 46 -19.5t19 -45.5q0 -28 -19 -48t-46 -20q-28 0 -47.5 20z" />
    <glyph glyph-name="quotedbl" unicode="&#x22;" horiz-adv-x="434" 
d="M69.5 540.5q-8.5 50.5 -8.5 83.5q0 23 16.5 40t39.5 17t39.5 -17t16.5 -40q0 -49 -26 -181l-5 -26h-49q-15 73 -23.5 123.5zM269.5 540.5q-8.5 50.5 -8.5 83.5q0 23 16.5 40t39.5 17t39.5 -17t16.5 -40q0 -49 -26 -181l-5 -26h-49q-15 73 -23.5 123.5z" />
    <glyph glyph-name="numbersign" unicode="#" horiz-adv-x="690" 
d="M627 438h-111l-48 -190h111l-18 -75h-111l-44 -173h-80l44 173h-138l-44 -173h-80l44 173h-107l19 75h106l48 190h-108l19 75h108l44 174h80l-44 -174h138l44 174h80l-44 -174h111zM388 248l48 190h-138l-48 -190h138z" />
    <glyph glyph-name="dollar" unicode="$" horiz-adv-x="665" 
d="M541.5 55q-55.5 -55 -156.5 -64v-65h-85v65q-138 15 -236 108l61 75q80 -77 175 -92v223q-106 27 -158 69t-52 124q0 53 27 97t74.5 71.5t108.5 32.5v60h85v-63q104 -15 194 -93l-58 -76q-67 59 -136 76v-214q105 -27 158.5 -70.5t53.5 -125.5q0 -83 -55.5 -138z
M218 449.5q26 -21.5 82 -38.5v198q-47 -7 -77.5 -36t-30.5 -66q0 -36 26 -57.5zM466.5 116.5q28.5 28.5 28.5 66.5t-26 60.5t-84 39.5v-203q53 8 81.5 36.5z" />
    <glyph glyph-name="percent" unicode="%" horiz-adv-x="847" 
d="M136 370q-37 23 -57.5 62t-20.5 86q0 49 21 89t58 63t85 23t85 -23t57.5 -62.5t20.5 -87.5q0 -49 -21 -88.5t-58.5 -62t-84.5 -22.5q-48 0 -85 23zM616 687h90l-473 -687h-89zM285 441.5q25 30.5 25 77.5t-25.5 78t-63.5 31q-39 0 -63.5 -30.5t-24.5 -78.5
q0 -46 25.5 -77t63.5 -31t63 30.5zM541 12.5q-37 22.5 -58 62t-21 88.5q0 47 21 87t58.5 63t84.5 23q48 0 85 -23t57.5 -62.5t20.5 -86.5q0 -49 -21 -89t-58.5 -62.5t-84.5 -22.5t-84 22.5zM689.5 85.5q24.5 30.5 24.5 77.5t-25.5 78t-63.5 31q-39 0 -63.5 -31t-24.5 -77
q0 -47 25 -78t64 -31t63.5 30.5z" />
    <glyph glyph-name="ampersand" unicode="&#x26;" horiz-adv-x="711" 
d="M570 -10q-34 34 -84 86q-91 -88 -207 -88q-63 0 -113.5 24t-79 68t-28.5 104q0 67 37.5 115t116.5 83q-29 41 -42 75.5t-13 72.5q0 46 23.5 83.5t65 59.5t93.5 22q48 0 87.5 -22t62 -59.5t22.5 -82.5q0 -60 -39.5 -98t-124.5 -74q72 -83 140 -153q43 63 74 144l79 -36
q-47 -101 -95 -169l112 -115zM274.5 592.5q-25.5 -23.5 -25.5 -62.5q0 -26 12 -53.5t38 -60.5q66 26 93 50.5t27 63.5q0 36 -22.5 61t-57.5 25q-39 0 -64.5 -23.5zM429 135q-109 114 -170 187q-103 -53 -103 -134q0 -54 38 -86t93 -32q72 0 142 65z" />
    <glyph glyph-name="quotesingle" unicode="'" horiz-adv-x="234" 
d="M69.5 540.5q-8.5 50.5 -8.5 83.5q0 23 16.5 40t39.5 17t39.5 -17t16.5 -40q0 -49 -26 -181l-5 -26h-49q-15 73 -23.5 123.5z" />
    <glyph glyph-name="parenleft" unicode="(" horiz-adv-x="360" 
d="M107.5 23.5q-55.5 111.5 -55.5 241.5t55 241.5t159 193.5l51 -54q-83 -86 -123.5 -176t-40.5 -205q0 -114 40.5 -204.5t123.5 -175.5l-51 -55q-103 82 -158.5 193.5z" />
    <glyph glyph-name="parenright" unicode=")" horiz-adv-x="360" 
d="M166.5 60.5q40.5 90.5 40.5 204.5q0 115 -40.5 205t-123.5 176l52 54q103 -83 158.5 -194t55.5 -241q0 -129 -55.5 -240.5t-158.5 -194.5l-52 55q83 85 123.5 175.5z" />
    <glyph glyph-name="asterisk" unicode="*" horiz-adv-x="404" 
d="M181.5 373.5q-8.5 7.5 -8.5 18.5q0 26 10 76q6 34 8 46q-19 -13 -39 -32q-40 -34 -57 -44q-6 -3 -12 -3q-17 0 -26 15q-4 7 -4 16q0 15 12 22q24 14 70 29q9 4 20.5 8t23.5 9q-12 5 -23.5 9t-20.5 8q-46 15 -70 29q-12 8 -12 23q0 8 4 15q10 16 26 16q4 0 12 -4
q17 -10 57 -44q20 -19 39 -32q-2 12 -8 46q-10 50 -10 76q0 11 8.5 18.5t20.5 7.5q13 0 21.5 -7.5t8.5 -18.5q0 -26 -10 -76q-6 -34 -8 -46q10 7 19 15t18 15q38 34 59 46q6 3 12 3q17 0 26 -15q4 -7 4 -15q0 -15 -13 -23q-24 -14 -70 -29q-9 -4 -20.5 -8t-23.5 -9
q17 -7 43 -16q4 -1 27.5 -9.5t43.5 -20.5q13 -8 13 -23q0 -8 -4 -15q-10 -16 -26 -16q-4 0 -12 4q-21 12 -59 46q-9 7 -18 15t-19 15q2 -12 8 -46q10 -50 10 -76q0 -11 -8.5 -18.5t-21.5 -7.5q-12 0 -20.5 7.5z" />
    <glyph glyph-name="plus" unicode="+" horiz-adv-x="585" 
d="M526 378v-89h-187v-188h-92v188h-188v89h188v190h92v-190h187z" />
    <glyph glyph-name="comma" unicode="," horiz-adv-x="247" 
d="M119 -12q-27 0 -46.5 19.5t-19.5 47.5q0 27 19.5 46.5t47.5 19.5q33 0 52.5 -26.5t19.5 -68.5q0 -36 -19 -72.5t-67 -90.5l-42 32q41 44 55 93z" />
    <glyph glyph-name="hyphen" unicode="-" horiz-adv-x="357" 
d="M47 318h264v-90h-264v90z" />
    <glyph glyph-name="period" unicode="." horiz-adv-x="244" 
d="M75 8q-20 20 -20 48q0 26 20 45.5t48 19.5q26 0 45.5 -19.5t19.5 -45.5q0 -28 -19.5 -48t-45.5 -20q-28 0 -48 20z" />
    <glyph glyph-name="slash" unicode="/" horiz-adv-x="500" 
d="M371 743h108l-349 -817h-108z" />
    <glyph glyph-name="zero" unicode="0" horiz-adv-x="694" 
d="M195.5 33.5q-66.5 45.5 -104 126.5t-37.5 184t37.5 183.5t104 126t151.5 45.5t151.5 -45.5t104 -126t37.5 -183.5t-37.5 -184t-104 -126.5t-151.5 -45.5t-151.5 45.5zM445.5 114.5q43.5 33.5 67.5 93.5t24 136t-24 135.5t-67.5 93t-98.5 33.5t-98 -33.5t-67.5 -93
t-24.5 -135.5t24.5 -136t67.5 -93.5t98 -33.5t98.5 33.5z" />
    <glyph glyph-name="one" unicode="1" horiz-adv-x="384" 
d="M204 567l-119 -76l-43 73l182 123h81v-687h-101v567z" />
    <glyph glyph-name="two" unicode="2" horiz-adv-x="595" 
d="M302 291q68 57 97.5 104t29.5 94q0 54 -38 86.5t-92 32.5t-97 -26t-81 -76l-68 60q96 133 250 133q64 0 116.5 -26t83 -73.5t30.5 -108.5q0 -69 -37 -129t-125 -132l-161 -136h329v-94h-489v83z" />
    <glyph glyph-name="three" unicode="3" horiz-adv-x="602" 
d="M151.5 20q-66.5 32 -108.5 85l65 67q36 -43 85 -68t107 -25q66 0 106 32t40 84q0 53 -42.5 80.5t-119.5 26.5h-75v90l75 -1q67 0 107.5 28t40.5 79q0 48 -40 79t-100 31q-51 0 -93 -23.5t-80 -68.5l-63 62q93 121 243 121q69 0 122.5 -24t83 -66.5t29.5 -96.5
q0 -60 -36.5 -101t-94.5 -59q60 -14 103 -55.5t43 -108.5q0 -58 -31 -103.5t-87 -71t-129 -25.5q-84 0 -150.5 32z" />
    <glyph glyph-name="four" unicode="4" horiz-adv-x="643" 
d="M397 158h-341l-11 81l333 448h120v-440h99v-89h-99v-158h-101v158zM397 247v325l-241 -325h241z" />
    <glyph glyph-name="five" unicode="5" horiz-adv-x="600" 
d="M45 96l63 72q41 -43 89 -67t100 -24q66 0 108 39t42 98t-42 95.5t-109 36.5q-80 0 -146 -50l-71 32l10 359h422v-94h-326l-6 -204q66 44 143 44q62 0 114 -25.5t82.5 -74.5t30.5 -115q0 -68 -32.5 -120.5t-90 -81t-131.5 -28.5q-150 0 -250 108z" />
    <glyph glyph-name="six" unicode="6" horiz-adv-x="624" 
d="M459.5 408q52.5 -26 83.5 -74.5t31 -114.5q0 -65 -32 -118t-88.5 -83t-128.5 -30q-136 0 -203.5 94.5t-67.5 250.5q0 103 37.5 186.5t104 131.5t149.5 48q111 0 200 -79l-52 -78q-36 33 -70.5 49.5t-79.5 16.5q-52 0 -94 -34.5t-66.5 -95t-25.5 -135.5q32 43 81 67
t106 24q63 0 115.5 -26zM400.5 94q33.5 20 52 52.5t18.5 67.5q0 61 -43 98t-108 37q-57 0 -99 -30t-56 -80q13 -77 52.5 -121t104.5 -44q45 0 78.5 20z" />
    <glyph glyph-name="seven" unicode="7" horiz-adv-x="574" 
d="M408 593h-361v94h480v-76l-290 -611h-115z" />
    <glyph glyph-name="eight" unicode="8" horiz-adv-x="621" 
d="M178.5 12q-59.5 24 -93.5 67.5t-34 101.5q0 61 40.5 106.5t106.5 67.5q-60 24 -94.5 64t-34.5 96t34 98t89.5 64t118.5 22q64 0 119.5 -22.5t89 -64.5t33.5 -97q0 -58 -35.5 -98t-93.5 -62q65 -23 105.5 -68t40.5 -106q0 -58 -34.5 -102t-93.5 -67.5t-131 -23.5
q-73 0 -132.5 24zM376.5 409q32.5 14 53.5 38t21 57q0 46 -40 76t-100 30t-100 -30t-40 -76q0 -49 43.5 -78.5t96.5 -32.5q33 2 65.5 16zM422.5 109q45.5 32 45.5 81q0 34 -24.5 61t-61 42t-71.5 16q-35 -1 -71.5 -16t-61 -42t-24.5 -61q0 -50 45 -81.5t112 -31.5
q66 0 111.5 32z" />
    <glyph glyph-name="nine" unicode="9" horiz-adv-x="624" 
d="M502.5 604.5q67.5 -94.5 67.5 -250.5q0 -103 -37.5 -186.5t-104 -131.5t-149.5 -48q-111 0 -200 79l52 78q36 -33 70.5 -49.5t79.5 -16.5q52 0 94 34.5t66.5 95t25.5 135.5q-32 -43 -81 -67t-106 -24q-63 0 -115.5 26t-83.5 74.5t-31 114.5q0 65 32 118t88.5 83t128.5 30
q136 0 203.5 -94.5zM403 368q42 30 56 80q-13 77 -52.5 121t-104.5 44q-45 0 -78.5 -20t-52 -52.5t-18.5 -67.5q0 -61 43 -98t108 -37q57 0 99 30z" />
    <glyph glyph-name="colon" unicode=":" horiz-adv-x="243" 
d="M74.5 405q-19.5 20 -19.5 48q0 26 19.5 45.5t48.5 19.5q26 0 45.5 -19.5t19.5 -45.5q0 -28 -19.5 -48t-45.5 -20q-29 0 -48.5 20zM74.5 8q-19.5 20 -19.5 48q0 26 19.5 45.5t48.5 19.5q26 0 45.5 -19.5t19.5 -45.5q0 -28 -19.5 -48t-45.5 -20q-29 0 -48.5 20z" />
    <glyph glyph-name="semicolon" unicode=";" horiz-adv-x="246" 
d="M74.5 405q-19.5 20 -19.5 48q0 26 19.5 45.5t48.5 19.5q26 0 45.5 -19.5t19.5 -45.5q0 -28 -19.5 -48t-45.5 -20q-29 0 -48.5 20zM119 -12q-27 0 -46 19.5t-19 47.5q0 27 19.5 46.5t47.5 19.5q33 0 52.5 -26.5t19.5 -68.5q0 -35 -19.5 -71.5t-67.5 -91.5l-42 32
q42 44 55 93z" />
    <glyph glyph-name="less" unicode="&#x3c;" horiz-adv-x="586" 
d="M58 305v77l459 219v-86l-371 -171l371 -171v-87z" />
    <glyph glyph-name="equal" unicode="=" horiz-adv-x="638" 
d="M86 491h467v-89h-467v89zM86 268h467v-89h-467v89z" />
    <glyph glyph-name="greater" unicode="&#x3e;" horiz-adv-x="586" 
d="M69 173l371 171l-371 171v86l459 -219v-77l-459 -219v87z" />
    <glyph glyph-name="question" unicode="?" horiz-adv-x="532" 
d="M331 425.5q52 32.5 52 76.5q0 43 -34.5 74.5t-89.5 31.5q-86 0 -156 -84l-62 62q92 113 229 113q63 0 112 -24.5t76 -67.5t27 -95q0 -44 -24.5 -84.5t-68.5 -69.5t-99 -41v-110h-96v180q82 6 134 38.5zM196.5 8q-19.5 20 -19.5 48q0 26 19.5 45.5t47.5 19.5
q27 0 46 -19.5t19 -45.5q0 -28 -19 -48t-46 -20q-28 0 -47.5 20z" />
    <glyph glyph-name="at" unicode="@" horiz-adv-x="914" 
d="M252 -65q-88 51 -139.5 137t-51.5 187q0 111 57 207t153 152.5t208 56.5q101 0 187.5 -48t137 -129.5t50.5 -175.5q0 -79 -27.5 -134.5t-70.5 -83t-90 -27.5t-77.5 22t-40.5 61q-30 -38 -70 -60.5t-87 -22.5q-48 0 -86 22t-59.5 62t-21.5 92q0 67 33 124.5t86 91.5
t111 34q49 0 83 -21.5t53 -56.5l12 63l85 -6l-16 -79q-4 -23 -15.5 -81.5t-16 -87t-4.5 -39.5q0 -30 16.5 -46t45.5 -16t56.5 20.5t45 63t17.5 105.5q0 85 -45.5 157.5t-123.5 115.5t-170 43q-101 0 -188 -51.5t-138 -138.5t-51 -188q0 -92 46.5 -170t125.5 -124t173 -46
q61 0 111.5 14.5t103.5 46.5l19 -28q-57 -36 -113 -52.5t-123 -16.5q-103 0 -191 51zM496 174q34 24 52.5 65.5t18.5 91.5q0 47 -25 73t-73 26q-42 0 -77.5 -23.5t-56.5 -63t-21 -84.5q0 -49 28 -79t75 -30q45 0 79 24z" />
    <glyph glyph-name="A" unicode="A" horiz-adv-x="781" 
d="M630 0l-61 143h-356l-62 -143h-111l295 687h112l295 -687h-112zM251 231h280l-140 326z" />
    <glyph glyph-name="B" unicode="B" horiz-adv-x="672" 
d="M402 687q57 0 101 -22t69 -61t25 -88q0 -52 -24.5 -88t-72.5 -64q60 -30 92.5 -75.5t32.5 -101.5q0 -54 -27 -96.5t-75 -66.5t-109 -24h-338v687h326zM461 428.5q33 27.5 33 70.5t-33 71t-85 28h-199v-197h199q52 0 85 27.5zM485.5 120.5q36.5 31.5 36.5 81.5t-36.5 81.5
t-93.5 31.5h-215v-226h215q57 0 93.5 31.5z" />
    <glyph glyph-name="C" unicode="C" horiz-adv-x="699" 
d="M228 36.5q-82 48.5 -131 130.5t-49 177t49 176.5t131 130t176 48.5q73 0 139 -28.5t115 -79.5l-71 -68q-36 39 -83.5 61t-99.5 22q-67 0 -125.5 -36t-93 -96t-34.5 -130t34.5 -130.5t93 -96.5t125.5 -36q52 0 99.5 22t83.5 61l71 -68q-50 -51 -116 -79.5t-138 -28.5
q-94 0 -176 48.5z" />
    <glyph glyph-name="D" unicode="D" horiz-adv-x="740" 
d="M312 687q110 0 196.5 -44t135 -122t48.5 -177t-48.5 -177.5t-135 -122.5t-196.5 -44h-236v687h236zM458.5 124q61.5 32 96 89.5t34.5 130.5t-34.5 130t-96 89t-139.5 32h-142v-503h142q78 0 139.5 32z" />
    <glyph glyph-name="E" unicode="E" horiz-adv-x="635" 
d="M581 593h-403v-196h363v-94h-363v-209h403v-94h-505v687h505v-94z" />
    <glyph glyph-name="F" unicode="F" horiz-adv-x="626" 
d="M581 593h-403v-200h363v-94h-363v-299h-102v687h505v-94z" />
    <glyph glyph-name="G" unicode="G" horiz-adv-x="731" 
d="M391 370h285v-274q-49 -49 -123 -78.5t-148 -29.5q-95 0 -177 48.5t-131 130.5t-49 177t49 176.5t131 130t177 48.5q74 0 148 -29t123 -79l-71 -68q-35 38 -90.5 60.5t-109.5 22.5q-68 0 -126.5 -36t-93 -96t-34.5 -130t34.5 -130.5t93 -96.5t126.5 -36q44 0 89.5 15
t81.5 42v144h-185v88z" />
    <glyph glyph-name="H" unicode="H" horiz-adv-x="728" 
d="M551 687h101v-687h-101v303h-374v-303h-101v687h101v-290h374v290z" />
    <glyph glyph-name="I" unicode="I" 
d="M76 687h101v-687h-101v687z" />
    <glyph glyph-name="J" unicode="J" horiz-adv-x="546" 
d="M131 20q-61 32 -93 82l70 69q20 -40 59.5 -65.5t82.5 -25.5q56 0 91.5 41.5t35.5 106.5v459h101v-463q0 -68 -28.5 -122t-79 -84t-115.5 -30q-63 0 -124 32z" />
    <glyph glyph-name="K" unicode="K" horiz-adv-x="688" 
d="M76 687h101v-358l324 358h129l-282 -309l301 -378h-127l-245 308l-100 -107v-201h-101v687z" />
    <glyph glyph-name="L" unicode="L" horiz-adv-x="584" 
d="M177 94h364v-94h-465v687h101v-593z" />
    <glyph glyph-name="M" unicode="M" horiz-adv-x="835" 
d="M76 687h101l241 -449l240 449h102v-687h-102v489l-240 -449l-241 449v-489h-101v687z" />
    <glyph glyph-name="N" unicode="N" horiz-adv-x="748" 
d="M76 687h101l394 -521v521h101v-687h-101l-394 521v-521h-101v687z" />
    <glyph glyph-name="O" unicode="O" horiz-adv-x="808" 
d="M228 36.5q-82 48.5 -131 130.5t-49 177t49 176.5t131 130t176 48.5q95 0 177 -48.5t130.5 -130t48.5 -176.5t-48.5 -177t-130.5 -130.5t-177 -48.5q-94 0 -176 48.5zM530 117q58 36 92.5 96.5t34.5 130.5t-34.5 130t-92.5 96t-126 36q-67 0 -125.5 -36t-93 -96
t-34.5 -130t34.5 -130.5t93 -96.5t125.5 -36q68 0 126 36z" />
    <glyph glyph-name="P" unicode="P" horiz-adv-x="665" 
d="M365 687q71 0 129.5 -28.5t92 -80t33.5 -115.5t-33.5 -115.5t-92 -80t-129.5 -28.5h-188v-239h-101v687h289zM470.5 368q45.5 35 45.5 95t-45.5 95t-120.5 35h-173v-260h173q75 0 120.5 35z" />
    <glyph glyph-name="Q" unicode="Q" horiz-adv-x="810" 
d="M740.5 230q-19.5 -55 -55.5 -102l70 -60l-58 -68l-75 65q-46 -37 -102 -57t-116 -20q-94 0 -176 48.5t-131 130.5t-49 177t49 176.5t131 130t176 48.5q95 0 177 -48.5t130.5 -130t48.5 -176.5q0 -59 -19.5 -114zM548 129l-100 87l58 68l104 -91q47 67 47 151
q0 70 -34.5 130t-92.5 96t-126 36q-67 0 -125.5 -36t-93 -96t-34.5 -130t34.5 -130.5t93 -96.5t125.5 -36q78 0 144 48z" />
    <glyph glyph-name="R" unicode="R" horiz-adv-x="669" 
d="M564 319q-56 -60 -144 -75l171 -244h-115l-168 239h-131v-239h-101v687h289q71 0 129.5 -28.5t92 -80t33.5 -115.5q0 -84 -56 -144zM177 333h173q75 0 120.5 35t45.5 95t-45.5 95t-120.5 35h-173v-260z" />
    <glyph glyph-name="S" unicode="S" horiz-adv-x="620" 
d="M41 99l61 75q101 -96 226 -96q68 0 106 30.5t38 74.5q0 46 -39.5 70.5t-132.5 45.5q-78 18 -127.5 41t-77.5 61t-28 97q0 57 30.5 103t85 72.5t122.5 26.5q76 0 137 -25t114 -72l-58 -76q-44 40 -94.5 62t-102.5 22q-37 0 -67 -14.5t-47 -38.5t-17 -51q0 -31 19 -51
t54.5 -33.5t98.5 -28.5q115 -27 173.5 -71t58.5 -130q0 -59 -29 -105t-85.5 -72.5t-135.5 -26.5q-168 0 -283 110z" />
    <glyph glyph-name="T" unicode="T" horiz-adv-x="638" 
d="M269 593h-226v94h552v-94h-225v-593h-101v593z" />
    <glyph glyph-name="U" unicode="U" horiz-adv-x="718" 
d="M206.5 26.5q-67.5 38.5 -105 107t-37.5 155.5v398h101v-396q0 -61 25 -109t69 -75t100 -27t100 27t69 75t25 109v396h101v-398q0 -87 -37.5 -155.5t-105 -107t-152.5 -38.5t-152.5 38.5z" />
    <glyph glyph-name="V" unicode="V" horiz-adv-x="753" 
d="M616 687h112l-296 -687h-111l-296 687h112l240 -558z" />
    <glyph glyph-name="W" unicode="W" horiz-adv-x="1098" 
d="M40 687h113l168 -524l173 524h111l172 -524l169 524h112l-226 -687h-101l-181 547l-183 -547h-100z" />
    <glyph glyph-name="X" unicode="X" horiz-adv-x="722" 
d="M681 687l-259 -343l259 -344h-123l-198 263l-198 -263h-121l259 343l-259 344h122l198 -263l199 263h121z" />
    <glyph glyph-name="Y" unicode="Y" horiz-adv-x="729" 
d="M313 269l-275 418h122l205 -322l208 322h117l-273 -418v-269h-104v269z" />
    <glyph glyph-name="Z" unicode="Z" horiz-adv-x="640" 
d="M50 79l396 514h-389v94h528v-79l-397 -514h401v-94h-539v79z" />
    <glyph glyph-name="bracketleft" unicode="[" horiz-adv-x="377" 
d="M79 725h248v-70h-165v-709h165v-70h-248v849z" />
    <glyph glyph-name="backslash" unicode="\" horiz-adv-x="500" 
d="M22 743h108l349 -817h-108z" />
    <glyph glyph-name="bracketright" unicode="]" horiz-adv-x="377" 
d="M50 -54h165v709h-165v70h247v-849h-247v70z" />
    <glyph glyph-name="asciicircum" unicode="^" horiz-adv-x="501" 
d="M215 687h73l157 -274h-78l-117 207l-117 -207h-77z" />
    <glyph glyph-name="underscore" unicode="_" horiz-adv-x="687" 
d="M45 -72h596v-73h-596v73z" />
    <glyph glyph-name="grave" unicode="`" horiz-adv-x="267" 
d="M25 704l97 20l119 -148h-72z" />
    <glyph glyph-name="a" unicode="a" horiz-adv-x="538" 
d="M432 470q57 -59 57 -157v-313h-97v70q-28 -39 -75 -60.5t-97 -21.5q-83 0 -137 45t-54 120q0 50 27.5 89.5t75 61t104.5 21.5q74 0 156 -28v16q0 57 -31 95.5t-102 38.5q-61 0 -145 -43l-37 73q104 52 196 52q102 0 159 -59zM336 91.5q44 25.5 56 70.5v69q-66 20 -141 20
q-53 0 -90 -27t-37 -68t32.5 -65.5t83.5 -24.5q52 0 96 25.5z" />
    <glyph glyph-name="b" unicode="b" horiz-adv-x="613" 
d="M464 494.5q54 -34.5 85 -96t31 -139.5t-31 -140t-85 -96.5t-122 -34.5q-58 0 -105 26.5t-78 73.5v-88h-99v699h99v-270q31 47 78 73.5t105 26.5q68 0 122 -34.5zM402 97.5q37 23.5 57.5 66t20.5 95.5t-20.5 95t-57.5 65.5t-83 23.5t-82.5 -23.5t-57 -65.5t-20.5 -95
t20.5 -95.5t57 -66t82.5 -23.5t83 23.5z" />
    <glyph glyph-name="c" unicode="c" horiz-adv-x="523" 
d="M169 25q-63 37 -100 99.5t-37 134.5t37.5 134t100 99t135.5 37q54 0 103 -21t87 -59l-67 -62q-23 26 -55.5 41t-68.5 15q-46 0 -85.5 -25t-63 -67.5t-23.5 -91.5q0 -50 23.5 -92.5t63 -67.5t85.5 -25q36 0 69.5 15.5t57.5 42.5l67 -61q-39 -39 -88.5 -61t-105.5 -22
q-72 0 -135 37z" />
    <glyph glyph-name="d" unicode="d" horiz-adv-x="614" 
d="M554 699v-699h-99v88q-31 -47 -78 -73.5t-105 -26.5q-68 0 -122 34.5t-85 96.5t-31 140t31 139.5t85 96t122 34.5q58 0 105 -26.5t78 -73.5v270h99zM377.5 97.5q36.5 23.5 57 66t20.5 95.5t-20.5 95t-57 65.5t-82.5 23.5t-83 -23.5t-57.5 -65.5t-20.5 -95t20.5 -95.5
t57.5 -66t83 -23.5t82.5 23.5z" />
    <glyph glyph-name="e" unicode="e" horiz-adv-x="571" 
d="M383 86.5q43 16.5 68 42.5l58 -61q-34 -36 -93.5 -58t-115.5 -22q-72 0 -133 35t-97.5 97t-36.5 140q0 76 34.5 137.5t94 96.5t130.5 35q78 0 134.5 -37t86 -105t29.5 -160h-412q9 -69 54.5 -113t112.5 -44q43 0 86 16.5zM187.5 407q-45.5 -40 -56.5 -107h315
q-8 65 -47 106t-104 41q-62 0 -107.5 -40z" />
    <glyph glyph-name="f" unicode="f" horiz-adv-x="356" 
d="M203 517h122v-84h-122v-433h-97v433h-77v84h77v62q0 62 38 101.5t98 39.5q28 0 55.5 -10t48.5 -27l-37 -66q-8 8 -22 13.5t-30 5.5q-22 0 -38 -17.5t-16 -44.5v-57z" />
    <glyph glyph-name="g" unicode="g" horiz-adv-x="607" 
d="M550 517v-462q0 -66 -33.5 -117.5t-93 -80.5t-135.5 -29q-63 0 -120.5 19t-95.5 50l39 74q28 -27 71.5 -42t91.5 -15q83 0 130 38t47 105v75q-31 -45 -78 -69.5t-104 -24.5q-68 0 -121.5 31.5t-84 87.5t-30.5 127t30.5 127t84 87t121.5 31q57 0 104.5 -25t77.5 -69v82h99
zM407 168.5q44 44.5 44 115.5q0 70 -44 114.5t-114 44.5q-68 0 -112.5 -44.5t-44.5 -114.5t44.5 -115t112.5 -45q70 0 114 44.5z" />
    <glyph glyph-name="h" unicode="h" horiz-adv-x="566" 
d="M424 504q44 -25 68.5 -70.5t24.5 -104.5v-329h-97v312q0 58 -33 94.5t-86 36.5q-39 0 -71.5 -16.5t-51.5 -44.5t-19 -61v-321h-99v699h99v-256q24 39 68 62.5t97 23.5q56 0 100 -25z" />
    <glyph glyph-name="i" unicode="i" horiz-adv-x="212" 
d="M57 517h98v-517h-98v517zM63.5 621q-17.5 18 -17.5 42t17.5 41.5t42.5 17.5q24 0 41.5 -17.5t17.5 -41.5t-17.5 -42t-41.5 -18q-25 0 -42.5 18z" />
    <glyph glyph-name="j" unicode="j" horiz-adv-x="218" 
d="M-26.5 -173q-24.5 5 -41.5 13l13 77q27 -10 61 -10q24 0 39 17.5t15 44.5v548h98v-553q0 -62 -38.5 -102t-98.5 -40q-23 0 -47.5 5zM65.5 621q-17.5 18 -17.5 42t17.5 41.5t42.5 17.5q24 0 41.5 -17.5t17.5 -41.5t-17.5 -42t-41.5 -18q-25 0 -42.5 18z" />
    <glyph glyph-name="k" unicode="k" horiz-adv-x="557" 
d="M60 699h99v-447l253 265h120l-223 -234l213 -283h-118l-163 217l-82 -84v-133h-99v699z" />
    <glyph glyph-name="l" unicode="l" horiz-adv-x="219" 
d="M60 699h99v-699h-99v699z" />
    <glyph glyph-name="m" unicode="m" horiz-adv-x="871" 
d="M731 503.5q43 -25.5 67 -71t24 -103.5v-329h-97v314q0 57 -30.5 93t-79.5 36q-56 0 -91 -33.5t-35 -86.5v-323h-97v314q0 57 -30.5 93t-79.5 36q-56 0 -91.5 -33.5t-35.5 -86.5v-323h-98v517h98v-74q20 40 58.5 63t88.5 23t91 -23t66 -63q27 40 73.5 63t102.5 23
q53 0 96 -25.5z" />
    <glyph glyph-name="n" unicode="n" horiz-adv-x="563" 
d="M421 504q44 -25 68.5 -70.5t24.5 -104.5v-329h-97v312q0 58 -33 94.5t-86 36.5q-39 0 -72 -16.5t-52 -44.5t-19 -61v-321h-98v517h98v-76q23 40 68 64t98 24q56 0 100 -25z" />
    <glyph glyph-name="o" unicode="o" horiz-adv-x="607" 
d="M167.5 24.5q-62.5 36.5 -99 99t-36.5 135.5t36.5 135t99 98.5t136.5 36.5q73 0 135.5 -36.5t99 -98.5t36.5 -135t-36.5 -135.5t-99 -99t-135.5 -36.5q-74 0 -136.5 36.5zM389.5 99q39.5 25 63 67.5t23.5 92.5t-23.5 92.5t-63 67t-85.5 24.5q-47 0 -87 -24.5t-63.5 -67
t-23.5 -92.5t23.5 -92.5t63.5 -67.5t87 -25q46 0 85.5 25z" />
    <glyph glyph-name="p" unicode="p" horiz-adv-x="613" 
d="M464 494.5q54 -34.5 85 -96t31 -139.5t-31 -140t-85 -96.5t-122 -34.5q-58 0 -105 26.5t-78 73.5v-260h-99v689h99v-88q31 47 78 73.5t105 26.5q68 0 122 -34.5zM402 97.5q37 23.5 57.5 66t20.5 95.5t-20.5 95t-57.5 65.5t-83 23.5t-82.5 -23.5t-57 -65.5t-20.5 -95
t20.5 -95.5t57 -66t82.5 -23.5t83 23.5z" />
    <glyph glyph-name="q" unicode="q" horiz-adv-x="614" 
d="M554 517v-689h-99v260q-31 -47 -78 -73.5t-105 -26.5q-68 0 -122 34.5t-85 96.5t-31 140t31 139.5t85 96t122 34.5q58 0 105 -26.5t78 -73.5v88h99zM377.5 97.5q36.5 23.5 57 66t20.5 95.5t-20.5 95t-57 65.5t-82.5 23.5t-83 -23.5t-57.5 -65.5t-20.5 -95t20.5 -95.5
t57.5 -66t83 -23.5t82.5 23.5z" />
    <glyph glyph-name="r" unicode="r" horiz-adv-x="375" 
d="M230 498.5q51 30.5 118 30.5v-86q-56 0 -100 -21t-68.5 -59.5t-24.5 -87.5v-275h-98v517h98v-101q24 52 75 82.5z" />
    <glyph glyph-name="s" unicode="s" horiz-adv-x="474" 
d="M131 8q-58 20 -105 57l46 68q43 -32 88 -48.5t88 -16.5q46 0 73.5 19t27.5 51q0 33 -29 49.5t-91 33.5q-95 26 -136.5 58.5t-41.5 92.5q0 71 52.5 114t135.5 43q49 0 98.5 -16t92.5 -44l-42 -70q-78 50 -149 50q-41 0 -67.5 -17.5t-26.5 -48.5q0 -20 12 -32t35.5 -21.5
t74.5 -25.5q56 -16 91.5 -32t60 -46t24.5 -78q0 -72 -55 -116t-141 -44q-58 0 -116 20z" />
    <glyph glyph-name="t" unicode="t" horiz-adv-x="373" 
d="M345 25q-21 -17 -48 -27t-55 -10q-60 0 -98 39.5t-38 101.5v304h-78v84h78v142h97v-142h122v-84h-122v-297q0 -27 15.5 -44.5t37.5 -17.5q16 0 30.5 5.5t22.5 13.5z" />
    <glyph glyph-name="u" unicode="u" horiz-adv-x="562" 
d="M506 517v-517h-99v76q-23 -39 -67.5 -63.5t-97.5 -24.5q-56 0 -100 25t-68.5 70.5t-24.5 104.5v329h97v-312q0 -58 32.5 -94.5t85.5 -36.5q39 0 72 16.5t52 44.5t19 61v321h99z" />
    <glyph glyph-name="v" unicode="v" horiz-adv-x="579" 
d="M23 517h107l161 -402l158 402h107l-218 -517h-93z" />
    <glyph glyph-name="w" unicode="w" horiz-adv-x="828" 
d="M25 517h101l118 -385l128 385h84l128 -385l119 385h101l-175 -517h-91l-123 384l-125 -384h-91z" />
    <glyph glyph-name="x" unicode="x" horiz-adv-x="552" 
d="M528 0h-111l-141 190l-142 -190h-110l197 264l-189 253h112l132 -178l133 178h110l-188 -252z" />
    <glyph glyph-name="y" unicode="y" horiz-adv-x="580" 
d="M64 -158l22 76q29 -16 64 -16q24 0 41 9.5t30 32.5l25 53l-222 520h106l166 -408l157 408h103l-227 -564q-28 -68 -69 -100t-98 -33q-54 0 -98 22z" />
    <glyph glyph-name="z" unicode="z" horiz-adv-x="495" 
d="M35 74l290 354h-283v89h414v-74l-291 -354h293v-89h-423v74z" />
    <glyph glyph-name="braceleft" unicode="{" horiz-adv-x="407" 
d="M225 -137.5q-46 20.5 -65.5 55t-19.5 89.5v134q0 49 -22.5 70.5t-74.5 21.5v66q53 0 75 21.5t22 70.5v133q0 55 20 90t66 55t125 28l8 -65q-59 -9 -88 -20.5t-39.5 -32.5t-10.5 -61l1 -138q0 -46 -19 -73.5t-57 -40.5q39 -14 57.5 -41.5t18.5 -73.5l-1 -137q0 -40 11 -61
t40 -33t87 -21l-8 -65q-80 8 -126 28.5z" />
    <glyph glyph-name="bar" unicode="|" horiz-adv-x="253" 
d="M90 743h73v-817h-73v817z" />
    <glyph glyph-name="braceright" unicode="}" horiz-adv-x="407" 
d="M135 -80q29 12 40 33t11 61l-1 137q0 46 18.5 73.5t57.5 41.5q-38 13 -57 40.5t-19 73.5l1 138q0 40 -10.5 61t-39.5 32.5t-88 20.5l8 65q79 -8 125 -28t66 -55t20 -90v-133q0 -49 22 -70.5t75 -21.5v-66q-52 0 -74.5 -21.5t-22.5 -70.5v-134q0 -55 -19.5 -89.5
t-65.5 -55t-126 -28.5l-8 65q58 9 87 21z" />
    <glyph glyph-name="asciitilde" unicode="~" horiz-adv-x="464" 
d="M259 307q-17 9 -41 26q-17 13 -28.5 19.5t-22.5 6.5q-19 0 -30.5 -15t-16.5 -48l-55 9q16 123 101 123q21 0 38 -9t41 -26q17 -13 28.5 -19.5t22.5 -6.5q18 0 29.5 15t17.5 48l55 -8q-15 -124 -101 -124q-21 0 -38 9z" />
    <glyph glyph-name="exclamdown" unicode="&#xa1;" 
d="M173.5 509q19.5 -20 19.5 -48q0 -26 -19.5 -45.5t-48.5 -19.5q-26 0 -45.5 19.5t-19.5 45.5q0 28 19.5 48t45.5 20q29 0 48.5 -20zM67 -170l25 478h68l24 -478h-117z" />
    <glyph glyph-name="cent" unicode="&#xa2;" horiz-adv-x="601" 
d="M385 -9v-65h-84v65q-63 10 -116 48.5t-83.5 96.5t-30.5 123t30.5 122.5t83.5 96t116 48.5v63h84v-63q85 -13 149 -77l-67 -62q-33 37 -82 51v-359q48 13 85 53l67 -61q-65 -65 -152 -80zM208 145.5q37 -50.5 93 -65.5v357q-56 -15 -93 -65t-37 -113t37 -113.5z" />
    <glyph glyph-name="sterling" unicode="&#xa3;" horiz-adv-x="673" 
d="M606 88v-88h-537v46l72 42v171h-65v71h65v133q0 68 28.5 122t79 84t115.5 30q69 0 130 -32t88 -82l-71 -69q-13 40 -53 65.5t-89 25.5q-56 0 -91.5 -41.5t-35.5 -106.5v-129h189v-71h-189v-171h364z" />
    <glyph glyph-name="yen" unicode="&#xa5;" horiz-adv-x="777" 
d="M714 687l-235 -360h158v-71h-196v-75h196v-71h-196v-110h-104v110h-196v71h196v75h-196v71h158l-237 360h122l205 -322l208 322h117z" />
    <glyph glyph-name="dieresis" unicode="&#xa8;" horiz-adv-x="378" 
d="M51 608.5q-16 15.5 -16 38.5q0 21 16 37.5t39 16.5q22 0 38 -16.5t16 -37.5q0 -22 -16 -38t-38 -16q-23 0 -39 15.5zM250 609q-16 16 -16 38q0 21 16 37.5t38 16.5t38 -16.5t16 -37.5q0 -22 -15.5 -38t-38.5 -16q-22 0 -38 16z" />
    <glyph glyph-name="copyright" unicode="&#xa9;" horiz-adv-x="915" 
d="M259.5 -62.5q-91.5 53.5 -145 144.5t-53.5 198t53.5 197.5t145 144t198.5 53.5t198 -53.5t144.5 -144t53.5 -197.5t-53.5 -198t-144.5 -144.5t-198 -53.5t-198.5 53.5zM637 -30.5q82 48.5 130.5 131t48.5 179.5q0 96 -48.5 178.5t-130.5 131t-179 48.5t-180 -48.5
t-131.5 -131t-48.5 -178.5q0 -97 48.5 -179.5t131.5 -131t180 -48.5t179 48.5zM324.5 46q-62.5 37 -100 99.5t-37.5 134.5t37.5 134t100 99t135.5 37q55 0 103.5 -21t86.5 -59l-67 -62q-23 26 -55.5 41t-67.5 15q-46 0 -86 -25t-63.5 -67.5t-23.5 -91.5q0 -50 23.5 -92.5
t63.5 -67.5t86 -25q36 0 69 15.5t57 42.5l67 -61q-38 -39 -87.5 -61t-105.5 -22q-73 0 -135.5 37z" />
    <glyph glyph-name="guillemotleft" unicode="&#xab;" horiz-adv-x="552" 
d="M44 252l162 199l88 -19l-145 -179l145 -182l-88 -20zM254 252l162 199l88 -19l-145 -179l145 -182l-88 -20z" />
    <glyph glyph-name="registered" unicode="&#xae;" horiz-adv-x="619" 
d="M432.5 642q56.5 -33 90 -89.5t33.5 -122.5t-33.5 -122.5t-90 -90t-122.5 -33.5q-67 0 -123.5 33.5t-90 90t-33.5 122.5t33.5 122.5t90 89.5t123.5 33q66 0 122.5 -33zM415 249q48 28 76 76t28 105q0 56 -28 104t-76 76t-105 28t-105 -28t-76.5 -76t-28.5 -104
q0 -57 28.5 -105t76.5 -76t105 -28t105 28zM424.5 416.5q-17.5 -25.5 -47.5 -37.5l70 -100h-79l-64 91h-39v-91h-77v300h139q51 0 83 -29t32 -75q0 -33 -17.5 -58.5zM265 447h56q17 0 28 8t11 20q0 13 -11 20.5t-28 7.5h-56v-56z" />
    <glyph glyph-name="macron" unicode="&#xaf;" horiz-adv-x="412" 
d="M45 655h322v-65h-322v65z" />
    <glyph glyph-name="degree" unicode="&#xb0;" horiz-adv-x="416" 
d="M105.5 457q-40.5 40 -40.5 101t40.5 101t102.5 40t102.5 -40t40.5 -101t-40.5 -101t-102.5 -40t-102.5 40zM258.5 505.5q19.5 20.5 19.5 52.5t-19.5 52.5t-50.5 20.5t-50.5 -20.5t-19.5 -52.5t19.5 -52.5t50.5 -20.5t50.5 20.5z" />
    <glyph glyph-name="acute" unicode="&#xb4;" horiz-adv-x="268" 
d="M146 724l96 -20l-144 -128h-72z" />
    <glyph glyph-name="paragraph" unicode="&#xb6;" horiz-adv-x="653" 
d="M169 316.5q-53 24.5 -82 69t-29 102.5t28 103t78.5 70t114.5 25h285v-736h-77v664h-118v-664h-77v342q-70 0 -123 24.5z" />
    <glyph glyph-name="periodcentered" unicode="&#xb7;" horiz-adv-x="235" 
d="M74 230q-18 18 -18 44t18 43.5t44 17.5t43.5 -17.5t17.5 -43.5t-17.5 -44t-43.5 -18t-44 18z" />
    <glyph glyph-name="cedilla" unicode="&#xb8;" 
d="M199.5 -63q19.5 -19 19.5 -48q0 -37 -29 -60t-72 -23q-26 0 -50 8t-40 21l21 47q29 -23 64 -23q20 0 33.5 10t13.5 25q0 14 -9.5 23t-27.5 9q-19 0 -32 -10l-18 18l32 77h60l-24 -55h8q31 0 50.5 -19z" />
    <glyph glyph-name="guillemotright" unicode="&#xbb;" horiz-adv-x="552" 
d="M48 71l145 182l-145 179l88 19l162 -199l-162 -201zM258 71l145 182l-145 179l88 19l162 -199l-162 -201z" />
    <glyph glyph-name="questiondown" unicode="&#xbf;" horiz-adv-x="532" 
d="M335 509q20 -20 20 -48q0 -26 -20 -45.5t-48 -19.5q-26 0 -45.5 19.5t-19.5 45.5q0 28 19.5 48t45.5 20q28 0 48 -20zM201 91.5q-52 -32.5 -52 -76.5q0 -43 34 -74.5t89 -31.5q47 0 85 22t72 62l62 -62q-94 -113 -229 -113q-64 0 -112.5 24.5t-75.5 67.5t-27 95
q0 45 24.5 85t68 69t99.5 41v110h96v-180q-82 -6 -134 -38.5z" />
    <glyph glyph-name="Agrave" unicode="&#xc0;" horiz-adv-x="781" 
d="M630 0l-61 143h-356l-62 -143h-111l295 687h112l295 -687h-112zM251 231h280l-140 326zM212 874l97 20l119 -148h-72z" />
    <glyph glyph-name="Aacute" unicode="&#xc1;" horiz-adv-x="781" 
d="M630 0l-61 143h-356l-62 -143h-111l295 687h112l295 -687h-112zM251 231h280l-140 326zM474 894l96 -20l-144 -128h-72z" />
    <glyph glyph-name="Acircumflex" unicode="&#xc2;" horiz-adv-x="781" 
d="M630 0l-61 143h-356l-62 -143h-111l295 687h112l295 -687h-112zM251 231h280l-140 326zM348 886h87l103 -140h-69l-78 82l-77 -82h-68z" />
    <glyph glyph-name="Atilde" unicode="&#xc3;" horiz-adv-x="781" 
d="M630 0l-61 143h-356l-62 -143h-111l295 687h112l295 -687h-112zM251 231h280l-140 326zM418 753q-17 9 -41 26q-17 13 -28.5 19.5t-22.5 6.5q-19 0 -30.5 -15t-16.5 -48l-55 9q16 123 101 123q21 0 38 -9t41 -26q17 -13 28.5 -19.5t22.5 -6.5q18 0 29.5 15t17.5 48l55 -8
q-15 -124 -101 -124q-21 0 -38 9z" />
    <glyph glyph-name="Adieresis" unicode="&#xc4;" horiz-adv-x="781" 
d="M630 0l-61 143h-356l-62 -143h-111l295 687h112l295 -687h-112zM251 231h280l-140 326zM253 778.5q-16 15.5 -16 38.5q0 21 16 37.5t39 16.5q22 0 38 -16.5t16 -37.5q0 -22 -16 -38t-38 -16q-23 0 -39 15.5zM452 779q-16 16 -16 38q0 21 16 37.5t38 16.5t38 -16.5
t16 -37.5q0 -22 -15.5 -38t-38.5 -16q-22 0 -38 16z" />
    <glyph glyph-name="Aring" unicode="&#xc5;" horiz-adv-x="781" 
d="M630 0l-61 143h-356l-62 -143h-111l295 687h112l295 -687h-112zM251 231h280l-140 326zM315.5 787.5q-31.5 31.5 -31.5 75.5t31.5 75t75.5 31t75.5 -31t31.5 -75t-31.5 -75.5t-75.5 -31.5t-75.5 31.5zM431 823q17 17 17 40t-17 40t-40 17t-40 -17t-17 -40t17 -40t40 -17
t40 17z" />
    <glyph glyph-name="AE" unicode="&#xc6;" horiz-adv-x="1057" 
d="M434 687h569v-94h-403v-196h363v-94h-363v-209h403v-94h-505v143h-260l-83 -143h-117zM498 231v362l-209 -362h209z" />
    <glyph glyph-name="Ccedilla" unicode="&#xc7;" horiz-adv-x="699" 
d="M503.5 103q47.5 22 83.5 61l71 -68q-46 -46 -105 -74.5t-124 -32.5l-15 -33h8q31 0 50.5 -19t19.5 -48q0 -37 -29 -60t-72 -23q-26 0 -50 8t-40 21l21 47q29 -23 64 -23q20 0 33.5 10t13.5 25q0 14 -9.5 23t-27.5 9q-19 0 -32 -10l-18 18l23 56q-87 9 -160.5 59t-117 128
t-43.5 167q0 95 49 176.5t131 130t176 48.5q73 0 139 -28.5t115 -79.5l-71 -68q-36 39 -83.5 61t-99.5 22q-67 0 -125.5 -36t-93 -96t-34.5 -130t34.5 -130.5t93 -96.5t125.5 -36q52 0 99.5 22z" />
    <glyph glyph-name="Egrave" unicode="&#xc8;" horiz-adv-x="635" 
d="M581 593h-403v-196h363v-94h-363v-209h403v-94h-505v687h505v-94zM149 874l97 20l119 -148h-72z" />
    <glyph glyph-name="Eacute" unicode="&#xc9;" horiz-adv-x="635" 
d="M581 593h-403v-196h363v-94h-363v-209h403v-94h-505v687h505v-94zM411 894l96 -20l-144 -128h-72z" />
    <glyph glyph-name="Ecircumflex" unicode="&#xca;" horiz-adv-x="635" 
d="M581 593h-403v-196h363v-94h-363v-209h403v-94h-505v687h505v-94zM285 886h87l103 -140h-69l-78 82l-77 -82h-68z" />
    <glyph glyph-name="Edieresis" unicode="&#xcb;" horiz-adv-x="635" 
d="M581 593h-403v-196h363v-94h-363v-209h403v-94h-505v687h505v-94zM191 778.5q-16 15.5 -16 38.5q0 21 16 37.5t39 16.5q22 0 38 -16.5t16 -37.5q0 -22 -16 -38t-38 -16q-23 0 -39 15.5zM390 779q-16 16 -16 38q0 21 16 37.5t38 16.5t38 -16.5t16 -37.5q0 -22 -15.5 -38
t-38.5 -16q-22 0 -38 16z" />
    <glyph glyph-name="Igrave" unicode="&#xcc;" 
d="M76 687h101v-687h-101v687zM-53 874l97 20l119 -148h-72z" />
    <glyph glyph-name="Iacute" unicode="&#xcd;" 
d="M76 687h101v-687h-101v687zM209 894l96 -20l-144 -128h-72z" />
    <glyph glyph-name="Icircumflex" unicode="&#xce;" 
d="M76 687h101v-687h-101v687zM83 886h87l103 -140h-69l-78 82l-77 -82h-68z" />
    <glyph glyph-name="Idieresis" unicode="&#xcf;" 
d="M76 687h101v-687h-101v687zM-12 778.5q-16 15.5 -16 38.5q0 21 16 37.5t39 16.5q22 0 38 -16.5t16 -37.5q0 -22 -16 -38t-38 -16q-23 0 -39 15.5zM187 779q-16 16 -16 38q0 21 16 37.5t38 16.5t38 -16.5t16 -37.5q0 -22 -15.5 -38t-38.5 -16q-22 0 -38 16z" />
    <glyph glyph-name="Eth" unicode="&#xd0;" horiz-adv-x="767" 
d="M535.5 643q86.5 -44 135 -122t48.5 -177t-48.5 -177.5t-135 -122.5t-196.5 -44h-237v302h-59v94h59v291h237q110 0 196.5 -44zM485.5 124q61.5 32 96 89.5t34.5 130.5t-34.5 130t-96 89t-139.5 32h-142v-199h198l-1 -94h-197v-210h142q78 0 139.5 32z" />
    <glyph glyph-name="Ntilde" unicode="&#xd1;" horiz-adv-x="748" 
d="M76 687h101l394 -521v521h101v-687h-101l-394 521v-521h-101v687zM401 753q-17 9 -41 26q-17 13 -28.5 19.5t-22.5 6.5q-19 0 -30.5 -15t-16.5 -48l-55 9q16 123 101 123q21 0 38 -9t41 -26q17 -13 28.5 -19.5t22.5 -6.5q18 0 29.5 15t17.5 48l55 -8q-15 -124 -101 -124
q-21 0 -38 9z" />
    <glyph glyph-name="Ograve" unicode="&#xd2;" horiz-adv-x="808" 
d="M228 36.5q-82 48.5 -131 130.5t-49 177t49 176.5t131 130t176 48.5q95 0 177 -48.5t130.5 -130t48.5 -176.5t-48.5 -177t-130.5 -130.5t-177 -48.5q-94 0 -176 48.5zM530 117q58 36 92.5 96.5t34.5 130.5t-34.5 130t-92.5 96t-126 36q-67 0 -125.5 -36t-93 -96
t-34.5 -130t34.5 -130.5t93 -96.5t125.5 -36q68 0 126 36zM225 874l97 20l119 -148h-72z" />
    <glyph glyph-name="Oacute" unicode="&#xd3;" horiz-adv-x="808" 
d="M228 36.5q-82 48.5 -131 130.5t-49 177t49 176.5t131 130t176 48.5q95 0 177 -48.5t130.5 -130t48.5 -176.5t-48.5 -177t-130.5 -130.5t-177 -48.5q-94 0 -176 48.5zM530 117q58 36 92.5 96.5t34.5 130.5t-34.5 130t-92.5 96t-126 36q-67 0 -125.5 -36t-93 -96
t-34.5 -130t34.5 -130.5t93 -96.5t125.5 -36q68 0 126 36zM487 894l96 -20l-144 -128h-72z" />
    <glyph glyph-name="Ocircumflex" unicode="&#xd4;" horiz-adv-x="808" 
d="M228 36.5q-82 48.5 -131 130.5t-49 177t49 176.5t131 130t176 48.5q95 0 177 -48.5t130.5 -130t48.5 -176.5t-48.5 -177t-130.5 -130.5t-177 -48.5q-94 0 -176 48.5zM530 117q58 36 92.5 96.5t34.5 130.5t-34.5 130t-92.5 96t-126 36q-67 0 -125.5 -36t-93 -96
t-34.5 -130t34.5 -130.5t93 -96.5t125.5 -36q68 0 126 36zM361 886h87l103 -140h-69l-78 82l-77 -82h-68z" />
    <glyph glyph-name="Otilde" unicode="&#xd5;" horiz-adv-x="808" 
d="M228 36.5q-82 48.5 -131 130.5t-49 177t49 176.5t131 130t176 48.5q95 0 177 -48.5t130.5 -130t48.5 -176.5t-48.5 -177t-130.5 -130.5t-177 -48.5q-94 0 -176 48.5zM530 117q58 36 92.5 96.5t34.5 130.5t-34.5 130t-92.5 96t-126 36q-67 0 -125.5 -36t-93 -96
t-34.5 -130t34.5 -130.5t93 -96.5t125.5 -36q68 0 126 36zM432 753q-17 9 -41 26q-17 13 -28.5 19.5t-22.5 6.5q-19 0 -30.5 -15t-16.5 -48l-55 9q16 123 101 123q21 0 38 -9t41 -26q17 -13 28.5 -19.5t22.5 -6.5q18 0 29.5 15t17.5 48l55 -8q-15 -124 -101 -124
q-21 0 -38 9z" />
    <glyph glyph-name="Odieresis" unicode="&#xd6;" horiz-adv-x="808" 
d="M228 36.5q-82 48.5 -131 130.5t-49 177t49 176.5t131 130t176 48.5q95 0 177 -48.5t130.5 -130t48.5 -176.5t-48.5 -177t-130.5 -130.5t-177 -48.5q-94 0 -176 48.5zM530 117q58 36 92.5 96.5t34.5 130.5t-34.5 130t-92.5 96t-126 36q-67 0 -125.5 -36t-93 -96
t-34.5 -130t34.5 -130.5t93 -96.5t125.5 -36q68 0 126 36zM267 778.5q-16 15.5 -16 38.5q0 21 16 37.5t39 16.5q22 0 38 -16.5t16 -37.5q0 -22 -16 -38t-38 -16q-23 0 -39 15.5zM466 779q-16 16 -16 38q0 21 16 37.5t38 16.5t38 -16.5t16 -37.5q0 -22 -15.5 -38t-38.5 -16
q-22 0 -38 16z" />
    <glyph glyph-name="multiply" unicode="&#xd7;" horiz-adv-x="509" 
d="M452 202l-65 -65l-133 133l-133 -132l-63 62l133 133l-134 134l65 65l134 -134l132 133l63 -64l-132 -132z" />
    <glyph glyph-name="Oslash" unicode="&#xd8;" horiz-adv-x="811" 
d="M736 475q26 -63 26 -131q0 -95 -48.5 -177t-130 -130.5t-176.5 -48.5q-55 0 -107.5 17.5t-97.5 49.5l-47 -55h-100l91 105q-45 48 -70.5 110t-25.5 129q0 95 49 176.5t131 130t177 48.5q54 0 105 -16.5t94 -46.5l44 51h100l-87 -100q47 -49 73 -112zM210 179l333 384
q-64 43 -136 43q-68 0 -126.5 -36t-93 -96t-34.5 -130q0 -90 57 -165zM532 117q58 36 92.5 96.5t34.5 130.5q0 46 -16 89.5t-44 78.5l-334 -385q65 -46 142 -46q67 0 125 36z" />
    <glyph glyph-name="Ugrave" unicode="&#xd9;" horiz-adv-x="718" 
d="M206.5 26.5q-67.5 38.5 -105 107t-37.5 155.5v398h101v-396q0 -61 25 -109t69 -75t100 -27t100 27t69 75t25 109v396h101v-398q0 -87 -37.5 -155.5t-105 -107t-152.5 -38.5t-152.5 38.5zM180 874l97 20l119 -148h-72z" />
    <glyph glyph-name="Uacute" unicode="&#xda;" horiz-adv-x="718" 
d="M206.5 26.5q-67.5 38.5 -105 107t-37.5 155.5v398h101v-396q0 -61 25 -109t69 -75t100 -27t100 27t69 75t25 109v396h101v-398q0 -87 -37.5 -155.5t-105 -107t-152.5 -38.5t-152.5 38.5zM442 894l96 -20l-144 -128h-72z" />
    <glyph glyph-name="Ucircumflex" unicode="&#xdb;" horiz-adv-x="718" 
d="M206.5 26.5q-67.5 38.5 -105 107t-37.5 155.5v398h101v-396q0 -61 25 -109t69 -75t100 -27t100 27t69 75t25 109v396h101v-398q0 -87 -37.5 -155.5t-105 -107t-152.5 -38.5t-152.5 38.5zM316 886h87l103 -140h-69l-78 82l-77 -82h-68z" />
    <glyph glyph-name="Udieresis" unicode="&#xdc;" horiz-adv-x="718" 
d="M206.5 26.5q-67.5 38.5 -105 107t-37.5 155.5v398h101v-396q0 -61 25 -109t69 -75t100 -27t100 27t69 75t25 109v396h101v-398q0 -87 -37.5 -155.5t-105 -107t-152.5 -38.5t-152.5 38.5zM221 778.5q-16 15.5 -16 38.5q0 21 16 37.5t39 16.5q22 0 38 -16.5t16 -37.5
q0 -22 -16 -38t-38 -16q-23 0 -39 15.5zM420 779q-16 16 -16 38q0 21 16 37.5t38 16.5t38 -16.5t16 -37.5q0 -22 -15.5 -38t-38.5 -16q-22 0 -38 16z" />
    <glyph glyph-name="Yacute" unicode="&#xdd;" horiz-adv-x="729" 
d="M313 269l-275 418h122l205 -322l208 322h117l-273 -418v-269h-104v269zM447 894l96 -20l-144 -128h-72z" />
    <glyph glyph-name="Thorn" unicode="&#xde;" horiz-adv-x="665" 
d="M177 687v-117h188q71 0 129.5 -28.5t92 -80t33.5 -115.5q0 -65 -33.5 -116t-92 -79.5t-129.5 -28.5h-188v-122h-101v687h101zM470.5 251q45.5 35 45.5 95t-45.5 94.5t-120.5 34.5h-173v-259h173q75 0 120.5 35z" />
    <glyph glyph-name="germandbls" unicode="&#xdf;" horiz-adv-x="561" 
d="M88 620.5q28 42.5 78 66t114 23.5t114 -23.5t78 -66t28 -96.5q0 -118 -96 -160q124 -48 124 -177q0 -54 -27 -96.5t-75.5 -66.5t-109.5 -24h-82v89h60q57 0 93.5 31.5t36.5 81.5t-36.5 81.5t-93.5 31.5h-60v86h45q50 0 83.5 31t33.5 75q0 47 -32.5 77t-84.5 30t-85 -31
t-33 -80v-503h-101v524q0 54 28 96.5z" />
    <glyph glyph-name="agrave" unicode="&#xe0;" horiz-adv-x="538" 
d="M432 470q57 -59 57 -157v-313h-97v70q-28 -39 -75 -60.5t-97 -21.5q-83 0 -137 45t-54 120q0 50 27.5 89.5t75 61t104.5 21.5q74 0 156 -28v16q0 57 -31 95.5t-102 38.5q-61 0 -145 -43l-37 73q104 52 196 52q102 0 159 -59zM336 91.5q44 25.5 56 70.5v69q-66 20 -141 20
q-53 0 -90 -27t-37 -68t32.5 -65.5t83.5 -24.5q52 0 96 25.5zM110 704l97 20l119 -148h-72z" />
    <glyph glyph-name="aacute" unicode="&#xe1;" horiz-adv-x="538" 
d="M432 470q57 -59 57 -157v-313h-97v70q-28 -39 -75 -60.5t-97 -21.5q-83 0 -137 45t-54 120q0 50 27.5 89.5t75 61t104.5 21.5q74 0 156 -28v16q0 57 -31 95.5t-102 38.5q-61 0 -145 -43l-37 73q104 52 196 52q102 0 159 -59zM336 91.5q44 25.5 56 70.5v69q-66 20 -141 20
q-53 0 -90 -27t-37 -68t32.5 -65.5t83.5 -24.5q52 0 96 25.5zM372 724l96 -20l-144 -128h-72z" />
    <glyph glyph-name="acircumflex" unicode="&#xe2;" horiz-adv-x="538" 
d="M432 470q57 -59 57 -157v-313h-97v70q-28 -39 -75 -60.5t-97 -21.5q-83 0 -137 45t-54 120q0 50 27.5 89.5t75 61t104.5 21.5q74 0 156 -28v16q0 57 -31 95.5t-102 38.5q-61 0 -145 -43l-37 73q104 52 196 52q102 0 159 -59zM336 91.5q44 25.5 56 70.5v69q-66 20 -141 20
q-53 0 -90 -27t-37 -68t32.5 -65.5t83.5 -24.5q52 0 96 25.5zM247 716h87l103 -140h-69l-78 82l-77 -82h-68z" />
    <glyph glyph-name="atilde" unicode="&#xe3;" horiz-adv-x="538" 
d="M432 470q57 -59 57 -157v-313h-97v70q-28 -39 -75 -60.5t-97 -21.5q-83 0 -137 45t-54 120q0 50 27.5 89.5t75 61t104.5 21.5q74 0 156 -28v16q0 57 -31 95.5t-102 38.5q-61 0 -145 -43l-37 73q104 52 196 52q102 0 159 -59zM336 91.5q44 25.5 56 70.5v69q-66 20 -141 20
q-53 0 -90 -27t-37 -68t32.5 -65.5t83.5 -24.5q52 0 96 25.5zM317 583q-17 9 -41 26q-17 13 -28.5 19.5t-22.5 6.5q-19 0 -30.5 -15t-16.5 -48l-55 9q16 123 101 123q21 0 38 -9t41 -26q17 -13 28.5 -19.5t22.5 -6.5q18 0 29.5 15t17.5 48l55 -8q-15 -124 -101 -124
q-21 0 -38 9z" />
    <glyph glyph-name="adieresis" unicode="&#xe4;" horiz-adv-x="538" 
d="M432 470q57 -59 57 -157v-313h-97v70q-28 -39 -75 -60.5t-97 -21.5q-83 0 -137 45t-54 120q0 50 27.5 89.5t75 61t104.5 21.5q74 0 156 -28v16q0 57 -31 95.5t-102 38.5q-61 0 -145 -43l-37 73q104 52 196 52q102 0 159 -59zM336 91.5q44 25.5 56 70.5v69q-66 20 -141 20
q-53 0 -90 -27t-37 -68t32.5 -65.5t83.5 -24.5q52 0 96 25.5zM152 608.5q-16 15.5 -16 38.5q0 21 16 37.5t39 16.5q22 0 38 -16.5t16 -37.5q0 -22 -16 -38t-38 -16q-23 0 -39 15.5zM351 609q-16 16 -16 38q0 21 16 37.5t38 16.5t38 -16.5t16 -37.5q0 -22 -15.5 -38
t-38.5 -16q-22 0 -38 16z" />
    <glyph glyph-name="aring" unicode="&#xe5;" horiz-adv-x="538" 
d="M432 470q57 -59 57 -157v-313h-97v70q-28 -39 -75 -60.5t-97 -21.5q-83 0 -137 45t-54 120q0 50 27.5 89.5t75 61t104.5 21.5q74 0 156 -28v16q0 57 -31 95.5t-102 38.5q-61 0 -145 -43l-37 73q104 52 196 52q102 0 159 -59zM336 91.5q44 25.5 56 70.5v69q-66 20 -141 20
q-53 0 -90 -27t-37 -68t32.5 -65.5t83.5 -24.5q52 0 96 25.5zM214.5 617.5q-31.5 31.5 -31.5 75.5t31.5 75t75.5 31t75.5 -31t31.5 -75t-31.5 -75.5t-75.5 -31.5t-75.5 31.5zM330 653q17 17 17 40t-17 40t-40 17t-40 -17t-17 -40t17 -40t40 -17t40 17z" />
    <glyph glyph-name="ae" unicode="&#xe6;" horiz-adv-x="930" 
d="M742.5 87q43.5 17 67.5 42l58 -61q-33 -36 -92.5 -58t-116.5 -22q-64 0 -120 29t-93 80q-32 -50 -88.5 -79.5t-123.5 -29.5q-95 0 -150 44t-55 121q0 50 27.5 89.5t75 61t104.5 21.5q75 0 156 -28v16q0 57 -31 95.5t-102 38.5q-61 0 -145 -43l-36 73q103 52 192 52
q65 0 111.5 -25.5t70.5 -70.5q36 45 88.5 70.5t111.5 25.5q78 0 134.5 -37t86 -105t29.5 -160h-413q10 -70 55.5 -113.5t112.5 -43.5q42 0 85.5 17zM546.5 407q-45.5 -40 -56.5 -107h316q-9 66 -47.5 106.5t-104.5 40.5q-62 0 -107.5 -40zM392 231q-70 20 -141 20
q-53 0 -90 -27t-37 -68t32.5 -65.5t83.5 -24.5t95.5 25.5t56.5 70.5v69z" />
    <glyph glyph-name="ccedilla" unicode="&#xe7;" horiz-adv-x="523" 
d="M416 12.5q-46 -21.5 -98 -24.5l-14 -32h8q31 0 50.5 -19t19.5 -48q0 -37 -29 -60t-72 -23q-26 0 -50 8t-40 21l21 47q29 -23 64 -23q20 0 33.5 10t13.5 25q0 14 -9.5 23t-27.5 9q-19 0 -32 -10l-18 18l24 58q-63 10 -115 48.5t-82.5 96t-30.5 122.5q0 72 37.5 134t100 99
t135.5 37q54 0 103 -21t87 -59l-67 -62q-23 26 -55.5 41t-68.5 15q-46 0 -85.5 -25t-63 -67.5t-23.5 -91.5q0 -50 23.5 -92.5t63 -67.5t85.5 -25q36 0 69.5 15.5t57.5 42.5l67 -61q-36 -37 -82 -58.5z" />
    <glyph glyph-name="egrave" unicode="&#xe8;" horiz-adv-x="571" 
d="M383 86.5q43 16.5 68 42.5l58 -61q-34 -36 -93.5 -58t-115.5 -22q-72 0 -133 35t-97.5 97t-36.5 140q0 76 34.5 137.5t94 96.5t130.5 35q78 0 134.5 -37t86 -105t29.5 -160h-412q9 -69 54.5 -113t112.5 -44q43 0 86 16.5zM187.5 407q-45.5 -40 -56.5 -107h315
q-8 65 -47 106t-104 41q-62 0 -107.5 -40zM113 704l97 20l119 -148h-72z" />
    <glyph glyph-name="eacute" unicode="&#xe9;" horiz-adv-x="571" 
d="M383 86.5q43 16.5 68 42.5l58 -61q-34 -36 -93.5 -58t-115.5 -22q-72 0 -133 35t-97.5 97t-36.5 140q0 76 34.5 137.5t94 96.5t130.5 35q78 0 134.5 -37t86 -105t29.5 -160h-412q9 -69 54.5 -113t112.5 -44q43 0 86 16.5zM187.5 407q-45.5 -40 -56.5 -107h315
q-8 65 -47 106t-104 41q-62 0 -107.5 -40zM375 724l96 -20l-144 -128h-72z" />
    <glyph glyph-name="ecircumflex" unicode="&#xea;" horiz-adv-x="571" 
d="M383 86.5q43 16.5 68 42.5l58 -61q-34 -36 -93.5 -58t-115.5 -22q-72 0 -133 35t-97.5 97t-36.5 140q0 76 34.5 137.5t94 96.5t130.5 35q78 0 134.5 -37t86 -105t29.5 -160h-412q9 -69 54.5 -113t112.5 -44q43 0 86 16.5zM187.5 407q-45.5 -40 -56.5 -107h315
q-8 65 -47 106t-104 41q-62 0 -107.5 -40zM249 716h87l103 -140h-69l-78 82l-77 -82h-68z" />
    <glyph glyph-name="edieresis" unicode="&#xeb;" horiz-adv-x="571" 
d="M383 86.5q43 16.5 68 42.5l58 -61q-34 -36 -93.5 -58t-115.5 -22q-72 0 -133 35t-97.5 97t-36.5 140q0 76 34.5 137.5t94 96.5t130.5 35q78 0 134.5 -37t86 -105t29.5 -160h-412q9 -69 54.5 -113t112.5 -44q43 0 86 16.5zM187.5 407q-45.5 -40 -56.5 -107h315
q-8 65 -47 106t-104 41q-62 0 -107.5 -40zM155 608.5q-16 15.5 -16 38.5q0 21 16 37.5t39 16.5q22 0 38 -16.5t16 -37.5q0 -22 -16 -38t-38 -16q-23 0 -39 15.5zM354 609q-16 16 -16 38q0 21 16 37.5t38 16.5t38 -16.5t16 -37.5q0 -22 -15.5 -38t-38.5 -16q-22 0 -38 16z
" />
    <glyph glyph-name="igrave" unicode="&#xec;" horiz-adv-x="212" 
d="M57 517h98v-517h-98v517zM-73 704l97 20l119 -148h-72z" />
    <glyph glyph-name="iacute" unicode="&#xed;" horiz-adv-x="212" 
d="M57 517h98v-517h-98v517zM189 724l96 -20l-144 -128h-72z" />
    <glyph glyph-name="icircumflex" unicode="&#xee;" horiz-adv-x="212" 
d="M57 517h98v-517h-98v517zM63 716h87l103 -140h-69l-78 82l-77 -82h-68z" />
    <glyph glyph-name="idieresis" unicode="&#xef;" horiz-adv-x="212" 
d="M57 517h98v-517h-98v517zM-31 608.5q-16 15.5 -16 38.5q0 21 16 37.5t39 16.5q22 0 38 -16.5t16 -37.5q0 -22 -16 -38t-38 -16q-23 0 -39 15.5zM168 609q-16 16 -16 38q0 21 16 37.5t38 16.5t38 -16.5t16 -37.5q0 -22 -15.5 -38t-38.5 -16q-22 0 -38 16z" />
    <glyph glyph-name="eth" unicode="&#xf0;" horiz-adv-x="587" 
d="M509.5 447.5q42.5 -79.5 42.5 -174.5q0 -82 -33 -147t-91.5 -101.5t-133.5 -36.5q-76 0 -135 33.5t-92.5 92.5t-33.5 135q0 72 29.5 128.5t82 88t118.5 31.5q97 0 162 -78q-39 76 -130 155l-116 -52l-29 67l81 36q-32 24 -78 55l95 39l69 -55l96 43l29 -67l-65 -29
q90 -84 132.5 -163.5zM375.5 96.5q35.5 21.5 56 60.5t20.5 88q0 47 -20 85t-56.5 60.5t-84.5 22.5q-70 0 -114.5 -47t-44.5 -120q0 -49 20.5 -88t57.5 -61t84 -22q46 0 81.5 21.5z" />
    <glyph glyph-name="ntilde" unicode="&#xf1;" horiz-adv-x="563" 
d="M421 504q44 -25 68.5 -70.5t24.5 -104.5v-329h-97v312q0 58 -33 94.5t-86 36.5q-39 0 -72 -16.5t-52 -44.5t-19 -61v-321h-98v517h98v-76q23 40 68 64t98 24q56 0 100 -25zM311 583q-17 9 -41 26q-17 13 -28.5 19.5t-22.5 6.5q-19 0 -30.5 -15t-16.5 -48l-55 9
q16 123 101 123q21 0 38 -9t41 -26q17 -13 28.5 -19.5t22.5 -6.5q18 0 29.5 15t17.5 48l55 -8q-15 -124 -101 -124q-21 0 -38 9z" />
    <glyph glyph-name="ograve" unicode="&#xf2;" horiz-adv-x="607" 
d="M167.5 24.5q-62.5 36.5 -99 99t-36.5 135.5t36.5 135t99 98.5t136.5 36.5q73 0 135.5 -36.5t99 -98.5t36.5 -135t-36.5 -135.5t-99 -99t-135.5 -36.5q-74 0 -136.5 36.5zM389.5 99q39.5 25 63 67.5t23.5 92.5t-23.5 92.5t-63 67t-85.5 24.5q-47 0 -87 -24.5t-63.5 -67
t-23.5 -92.5t23.5 -92.5t63.5 -67.5t87 -25q46 0 85.5 25zM124 704l97 20l119 -148h-72z" />
    <glyph glyph-name="oacute" unicode="&#xf3;" horiz-adv-x="607" 
d="M167.5 24.5q-62.5 36.5 -99 99t-36.5 135.5t36.5 135t99 98.5t136.5 36.5q73 0 135.5 -36.5t99 -98.5t36.5 -135t-36.5 -135.5t-99 -99t-135.5 -36.5q-74 0 -136.5 36.5zM389.5 99q39.5 25 63 67.5t23.5 92.5t-23.5 92.5t-63 67t-85.5 24.5q-47 0 -87 -24.5t-63.5 -67
t-23.5 -92.5t23.5 -92.5t63.5 -67.5t87 -25q46 0 85.5 25zM386 724l96 -20l-144 -128h-72z" />
    <glyph glyph-name="ocircumflex" unicode="&#xf4;" horiz-adv-x="607" 
d="M167.5 24.5q-62.5 36.5 -99 99t-36.5 135.5t36.5 135t99 98.5t136.5 36.5q73 0 135.5 -36.5t99 -98.5t36.5 -135t-36.5 -135.5t-99 -99t-135.5 -36.5q-74 0 -136.5 36.5zM389.5 99q39.5 25 63 67.5t23.5 92.5t-23.5 92.5t-63 67t-85.5 24.5q-47 0 -87 -24.5t-63.5 -67
t-23.5 -92.5t23.5 -92.5t63.5 -67.5t87 -25q46 0 85.5 25zM261 716h87l103 -140h-69l-78 82l-77 -82h-68z" />
    <glyph glyph-name="otilde" unicode="&#xf5;" horiz-adv-x="607" 
d="M167.5 24.5q-62.5 36.5 -99 99t-36.5 135.5t36.5 135t99 98.5t136.5 36.5q73 0 135.5 -36.5t99 -98.5t36.5 -135t-36.5 -135.5t-99 -99t-135.5 -36.5q-74 0 -136.5 36.5zM389.5 99q39.5 25 63 67.5t23.5 92.5t-23.5 92.5t-63 67t-85.5 24.5q-47 0 -87 -24.5t-63.5 -67
t-23.5 -92.5t23.5 -92.5t63.5 -67.5t87 -25q46 0 85.5 25zM331 583q-17 9 -41 26q-17 13 -28.5 19.5t-22.5 6.5q-19 0 -30.5 -15t-16.5 -48l-55 9q16 123 101 123q21 0 38 -9t41 -26q17 -13 28.5 -19.5t22.5 -6.5q18 0 29.5 15t17.5 48l55 -8q-15 -124 -101 -124
q-21 0 -38 9z" />
    <glyph glyph-name="odieresis" unicode="&#xf6;" horiz-adv-x="607" 
d="M167.5 24.5q-62.5 36.5 -99 99t-36.5 135.5t36.5 135t99 98.5t136.5 36.5q73 0 135.5 -36.5t99 -98.5t36.5 -135t-36.5 -135.5t-99 -99t-135.5 -36.5q-74 0 -136.5 36.5zM389.5 99q39.5 25 63 67.5t23.5 92.5t-23.5 92.5t-63 67t-85.5 24.5q-47 0 -87 -24.5t-63.5 -67
t-23.5 -92.5t23.5 -92.5t63.5 -67.5t87 -25q46 0 85.5 25zM166 608.5q-16 15.5 -16 38.5q0 21 16 37.5t39 16.5q22 0 38 -16.5t16 -37.5q0 -22 -16 -38t-38 -16q-23 0 -39 15.5zM365 609q-16 16 -16 38q0 21 16 37.5t38 16.5t38 -16.5t16 -37.5q0 -22 -15.5 -38t-38.5 -16
q-22 0 -38 16z" />
    <glyph glyph-name="divide" unicode="&#xf7;" horiz-adv-x="586" 
d="M248.5 461q-18.5 19 -18.5 45q0 25 18.5 43.5t45.5 18.5q25 0 43 -18.5t18 -43.5q0 -26 -18 -45t-43 -19q-27 0 -45.5 19zM58 379h467v-89h-467v89zM248.5 119q-18.5 19 -18.5 45q0 25 18.5 43.5t45.5 18.5q25 0 43 -18.5t18 -43.5q0 -26 -18 -45t-43 -19q-27 0 -45.5 19
z" />
    <glyph glyph-name="oslash" unicode="&#xf8;" horiz-adv-x="616" 
d="M510 436q32 -37 49.5 -82t17.5 -95q0 -73 -36.5 -135.5t-99 -99t-135.5 -36.5q-78 0 -144 41l-25 -29h-92l63 74q-35 37 -54.5 84.5t-19.5 100.5q0 73 36.5 135t99 98.5t136.5 36.5q85 0 152 -47l30 35h92zM170 145l230 269q-44 29 -94 29q-47 0 -86.5 -24.5t-63 -67
t-23.5 -92.5q0 -63 37 -114zM448 363l-227 -265q40 -24 85 -24q47 0 86.5 25t63 67.5t23.5 92.5q0 59 -31 104z" />
    <glyph glyph-name="ugrave" unicode="&#xf9;" horiz-adv-x="562" 
d="M506 517v-517h-99v76q-23 -39 -67.5 -63.5t-97.5 -24.5q-56 0 -100 25t-68.5 70.5t-24.5 104.5v329h97v-312q0 -58 32.5 -94.5t85.5 -36.5q39 0 72 16.5t52 44.5t19 61v321h99zM91 704l97 20l119 -148h-72z" />
    <glyph glyph-name="uacute" unicode="&#xfa;" horiz-adv-x="562" 
d="M506 517v-517h-99v76q-23 -39 -67.5 -63.5t-97.5 -24.5q-56 0 -100 25t-68.5 70.5t-24.5 104.5v329h97v-312q0 -58 32.5 -94.5t85.5 -36.5q39 0 72 16.5t52 44.5t19 61v321h99zM353 724l96 -20l-144 -128h-72z" />
    <glyph glyph-name="ucircumflex" unicode="&#xfb;" horiz-adv-x="562" 
d="M506 517v-517h-99v76q-23 -39 -67.5 -63.5t-97.5 -24.5q-56 0 -100 25t-68.5 70.5t-24.5 104.5v329h97v-312q0 -58 32.5 -94.5t85.5 -36.5q39 0 72 16.5t52 44.5t19 61v321h99zM227 716h87l103 -140h-69l-78 82l-77 -82h-68z" />
    <glyph glyph-name="udieresis" unicode="&#xfc;" horiz-adv-x="562" 
d="M506 517v-517h-99v76q-23 -39 -67.5 -63.5t-97.5 -24.5q-56 0 -100 25t-68.5 70.5t-24.5 104.5v329h97v-312q0 -58 32.5 -94.5t85.5 -36.5q39 0 72 16.5t52 44.5t19 61v321h99zM132 608.5q-16 15.5 -16 38.5q0 21 16 37.5t39 16.5q22 0 38 -16.5t16 -37.5q0 -22 -16 -38
t-38 -16q-23 0 -39 15.5zM331 609q-16 16 -16 38q0 21 16 37.5t38 16.5t38 -16.5t16 -37.5q0 -22 -15.5 -38t-38.5 -16q-22 0 -38 16z" />
    <glyph glyph-name="yacute" unicode="&#xfd;" horiz-adv-x="580" 
d="M64 -158l22 76q29 -16 64 -16q24 0 41 9.5t30 32.5l25 53l-222 520h106l166 -408l157 408h103l-227 -564q-28 -68 -69 -100t-98 -33q-54 0 -98 22zM379 724l96 -20l-144 -128h-72z" />
    <glyph glyph-name="thorn" unicode="&#xfe;" horiz-adv-x="616" 
d="M466 494.5q54 -34.5 85 -96t31 -139.5t-31 -140t-85 -96.5t-122 -34.5q-58 0 -105.5 26.5t-77.5 74.5v-261h-99v871h99v-270q31 47 78 73.5t105 26.5q68 0 122 -34.5zM404 97.5q37 23.5 57.5 66t20.5 95.5t-20.5 95t-57.5 65.5t-83 23.5t-82.5 -23.5t-57 -65.5t-20.5 -95
t20.5 -95.5t57 -66t82.5 -23.5t83 23.5z" />
    <glyph glyph-name="ydieresis" unicode="&#xff;" horiz-adv-x="580" 
d="M64 -158l22 76q29 -16 64 -16q24 0 41 9.5t30 32.5l25 53l-222 520h106l166 -408l157 408h103l-227 -564q-28 -68 -69 -100t-98 -33q-54 0 -98 22zM158 608.5q-16 15.5 -16 38.5q0 21 16 37.5t39 16.5q22 0 38 -16.5t16 -37.5q0 -22 -16 -38t-38 -16q-23 0 -39 15.5z
M357 609q-16 16 -16 38q0 21 16 37.5t38 16.5t38 -16.5t16 -37.5q0 -22 -15.5 -38t-38.5 -16q-22 0 -38 16z" />
    <glyph glyph-name="Amacron" unicode="&#x100;" horiz-adv-x="781" 
d="M630 0l-61 143h-356l-62 -143h-111l295 687h112l295 -687h-112zM251 231h280l-140 326zM230 825h322v-65h-322v65z" />
    <glyph glyph-name="amacron" unicode="&#x101;" horiz-adv-x="538" 
d="M432 470q57 -59 57 -157v-313h-97v70q-28 -39 -75 -60.5t-97 -21.5q-83 0 -137 45t-54 120q0 50 27.5 89.5t75 61t104.5 21.5q74 0 156 -28v16q0 57 -31 95.5t-102 38.5q-61 0 -145 -43l-37 73q104 52 196 52q102 0 159 -59zM336 91.5q44 25.5 56 70.5v69q-66 20 -141 20
q-53 0 -90 -27t-37 -68t32.5 -65.5t83.5 -24.5q52 0 96 25.5zM129 655h322v-65h-322v65z" />
    <glyph glyph-name="Abreve" unicode="&#x102;" horiz-adv-x="781" 
d="M630 0l-61 143h-356l-62 -143h-111l295 687h112l295 -687h-112zM251 231h280l-140 326zM311 772q-39 16 -71 46l53 53q20 -20 46.5 -31t51.5 -11q26 0 52.5 11t46.5 31l52 -53q-30 -30 -69.5 -46t-81.5 -16q-41 0 -80 16z" />
    <glyph glyph-name="abreve" unicode="&#x103;" horiz-adv-x="538" 
d="M432 470q57 -59 57 -157v-313h-97v70q-28 -39 -75 -60.5t-97 -21.5q-83 0 -137 45t-54 120q0 50 27.5 89.5t75 61t104.5 21.5q74 0 156 -28v16q0 57 -31 95.5t-102 38.5q-61 0 -145 -43l-37 73q104 52 196 52q102 0 159 -59zM336 91.5q44 25.5 56 70.5v69q-66 20 -141 20
q-53 0 -90 -27t-37 -68t32.5 -65.5t83.5 -24.5q52 0 96 25.5zM209 602q-39 16 -71 46l53 53q20 -20 46.5 -31t51.5 -11q26 0 52.5 11t46.5 31l52 -53q-30 -30 -69.5 -46t-81.5 -16q-41 0 -80 16z" />
    <glyph glyph-name="Aogonek" unicode="&#x104;" horiz-adv-x="781" 
d="M815 -143q-36 -30 -86 -30q-49 0 -79 29t-30 79q0 37 23 65h-13l-61 143h-356l-62 -143h-111l295 687h112l295 -687h-1q-23 0 -38.5 -15t-15.5 -38q0 -24 14.5 -37.5t40.5 -13.5q28 0 43 17zM251 231h280l-140 326z" />
    <glyph glyph-name="aogonek" unicode="&#x105;" horiz-adv-x="538" 
d="M563 -143q-36 -30 -86 -30q-49 0 -79 29t-30 79q0 37 24 66v69q-28 -39 -75 -60.5t-97 -21.5q-83 0 -137 45t-54 120q0 50 27.5 89.5t75 61t104.5 21.5q74 0 156 -28v16q0 57 -31 95.5t-102 38.5q-61 0 -145 -43l-37 73q104 52 196 52q102 0 159 -59t57 -157v-313
q-23 0 -38.5 -15t-15.5 -38q0 -24 14.5 -37.5t40.5 -13.5q28 0 43 17zM336 91.5q44 25.5 56 70.5v69q-66 20 -141 20q-53 0 -90 -27t-37 -68t32.5 -65.5t83.5 -24.5q52 0 96 25.5z" />
    <glyph glyph-name="Cacute" unicode="&#x106;" horiz-adv-x="699" 
d="M228 36.5q-82 48.5 -131 130.5t-49 177t49 176.5t131 130t176 48.5q73 0 139 -28.5t115 -79.5l-71 -68q-36 39 -83.5 61t-99.5 22q-67 0 -125.5 -36t-93 -96t-34.5 -130t34.5 -130.5t93 -96.5t125.5 -36q52 0 99.5 22t83.5 61l71 -68q-50 -51 -116 -79.5t-138 -28.5
q-94 0 -176 48.5zM487 894l96 -20l-144 -128h-72z" />
    <glyph glyph-name="cacute" unicode="&#x107;" horiz-adv-x="523" 
d="M169 25q-63 37 -100 99.5t-37 134.5t37.5 134t100 99t135.5 37q54 0 103 -21t87 -59l-67 -62q-23 26 -55.5 41t-68.5 15q-46 0 -85.5 -25t-63 -67.5t-23.5 -91.5q0 -50 23.5 -92.5t63 -67.5t85.5 -25q36 0 69.5 15.5t57.5 42.5l67 -61q-39 -39 -88.5 -61t-105.5 -22
q-72 0 -135 37zM367 724l96 -20l-144 -128h-72z" />
    <glyph glyph-name="Ccaron" unicode="&#x10c;" horiz-adv-x="699" 
d="M228 36.5q-82 48.5 -131 130.5t-49 177t49 176.5t131 130t176 48.5q73 0 139 -28.5t115 -79.5l-71 -68q-36 39 -83.5 61t-99.5 22q-67 0 -125.5 -36t-93 -96t-34.5 -130t34.5 -130.5t93 -96.5t125.5 -36q52 0 99.5 22t83.5 61l71 -68q-50 -51 -116 -79.5t-138 -28.5
q-94 0 -176 48.5zM259 886h68l77 -82l78 82h69l-103 -140h-87z" />
    <glyph glyph-name="ccaron" unicode="&#x10d;" horiz-adv-x="523" 
d="M169 25q-63 37 -100 99.5t-37 134.5t37.5 134t100 99t135.5 37q54 0 103 -21t87 -59l-67 -62q-23 26 -55.5 41t-68.5 15q-46 0 -85.5 -25t-63 -67.5t-23.5 -91.5q0 -50 23.5 -92.5t63 -67.5t85.5 -25q36 0 69.5 15.5t57.5 42.5l67 -61q-39 -39 -88.5 -61t-105.5 -22
q-72 0 -135 37zM139 716h68l77 -82l78 82h69l-103 -140h-87z" />
    <glyph glyph-name="Dcaron" unicode="&#x10e;" horiz-adv-x="740" 
d="M312 687q110 0 196.5 -44t135 -122t48.5 -177t-48.5 -177.5t-135 -122.5t-196.5 -44h-236v687h236zM458.5 124q61.5 32 96 89.5t34.5 130.5t-34.5 130t-96 89t-139.5 32h-142v-503h142q78 0 139.5 32zM167 886h68l77 -82l78 82h69l-103 -140h-87z" />
    <glyph glyph-name="dcaron" unicode="&#x10f;" horiz-adv-x="734" 
d="M455 699h99v-699h-99v88q-31 -47 -78 -73.5t-105 -26.5q-68 0 -122 34.5t-85 96.5t-31 140t31 139.5t85 96t122 34.5q58 0 105 -26.5t78 -73.5v270zM715 677.5q16 -21.5 16 -55.5q0 -28 -16 -58t-54 -75l-35 26q36 37 45 77q-22 0 -37 15.5t-15 38.5q0 22 15.5 37.5
t37.5 15.5q27 0 43 -21.5zM377.5 97.5q36.5 23.5 57 66t20.5 95.5t-20.5 95t-57 65.5t-82.5 23.5t-83 -23.5t-57.5 -65.5t-20.5 -95t20.5 -95.5t57.5 -66t83 -23.5t82.5 23.5z" />
    <glyph glyph-name="Dcroat" unicode="&#x110;" horiz-adv-x="767" 
d="M535.5 643q86.5 -44 135 -122t48.5 -177t-48.5 -177.5t-135 -122.5t-196.5 -44h-237v302h-59v94h59v291h237q110 0 196.5 -44zM485.5 124q61.5 32 96 89.5t34.5 130.5t-34.5 130t-96 89t-139.5 32h-142v-199h198l-1 -94h-197v-210h142q78 0 139.5 32z" />
    <glyph glyph-name="dcroat" unicode="&#x111;" horiz-adv-x="617" 
d="M632 581h-78v-581h-99v88q-31 -47 -78 -73.5t-105 -26.5q-68 0 -122 34.5t-85 96.5t-31 140t31 139.5t85 96t122 34.5q58 0 105 -26.5t78 -73.5v152h-149v58h149v60h99v-60h78v-58zM377.5 97.5q36.5 23.5 57 66t20.5 95.5t-20.5 95t-57 65.5t-82.5 23.5t-83 -23.5
t-57.5 -65.5t-20.5 -95t20.5 -95.5t57.5 -66t83 -23.5t82.5 23.5z" />
    <glyph glyph-name="Emacron" unicode="&#x112;" horiz-adv-x="635" 
d="M581 593h-403v-196h363v-94h-363v-209h403v-94h-505v687h505v-94zM168 825h322v-65h-322v65z" />
    <glyph glyph-name="emacron" unicode="&#x113;" horiz-adv-x="571" 
d="M383 86.5q43 16.5 68 42.5l58 -61q-34 -36 -93.5 -58t-115.5 -22q-72 0 -133 35t-97.5 97t-36.5 140q0 76 34.5 137.5t94 96.5t130.5 35q78 0 134.5 -37t86 -105t29.5 -160h-412q9 -69 54.5 -113t112.5 -44q43 0 86 16.5zM187.5 407q-45.5 -40 -56.5 -107h315
q-8 65 -47 106t-104 41q-62 0 -107.5 -40zM131 655h322v-65h-322v65z" />
    <glyph glyph-name="Edotaccent" unicode="&#x116;" horiz-adv-x="635" 
d="M581 593h-403v-196h363v-94h-363v-209h403v-94h-505v687h505v-94zM290 778.5q-16 15.5 -16 38.5q0 21 16 37.5t39 16.5q22 0 38 -16.5t16 -37.5q0 -22 -16 -38t-38 -16q-23 0 -39 15.5z" />
    <glyph glyph-name="edotaccent" unicode="&#x117;" horiz-adv-x="571" 
d="M383 86.5q43 16.5 68 42.5l58 -61q-34 -36 -93.5 -58t-115.5 -22q-72 0 -133 35t-97.5 97t-36.5 140q0 76 34.5 137.5t94 96.5t130.5 35q78 0 134.5 -37t86 -105t29.5 -160h-412q9 -69 54.5 -113t112.5 -44q43 0 86 16.5zM187.5 407q-45.5 -40 -56.5 -107h315
q-8 65 -47 106t-104 41q-62 0 -107.5 -40zM254 608.5q-16 15.5 -16 38.5q0 21 16 37.5t39 16.5q22 0 38 -16.5t16 -37.5q0 -22 -16 -38t-38 -16q-23 0 -39 15.5z" />
    <glyph glyph-name="Eogonek" unicode="&#x118;" horiz-adv-x="635" 
d="M654 -143q-36 -30 -86 -30q-49 0 -79 29t-30 79q0 37 23 65h-406v687h505v-94h-403v-196h363v-94h-363v-209h403v-94h-1q-23 0 -38.5 -15t-15.5 -38q0 -24 14.5 -37.5t40.5 -13.5q28 0 43 17z" />
    <glyph glyph-name="eogonek" unicode="&#x119;" horiz-adv-x="595" 
d="M383 86.5q43 16.5 68 42.5l58 -61q-22 -23 -56.5 -41.5t-73.5 -28.5q-11 -13 -11 -32q0 -24 14.5 -38t40.5 -14q28 0 43 17l30 -55q-36 -30 -86 -30q-49 0 -79 29t-30 79q0 19 6 34h-7q-72 0 -133 35t-97.5 97t-36.5 140q0 76 34.5 137.5t94 96.5t130.5 35
q78 0 134.5 -37t86 -105t29.5 -160h-412q9 -69 54.5 -113t112.5 -44q43 0 86 16.5zM187.5 407q-45.5 -40 -56.5 -107h315q-8 65 -47 106t-104 41q-62 0 -107.5 -40z" />
    <glyph glyph-name="Ecaron" unicode="&#x11a;" horiz-adv-x="635" 
d="M581 593h-403v-196h363v-94h-363v-209h403v-94h-505v687h505v-94zM183 886h68l77 -82l78 82h69l-103 -140h-87z" />
    <glyph glyph-name="ecaron" unicode="&#x11b;" horiz-adv-x="571" 
d="M383 86.5q43 16.5 68 42.5l58 -61q-34 -36 -93.5 -58t-115.5 -22q-72 0 -133 35t-97.5 97t-36.5 140q0 76 34.5 137.5t94 96.5t130.5 35q78 0 134.5 -37t86 -105t29.5 -160h-412q9 -69 54.5 -113t112.5 -44q43 0 86 16.5zM187.5 407q-45.5 -40 -56.5 -107h315
q-8 65 -47 106t-104 41q-62 0 -107.5 -40zM147 716h68l77 -82l78 82h69l-103 -140h-87z" />
    <glyph glyph-name="Gbreve" unicode="&#x11e;" horiz-adv-x="731" 
d="M391 370h285v-274q-49 -49 -123 -78.5t-148 -29.5q-95 0 -177 48.5t-131 130.5t-49 177t49 176.5t131 130t177 48.5q74 0 148 -29t123 -79l-71 -68q-35 38 -90.5 60.5t-109.5 22.5q-68 0 -126.5 -36t-93 -96t-34.5 -130t34.5 -130.5t93 -96.5t126.5 -36q44 0 89.5 15
t81.5 42v144h-185v88zM325 772q-39 16 -71 46l53 53q20 -20 46.5 -31t51.5 -11q26 0 52.5 11t46.5 31l52 -53q-30 -30 -69.5 -46t-81.5 -16q-41 0 -80 16z" />
    <glyph glyph-name="gbreve" unicode="&#x11f;" horiz-adv-x="607" 
d="M550 517v-462q0 -66 -33.5 -117.5t-93 -80.5t-135.5 -29q-63 0 -120.5 19t-95.5 50l39 74q28 -27 71.5 -42t91.5 -15q83 0 130 38t47 105v75q-31 -45 -78 -69.5t-104 -24.5q-68 0 -121.5 31.5t-84 87.5t-30.5 127t30.5 127t84 87t121.5 31q57 0 104.5 -25t77.5 -69v82h99
zM407 168.5q44 44.5 44 115.5q0 70 -44 114.5t-114 44.5q-68 0 -112.5 -44.5t-44.5 -114.5t44.5 -115t112.5 -45q70 0 114 44.5zM216 602q-39 16 -71 46l53 53q20 -20 46.5 -31t51.5 -11q26 0 52.5 11t46.5 31l52 -53q-30 -30 -69.5 -46t-81.5 -16q-41 0 -80 16z" />
    <glyph glyph-name="uni0122" unicode="&#x122;" horiz-adv-x="731" 
d="M391 370h285v-274q-49 -49 -123 -78.5t-148 -29.5q-95 0 -177 48.5t-131 130.5t-49 177t49 176.5t131 130t177 48.5q74 0 148 -29t123 -79l-71 -68q-35 38 -90.5 60.5t-109.5 22.5q-68 0 -126.5 -36t-93 -96t-34.5 -130t34.5 -130.5t93 -96.5t126.5 -36q44 0 89.5 15
t81.5 42v144h-185v88zM404 -177q-23 0 -38 15t-15 38t15.5 38.5t38.5 15.5q27 0 43 -21.5t16 -54.5q0 -28 -16 -58t-55 -76l-34 25q36 40 45 78z" />
    <glyph glyph-name="uni0123" unicode="&#x123;" horiz-adv-x="607" 
d="M254 615.5q-16 21.5 -16 54.5q0 28 16 58.5t54 75.5l35 -25q-36 -40 -45 -78q22 0 37 -15t15 -38t-15.5 -38.5t-37.5 -15.5q-27 0 -43 21.5zM550 517v-462q0 -66 -33.5 -117.5t-93 -80.5t-135.5 -29q-63 0 -120.5 19t-95.5 50l39 74q28 -27 71.5 -42t91.5 -15
q83 0 130 38t47 105v75q-31 -45 -78 -69.5t-104 -24.5q-68 0 -121.5 31.5t-84 87.5t-30.5 127t30.5 127t84 87t121.5 31q57 0 104.5 -25t77.5 -69v82h99zM407 168.5q44 44.5 44 115.5q0 70 -44 114.5t-114 44.5q-68 0 -112.5 -44.5t-44.5 -114.5t44.5 -115t112.5 -45
q70 0 114 44.5z" />
    <glyph glyph-name="Imacron" unicode="&#x12a;" 
d="M76 687h101v-687h-101v687zM-35 825h322v-65h-322v65z" />
    <glyph glyph-name="imacron" unicode="&#x12b;" horiz-adv-x="212" 
d="M57 517h98v-517h-98v517zM-54 655h322v-65h-322v65z" />
    <glyph glyph-name="Iogonek" unicode="&#x12e;" 
d="M250 -143q-36 -30 -86 -30q-49 0 -79 29t-30 79q0 37 23 65h-2v687h101v-687h-1q-23 0 -38.5 -15t-15.5 -38q0 -24 14.5 -37.5t40.5 -13.5q28 0 43 17z" />
    <glyph glyph-name="iogonek" unicode="&#x12f;" horiz-adv-x="212" 
d="M68 608.5q-16 15.5 -16 38.5q0 21 16 37.5t39 16.5q22 0 38 -16.5t16 -37.5q0 -22 -16 -38t-38 -16q-23 0 -39 15.5zM229 -143q-36 -30 -86 -30q-49 0 -79 29t-30 79q0 37 23 65v517h98v-517q-23 0 -38.5 -15t-15.5 -38q0 -24 14.5 -37.5t40.5 -13.5q28 0 43 17z" />
    <glyph glyph-name="Idotaccent" unicode="&#x130;" 
d="M76 687h101v-687h-101v687zM88 778.5q-16 15.5 -16 38.5q0 21 16 37.5t39 16.5q22 0 38 -16.5t16 -37.5q0 -22 -16 -38t-38 -16q-23 0 -39 15.5z" />
    <glyph glyph-name="dotlessi" unicode="&#x131;" horiz-adv-x="212" 
d="M57 517h98v-517h-98v517z" />
    <glyph glyph-name="uni0136" unicode="&#x136;" horiz-adv-x="688" 
d="M76 687h101v-358l324 358h129l-282 -309l301 -378h-127l-245 308l-100 -107v-201h-101v687zM361 -177q-23 0 -38 15t-15 38t15.5 38.5t38.5 15.5q27 0 43 -21.5t16 -54.5q0 -28 -16 -58t-55 -76l-34 25q36 40 45 78z" />
    <glyph glyph-name="uni0137" unicode="&#x137;" horiz-adv-x="557" 
d="M60 699h99v-447l253 265h120l-223 -234l213 -283h-118l-163 217l-82 -84v-133h-99v699zM260 -177q-23 0 -38 15t-15 38t15.5 38.5t38.5 15.5q27 0 43 -21.5t16 -54.5q0 -28 -16 -58t-55 -76l-34 25q36 40 45 78z" />
    <glyph glyph-name="Lacute" unicode="&#x139;" horiz-adv-x="584" 
d="M177 94h364v-94h-465v687h101v-593zM211 894l96 -20l-144 -128h-72z" />
    <glyph glyph-name="lacute" unicode="&#x13a;" horiz-adv-x="219" 
d="M60 699h99v-699h-99v699zM192 906l96 -20l-144 -128h-72z" />
    <glyph glyph-name="Lcaron" unicode="&#x13d;" horiz-adv-x="584" 
d="M177 94h364v-94h-465v687h101v-593zM298 592q-23 0 -38 15t-15 38t15.5 38.5t38.5 15.5q27 0 43 -21.5t16 -54.5q0 -28 -16 -58t-55 -76l-34 25q36 40 45 78z" />
    <glyph glyph-name="lcaron" unicode="&#x13e;" horiz-adv-x="338" 
d="M60 699h99v-699h-99v699zM277 592q-22 0 -37.5 15.5t-15.5 38.5q0 22 15.5 37.5t38.5 15.5q27 0 43 -21.5t16 -55.5q0 -27 -16 -57.5t-55 -75.5l-34 26q36 37 45 77z" />
    <glyph glyph-name="Lslash" unicode="&#x141;" horiz-adv-x="657" 
d="M250 94h364v-94h-465v277l-106 -54v93l106 54v317h101v-266l105 54v-93l-105 -54v-234z" />
    <glyph glyph-name="lslash" unicode="&#x142;" horiz-adv-x="313" 
d="M285 447v-94l-79 -40v-313h-99v263l-78 -40v93l78 40v343h99v-292z" />
    <glyph glyph-name="Nacute" unicode="&#x143;" horiz-adv-x="748" 
d="M76 687h101l394 -521v521h101v-687h-101l-394 521v-521h-101v687zM457 894l96 -20l-144 -128h-72z" />
    <glyph glyph-name="nacute" unicode="&#x144;" horiz-adv-x="563" 
d="M421 504q44 -25 68.5 -70.5t24.5 -104.5v-329h-97v312q0 58 -33 94.5t-86 36.5q-39 0 -72 -16.5t-52 -44.5t-19 -61v-321h-98v517h98v-76q23 40 68 64t98 24q56 0 100 -25zM366 724l96 -20l-144 -128h-72z" />
    <glyph glyph-name="uni0145" unicode="&#x145;" horiz-adv-x="748" 
d="M76 687h101l394 -521v521h101v-687h-101l-394 521v-521h-101v687zM373 -177q-23 0 -38 15t-15 38t15.5 38.5t38.5 15.5q27 0 43 -21.5t16 -54.5q0 -28 -16 -58t-55 -76l-34 25q36 40 45 78z" />
    <glyph glyph-name="uni0146" unicode="&#x146;" horiz-adv-x="563" 
d="M421 504q44 -25 68.5 -70.5t24.5 -104.5v-329h-97v312q0 58 -33 94.5t-86 36.5q-39 0 -72 -16.5t-52 -44.5t-19 -61v-321h-98v517h98v-76q23 40 68 64t98 24q56 0 100 -25zM283 -177q-23 0 -38 15t-15 38t15.5 38.5t38.5 15.5q27 0 43 -21.5t16 -54.5q0 -28 -16 -58
t-55 -76l-34 25q36 40 45 78z" />
    <glyph glyph-name="Ncaron" unicode="&#x147;" horiz-adv-x="748" 
d="M76 687h101l394 -521v521h101v-687h-101l-394 521v-521h-101v687zM229 886h68l77 -82l78 82h69l-103 -140h-87z" />
    <glyph glyph-name="ncaron" unicode="&#x148;" horiz-adv-x="563" 
d="M421 504q44 -25 68.5 -70.5t24.5 -104.5v-329h-97v312q0 58 -33 94.5t-86 36.5q-39 0 -72 -16.5t-52 -44.5t-19 -61v-321h-98v517h98v-76q23 40 68 64t98 24q56 0 100 -25zM138 716h68l77 -82l78 82h69l-103 -140h-87z" />
    <glyph glyph-name="Omacron" unicode="&#x14c;" horiz-adv-x="808" 
d="M228 36.5q-82 48.5 -131 130.5t-49 177t49 176.5t131 130t176 48.5q95 0 177 -48.5t130.5 -130t48.5 -176.5t-48.5 -177t-130.5 -130.5t-177 -48.5q-94 0 -176 48.5zM530 117q58 36 92.5 96.5t34.5 130.5t-34.5 130t-92.5 96t-126 36q-67 0 -125.5 -36t-93 -96
t-34.5 -130t34.5 -130.5t93 -96.5t125.5 -36q68 0 126 36zM243 825h322v-65h-322v65z" />
    <glyph glyph-name="omacron" unicode="&#x14d;" horiz-adv-x="607" 
d="M167.5 24.5q-62.5 36.5 -99 99t-36.5 135.5t36.5 135t99 98.5t136.5 36.5q73 0 135.5 -36.5t99 -98.5t36.5 -135t-36.5 -135.5t-99 -99t-135.5 -36.5q-74 0 -136.5 36.5zM389.5 99q39.5 25 63 67.5t23.5 92.5t-23.5 92.5t-63 67t-85.5 24.5q-47 0 -87 -24.5t-63.5 -67
t-23.5 -92.5t23.5 -92.5t63.5 -67.5t87 -25q46 0 85.5 25zM143 655h322v-65h-322v65z" />
    <glyph glyph-name="Ohungarumlaut" unicode="&#x150;" horiz-adv-x="808" 
d="M228 36.5q-82 48.5 -131 130.5t-49 177t49 176.5t131 130t176 48.5q95 0 177 -48.5t130.5 -130t48.5 -176.5t-48.5 -177t-130.5 -130.5t-177 -48.5q-94 0 -176 48.5zM530 117q58 36 92.5 96.5t34.5 130.5t-34.5 130t-92.5 96t-126 36q-67 0 -125.5 -36t-93 -96
t-34.5 -130t34.5 -130.5t93 -96.5t125.5 -36q68 0 126 36zM380 894l97 -20l-144 -129h-72zM592 892l96 -20l-144 -127h-71z" />
    <glyph glyph-name="ohungarumlaut" unicode="&#x151;" horiz-adv-x="607" 
d="M167.5 24.5q-62.5 36.5 -99 99t-36.5 135.5t36.5 135t99 98.5t136.5 36.5q73 0 135.5 -36.5t99 -98.5t36.5 -135t-36.5 -135.5t-99 -99t-135.5 -36.5q-74 0 -136.5 36.5zM389.5 99q39.5 25 63 67.5t23.5 92.5t-23.5 92.5t-63 67t-85.5 24.5q-47 0 -87 -24.5t-63.5 -67
t-23.5 -92.5t23.5 -92.5t63.5 -67.5t87 -25q46 0 85.5 25zM280 724l97 -20l-144 -129h-72zM492 722l96 -20l-144 -127h-71z" />
    <glyph glyph-name="OE" unicode="&#x152;" horiz-adv-x="1037" 
d="M97 511.5q49 80.5 130.5 128t176.5 47.5h579v-94h-403v-196h363v-94h-363v-209h403v-94h-579q-95 0 -177 44t-130.5 121t-48.5 171q0 95 49 175.5zM185.5 210.5q34.5 -55.5 92.5 -86.5t126 -31h74v501h-74q-67 0 -125.5 -35t-93 -94t-34.5 -129t34.5 -125.5z" />
    <glyph glyph-name="oe" unicode="&#x153;" horiz-adv-x="1014" 
d="M826.5 87q43.5 17 67.5 42l58 -61q-33 -36 -92.5 -58t-116.5 -22q-67 0 -125.5 31.5t-93.5 86.5q-37 -54 -95 -86t-125 -32q-74 0 -136.5 37t-99 99.5t-36.5 135.5t36.5 135t99 98t136.5 36q67 0 124.5 -31t94.5 -85q35 54 91.5 85t121.5 31q78 0 134.5 -37t86 -105
t29.5 -160h-410q9 -70 53 -113.5t112 -43.5q42 0 85.5 17zM632 407q-44 -40 -55 -107h313q-8 65 -47.5 106t-104.5 41q-62 0 -106 -40zM389.5 99q39.5 25 63 68t23.5 93t-23.5 92t-63 66.5t-85.5 24.5q-47 0 -87 -24.5t-63.5 -66.5t-23.5 -92t23.5 -93t63.5 -68t87 -25
q46 0 85.5 25z" />
    <glyph glyph-name="Racute" unicode="&#x154;" horiz-adv-x="669" 
d="M564 319q-56 -60 -144 -75l171 -244h-115l-168 239h-131v-239h-101v687h289q71 0 129.5 -28.5t92 -80t33.5 -115.5q0 -84 -56 -144zM177 333h173q75 0 120.5 35t45.5 95t-45.5 95t-120.5 35h-173v-260zM392 894l96 -20l-144 -128h-72z" />
    <glyph glyph-name="racute" unicode="&#x155;" horiz-adv-x="375" 
d="M230 498.5q51 30.5 118 30.5v-86q-56 0 -100 -21t-68.5 -59.5t-24.5 -87.5v-275h-98v517h98v-101q24 52 75 82.5zM287 724l96 -20l-144 -128h-72z" />
    <glyph glyph-name="uni0156" unicode="&#x156;" horiz-adv-x="669" 
d="M564 319q-56 -60 -144 -75l171 -244h-115l-168 239h-131v-239h-101v687h289q71 0 129.5 -28.5t92 -80t33.5 -115.5q0 -84 -56 -144zM177 333h173q75 0 120.5 35t45.5 95t-45.5 95t-120.5 35h-173v-260zM310 -177q-23 0 -38 15t-15 38t15.5 38.5t38.5 15.5q27 0 43 -21.5
t16 -54.5q0 -28 -16 -58t-55 -76l-34 25q36 40 45 78z" />
    <glyph glyph-name="uni0157" unicode="&#x157;" horiz-adv-x="375" 
d="M230 498.5q51 30.5 118 30.5v-86q-56 0 -100 -21t-68.5 -59.5t-24.5 -87.5v-275h-98v517h98v-101q24 52 75 82.5zM204 -177q-23 0 -38 15t-15 38t15.5 38.5t38.5 15.5q27 0 43 -21.5t16 -54.5q0 -28 -16 -58t-55 -76l-34 25q36 40 45 78z" />
    <glyph glyph-name="Rcaron" unicode="&#x158;" horiz-adv-x="669" 
d="M564 319q-56 -60 -144 -75l171 -244h-115l-168 239h-131v-239h-101v687h289q71 0 129.5 -28.5t92 -80t33.5 -115.5q0 -84 -56 -144zM177 333h173q75 0 120.5 35t45.5 95t-45.5 95t-120.5 35h-173v-260zM164 886h68l77 -82l78 82h69l-103 -140h-87z" />
    <glyph glyph-name="rcaron" unicode="&#x159;" horiz-adv-x="375" 
d="M230 498.5q51 30.5 118 30.5v-86q-56 0 -100 -21t-68.5 -59.5t-24.5 -87.5v-275h-98v517h98v-101q24 52 75 82.5zM59 716h68l77 -82l78 82h69l-103 -140h-87z" />
    <glyph glyph-name="Sacute" unicode="&#x15a;" horiz-adv-x="620" 
d="M41 99l61 75q101 -96 226 -96q68 0 106 30.5t38 74.5q0 46 -39.5 70.5t-132.5 45.5q-78 18 -127.5 41t-77.5 61t-28 97q0 57 30.5 103t85 72.5t122.5 26.5q76 0 137 -25t114 -72l-58 -76q-44 40 -94.5 62t-102.5 22q-37 0 -67 -14.5t-47 -38.5t-17 -51q0 -31 19 -51
t54.5 -33.5t98.5 -28.5q115 -27 173.5 -71t58.5 -130q0 -59 -29 -105t-85.5 -72.5t-135.5 -26.5q-168 0 -283 110zM394 894l96 -20l-144 -128h-72z" />
    <glyph glyph-name="sacute" unicode="&#x15b;" horiz-adv-x="474" 
d="M131 8q-58 20 -105 57l46 68q43 -32 88 -48.5t88 -16.5q46 0 73.5 19t27.5 51q0 33 -29 49.5t-91 33.5q-95 26 -136.5 58.5t-41.5 92.5q0 71 52.5 114t135.5 43q49 0 98.5 -16t92.5 -44l-42 -70q-78 50 -149 50q-41 0 -67.5 -17.5t-26.5 -48.5q0 -20 12 -32t35.5 -21.5
t74.5 -25.5q56 -16 91.5 -32t60 -46t24.5 -78q0 -72 -55 -116t-141 -44q-58 0 -116 20zM322 724l96 -20l-144 -128h-72z" />
    <glyph glyph-name="Scedilla" unicode="&#x15e;" horiz-adv-x="620" 
d="M546.5 90.5q-27.5 -45.5 -81 -72.5t-128.5 -29l-15 -33h8q31 0 50.5 -19t19.5 -48q0 -37 -29 -60t-72 -23q-26 0 -50 8t-40 21l21 47q29 -23 64 -23q20 0 33.5 10t13.5 25q0 14 -9.5 23t-27.5 9q-19 0 -32 -10l-18 18l24 57q-139 15 -237 108l61 75q101 -96 226 -96
q68 0 106 30.5t38 74.5q0 46 -39.5 70.5t-132.5 45.5q-78 18 -127.5 41t-77.5 61t-28 97q0 57 30.5 103t85 72.5t122.5 26.5q76 0 137 -25t114 -72l-58 -76q-44 40 -94.5 62t-102.5 22q-37 0 -67 -14.5t-47 -38.5t-17 -51q0 -31 19 -51t54.5 -33.5t98.5 -28.5
q115 -27 173.5 -71t58.5 -130q0 -57 -27.5 -102.5z" />
    <glyph glyph-name="scedilla" unicode="&#x15f;" horiz-adv-x="474" 
d="M392 35.5q-51 -43.5 -132 -47.5l-14 -32h8q31 0 50.5 -19t19.5 -48q0 -37 -29 -60t-72 -23q-26 0 -50 8t-40 21l21 47q29 -23 64 -23q20 0 33.5 10t13.5 25q0 14 -9.5 23t-27.5 9q-19 0 -32 -10l-18 18l24 57q-47 6 -92.5 25t-83.5 49l46 68q43 -32 88 -48.5t88 -16.5
q46 0 73.5 19t27.5 51q0 33 -29 49.5t-91 33.5q-95 26 -136.5 58.5t-41.5 92.5q0 71 52.5 114t135.5 43q49 0 98.5 -16t92.5 -44l-42 -70q-78 50 -149 50q-41 0 -67.5 -17.5t-26.5 -48.5q0 -20 12 -32t35.5 -21.5t74.5 -25.5q56 -16 91.5 -32t60 -46t24.5 -78
q0 -69 -51 -112.5z" />
    <glyph glyph-name="Scaron" unicode="&#x160;" horiz-adv-x="620" 
d="M41 99l61 75q101 -96 226 -96q68 0 106 30.5t38 74.5q0 46 -39.5 70.5t-132.5 45.5q-78 18 -127.5 41t-77.5 61t-28 97q0 57 30.5 103t85 72.5t122.5 26.5q76 0 137 -25t114 -72l-58 -76q-44 40 -94.5 62t-102.5 22q-37 0 -67 -14.5t-47 -38.5t-17 -51q0 -31 19 -51
t54.5 -33.5t98.5 -28.5q115 -27 173.5 -71t58.5 -130q0 -59 -29 -105t-85.5 -72.5t-135.5 -26.5q-168 0 -283 110zM167 886h68l77 -82l78 82h69l-103 -140h-87z" />
    <glyph glyph-name="scaron" unicode="&#x161;" horiz-adv-x="474" 
d="M131 8q-58 20 -105 57l46 68q43 -32 88 -48.5t88 -16.5q46 0 73.5 19t27.5 51q0 33 -29 49.5t-91 33.5q-95 26 -136.5 58.5t-41.5 92.5q0 71 52.5 114t135.5 43q49 0 98.5 -16t92.5 -44l-42 -70q-78 50 -149 50q-41 0 -67.5 -17.5t-26.5 -48.5q0 -20 12 -32t35.5 -21.5
t74.5 -25.5q56 -16 91.5 -32t60 -46t24.5 -78q0 -72 -55 -116t-141 -44q-58 0 -116 20zM94 716h68l77 -82l78 82h69l-103 -140h-87z" />
    <glyph glyph-name="uni0162" unicode="&#x162;" horiz-adv-x="638" 
d="M348 0l-19 -44h8q31 0 50.5 -19t19.5 -48q0 -37 -29 -60t-72 -23q-26 0 -50 8t-40 21l21 47q29 -23 64 -23q20 0 33.5 10t13.5 25q0 14 -9.5 23t-27.5 9q-19 0 -32 -10l-18 18l27 66h-19v593h-226v94h552v-94h-225v-593h-22z" />
    <glyph glyph-name="uni0163" unicode="&#x163;" horiz-adv-x="373" 
d="M311.5 -63q19.5 -19 19.5 -48q0 -37 -29 -60t-72 -23q-26 0 -50 8t-40 21l21 47q29 -23 64 -23q20 0 33.5 10t13.5 25q0 14 -9.5 23t-27.5 9q-19 0 -32 -10l-18 18l24 58q-47 10 -75 47t-28 90v304h-78v84h78v142h97v-142h122v-84h-122v-297q0 -27 15.5 -44.5t37.5 -17.5
q16 0 30.5 5.5t22.5 13.5l36 -68q-31 -27 -77 -35l-15 -34h8q31 0 50.5 -19z" />
    <glyph glyph-name="Tcaron" unicode="&#x164;" horiz-adv-x="638" 
d="M269 593h-226v94h552v-94h-225v-593h-101v593zM174 886h68l77 -82l78 82h69l-103 -140h-87z" />
    <glyph glyph-name="tcaron" unicode="&#x165;" horiz-adv-x="495" 
d="M476 677.5q16 -21.5 16 -55.5q0 -27 -16 -57.5t-55 -75.5l-35 26q36 37 45 77q-22 0 -37 15.5t-15 38.5q0 22 15.5 37.5t38.5 15.5q27 0 43 -21.5zM286.5 79.5q14.5 5.5 22.5 13.5l36 -68q-21 -17 -48 -27t-55 -10q-60 0 -98 39.5t-38 101.5v304h-78v84h78v142h97v-142
h122v-84h-122v-297q0 -27 15.5 -44.5t37.5 -17.5q16 0 30.5 5.5z" />
    <glyph glyph-name="Umacron" unicode="&#x16a;" horiz-adv-x="718" 
d="M206.5 26.5q-67.5 38.5 -105 107t-37.5 155.5v398h101v-396q0 -61 25 -109t69 -75t100 -27t100 27t69 75t25 109v396h101v-398q0 -87 -37.5 -155.5t-105 -107t-152.5 -38.5t-152.5 38.5zM198 825h322v-65h-322v65z" />
    <glyph glyph-name="umacron" unicode="&#x16b;" horiz-adv-x="562" 
d="M506 517v-517h-99v76q-23 -39 -67.5 -63.5t-97.5 -24.5q-56 0 -100 25t-68.5 70.5t-24.5 104.5v329h97v-312q0 -58 32.5 -94.5t85.5 -36.5q39 0 72 16.5t52 44.5t19 61v321h99zM109 655h322v-65h-322v65z" />
    <glyph glyph-name="Uring" unicode="&#x16e;" horiz-adv-x="718" 
d="M206.5 26.5q-67.5 38.5 -105 107t-37.5 155.5v398h101v-396q0 -61 25 -109t69 -75t100 -27t100 27t69 75t25 109v396h101v-398q0 -87 -37.5 -155.5t-105 -107t-152.5 -38.5t-152.5 38.5zM283.5 787.5q-31.5 31.5 -31.5 75.5t31.5 75t75.5 31t75.5 -31t31.5 -75
t-31.5 -75.5t-75.5 -31.5t-75.5 31.5zM399 823q17 17 17 40t-17 40t-40 17t-40 -17t-17 -40t17 -40t40 -17t40 17z" />
    <glyph glyph-name="uring" unicode="&#x16f;" horiz-adv-x="562" 
d="M506 517v-517h-99v76q-23 -39 -67.5 -63.5t-97.5 -24.5q-56 0 -100 25t-68.5 70.5t-24.5 104.5v329h97v-312q0 -58 32.5 -94.5t85.5 -36.5q39 0 72 16.5t52 44.5t19 61v321h99zM194.5 617.5q-31.5 31.5 -31.5 75.5t31.5 75t75.5 31t75.5 -31t31.5 -75t-31.5 -75.5
t-75.5 -31.5t-75.5 31.5zM310 653q17 17 17 40t-17 40t-40 17t-40 -17t-17 -40t17 -40t40 -17t40 17z" />
    <glyph glyph-name="Uhungarumlaut" unicode="&#x170;" horiz-adv-x="718" 
d="M206.5 26.5q-67.5 38.5 -105 107t-37.5 155.5v398h101v-396q0 -61 25 -109t69 -75t100 -27t100 27t69 75t25 109v396h101v-398q0 -87 -37.5 -155.5t-105 -107t-152.5 -38.5t-152.5 38.5zM335 894l97 -20l-144 -129h-72zM547 892l96 -20l-144 -127h-71z" />
    <glyph glyph-name="uhungarumlaut" unicode="&#x171;" horiz-adv-x="562" 
d="M506 517v-517h-99v76q-23 -39 -67.5 -63.5t-97.5 -24.5q-56 0 -100 25t-68.5 70.5t-24.5 104.5v329h97v-312q0 -58 32.5 -94.5t85.5 -36.5q39 0 72 16.5t52 44.5t19 61v321h99zM246 724l97 -20l-144 -129h-72zM458 722l96 -20l-144 -127h-71z" />
    <glyph glyph-name="Uogonek" unicode="&#x172;" horiz-adv-x="718" 
d="M654 687v-398q0 -87 -37.5 -155.5t-105 -107t-152.5 -38.5q-23 0 -38.5 -15t-15.5 -38q0 -24 14.5 -37.5t40.5 -13.5q28 0 43 17l30 -56q-36 -30 -86 -30q-49 0 -79 29t-30 79q0 23 9.5 43t24.5 33q-95 27 -151.5 104.5t-56.5 185.5v398h101v-396q0 -61 25 -109t69 -75
t100 -27t100 27t69 75t25 109v396h101z" />
    <glyph glyph-name="uogonek" unicode="&#x173;" horiz-adv-x="562" 
d="M579 -143q-36 -30 -86 -30q-49 0 -79 29t-30 79q0 37 23 65v76q-23 -39 -67.5 -63.5t-97.5 -24.5q-56 0 -100 25t-68.5 70.5t-24.5 104.5v329h97v-312q0 -58 32.5 -94.5t85.5 -36.5q39 0 72 16.5t52 44.5t19 61v321h99v-517h-1q-23 0 -38.5 -15t-15.5 -38
q0 -24 14.5 -37.5t40.5 -13.5q28 0 43 17z" />
    <glyph glyph-name="Wcircumflex" unicode="&#x174;" horiz-adv-x="1098" 
d="M40 687h113l168 -524l173 524h111l172 -524l169 524h112l-226 -687h-101l-181 547l-183 -547h-100zM507 886h87l103 -140h-69l-78 82l-77 -82h-68z" />
    <glyph glyph-name="wcircumflex" unicode="&#x175;" horiz-adv-x="828" 
d="M25 517h101l118 -385l128 385h84l128 -385l119 385h101l-175 -517h-91l-123 384l-125 -384h-91zM371 716h87l103 -140h-69l-78 82l-77 -82h-68z" />
    <glyph glyph-name="Ycircumflex" unicode="&#x176;" horiz-adv-x="729" 
d="M313 269l-275 418h122l205 -322l208 322h117l-273 -418v-269h-104v269zM322 886h87l103 -140h-69l-78 82l-77 -82h-68z" />
    <glyph glyph-name="ycircumflex" unicode="&#x177;" horiz-adv-x="580" 
d="M64 -158l22 76q29 -16 64 -16q24 0 41 9.5t30 32.5l25 53l-222 520h106l166 -408l157 408h103l-227 -564q-28 -68 -69 -100t-98 -33q-54 0 -98 22zM253 716h87l103 -140h-69l-78 82l-77 -82h-68z" />
    <glyph glyph-name="Ydieresis" unicode="&#x178;" horiz-adv-x="729" 
d="M313 269l-275 418h122l205 -322l208 322h117l-273 -418v-269h-104v269zM227 778.5q-16 15.5 -16 38.5q0 21 16 37.5t39 16.5q22 0 38 -16.5t16 -37.5q0 -22 -16 -38t-38 -16q-23 0 -39 15.5zM426 779q-16 16 -16 38q0 21 16 37.5t38 16.5t38 -16.5t16 -37.5
q0 -22 -15.5 -38t-38.5 -16q-22 0 -38 16z" />
    <glyph glyph-name="Zacute" unicode="&#x179;" horiz-adv-x="640" 
d="M50 79l396 514h-389v94h528v-79l-397 -514h401v-94h-539v79zM404 894l96 -20l-144 -128h-72z" />
    <glyph glyph-name="zacute" unicode="&#x17a;" horiz-adv-x="495" 
d="M35 74l290 354h-283v89h414v-74l-291 -354h293v-89h-423v74zM335 724l96 -20l-144 -128h-72z" />
    <glyph glyph-name="Zdotaccent" unicode="&#x17b;" horiz-adv-x="640" 
d="M50 79l396 514h-389v94h528v-79l-397 -514h401v-94h-539v79zM283 778.5q-16 15.5 -16 38.5q0 21 16 37.5t39 16.5q22 0 38 -16.5t16 -37.5q0 -22 -16 -38t-38 -16q-23 0 -39 15.5z" />
    <glyph glyph-name="zdotaccent" unicode="&#x17c;" horiz-adv-x="495" 
d="M35 74l290 354h-283v89h414v-74l-291 -354h293v-89h-423v74zM214 608.5q-16 15.5 -16 38.5q0 21 16 37.5t39 16.5q22 0 38 -16.5t16 -37.5q0 -22 -16 -38t-38 -16q-23 0 -39 15.5z" />
    <glyph glyph-name="Zcaron" unicode="&#x17d;" horiz-adv-x="640" 
d="M50 79l396 514h-389v94h528v-79l-397 -514h401v-94h-539v79zM177 886h68l77 -82l78 82h69l-103 -140h-87z" />
    <glyph glyph-name="zcaron" unicode="&#x17e;" horiz-adv-x="495" 
d="M35 74l290 354h-283v89h414v-74l-291 -354h293v-89h-423v74zM107 716h68l77 -82l78 82h69l-103 -140h-87z" />
    <glyph glyph-name="uni0237" unicode="&#x237;" horiz-adv-x="218" 
d="M-26.5 -173q-24.5 5 -41.5 13l13 77q27 -10 61 -10q24 0 39 17.5t15 44.5v548h98v-553q0 -62 -38.5 -102t-98.5 -40q-23 0 -47.5 5z" />
    <glyph glyph-name="circumflex" unicode="&#x2c6;" horiz-adv-x="346" 
d="M129 716h87l103 -140h-69l-78 82l-77 -82h-68z" />
    <glyph glyph-name="caron" unicode="&#x2c7;" horiz-adv-x="346" 
d="M27 716h68l77 -82l78 82h69l-103 -140h-87z" />
    <glyph glyph-name="breve" unicode="&#x2d8;" horiz-adv-x="355" 
d="M97 602q-39 16 -71 46l53 53q20 -20 46.5 -31t51.5 -11q26 0 52.5 11t46.5 31l52 -53q-30 -30 -69.5 -46t-81.5 -16q-41 0 -80 16z" />
    <glyph glyph-name="dotaccent" unicode="&#x2d9;" horiz-adv-x="179" 
d="M51 608.5q-16 15.5 -16 38.5q0 21 16 37.5t39 16.5q22 0 38 -16.5t16 -37.5q0 -22 -16 -38t-38 -16q-23 0 -39 15.5z" />
    <glyph glyph-name="ring" unicode="&#x2da;" horiz-adv-x="282" 
d="M65.5 617.5q-31.5 31.5 -31.5 75.5t31.5 75t75.5 31t75.5 -31t31.5 -75t-31.5 -75.5t-75.5 -31.5t-75.5 31.5zM181 653q17 17 17 40t-17 40t-40 17t-40 -17t-17 -40t17 -40t40 -17t40 17z" />
    <glyph glyph-name="ogonek" unicode="&#x2db;" horiz-adv-x="258" 
d="M66 -144q-30 29 -30 79q0 29 15 53t37 35l69 -23q-23 0 -38.5 -15t-15.5 -38q0 -24 14.5 -37.5t40.5 -13.5q28 0 43 17l30 -56q-36 -30 -86 -30q-49 0 -79 29z" />
    <glyph glyph-name="tilde" unicode="&#x2dc;" horiz-adv-x="401" 
d="M228 583q-17 9 -41 26q-17 13 -28.5 19.5t-22.5 6.5q-19 0 -30.5 -15t-16.5 -48l-55 9q16 123 101 123q21 0 38 -9t41 -26q17 -13 28.5 -19.5t22.5 -6.5q18 0 29.5 15t17.5 48l55 -8q-15 -124 -101 -124q-21 0 -38 9z" />
    <glyph glyph-name="hungarumlaut" unicode="&#x2dd;" horiz-adv-x="480" 
d="M146 724l97 -20l-144 -129h-72zM358 722l96 -20l-144 -127h-71z" />
    <glyph glyph-name="uni0307" unicode="&#x307;" horiz-adv-x="0" 
d="M-137.5 621q-17.5 18 -17.5 42t17.5 41.5t42.5 17.5q24 0 41.5 -17.5t17.5 -41.5t-17.5 -42t-41.5 -18q-25 0 -42.5 18z" />
    <glyph glyph-name="uni0326" unicode="&#x326;" horiz-adv-x="0" 
d="M-95 -177q-23 0 -38 15t-15 38t15.5 38.5t38.5 15.5q27 0 43 -21.5t16 -54.5q0 -28 -16 -58t-55 -76l-34 25q36 40 45 78z" />
    <glyph glyph-name="Wgrave" unicode="&#x1e80;" horiz-adv-x="1098" 
d="M40 687h113l168 -524l173 524h111l172 -524l169 524h112l-226 -687h-101l-181 547l-183 -547h-100zM370 874l97 20l119 -148h-72z" />
    <glyph glyph-name="wgrave" unicode="&#x1e81;" horiz-adv-x="828" 
d="M25 517h101l118 -385l128 385h84l128 -385l119 385h101l-175 -517h-91l-123 384l-125 -384h-91zM235 704l97 20l119 -148h-72z" />
    <glyph glyph-name="Wacute" unicode="&#x1e82;" horiz-adv-x="1098" 
d="M40 687h113l168 -524l173 524h111l172 -524l169 524h112l-226 -687h-101l-181 547l-183 -547h-100zM632 894l96 -20l-144 -128h-72z" />
    <glyph glyph-name="wacute" unicode="&#x1e83;" horiz-adv-x="828" 
d="M25 517h101l118 -385l128 385h84l128 -385l119 385h101l-175 -517h-91l-123 384l-125 -384h-91zM497 724l96 -20l-144 -128h-72z" />
    <glyph glyph-name="Wdieresis" unicode="&#x1e84;" horiz-adv-x="1098" 
d="M40 687h113l168 -524l173 524h111l172 -524l169 524h112l-226 -687h-101l-181 547l-183 -547h-100zM412 778.5q-16 15.5 -16 38.5q0 21 16 37.5t39 16.5q22 0 38 -16.5t16 -37.5q0 -22 -16 -38t-38 -16q-23 0 -39 15.5zM611 779q-16 16 -16 38q0 21 16 37.5t38 16.5
t38 -16.5t16 -37.5q0 -22 -15.5 -38t-38.5 -16q-22 0 -38 16z" />
    <glyph glyph-name="wdieresis" unicode="&#x1e85;" horiz-adv-x="828" 
d="M25 517h101l118 -385l128 385h84l128 -385l119 385h101l-175 -517h-91l-123 384l-125 -384h-91zM277 608.5q-16 15.5 -16 38.5q0 21 16 37.5t39 16.5q22 0 38 -16.5t16 -37.5q0 -22 -16 -38t-38 -16q-23 0 -39 15.5zM476 609q-16 16 -16 38q0 21 16 37.5t38 16.5
t38 -16.5t16 -37.5q0 -22 -15.5 -38t-38.5 -16q-22 0 -38 16z" />
    <glyph glyph-name="uni1EB8" unicode="&#x1eb8;" horiz-adv-x="634" 
d="M286 -169.5q-16 15.5 -16 38.5q0 21 16 37.5t39 16.5q22 0 38 -16.5t16 -37.5q0 -22 -16 -38t-38 -16q-23 0 -39 15.5zM580 593h-403v-196h363v-94h-363v-209h403v-94h-505v687h505v-94z" />
    <glyph glyph-name="uni1EB9" unicode="&#x1eb9;" horiz-adv-x="595" 
d="M383 86.5q43 16.5 68 42.5l58 -61q-34 -36 -93.5 -58t-115.5 -22q-72 0 -133 35t-97.5 97t-36.5 140q0 76 34.5 137.5t94 96.5t130.5 35q78 0 134.5 -37t86 -105t29.5 -160h-412q9 -69 54.5 -113t112.5 -44q43 0 86 16.5zM187.5 407q-45.5 -40 -56.5 -107h315
q-8 65 -47 106t-104 41q-62 0 -107.5 -40zM235 -169.5q-16 15.5 -16 38.5q0 21 16 37.5t39 16.5q22 0 38 -16.5t16 -37.5q0 -22 -16 -38t-38 -16q-23 0 -39 15.5z" />
    <glyph glyph-name="uni1EBC" unicode="&#x1ebc;" horiz-adv-x="635" 
d="M581 593h-403v-196h363v-94h-363v-209h403v-94h-505v687h505v-94zM356 753q-17 9 -41 26q-17 13 -28.5 19.5t-22.5 6.5q-19 0 -30.5 -15t-16.5 -48l-55 9q16 123 101 123q21 0 38 -9t41 -26q17 -13 28.5 -19.5t22.5 -6.5q18 0 29.5 15t17.5 48l55 -8q-15 -124 -101 -124
q-21 0 -38 9z" />
    <glyph glyph-name="uni1EBD" unicode="&#x1ebd;" horiz-adv-x="571" 
d="M383 86.5q43 16.5 68 42.5l58 -61q-34 -36 -93.5 -58t-115.5 -22q-72 0 -133 35t-97.5 97t-36.5 140q0 76 34.5 137.5t94 96.5t130.5 35q78 0 134.5 -37t86 -105t29.5 -160h-412q9 -69 54.5 -113t112.5 -44q43 0 86 16.5zM187.5 407q-45.5 -40 -56.5 -107h315
q-8 65 -47 106t-104 41q-62 0 -107.5 -40zM320 583q-17 9 -41 26q-17 13 -28.5 19.5t-22.5 6.5q-19 0 -30.5 -15t-16.5 -48l-55 9q16 123 101 123q21 0 38 -9t41 -26q17 -13 28.5 -19.5t22.5 -6.5q18 0 29.5 15t17.5 48l55 -8q-15 -124 -101 -124q-21 0 -38 9z" />
    <glyph glyph-name="Ygrave" unicode="&#x1ef2;" horiz-adv-x="729" 
d="M313 269l-275 418h122l205 -322l208 322h117l-273 -418v-269h-104v269zM185 874l97 20l119 -148h-72z" />
    <glyph glyph-name="ygrave" unicode="&#x1ef3;" horiz-adv-x="580" 
d="M64 -158l22 76q29 -16 64 -16q24 0 41 9.5t30 32.5l25 53l-222 520h106l166 -408l157 408h103l-227 -564q-28 -68 -69 -100t-98 -33q-54 0 -98 22zM117 704l97 20l119 -148h-72z" />
    <glyph glyph-name="uni2002" unicode="&#x2002;" horiz-adv-x="500" 
 />
    <glyph glyph-name="uni2003" unicode="&#x2003;" horiz-adv-x="1000" 
 />
    <glyph glyph-name="uni2004" unicode="&#x2004;" horiz-adv-x="333" 
 />
    <glyph glyph-name="uni2005" unicode="&#x2005;" horiz-adv-x="250" 
 />
    <glyph glyph-name="uni2006" unicode="&#x2006;" horiz-adv-x="166" 
 />
    <glyph glyph-name="endash" unicode="&#x2013;" horiz-adv-x="564" 
d="M47 317h470v-88h-470v88z" />
    <glyph glyph-name="emdash" unicode="&#x2014;" horiz-adv-x="869" 
d="M47 317h775v-88h-775v88z" />
    <glyph glyph-name="quoteleft" unicode="&#x2018;" horiz-adv-x="247" 
d="M128 554q27 0 46.5 -20t19.5 -47t-19.5 -46.5t-47.5 -19.5q-33 0 -52.5 26.5t-19.5 68.5q0 36 19 72.5t67 90.5l42 -32q-41 -44 -55 -93z" />
    <glyph glyph-name="quoteright" unicode="&#x2019;" horiz-adv-x="247" 
d="M119 548q-27 0 -46.5 19.5t-19.5 47.5q0 27 19.5 46.5t47.5 19.5q33 0 52.5 -26.5t19.5 -68.5q0 -36 -19 -72.5t-67 -90.5l-42 32q41 44 55 93z" />
    <glyph glyph-name="quotesinglbase" unicode="&#x201a;" horiz-adv-x="247" 
d="M119 -12q-27 0 -46.5 19.5t-19.5 47.5q0 27 19.5 46.5t47.5 19.5q33 0 52.5 -26.5t19.5 -68.5q0 -36 -19 -72.5t-67 -90.5l-42 32q41 44 55 93z" />
    <glyph glyph-name="quotedblleft" unicode="&#x201c;" horiz-adv-x="467" 
d="M128 554q27 0 46.5 -20t19.5 -47t-19.5 -46.5t-47.5 -19.5q-33 0 -52.5 26.5t-19.5 68.5q0 36 19 72.5t67 90.5l42 -32q-41 -44 -55 -93zM348 554q27 0 46.5 -20t19.5 -47t-19.5 -46.5t-47.5 -19.5q-33 0 -52.5 26.5t-19.5 68.5q0 36 19 72.5t67 90.5l42 -32
q-41 -44 -55 -93z" />
    <glyph glyph-name="quotedblright" unicode="&#x201d;" horiz-adv-x="467" 
d="M119 548q-27 0 -46.5 19.5t-19.5 47.5q0 27 19.5 46.5t47.5 19.5q33 0 52.5 -26.5t19.5 -68.5q0 -36 -19 -72.5t-67 -90.5l-42 32q41 44 55 93zM339 548q-27 0 -46.5 19.5t-19.5 47.5q0 27 19.5 46.5t47.5 19.5q33 0 52.5 -26.5t19.5 -68.5q0 -36 -19 -72.5t-67 -90.5
l-42 32q41 44 55 93z" />
    <glyph glyph-name="quotedblbase" unicode="&#x201e;" horiz-adv-x="467" 
d="M119 -12q-27 0 -46.5 19.5t-19.5 47.5q0 27 19.5 46.5t47.5 19.5q33 0 52.5 -26.5t19.5 -68.5q0 -36 -19 -72.5t-67 -90.5l-42 32q41 44 55 93zM339 -12q-27 0 -46.5 19.5t-19.5 47.5q0 27 19.5 46.5t47.5 19.5q33 0 52.5 -26.5t19.5 -68.5q0 -36 -19 -72.5t-67 -90.5
l-42 32q41 44 55 93z" />
    <glyph glyph-name="bullet" unicode="&#x2022;" horiz-adv-x="360" 
d="M117 189q-29 17 -46 46t-17 63q0 33 17 62t46 46t63 17t62.5 -17t45.5 -46t17 -62q0 -34 -17 -63t-45.5 -46t-62.5 -17t-63 17z" />
    <glyph glyph-name="ellipsis" unicode="&#x2026;" horiz-adv-x="683" 
d="M75 8q-20 20 -20 48q0 26 20 45.5t48 19.5q26 0 45.5 -19.5t19.5 -45.5q0 -28 -19.5 -48t-45.5 -20q-28 0 -48 20zM295 8q-20 20 -20 48q0 26 20 45.5t48 19.5q26 0 45.5 -19.5t19.5 -45.5q0 -28 -19.5 -48t-45.5 -20q-28 0 -48 20zM515 8q-20 20 -20 48q0 26 20 45.5
t48 19.5q26 0 45.5 -19.5t19.5 -45.5q0 -28 -19.5 -48t-45.5 -20q-28 0 -48 20z" />
    <glyph glyph-name="uni202F" unicode="&#x202f;" horiz-adv-x="274" 
 />
    <glyph glyph-name="perthousand" unicode="&#x2030;" horiz-adv-x="1223" 
d="M136 370q-37 23 -57.5 62t-20.5 86q0 49 21 89t58 63t85 23t85 -23t57.5 -62.5t20.5 -87.5q0 -49 -21 -88.5t-58.5 -62t-84.5 -22.5q-48 0 -85 23zM616 687h90l-473 -687h-89zM285 441.5q25 30.5 25 77.5t-25.5 78t-63.5 31q-39 0 -63.5 -30.5t-24.5 -78.5
q0 -46 25.5 -77t63.5 -31t63 30.5zM541 12.5q-37 22.5 -58 62t-21 88.5q0 47 21 87t58.5 63t84.5 23q48 0 85 -23t57.5 -62.5t20.5 -86.5q0 -49 -21 -89t-58.5 -62.5t-84.5 -22.5t-84 22.5zM917.5 12.5q-37.5 22.5 -58.5 62t-21 88.5q0 47 21 87t58.5 63t84.5 23
q48 0 85 -23t57.5 -62.5t20.5 -86.5q0 -49 -21 -88.5t-58 -62.5t-84 -23t-84.5 22.5zM689.5 85.5q24.5 30.5 24.5 77.5t-25.5 78t-63.5 31q-39 0 -63.5 -31t-24.5 -77q0 -47 25 -78t64 -31t63.5 30.5zM1066.5 85.5q24.5 30.5 24.5 77.5t-25.5 78t-63.5 31q-39 0 -64 -31
t-25 -77q0 -47 25 -78t64 -31q40 0 64.5 30.5z" />
    <glyph glyph-name="guilsinglleft" unicode="&#x2039;" horiz-adv-x="342" 
d="M44 252l162 199l88 -19l-145 -179l145 -182l-88 -20z" />
    <glyph glyph-name="guilsinglright" unicode="&#x203a;" horiz-adv-x="342" 
d="M48 71l145 182l-145 179l88 19l162 -199l-162 -201z" />
    <glyph glyph-name="Euro" unicode="&#x20ac;" horiz-adv-x="814" 
d="M595.5 103q47.5 22 83.5 61l71 -68q-50 -51 -116 -79.5t-138 -28.5q-76 0 -145.5 32.5t-120 89.5t-73.5 128h-86v69h71q-2 24 -2 37q0 30 4 53h-73v69h92q25 67 75.5 120t117 83t140.5 30q73 0 139 -28.5t115 -79.5l-71 -68q-36 39 -83.5 61t-99.5 22q-70 0 -130 -38.5
t-93 -101.5h288v-69h-313q-5 -28 -5 -53q0 -19 3 -37h315v-69h-296q30 -70 93 -113.5t138 -43.5q52 0 99.5 22z" />
    <glyph glyph-name="trademark" unicode="&#x2122;" horiz-adv-x="770" 
d="M142 502h-80v77h242v-77h-81v-223h-81v223zM349 579h81l87 -144l86 144h82v-300h-82v162l-86 -145l-87 145v-162h-81v300z" />
    <glyph glyph-name="minus" unicode="&#x2212;" horiz-adv-x="621" 
d="M77 378h467v-89h-467v89z" />
    <glyph glyph-name="a.alt" horiz-adv-x="611" 
d="M554 517v-517h-99v89q-30 -48 -77.5 -74.5t-105.5 -26.5q-69 0 -123.5 34.5t-84.5 96t-30 140.5t30.5 140t84.5 95.5t123 34.5q58 0 105 -26.5t78 -73.5v88h99zM377.5 97.5q36.5 23.5 57 65.5t20.5 96q0 53 -20.5 95t-57 65.5t-82.5 23.5q-47 0 -83.5 -23.5t-57 -65.5
t-20.5 -95q0 -54 20.5 -96t57 -65.5t83.5 -23.5q46 0 82.5 23.5z" />
    <glyph glyph-name="aacute.alt" horiz-adv-x="611" 
d="M554 517v-517h-99v89q-30 -48 -77.5 -74.5t-105.5 -26.5q-69 0 -123.5 34.5t-84.5 96t-30 140.5t30.5 140t84.5 95.5t123 34.5q58 0 105 -26.5t78 -73.5v88h99zM377.5 97.5q36.5 23.5 57 65.5t20.5 96q0 53 -20.5 95t-57 65.5t-82.5 23.5q-47 0 -83.5 -23.5t-57 -65.5
t-20.5 -95q0 -54 20.5 -96t57 -65.5t83.5 -23.5q46 0 82.5 23.5zM389 724l96 -20l-144 -128h-72z" />
    <glyph glyph-name="abreve.alt" horiz-adv-x="611" 
d="M554 517v-517h-99v89q-30 -48 -77.5 -74.5t-105.5 -26.5q-69 0 -123.5 34.5t-84.5 96t-30 140.5t30.5 140t84.5 95.5t123 34.5q58 0 105 -26.5t78 -73.5v88h99zM377.5 97.5q36.5 23.5 57 65.5t20.5 96q0 53 -20.5 95t-57 65.5t-82.5 23.5q-47 0 -83.5 -23.5t-57 -65.5
t-20.5 -95q0 -54 20.5 -96t57 -65.5t83.5 -23.5q46 0 82.5 23.5zM226 602q-39 16 -71 46l53 53q20 -20 46.5 -31t51.5 -11q26 0 52.5 11t46.5 31l52 -53q-30 -30 -69.5 -46t-81.5 -16q-41 0 -80 16z" />
    <glyph glyph-name="acircumflex.alt" horiz-adv-x="611" 
d="M554 517v-517h-99v89q-30 -48 -77.5 -74.5t-105.5 -26.5q-69 0 -123.5 34.5t-84.5 96t-30 140.5t30.5 140t84.5 95.5t123 34.5q58 0 105 -26.5t78 -73.5v88h99zM377.5 97.5q36.5 23.5 57 65.5t20.5 96q0 53 -20.5 95t-57 65.5t-82.5 23.5q-47 0 -83.5 -23.5t-57 -65.5
t-20.5 -95q0 -54 20.5 -96t57 -65.5t83.5 -23.5q46 0 82.5 23.5zM264 716h87l103 -140h-69l-78 82l-77 -82h-68z" />
    <glyph glyph-name="adieresis.alt" horiz-adv-x="611" 
d="M554 517v-517h-99v89q-30 -48 -77.5 -74.5t-105.5 -26.5q-69 0 -123.5 34.5t-84.5 96t-30 140.5t30.5 140t84.5 95.5t123 34.5q58 0 105 -26.5t78 -73.5v88h99zM377.5 97.5q36.5 23.5 57 65.5t20.5 96q0 53 -20.5 95t-57 65.5t-82.5 23.5q-47 0 -83.5 -23.5t-57 -65.5
t-20.5 -95q0 -54 20.5 -96t57 -65.5t83.5 -23.5q46 0 82.5 23.5zM169 608.5q-16 15.5 -16 38.5q0 21 16 37.5t39 16.5q22 0 38 -16.5t16 -37.5q0 -22 -16 -38t-38 -16q-23 0 -39 15.5zM368 609q-16 16 -16 38q0 21 16 37.5t38 16.5t38 -16.5t16 -37.5q0 -22 -15.5 -38
t-38.5 -16q-22 0 -38 16z" />
    <glyph glyph-name="agrave.alt" horiz-adv-x="611" 
d="M554 517v-517h-99v89q-30 -48 -77.5 -74.5t-105.5 -26.5q-69 0 -123.5 34.5t-84.5 96t-30 140.5t30.5 140t84.5 95.5t123 34.5q58 0 105 -26.5t78 -73.5v88h99zM377.5 97.5q36.5 23.5 57 65.5t20.5 96q0 53 -20.5 95t-57 65.5t-82.5 23.5q-47 0 -83.5 -23.5t-57 -65.5
t-20.5 -95q0 -54 20.5 -96t57 -65.5t83.5 -23.5q46 0 82.5 23.5zM127 704l97 20l119 -148h-72z" />
    <glyph glyph-name="amacron.alt" horiz-adv-x="611" 
d="M554 517v-517h-99v89q-30 -48 -77.5 -74.5t-105.5 -26.5q-69 0 -123.5 34.5t-84.5 96t-30 140.5t30.5 140t84.5 95.5t123 34.5q58 0 105 -26.5t78 -73.5v88h99zM377.5 97.5q36.5 23.5 57 65.5t20.5 96q0 53 -20.5 95t-57 65.5t-82.5 23.5q-47 0 -83.5 -23.5t-57 -65.5
t-20.5 -95q0 -54 20.5 -96t57 -65.5t83.5 -23.5q46 0 82.5 23.5zM146 655h322v-65h-322v65z" />
    <glyph glyph-name="aogonek.alt" horiz-adv-x="611" 
d="M628 -143q-36 -30 -86 -30q-49 0 -79 29t-30 79q0 37 23 65h-1v89q-30 -48 -77.5 -74.5t-105.5 -26.5q-69 0 -123.5 34.5t-84.5 96t-30 140.5t30.5 140t84.5 95.5t123 34.5q58 0 105 -26.5t78 -73.5v88h99v-517q-23 0 -38.5 -15t-15.5 -38q0 -24 14.5 -37.5t40.5 -13.5
q28 0 43 17zM377.5 97.5q36.5 23.5 57 65.5t20.5 96q0 53 -20.5 95t-57 65.5t-82.5 23.5q-47 0 -83.5 -23.5t-57 -65.5t-20.5 -95q0 -54 20.5 -96t57 -65.5t83.5 -23.5q46 0 82.5 23.5z" />
    <glyph glyph-name="aring.alt" horiz-adv-x="611" 
d="M554 517v-517h-99v89q-30 -48 -77.5 -74.5t-105.5 -26.5q-69 0 -123.5 34.5t-84.5 96t-30 140.5t30.5 140t84.5 95.5t123 34.5q58 0 105 -26.5t78 -73.5v88h99zM377.5 97.5q36.5 23.5 57 65.5t20.5 96q0 53 -20.5 95t-57 65.5t-82.5 23.5q-47 0 -83.5 -23.5t-57 -65.5
t-20.5 -95q0 -54 20.5 -96t57 -65.5t83.5 -23.5q46 0 82.5 23.5zM231.5 617.5q-31.5 31.5 -31.5 75.5t31.5 75t75.5 31t75.5 -31t31.5 -75t-31.5 -75.5t-75.5 -31.5t-75.5 31.5zM347 653q17 17 17 40t-17 40t-40 17t-40 -17t-17 -40t17 -40t40 -17t40 17z" />
    <glyph glyph-name="atilde.alt" horiz-adv-x="611" 
d="M554 517v-517h-99v89q-30 -48 -77.5 -74.5t-105.5 -26.5q-69 0 -123.5 34.5t-84.5 96t-30 140.5t30.5 140t84.5 95.5t123 34.5q58 0 105 -26.5t78 -73.5v88h99zM377.5 97.5q36.5 23.5 57 65.5t20.5 96q0 53 -20.5 95t-57 65.5t-82.5 23.5q-47 0 -83.5 -23.5t-57 -65.5
t-20.5 -95q0 -54 20.5 -96t57 -65.5t83.5 -23.5q46 0 82.5 23.5zM334 583q-17 9 -41 26q-17 13 -28.5 19.5t-22.5 6.5q-19 0 -30.5 -15t-16.5 -48l-55 9q16 123 101 123q21 0 38 -9t41 -26q17 -13 28.5 -19.5t22.5 -6.5q18 0 29.5 15t17.5 48l55 -8q-15 -124 -101 -124
q-21 0 -38 9z" />
    </font>
</defs>
</svg>
