<?xml version="1.0" standalone="no"?>
<!DOCTYPE svg PUBLIC "-//W3C//DTD SVG 1.1//EN" "http://www.w3.org/Graphics/SVG/1.1/DTD/svg11.dtd" >
<svg xmlns="http://www.w3.org/2000/svg" xmlns:xlink="http://www.w3.org/1999/xlink" version="1.1">
<metadata>
Created by FontForge 20170731 at Sun Feb  2 02:54:08 2020
 By Aleksey,,,
</metadata>
<defs>
<font id="Metropolis-ExtraLight" horiz-adv-x="535" >
  <font-face 
    font-family="Metropolis Extra Light"
    font-weight="200"
    font-stretch="normal"
    units-per-em="1000"
    panose-1="0 0 3 0 0 0 0 0 0 0"
    ascent="795"
    descent="-205"
    x-height="517"
    cap-height="687"
    bbox="-137 -270 1133 965"
    underline-thickness="20"
    underline-position="-153"
    unicode-range="U+0020-2212"
  />
<missing-glyph horiz-adv-x="500" 
d="M410 -205h-317v1000h317v-1000zM168 728v-33h65v-37h-66v-33h166v33h-66v37h66v33h-165zM167 599v-104h166v34h-66v70h-100zM233 529h-33v36h33v-36zM167 468v-33h66v-37h-66v-33h100v70h66v33h-166zM300 408v-66h-133v-34h166v100h-33zM233 286v-56h34v23h33v-47h-100
v80h-33v-113h166v113h-100zM167 113v-113h166v113h-166zM300 33h-100v47h100v-47zM167 -23v-33h70l-70 -47v-33h166v33h-102l70 47h32v33h-166z" />
    <glyph glyph-name=".notdef" horiz-adv-x="500" 
d="M410 -205h-317v1000h317v-1000zM168 728v-33h65v-37h-66v-33h166v33h-66v37h66v33h-165zM167 599v-104h166v34h-66v70h-100zM233 529h-33v36h33v-36zM167 468v-33h66v-37h-66v-33h100v70h66v33h-166zM300 408v-66h-133v-34h166v100h-33zM233 286v-56h34v23h33v-47h-100
v80h-33v-113h166v113h-100zM167 113v-113h166v113h-166zM300 33h-100v47h100v-47zM167 -23v-33h70l-70 -47v-33h166v33h-102l70 47h32v33h-166z" />
    <glyph glyph-name=".null" horiz-adv-x="0" 
 />
    <glyph glyph-name="nonmarkingreturn" horiz-adv-x="333" 
 />
    <glyph glyph-name="space" unicode=" " horiz-adv-x="278" 
 />
    <glyph glyph-name="exclam" unicode="!" horiz-adv-x="220" 
d="M83 687h55l-7 -494h-42zM82.5 -0.5q-11.5 11.5 -11.5 27.5q0 15 11.5 26t27.5 11q15 0 26 -11t11 -26q0 -16 -10.5 -27.5t-26.5 -11.5t-27.5 11.5z" />
    <glyph glyph-name="quotedbl" unicode="&#x22;" horiz-adv-x="403" 
d="M89 496q-13 87 -13 124q0 15 10.5 25.5t24.5 10.5t25 -10.5t11 -25.5q0 -37 -13 -124l-6 -49h-33zM270 496q-13 87 -13 124q0 15 10.5 25.5t24.5 10.5t25 -10.5t11 -25.5q0 -37 -13 -124l-6 -49h-33z" />
    <glyph glyph-name="numbersign" unicode="#" horiz-adv-x="711" 
d="M640 455h-126l-57 -223h127l-11 -44h-127l-47 -188h-47l47 188h-169l-47 -188h-47l47 188h-123l11 44h123l57 223h-125l11 44h125l47 188h47l-47 -188h169l47 188h47l-47 -188h126zM410 232l57 223h-169l-57 -223h169z" />
    <glyph glyph-name="dollar" unicode="$" horiz-adv-x="671" 
d="M559 84q-28 -43 -79.5 -68.5t-119.5 -26.5v-63h-50v65q-66 7 -124.5 34.5t-104.5 72.5l31 39q39 -39 90 -64.5t108 -32.5v291q-104 27 -151 66.5t-47 106.5q0 52 25 95t70 69t103 31v60h50v-60q59 -4 113.5 -29.5t99.5 -67.5l-30 -39q-82 78 -183 88v-279h2
q117 -28 171 -72t54 -120q0 -53 -28 -96zM197 436q35 -28 113 -50v265q-65 -7 -106.5 -46.5t-41.5 -96.5q0 -44 35 -72zM488.5 77.5q48.5 39.5 48.5 98.5q0 53 -41.5 86t-135.5 57v-282q80 1 128.5 40.5z" />
    <glyph glyph-name="percent" unicode="%" horiz-adv-x="835" 
d="M146.5 371q-34.5 22 -53.5 60.5t-19 87.5q0 50 19.5 89.5t54 62t77.5 22.5q66 0 108 -48.5t42 -123.5t-42 -123.5t-109 -48.5q-43 0 -77.5 22zM625 687h57l-470 -687h-57zM300.5 427.5q29.5 36.5 29.5 92.5q0 57 -30 94t-76 37t-75.5 -37t-29.5 -94q0 -56 30 -92.5
t76 -36.5t75.5 36.5zM532 12q-34 22 -53 61.5t-19 88.5q0 75 42 123.5t108 48.5q44 0 78.5 -22t53.5 -61t19 -88t-19.5 -88.5t-54 -62t-78.5 -22.5q-43 0 -77 22zM686 68.5q30 36.5 30 93.5t-30 93.5t-77 36.5q-46 0 -75 -36.5t-29 -92.5q0 -57 29.5 -94t75.5 -37t76 36.5z
" />
    <glyph glyph-name="ampersand" unicode="&#x26;" horiz-adv-x="716" 
d="M597 -7q-40 40 -100 102q-46 -54 -96 -80.5t-109 -26.5q-60 0 -109.5 25.5t-79 70.5t-29.5 101q0 125 167 196q-37 49 -52.5 83.5t-15.5 70.5q0 42 22 79t59 59t82 22q42 0 78.5 -21.5t58 -58.5t21.5 -79q0 -62 -44 -99t-133 -73q79 -92 178 -195q45 65 92 167l43 -20
q-55 -117 -102 -181l117 -120zM255 615.5q-33 -33.5 -33 -81.5q0 -28 15 -59t50 -75q85 34 121.5 62.5t36.5 73.5t-32.5 79t-77.5 34q-47 0 -80 -33.5zM381.5 57.5q42.5 23.5 82.5 71.5q-121 126 -194 216q-67 -29 -107 -67.5t-40 -93.5q0 -42 23 -76t62 -54t84 -20
q47 0 89.5 23.5z" />
    <glyph glyph-name="quotesingle" unicode="'" horiz-adv-x="223" 
d="M89 496q-13 87 -13 124q0 15 10.5 25.5t24.5 10.5t25 -10.5t11 -25.5q0 -37 -13 -124l-6 -49h-33z" />
    <glyph glyph-name="parenleft" unicode="(" horiz-adv-x="356" 
d="M118 35q-53 114 -53 230q0 115 52.5 228.5t148.5 206.5l30 -31q-87 -90 -133.5 -193t-46.5 -211t46.5 -211t133.5 -192l-30 -32q-95 91 -148 205z" />
    <glyph glyph-name="parenright" unicode=")" horiz-adv-x="356" 
d="M193.5 54q46.5 103 46.5 211t-46.5 211t-133.5 193l30 31q96 -93 148.5 -206.5t52.5 -228.5q0 -116 -53 -230t-148 -205l-30 32q87 89 133.5 192z" />
    <glyph glyph-name="asterisk" unicode="*" horiz-adv-x="388" 
d="M179 400q-6 5 -6 13q0 21 8 73l6 41l-39 -30q-34 -29 -53 -39q-4 -2 -8 -2q-12 0 -18 11q-3 6 -3 11q0 11 9 15q18 11 64 29l41 17q-28 12 -42 17q-10 5 -30 13.5t-33 15.5q-9 5 -9 16q0 12 10.5 18t18.5 1q17 -10 51 -38l41 -31l-6 41q-8 52 -8 73q0 8 6 13t15 5
q8 0 14 -5.5t6 -12.5q0 -27 -7 -67l-6 -47q13 9 37 29q36 30 54 40q6 2 8 2q13 0 19 -11q3 -4 3 -10q0 -11 -10 -16q-19 -12 -62 -29q-14 -5 -42 -17q13 -6 24 -10.5t19 -7.5q40 -16 61 -28q10 -5 10 -16q0 -9 -6.5 -15t-14.5 -6q-3 0 -9 2q-23 15 -52 39l-39 30l6 -46
q7 -42 7 -68q0 -7 -6 -12.5t-14 -5.5q-9 0 -15 5z" />
    <glyph glyph-name="plus" unicode="+" horiz-adv-x="605" 
d="M532 358v-48h-205v-205h-49v205h-205v48h205v206h49v-206h205z" />
    <glyph glyph-name="comma" unicode="," horiz-adv-x="229" 
d="M118 -12q-17 0 -28 11t-11 27t11 27t28 11q19 0 30.5 -15t11.5 -40q0 -27 -15.5 -59t-49.5 -76l-29 22q39 45 52 92z" />
    <glyph glyph-name="hyphen" unicode="-" horiz-adv-x="379" 
d="M60 296h259v-48h-259v48z" />
    <glyph glyph-name="period" unicode="." horiz-adv-x="222" 
d="M84 -0.5q-11 11.5 -11 27.5q0 15 11 26t28 11q15 0 26 -11.5t11 -25.5q0 -16 -11 -27.5t-26 -11.5q-17 0 -28 11.5z" />
    <glyph glyph-name="slash" unicode="/" horiz-adv-x="482" 
d="M389 743h55l-351 -817h-55z" />
    <glyph glyph-name="zero" unicode="0" horiz-adv-x="677" 
d="M198 33.5q-62 45.5 -96.5 126.5t-34.5 184t34.5 183.5t96.5 126t141 45.5t140.5 -45.5t96 -126t34.5 -183.5t-34.5 -184t-96 -126.5t-140.5 -45.5t-141 45.5zM453 75.5q50 39.5 78 109.5t28 159t-28 159t-78 109t-114 39t-114.5 -39t-78.5 -109t-28 -159t28 -159
t78.5 -109.5t114.5 -39.5t114 39.5z" />
    <glyph glyph-name="one" unicode="1" horiz-adv-x="364" 
d="M228 624l-144 -91l-24 39l177 115h41v-687h-50v624z" />
    <glyph glyph-name="two" unicode="2" horiz-adv-x="593" 
d="M324 272q73 63 107 118t34 107q0 42 -20.5 78t-57.5 57t-83 21q-57 0 -108 -30t-91 -86l-37 30q44 65 105.5 98.5t130.5 33.5q60 0 108.5 -27t75.5 -73t27 -101q0 -65 -38.5 -128t-119.5 -133l-220 -188h392v-49h-467v48z" />
    <glyph glyph-name="three" unicode="3" horiz-adv-x="591" 
d="M60 115l36 34q77 -113 204 -113q48 0 88 20.5t63.5 55.5t23.5 77q0 65 -50.5 100t-141.5 35h-65v48h66q81 -1 128.5 35t47.5 99q0 40 -22.5 73t-61 52.5t-83.5 19.5q-55 0 -101 -27.5t-87 -83.5l-35 31q95 128 227 128q59 0 107.5 -25t77 -68t28.5 -94q0 -60 -32 -102
t-87 -58q60 -13 97 -56.5t37 -108.5q0 -55 -29.5 -100.5t-81.5 -72t-114 -26.5q-143 0 -240 127z" />
    <glyph glyph-name="four" unicode="4" horiz-adv-x="635" 
d="M414 179h-346l-7 46l339 462h64v-460h110v-48h-110v-179h-50v179zM414 227v400l-294 -400h294z" />
    <glyph glyph-name="five" unicode="5" horiz-adv-x="595" 
d="M167.5 17q-63.5 29 -108.5 80l33 37q42 -47 97 -73t115 -26q48 0 88.5 23.5t64.5 64t24 88.5q0 45 -23.5 82.5t-64 59t-88.5 21.5q-40 0 -80 -15t-76 -42l-43 22l9 348h387v-49h-338l-7 -268q30 24 71.5 37.5t87.5 13.5q58 0 107.5 -27t78.5 -74.5t29 -105.5
q0 -62 -30.5 -114t-82.5 -82t-115 -30q-72 0 -135.5 29z" />
    <glyph glyph-name="six" unicode="6" horiz-adv-x="606" 
d="M433 401q50 -28 79.5 -77t29.5 -110t-30.5 -113t-82.5 -82.5t-115 -30.5q-119 0 -182.5 92.5t-63.5 252.5q0 104 34 187.5t94 131t135 47.5q54 0 104 -21.5t91 -60.5l-27 -40q-36 35 -79.5 54.5t-90.5 19.5q-60 0 -108 -41t-75.5 -113.5t-27.5 -163.5q0 -19 1 -28
q20 54 77 89t128 35q59 0 109 -28zM404 58.5q41 24.5 64.5 65.5t23.5 88t-24 86.5t-64.5 62t-88.5 22.5q-68 0 -121.5 -41t-68.5 -104q16 -96 64.5 -150t124.5 -54q49 0 90 24.5z" />
    <glyph glyph-name="seven" unicode="7" horiz-adv-x="580" 
d="M460 638h-399v49h458v-39l-304 -648h-57z" />
    <glyph glyph-name="eight" unicode="8" horiz-adv-x="602" 
d="M182.5 13q-54.5 25 -86.5 69t-32 96q0 60 42.5 108.5t108.5 67.5q-59 21 -96 66t-37 99q0 50 30 91.5t80.5 65t108.5 23.5t109 -24t81 -65t30 -91q0 -56 -37.5 -100.5t-96.5 -64.5q66 -20 108.5 -68t42.5 -108q0 -53 -32 -96.5t-86.5 -68.5t-118.5 -25t-118.5 25z
M421 419.5q49 37.5 49 94.5q0 37 -23 68.5t-62 50t-84 18.5t-84 -18.5t-61.5 -50t-22.5 -68.5q0 -57 48.5 -94.5t119.5 -42.5q71 5 120 42.5zM393.5 55.5q42.5 19.5 68 52.5t25.5 73q0 41 -25.5 74t-68 51.5t-92.5 20.5q-50 -2 -92.5 -20.5t-68 -51.5t-25.5 -74
q0 -40 25 -73t68 -52.5t93 -19.5t92.5 19.5z" />
    <glyph glyph-name="nine" unicode="9" horiz-adv-x="606" 
d="M474.5 606.5q63.5 -92.5 63.5 -252.5q0 -104 -34 -187.5t-94 -131t-135 -47.5q-54 0 -104 21.5t-91 60.5l28 40q35 -35 78.5 -54.5t90.5 -19.5q60 0 108.5 41t76 113.5t27.5 163.5q0 19 -1 28q-21 -55 -78 -89.5t-128 -34.5q-59 0 -109 28t-79.5 77t-29.5 110t30.5 113
t82.5 82.5t115 30.5q119 0 182.5 -92.5zM413.5 346q53.5 42 67.5 105q-16 95 -65 148.5t-124 53.5q-49 0 -90 -24.5t-64.5 -65.5t-23.5 -88t24 -86t65 -62t88 -23q69 0 122.5 42z" />
    <glyph glyph-name="colon" unicode=":" horiz-adv-x="215" 
d="M80.5 437.5q-11.5 11.5 -11.5 27.5q0 15 11.5 26t27.5 11q15 0 26 -11t11 -26q0 -17 -10.5 -28t-26.5 -11t-27.5 11.5zM80.5 -0.5q-11.5 11.5 -11.5 27.5q0 15 11.5 26t27.5 11q15 0 26 -11t11 -26q0 -16 -10.5 -27.5t-26.5 -11.5t-27.5 11.5z" />
    <glyph glyph-name="semicolon" unicode=";" horiz-adv-x="225" 
d="M90.5 437.5q-11.5 11.5 -11.5 27.5q0 15 11.5 26t27.5 11q15 0 26 -11.5t11 -25.5q0 -16 -11 -27.5t-26 -11.5q-16 0 -27.5 11.5zM115 -12q-16 0 -27 11t-11 27t11 27t28 11q19 0 30 -15t11 -40q0 -27 -15 -59t-49 -76l-30 22q41 45 52 92z" />
    <glyph glyph-name="less" unicode="&#x3c;" horiz-adv-x="606" 
d="M73 319v49l455 222v-52l-399 -194l399 -194v-53z" />
    <glyph glyph-name="equal" unicode="=" horiz-adv-x="652" 
d="M96 468h459v-48h-459v48zM96 248h459v-48h-459v48z" />
    <glyph glyph-name="greater" unicode="&#x3e;" horiz-adv-x="606" 
d="M78 150l399 194l-399 194v52l455 -222v-49l-455 -222v53z" />
    <glyph glyph-name="question" unicode="?" horiz-adv-x="544" 
d="M334.5 388.5q45.5 20.5 71 52.5t25.5 69q0 38 -19.5 70.5t-53.5 51.5t-76 19q-113 0 -188 -101l-35 34q93 115 226 115q54 0 99 -25t71 -67.5t26 -91.5q0 -68 -56 -121t-144 -70v-131h-50v171q58 4 103.5 24.5zM228.5 -0.5q-11.5 11.5 -11.5 27.5q0 15 11.5 26t27.5 11
q15 0 26 -11.5t11 -25.5q0 -16 -11 -27.5t-26 -11.5q-16 0 -27.5 11.5z" />
    <glyph glyph-name="at" unicode="@" horiz-adv-x="944" 
d="M268 -65q-88 51 -140 137.5t-52 186.5q0 111 57 207t153 152.5t208 56.5q100 0 186.5 -48.5t137.5 -130.5t51 -177q0 -78 -25 -132.5t-65.5 -81.5t-86.5 -27q-44 0 -73.5 22.5t-37.5 63.5q-29 -38 -73 -62t-93 -24q-69 0 -113 48.5t-44 124.5q0 67 31 124.5t82.5 91.5
t109.5 34q50 0 86.5 -23t54.5 -58l13 66l49 -5q-55 -257 -55 -290q0 -34 21.5 -53.5t54.5 -19.5q30 0 59.5 22t49 67.5t19.5 111.5q0 85 -46.5 159t-125 117.5t-169.5 43.5q-101 0 -188 -51.5t-138.5 -139t-51.5 -188.5q0 -91 47 -169.5t127 -125t172 -46.5q62 0 111.5 14
t104.5 47l18 -27q-58 -37 -113 -53t-123 -16q-102 0 -190 51zM540.5 173q45.5 51 57.5 127q3 20 3 36q0 55 -30.5 88t-84.5 33q-48 0 -89.5 -27.5t-66 -74t-24.5 -100.5q0 -59 33.5 -96t87.5 -37q68 0 113.5 51z" />
    <glyph glyph-name="A" unicode="A" horiz-adv-x="791" 
d="M671 0l-75 169h-401l-75 -169h-55l303 687h55l303 -687h-55zM216 217h359l-179 408z" />
    <glyph glyph-name="B" unicode="B" horiz-adv-x="672" 
d="M388 687q55 0 98 -22t67 -61t24 -88q0 -54 -26.5 -95.5t-70.5 -60.5q56 -21 90 -68t34 -104q0 -54 -26 -97t-72.5 -67t-105.5 -24h-309v687h297zM488 419.5q38 36.5 38 93.5q0 55 -40.5 90.5t-104.5 35.5h-240v-256h248q61 0 99 36.5zM508 88q45 40 45 103t-45 103.5
t-115 40.5h-252v-287h252q70 0 115 40z" />
    <glyph glyph-name="C" unicode="C" horiz-adv-x="735" 
d="M248 36.5q-81 48.5 -129 130.5t-48 177t48 176.5t129 130t175 48.5q70 0 134 -27.5t113 -77.5l-35 -35q-42 43 -97 67.5t-115 24.5q-81 0 -150.5 -42t-110.5 -112.5t-41 -152.5t41 -153t110.5 -113t150.5 -42q60 0 115 24.5t97 67.5l35 -35q-49 -49 -113 -77t-134 -28
q-94 0 -175 48.5z" />
    <glyph glyph-name="D" unicode="D" horiz-adv-x="755" 
d="M325 687q104 0 185.5 -44t127.5 -122t46 -177t-46 -177.5t-127.5 -122.5t-185.5 -44h-234v687h234zM484.5 86q70.5 38 110 105.5t39.5 152.5t-39.5 152.5t-110 105t-159.5 37.5h-184v-591h184q89 0 159.5 38z" />
    <glyph glyph-name="E" unicode="E" horiz-adv-x="625" 
d="M556 638h-414v-264h380v-48h-380v-277h414v-49h-465v687h465v-49z" />
    <glyph glyph-name="F" unicode="F" horiz-adv-x="635" 
d="M570 638h-428v-264h387v-48h-387v-326h-51v687h479v-49z" />
    <glyph glyph-name="G" unicode="G" horiz-adv-x="764" 
d="M413 348h275v-256q-51 -48 -121 -76t-144 -28q-93 0 -174 49t-129.5 131t-48.5 176t48.5 176t129.5 130.5t174 48.5q74 0 144.5 -27.5t120.5 -75.5l-35 -35q-44 42 -105 66t-125 24q-81 0 -150.5 -42t-110.5 -112.5t-41 -152.5t41 -153t110.5 -113t150.5 -42q59 0 115 20
t100 56v187h-225v49z" />
    <glyph glyph-name="H" unicode="H" horiz-adv-x="716" 
d="M574 687h50v-687h-50v326h-433v-326h-50v687h50v-313h433v313z" />
    <glyph glyph-name="I" unicode="I" horiz-adv-x="233" 
d="M91 687h50v-687h-50v687z" />
    <glyph glyph-name="J" unicode="J" horiz-adv-x="564" 
d="M152.5 19.5q-55.5 31.5 -87.5 82.5l33 37q27 -46 73.5 -74.5t97.5 -28.5q46 0 82.5 23t57 64.5t20.5 93.5v470h50v-470q0 -66 -27 -118t-74.5 -81.5t-108.5 -29.5t-116.5 31.5z" />
    <glyph glyph-name="K" unicode="K" horiz-adv-x="671" 
d="M91 687h50v-413l379 413h66l-286 -312l307 -375h-64l-278 339l-124 -134v-205h-50v687z" />
    <glyph glyph-name="L" unicode="L" horiz-adv-x="596" 
d="M141 49h389v-49h-439v687h50v-638z" />
    <glyph glyph-name="M" unicode="M" horiz-adv-x="821" 
d="M91 687h50l269 -506l269 506h50v-687h-50v583l-269 -506l-269 506v-583h-50v687z" />
    <glyph glyph-name="N" unicode="N" horiz-adv-x="737" 
d="M91 687h50l454 -607v607h50v-687h-50l-454 607v-607h-50v687z" />
    <glyph glyph-name="O" unicode="O" horiz-adv-x="844" 
d="M249 37q-81 49 -129.5 131t-48.5 176t48.5 176t129.5 130.5t174 48.5t174 -48.5t129 -130.5t48 -176t-48 -176t-129 -131t-174 -49t-174 49zM572 78q69 42 110 113t41 153t-41 152.5t-110 112.5t-149 42q-81 0 -150.5 -42t-110.5 -112.5t-41 -152.5t41 -153t110.5 -113
t150.5 -42q80 0 149 42z" />
    <glyph glyph-name="P" unicode="P" horiz-adv-x="689" 
d="M377 687q69 0 124.5 -27t87 -75.5t31.5 -110.5t-31.5 -110.5t-87 -76t-124.5 -27.5h-236v-260h-50v687h286zM472.5 329.5q45.5 20.5 71.5 58t26 86.5q0 48 -26 85.5t-71.5 58t-104.5 20.5h-227v-329h227q59 0 104.5 20.5z" />
    <glyph glyph-name="Q" unicode="Q" horiz-adv-x="845" 
d="M748.5 212.5q-25.5 -62.5 -71.5 -111.5l73 -64l-32 -37l-77 67q-46 -38 -102 -58.5t-116 -20.5q-94 0 -175 48.5t-129 130.5t-48 177t48 176.5t129 130t175 48.5t174.5 -48.5t128.5 -130t48 -176.5q0 -69 -25.5 -131.5zM518.5 52.5q46.5 16.5 84.5 47.5l-128 111l32 37
l132 -115q40 43 62 97t22 114q0 82 -41 152.5t-110 112.5t-149 42q-81 0 -150.5 -42t-110.5 -112.5t-41 -152.5t41 -153t110.5 -113t150.5 -42q49 0 95.5 16.5z" />
    <glyph glyph-name="R" unicode="R" horiz-adv-x="689" 
d="M588.5 363.5q-31.5 -48.5 -86.5 -76t-124 -27.5l182 -260h-59l-182 260h-178v-260h-50v687h286q69 0 124.5 -27t87 -75.5t31.5 -110.5t-31.5 -110.5zM472.5 329.5q45.5 20.5 71.5 58t26 86.5q0 48 -26 85.5t-71.5 58t-104.5 20.5h-227v-329h227q59 0 104.5 20.5z" />
    <glyph glyph-name="S" unicode="S" horiz-adv-x="640" 
d="M187.5 17.5q-70.5 28.5 -122.5 80.5l31 39q47 -47 109.5 -73.5t131.5 -26.5q55 0 96.5 18t64.5 50t23 71q0 56 -47 90t-154 59q-118 27 -171.5 67.5t-53.5 111.5q0 56 29 100.5t80 70t115 25.5q66 0 126.5 -25.5t111.5 -72.5l-31 -39q-44 42 -98.5 65.5t-111.5 23.5
q-49 0 -88 -19t-60.5 -51.5t-21.5 -73.5q0 -50 46.5 -80t152.5 -56q117 -28 171.5 -72t54.5 -120q0 -54 -29 -97.5t-82 -68.5t-124 -25q-78 0 -148.5 28.5z" />
    <glyph glyph-name="T" unicode="T" horiz-adv-x="671" 
d="M311 638h-245v49h540v-49h-245v-638h-50v638z" />
    <glyph glyph-name="U" unicode="U" horiz-adv-x="713" 
d="M215 24.5q-62 36.5 -97 101t-35 146.5v415h50v-415q0 -68 28.5 -122t79.5 -84t115 -30q65 0 115.5 30t79 84t28.5 122v415h50v-415q0 -82 -35 -146.5t-97 -101t-141 -36.5t-141 36.5z" />
    <glyph glyph-name="V" unicode="V" horiz-adv-x="698" 
d="M624 687h55l-303 -687h-55l-303 687h55l276 -625z" />
    <glyph glyph-name="W" unicode="W" horiz-adv-x="1105" 
d="M65 687h55l204 -605l201 605h55l201 -605l204 605h55l-232 -687h-51l-204 614l-205 -614h-51z" />
    <glyph glyph-name="X" unicode="X" horiz-adv-x="719" 
d="M654 687l-263 -344l262 -343h-63l-231 302l-231 -302h-63l263 343l-263 344h63l231 -303l232 303h63z" />
    <glyph glyph-name="Y" unicode="Y" horiz-adv-x="737" 
d="M343 279l-279 408h63l242 -356l242 356h62l-279 -408v-279h-51v279z" />
    <glyph glyph-name="Z" unicode="Z" horiz-adv-x="648" 
d="M68 41l442 597h-435v49h500v-41l-443 -597h447v-49h-511v41z" />
    <glyph glyph-name="bracketleft" unicode="[" horiz-adv-x="374" 
d="M86 734h226v-43h-180v-763h180v-43h-226v849z" />
    <glyph glyph-name="backslash" unicode="\" horiz-adv-x="482" 
d="M38 743h55l351 -817h-55z" />
    <glyph glyph-name="bracketright" unicode="]" horiz-adv-x="374" 
d="M62 -72h180v763h-180v43h226v-849h-226v43z" />
    <glyph glyph-name="asciicircum" unicode="^" horiz-adv-x="513" 
d="M233 687h48l160 -274h-51l-133 229l-134 -229h-51z" />
    <glyph glyph-name="underscore" unicode="_" horiz-adv-x="716" 
d="M60 -86h596v-46h-596v46z" />
    <glyph glyph-name="grave" unicode="`" horiz-adv-x="259" 
d="M41 707l54 12l124 -143h-52z" />
    <glyph glyph-name="a" unicode="a" horiz-adv-x="534" 
d="M422.5 470q53.5 -59 53.5 -155v-315h-49v83q-28 -45 -83.5 -70t-113.5 -25q-82 0 -134.5 46t-52.5 120q0 50 26.5 89t73.5 60.5t106 21.5q81 0 178 -34v24q0 70 -38 119.5t-120 49.5q-74 0 -156 -46l-20 41q46 25 93 37.5t88 12.5q95 0 148.5 -59zM316.5 48.5
q40.5 14.5 71 43.5t39.5 70v87q-93 31 -171 31q-72 0 -118.5 -35t-46.5 -90q0 -53 42 -87t104 -34q39 0 79.5 14.5z" />
    <glyph glyph-name="b" unicode="b" horiz-adv-x="592" 
d="M430.5 493q53.5 -36 85 -98t31.5 -136t-31.5 -136.5t-85 -98.5t-117.5 -36q-65 0 -117 31t-82 86v-105h-49v699h49v-286q30 55 82 85.5t117 30.5q64 0 117.5 -36zM400 64q44 30 70 82t26 113t-26 112.5t-70 81.5t-97 30q-54 0 -97 -28.5t-67.5 -79.5t-24.5 -116
t24.5 -116.5t67.5 -80t97 -28.5q53 0 97 30z" />
    <glyph glyph-name="c" unicode="c" horiz-adv-x="527" 
d="M174 23.5q-60 35.5 -94 97.5t-34 138t34 137.5t94 97t133 35.5q51 0 97 -20t82 -56l-34 -34q-29 30 -66.5 47t-78.5 17q-60 0 -108 -29t-75.5 -80.5t-27.5 -114.5q0 -64 27.5 -115t75.5 -80.5t108 -29.5q41 0 79 17t67 48l34 -34q-36 -37 -82.5 -57t-97.5 -20
q-73 0 -133 35.5z" />
    <glyph glyph-name="d" unicode="d" horiz-adv-x="592" 
d="M527 699v-699h-49v105q-30 -55 -81.5 -86t-116.5 -31q-64 0 -117.5 36t-85 98.5t-31.5 136.5t31.5 136t85 98t117.5 36q65 0 116.5 -30.5t81.5 -85.5v286h49zM387 62.5q43 28.5 67 80t24 116.5t-24 116t-67 79.5t-98 28.5q-53 0 -97 -30t-70 -81.5t-26 -112.5t26 -113
t70 -82t97 -30q55 0 98 28.5z" />
    <glyph glyph-name="e" unicode="e" horiz-adv-x="587" 
d="M404.5 52q49.5 18 78.5 50l32 -34q-32 -35 -92.5 -57.5t-120.5 -22.5q-68 0 -127.5 36.5t-94.5 99t-35 136.5q0 75 34 136.5t92.5 97t128.5 35.5q74 0 129.5 -36t85.5 -102t30 -153h-450q5 -56 33.5 -103t74.5 -74t99 -27t102.5 18zM202 457.5q-45 -25.5 -73.5 -71
t-33.5 -102.5h401q-5 89 -57.5 144t-137.5 55q-54 0 -99 -25.5z" />
    <glyph glyph-name="f" unicode="f" horiz-adv-x="357" 
d="M177 517h139v-46h-139v-471h-49v471h-88v46h88v71q0 58 31.5 95t80.5 37q56 0 96 -33l-25 -37q-27 24 -68 24q-29 0 -47.5 -24.5t-18.5 -61.5v-71z" />
    <glyph glyph-name="g" unicode="g" horiz-adv-x="595" 
d="M531 517v-462q0 -66 -31 -117.5t-85.5 -80.5t-124.5 -29q-58 0 -115.5 19.5t-93.5 49.5l23 41q32 -29 82 -46.5t98 -17.5q89 0 143.5 50t54.5 131v106q-29 -59 -83.5 -91t-123.5 -32q-63 0 -116 33t-83.5 89.5t-30.5 123.5t30.5 123.5t83.5 89t116 32.5q70 0 124 -31.5
t83 -91.5v111h49zM385 109.5q45 25.5 71 71t26 103.5q0 57 -26 102.5t-71 71t-100 25.5q-52 0 -95 -26.5t-68.5 -72.5t-25.5 -100q0 -55 25.5 -100.5t68.5 -72.5t95 -27q55 0 100 25.5z" />
    <glyph glyph-name="h" unicode="h" 
d="M384 504.5q44 -24.5 68.5 -68.5t24.5 -100v-336h-49v329q0 68 -42 111t-109 43q-46 0 -83.5 -20t-58.5 -55t-21 -78v-330h-49v699h49v-270q21 46 66 73t104 27q56 0 100 -24.5z" />
    <glyph glyph-name="i" unicode="i" horiz-adv-x="178" 
d="M64 517h49v-517h-49v517zM62.5 635q-10.5 11 -10.5 26t10.5 25.5t26.5 10.5q15 0 25.5 -11t10.5 -25q0 -15 -10.5 -26t-25.5 -11q-16 0 -26.5 11z" />
    <glyph glyph-name="j" unicode="j" horiz-adv-x="179" 
d="M-42.5 -173.5q-22.5 4.5 -37.5 11.5l8 43q14 -5 33.5 -9t36.5 -4q29 0 48 22.5t19 56.5v570h49v-570q0 -55 -32 -90t-81 -35q-21 0 -43.5 4.5zM62.5 635q-10.5 11 -10.5 26t10.5 25.5t26.5 10.5q15 0 25.5 -11t10.5 -25q0 -15 -10.5 -26t-25.5 -11q-16 0 -26.5 11z" />
    <glyph glyph-name="k" unicode="k" horiz-adv-x="529" 
d="M65 699h49v-498l311 316h65l-232 -237l220 -280h-62l-192 246l-110 -111v-135h-49v699z" />
    <glyph glyph-name="l" unicode="l" horiz-adv-x="179" 
d="M65 699h49v-699h-49v699z" />
    <glyph glyph-name="m" unicode="m" horiz-adv-x="841" 
d="M696.5 504.5q40.5 -24.5 63.5 -68.5t23 -100v-337h-49v330q0 67 -38.5 110.5t-97.5 43.5q-66 0 -108 -41t-42 -106v-337h-49v330q0 68 -38 111t-98 43q-66 0 -108 -41t-42 -106v-337h-49v518h49v-78q17 41 59 65.5t98 24.5q53 0 94 -25.5t63 -70.5q25 45 71.5 70.5
t106.5 25.5q51 0 91.5 -24.5z" />
    <glyph glyph-name="n" unicode="n" 
d="M383.5 504.5q44.5 -24.5 69 -68.5t24.5 -100v-336h-49v329q0 67 -42.5 110.5t-108.5 43.5q-46 0 -83.5 -20t-59 -55t-21.5 -78v-330h-49v517h49v-88q20 45 66 72.5t104 27.5q56 0 100.5 -24.5z" />
    <glyph glyph-name="o" unicode="o" horiz-adv-x="624" 
d="M179.5 25q-61.5 37 -98 99t-36.5 135t36.5 135t98 98.5t133.5 36.5q71 0 132.5 -36.5t97.5 -98.5t36 -135t-36 -135t-97.5 -99t-132.5 -37q-72 0 -133.5 37zM420.5 64.5q49.5 30.5 79 82.5t29.5 112t-29.5 111.5t-79 82t-107.5 30.5t-108.5 -30.5t-80 -82t-29.5 -111.5
t29.5 -112t80 -82.5t108.5 -30.5t107.5 30.5z" />
    <glyph glyph-name="p" unicode="p" horiz-adv-x="592" 
d="M430.5 493q53.5 -36 85 -98t31.5 -136t-31.5 -136.5t-85 -98.5t-117.5 -36q-65 0 -117 31t-82 86v-277h-49v689h49v-104q30 55 82 85.5t117 30.5q64 0 117.5 -36zM400 64q44 30 70 82t26 113t-26 112.5t-70 81.5t-97 30q-54 0 -97 -28.5t-67.5 -79.5t-24.5 -116
t24.5 -116.5t67.5 -80t97 -28.5q53 0 97 30z" />
    <glyph glyph-name="q" unicode="q" horiz-adv-x="592" 
d="M527 517v-689h-49v277q-30 -55 -81.5 -86t-116.5 -31q-64 0 -117.5 36t-85 98.5t-31.5 136.5t31.5 136t85 98t117.5 36q65 0 116.5 -30.5t81.5 -85.5v104h49zM387 62.5q43 28.5 67 80t24 116.5t-24 116t-67 79.5t-98 28.5q-53 0 -97 -30t-70 -81.5t-26 -112.5t26 -113
t70 -82t97 -30q55 0 98 28.5z" />
    <glyph glyph-name="r" unicode="r" horiz-adv-x="353" 
d="M187.5 494q54.5 35 125.5 35v-46q-58 0 -103.5 -25t-71 -69t-25.5 -100v-289h-49v517h49v-113q20 55 74.5 90z" />
    <glyph glyph-name="s" unicode="s" horiz-adv-x="478" 
d="M141 8.5q-57 20.5 -102 56.5l28 37q45 -32 93 -50t93 -18q56 0 94.5 26.5t38.5 64.5q0 42 -34 68t-109 48q-93 29 -132.5 63t-39.5 86q0 39 23.5 71t63 50t87.5 18q46 0 94 -15.5t91 -42.5l-27 -38q-37 24 -78.5 37t-79.5 13q-52 0 -88.5 -25t-36.5 -62t33.5 -61.5
t113.5 -49.5q87 -27 127.5 -61.5t40.5 -92.5q0 -40 -24.5 -72.5t-66.5 -51.5t-91 -19q-55 0 -112 20.5z" />
    <glyph glyph-name="t" unicode="t" horiz-adv-x="375" 
d="M336 21q-42 -33 -96 -33q-49 0 -80.5 37t-31.5 95v351h-88v46h88v142h49v-142h133v-46h-133v-351q0 -37 18.5 -61.5t47.5 -24.5q18 0 36 6.5t32 18.5z" />
    <glyph glyph-name="u" unicode="u" 
d="M470 517v-517h-49v87q-20 -45 -65.5 -72t-104.5 -27q-56 0 -100 24.5t-68.5 68.5t-24.5 100v336h49v-329q0 -68 42 -111t109 -43q46 0 83.5 20t58.5 55t21 78v330h49z" />
    <glyph glyph-name="v" unicode="v" horiz-adv-x="578" 
d="M39 517h54l196 -447l196 447h54l-230 -517h-39z" />
    <glyph glyph-name="w" unicode="w" horiz-adv-x="818" 
d="M40 517h51l146 -452l151 452h42l150 -452l147 452h51l-171 -517h-54l-144 438l-145 -438h-54z" />
    <glyph glyph-name="x" unicode="x" 
d="M496 0h-58l-170 225l-171 -225h-58l200 264l-192 253h58l163 -215l162 215h58l-191 -253z" />
    <glyph glyph-name="y" unicode="y" horiz-adv-x="576" 
d="M62 -163l13 46q34 -16 68 -16q66 0 93 48l31 70l-228 532h53l201 -471l191 471h53l-240 -587q-23 -56 -60.5 -82.5t-92.5 -27.5q-45 0 -82 17z" />
    <glyph glyph-name="z" unicode="z" horiz-adv-x="494" 
d="M43 40l341 429h-335v48h400v-40l-341 -429h343v-48h-408v40z" />
    <glyph glyph-name="braceleft" unicode="{" horiz-adv-x="426" 
d="M211.5 -115q-43.5 39 -43.5 118v141q0 54 -25 77.5t-83 23.5v42q58 0 83 23.5t25 77.5v140q0 79 43.5 118t147.5 51l5 -41q-58 -7 -90.5 -22t-46.5 -41t-14 -69l1 -144q0 -49 -17 -76t-54 -38q38 -12 54.5 -39t16.5 -76l-1 -143q0 -43 14.5 -69.5t47 -41.5t89.5 -22
l-5 -41q-104 12 -147.5 51z" />
    <glyph glyph-name="bar" unicode="|" horiz-adv-x="239" 
d="M97 743h44v-817h-44v817z" />
    <glyph glyph-name="braceright" unicode="}" horiz-adv-x="426" 
d="M151.5 -103q32.5 15 47 41.5t14.5 69.5l-1 143q0 49 16.5 76t54.5 39q-37 11 -54 38t-17 76l1 144q0 43 -14 69t-46.5 41t-90.5 22l5 41q104 -12 147.5 -51t43.5 -118v-140q0 -54 25 -77.5t83 -23.5v-42q-58 0 -83 -23.5t-25 -77.5v-141q0 -79 -43.5 -118t-147.5 -51
l-5 41q57 7 89.5 22z" />
    <glyph glyph-name="asciitilde" unicode="~" horiz-adv-x="474" 
d="M265.5 316q-15.5 9 -40.5 28q-17 15 -28 22t-24 7q-20 0 -34 -19.5t-20 -55.5l-39 7q7 54 31 83t62 29q21 0 36.5 -9t40.5 -28q17 -15 28 -22t24 -7q39 0 53 75l39 -7q-7 -54 -30.5 -83t-61.5 -29q-21 0 -36.5 9z" />
    <glyph glyph-name="exclamdown" unicode="&#xa1;" horiz-adv-x="221" 
d="M137.5 517.5q11.5 -11.5 11.5 -27.5q0 -15 -11.5 -26t-27.5 -11q-15 0 -26 11.5t-11 25.5q0 16 11 27.5t26 11.5q16 0 27.5 -11.5zM83 -170l6 494h42l6 -494h-54z" />
    <glyph glyph-name="cent" unicode="&#xa2;" horiz-adv-x="610" 
d="M453 11q-43 -20 -91 -23v-62h-50v64q-65 8 -116 45t-80 95.5t-29 128.5t29 128t80 95t116 45v62h50v-60q47 -3 89.5 -22.5t76.5 -53.5l-35 -34q-26 28 -60 44.5t-71 18.5v-447q75 4 133 64l34 -34q-33 -34 -76 -54zM186 111.5q49 -61.5 126 -74.5v443q-51 -8 -90.5 -39
t-62 -78t-22.5 -104q0 -86 49 -147.5z" />
    <glyph glyph-name="sterling" unicode="&#xa3;" horiz-adv-x="651" 
d="M568 49v-49h-484v25l52 24v223h-51v46h51v145q0 68 27 122t74.5 84t108.5 30q69 0 124.5 -32t81.5 -86l-36 -33q-19 48 -65 75.5t-105 27.5q-46 0 -82.5 -24t-57 -67t-20.5 -97v-145h209v-46h-209v-223h382z" />
    <glyph glyph-name="yen" unicode="&#xa5;" horiz-adv-x="770" 
d="M690 687l-252 -368h182v-46h-209v-101h209v-46h-209v-126h-51v126h-209v46h209v101h-209v46h182l-252 368h63l241 -356l243 356h62z" />
    <glyph glyph-name="dieresis" unicode="&#xa8;" horiz-adv-x="366" 
d="M62 618.5q-10 10.5 -10 24.5t10 24.5t25 10.5q14 0 24.5 -10.5t10.5 -24.5t-10.5 -24.5t-24.5 -10.5q-15 0 -25 10.5zM254 618.5q-10 10.5 -10 24.5t10 24.5t25 10.5q14 0 24.5 -10.5t10.5 -24.5t-10.5 -24.5t-24.5 -10.5q-15 0 -25 10.5z" />
    <glyph glyph-name="copyright" unicode="&#xa9;" horiz-adv-x="944" 
d="M274 -63q-91 53 -144.5 144t-53.5 199q0 107 53.5 198t144.5 144t199 53q107 0 198 -53t144.5 -144t53.5 -198q0 -108 -53.5 -199t-144.5 -144t-198 -53q-108 0 -199 53zM653 -31.5q83 48.5 131.5 131t48.5 180.5q0 97 -48.5 179.5t-131.5 131t-180 48.5
q-98 0 -181 -48.5t-131.5 -131t-48.5 -179.5q0 -98 48.5 -180.5t131.5 -131t181 -48.5q97 0 180 48.5zM339.5 44.5q-59.5 35.5 -94 97.5t-34.5 138t34.5 137.5t94.5 97t133 35.5q50 0 96.5 -20t82.5 -56l-35 -34q-28 30 -66 47t-78 17q-60 0 -108 -29t-75.5 -80t-27.5 -115
t27.5 -115t75.5 -80.5t108 -29.5q41 0 79 17t67 48l34 -34q-36 -37 -82.5 -57t-97.5 -20q-74 0 -133.5 35.5z" />
    <glyph glyph-name="guillemotleft" unicode="&#xab;" horiz-adv-x="502" 
d="M61 250l165 194l48 -9l-157 -185l157 -187l-48 -9zM227 250l165 194l48 -9l-157 -185l157 -187l-48 -9z" />
    <glyph glyph-name="registered" unicode="&#xae;" horiz-adv-x="648" 
d="M447.5 642q56.5 -33 90 -89.5t33.5 -122.5t-33.5 -122.5t-90 -90t-122.5 -33.5q-67 0 -123.5 33.5t-90 90t-33.5 122.5t33.5 122.5t90 89.5t123.5 33q66 0 122.5 -33zM430.5 248q48.5 28 76.5 76.5t28 105.5t-28.5 105t-76.5 76t-105 28t-105.5 -28t-77 -76t-28.5 -105
t28.5 -105t77 -76.5t105.5 -28.5t105.5 28zM431.5 419q-22.5 -26 -58.5 -34l74 -105h-51l-72 102h-62v-102h-47v300h128q48 0 79.5 -27.5t31.5 -71.5q0 -36 -22.5 -62zM386 443q19 14 19 38t-19 38.5t-50 14.5h-74v-105h74q31 0 50 14z" />
    <glyph glyph-name="macron" unicode="&#xaf;" horiz-adv-x="429" 
d="M60 642h310v-42h-310v42z" />
    <glyph glyph-name="degree" unicode="&#xb0;" horiz-adv-x="426" 
d="M117.5 473.5q-37.5 37.5 -37.5 94.5t37.5 94t95.5 37t95.5 -37t37.5 -94t-37.5 -94.5t-95.5 -37.5t-95.5 37.5zM275.5 504.5q24.5 24.5 24.5 63.5q0 38 -24.5 63t-62.5 25t-62.5 -25t-24.5 -63q0 -39 24.5 -63.5t62.5 -24.5t62.5 24.5z" />
    <glyph glyph-name="acute" unicode="&#xb4;" horiz-adv-x="259" 
d="M164 719l54 -12l-126 -131h-51z" />
    <glyph glyph-name="paragraph" unicode="&#xb6;" horiz-adv-x="614" 
d="M181 325.5q-51 24.5 -79 68t-28 100.5t28.5 101t77.5 68t109 24h227v-737h-44v694h-129v-694h-44v351q-67 0 -118 24.5z" />
    <glyph glyph-name="periodcentered" unicode="&#xb7;" horiz-adv-x="218" 
d="M84 244.5q-10 10.5 -10 25.5t10 25t26 10q14 0 24.5 -10t10.5 -25t-10.5 -25.5t-24.5 -10.5q-16 0 -26 10.5z" />
    <glyph glyph-name="cedilla" unicode="&#xb8;" horiz-adv-x="265" 
d="M200 -63.5q19 -18.5 19 -46.5q0 -34 -27.5 -58t-66.5 -24q-22 0 -44 7.5t-39 20.5l16 36q29 -24 66 -24q22 0 38 13t16 31q0 15 -11.5 25t-29.5 10q-9 0 -18.5 -3t-15.5 -8l-16 17l33 78h43l-24 -57q4 1 13 1q29 0 48 -18.5z" />
    <glyph glyph-name="guillemotright" unicode="&#xbb;" horiz-adv-x="502" 
d="M62 63l157 187l-157 185l48 9l165 -194l-165 -196zM228 63l157 187l-157 185l48 9l165 -194l-165 -196z" />
    <glyph glyph-name="questiondown" unicode="&#xbf;" horiz-adv-x="544" 
d="M315.5 517.5q11.5 -11.5 11.5 -27.5q0 -15 -11.5 -26t-27.5 -11q-15 0 -26 11.5t-11 25.5q0 16 11 27.5t26 11.5q16 0 27.5 -11.5zM209.5 128.5q-45.5 -20.5 -71 -52.5t-25.5 -69q0 -38 19.5 -70.5t53.5 -51.5t76 -19q113 0 188 101l35 -34q-93 -115 -226 -115
q-54 0 -99 25t-71 67.5t-26 91.5q0 68 56 121t144 70v131h50v-171q-58 -4 -103.5 -24.5z" />
    <glyph glyph-name="Agrave" unicode="&#xc0;" horiz-adv-x="791" 
d="M671 0l-75 169h-401l-75 -169h-55l303 687h55l303 -687h-55zM216 217h359l-179 408zM244 877l54 12l124 -143h-52z" />
    <glyph glyph-name="Aacute" unicode="&#xc1;" horiz-adv-x="791" 
d="M671 0l-75 169h-401l-75 -169h-55l303 687h55l303 -687h-55zM216 217h359l-179 408zM492 889l54 -12l-126 -131h-51z" />
    <glyph glyph-name="Acircumflex" unicode="&#xc2;" horiz-adv-x="791" 
d="M671 0l-75 169h-401l-75 -169h-55l303 687h55l303 -687h-55zM216 217h359l-179 408zM370 883h52l106 -137h-48l-84 99l-82 -99h-48z" />
    <glyph glyph-name="Atilde" unicode="&#xc3;" horiz-adv-x="791" 
d="M671 0l-75 169h-401l-75 -169h-55l303 687h55l303 -687h-55zM216 217h359l-179 408zM423.5 761q-15.5 9 -40.5 28q-17 15 -28 22t-24 7q-20 0 -34 -19.5t-20 -55.5l-39 7q7 54 31 83t62 29q21 0 36.5 -9t40.5 -28q17 -15 28 -22t24 -7q39 0 53 75l39 -7q-7 -54 -30.5 -83
t-61.5 -29q-21 0 -36.5 9z" />
    <glyph glyph-name="Adieresis" unicode="&#xc4;" horiz-adv-x="791" 
d="M671 0l-75 169h-401l-75 -169h-55l303 687h55l303 -687h-55zM216 217h359l-179 408zM275 788.5q-10 10.5 -10 24.5t10 24.5t25 10.5q14 0 24.5 -10.5t10.5 -24.5t-10.5 -24.5t-24.5 -10.5q-15 0 -25 10.5zM467 788.5q-10 10.5 -10 24.5t10 24.5t25 10.5q14 0 24.5 -10.5
t10.5 -24.5t-10.5 -24.5t-24.5 -10.5q-15 0 -25 10.5z" />
    <glyph glyph-name="Aring" unicode="&#xc5;" horiz-adv-x="791" 
d="M671 0l-75 169h-401l-75 -169h-55l303 687h55l303 -687h-55zM216 217h359l-179 408zM323.5 789.5q-30.5 30.5 -30.5 72.5t30.5 72.5t72.5 30.5t72.5 -30.5t30.5 -72.5t-30.5 -72.5t-72.5 -30.5t-72.5 30.5zM442 816q20 20 20 46t-20 46t-46 20t-46 -20t-20 -46t20 -46
t46 -20t46 20z" />
    <glyph glyph-name="AE" unicode="&#xc6;" horiz-adv-x="1024" 
d="M461 687h494v-49h-415v-264h381v-48h-381v-277h415v-49h-465v169h-271l-97 -169h-58zM490 217v421l-242 -421h242z" />
    <glyph glyph-name="Ccedilla" unicode="&#xc7;" horiz-adv-x="732" 
d="M558.5 17q-63.5 -28 -132.5 -29l-14 -34q4 1 13 1q29 0 48 -18.5t19 -46.5q0 -34 -27.5 -58t-66.5 -24q-22 0 -44 7.5t-40 20.5l17 36q29 -24 65 -24q22 0 38 13t16 31q0 15 -11 25t-30 10q-17 0 -34 -11l-16 17l24 57q-85 10 -157 60.5t-113.5 128t-41.5 165.5
q0 95 48 176.5t129 130t175 48.5q70 0 134 -27.5t113 -77.5l-35 -35q-42 43 -97 67.5t-115 24.5q-81 0 -150.5 -42t-110.5 -112.5t-41 -152.5t41 -153t110.5 -113t150.5 -42q60 0 115 24.5t97 67.5l35 -35q-48 -48 -111.5 -76z" />
    <glyph glyph-name="Egrave" unicode="&#xc8;" horiz-adv-x="625" 
d="M556 638h-414v-264h380v-48h-380v-277h414v-49h-465v687h465v-49zM172 877l54 12l124 -143h-52z" />
    <glyph glyph-name="Eacute" unicode="&#xc9;" horiz-adv-x="625" 
d="M556 638h-414v-264h380v-48h-380v-277h414v-49h-465v687h465v-49zM420 889l54 -12l-126 -131h-51z" />
    <glyph glyph-name="Ecircumflex" unicode="&#xca;" horiz-adv-x="625" 
d="M556 638h-414v-264h380v-48h-380v-277h414v-49h-465v687h465v-49zM298 883h52l106 -137h-48l-84 99l-82 -99h-48z" />
    <glyph glyph-name="Edieresis" unicode="&#xcb;" horiz-adv-x="625" 
d="M556 638h-414v-264h380v-48h-380v-277h414v-49h-465v687h465v-49zM203 788.5q-10 10.5 -10 24.5t10 24.5t25 10.5q14 0 24.5 -10.5t10.5 -24.5t-10.5 -24.5t-24.5 -10.5q-15 0 -25 10.5zM395 788.5q-10 10.5 -10 24.5t10 24.5t25 10.5q14 0 24.5 -10.5t10.5 -24.5
t-10.5 -24.5t-24.5 -10.5q-15 0 -25 10.5z" />
    <glyph glyph-name="Igrave" unicode="&#xcc;" horiz-adv-x="233" 
d="M91 687h50v-687h-50v687zM-36 877l54 12l124 -143h-52z" />
    <glyph glyph-name="Iacute" unicode="&#xcd;" horiz-adv-x="233" 
d="M91 687h50v-687h-50v687zM212 889l54 -12l-126 -131h-51z" />
    <glyph glyph-name="Icircumflex" unicode="&#xce;" horiz-adv-x="233" 
d="M91 687h50v-687h-50v687zM90 883h52l106 -137h-48l-84 99l-82 -99h-48z" />
    <glyph glyph-name="Idieresis" unicode="&#xcf;" horiz-adv-x="233" 
d="M91 687h50v-687h-50v687zM-5 788.5q-10 10.5 -10 24.5t10 24.5t25 10.5q14 0 24.5 -10.5t10.5 -24.5t-10.5 -24.5t-24.5 -10.5q-15 0 -25 10.5zM187 788.5q-10 10.5 -10 24.5t10 24.5t25 10.5q14 0 24.5 -10.5t10.5 -24.5t-10.5 -24.5t-24.5 -10.5q-15 0 -25 10.5z" />
    <glyph glyph-name="Eth" unicode="&#xd0;" horiz-adv-x="805" 
d="M561.5 643q81.5 -44 127.5 -122t46 -177t-46 -177.5t-127.5 -122.5t-185.5 -44h-234v326h-76v48h76v313h234q104 0 185.5 -44zM535.5 86q70.5 38 109.5 105t39 153q0 85 -39 152.5t-109.5 105t-159.5 37.5h-184v-265h223l-1 -48h-222v-278h184q89 0 159.5 38z" />
    <glyph glyph-name="Ntilde" unicode="&#xd1;" horiz-adv-x="737" 
d="M91 687h50l454 -607v607h50v-687h-50l-454 607v-607h-50v687zM396.5 761q-15.5 9 -40.5 28q-17 15 -28 22t-24 7q-20 0 -34 -19.5t-20 -55.5l-39 7q7 54 31 83t62 29q21 0 36.5 -9t40.5 -28q17 -15 28 -22t24 -7q39 0 53 75l39 -7q-7 -54 -30.5 -83t-61.5 -29
q-21 0 -36.5 9z" />
    <glyph glyph-name="Ograve" unicode="&#xd2;" horiz-adv-x="844" 
d="M249 37q-81 49 -129.5 131t-48.5 176t48.5 176t129.5 130.5t174 48.5t174 -48.5t129 -130.5t48 -176t-48 -176t-129 -131t-174 -49t-174 49zM572 78q69 42 110 113t41 153t-41 152.5t-110 112.5t-149 42q-81 0 -150.5 -42t-110.5 -112.5t-41 -152.5t41 -153t110.5 -113
t150.5 -42q80 0 149 42zM271 877l54 12l124 -143h-52z" />
    <glyph glyph-name="Oacute" unicode="&#xd3;" horiz-adv-x="844" 
d="M249 37q-81 49 -129.5 131t-48.5 176t48.5 176t129.5 130.5t174 48.5t174 -48.5t129 -130.5t48 -176t-48 -176t-129 -131t-174 -49t-174 49zM572 78q69 42 110 113t41 153t-41 152.5t-110 112.5t-149 42q-81 0 -150.5 -42t-110.5 -112.5t-41 -152.5t41 -153t110.5 -113
t150.5 -42q80 0 149 42zM519 889l54 -12l-126 -131h-51z" />
    <glyph glyph-name="Ocircumflex" unicode="&#xd4;" horiz-adv-x="844" 
d="M249 37q-81 49 -129.5 131t-48.5 176t48.5 176t129.5 130.5t174 48.5t174 -48.5t129 -130.5t48 -176t-48 -176t-129 -131t-174 -49t-174 49zM572 78q69 42 110 113t41 153t-41 152.5t-110 112.5t-149 42q-81 0 -150.5 -42t-110.5 -112.5t-41 -152.5t41 -153t110.5 -113
t150.5 -42q80 0 149 42zM397 883h52l106 -137h-48l-84 99l-82 -99h-48z" />
    <glyph glyph-name="Otilde" unicode="&#xd5;" horiz-adv-x="844" 
d="M249 37q-81 49 -129.5 131t-48.5 176t48.5 176t129.5 130.5t174 48.5t174 -48.5t129 -130.5t48 -176t-48 -176t-129 -131t-174 -49t-174 49zM572 78q69 42 110 113t41 153t-41 152.5t-110 112.5t-149 42q-81 0 -150.5 -42t-110.5 -112.5t-41 -152.5t41 -153t110.5 -113
t150.5 -42q80 0 149 42zM450.5 761q-15.5 9 -40.5 28q-17 15 -28 22t-24 7q-20 0 -34 -19.5t-20 -55.5l-39 7q7 54 31 83t62 29q21 0 36.5 -9t40.5 -28q17 -15 28 -22t24 -7q39 0 53 75l39 -7q-7 -54 -30.5 -83t-61.5 -29q-21 0 -36.5 9z" />
    <glyph glyph-name="Odieresis" unicode="&#xd6;" horiz-adv-x="844" 
d="M249 37q-81 49 -129.5 131t-48.5 176t48.5 176t129.5 130.5t174 48.5t174 -48.5t129 -130.5t48 -176t-48 -176t-129 -131t-174 -49t-174 49zM572 78q69 42 110 113t41 153t-41 152.5t-110 112.5t-149 42q-81 0 -150.5 -42t-110.5 -112.5t-41 -152.5t41 -153t110.5 -113
t150.5 -42q80 0 149 42zM302 788.5q-10 10.5 -10 24.5t10 24.5t25 10.5q14 0 24.5 -10.5t10.5 -24.5t-10.5 -24.5t-24.5 -10.5q-15 0 -25 10.5zM494 788.5q-10 10.5 -10 24.5t10 24.5t25 10.5q14 0 24.5 -10.5t10.5 -24.5t-10.5 -24.5t-24.5 -10.5q-15 0 -25 10.5z" />
    <glyph glyph-name="multiply" unicode="&#xd7;" horiz-adv-x="506" 
d="M433 479l-145 -145l144 -144l-34 -35l-145 145l-145 -145l-34 34l145 145l-146 145l35 35l145 -145l145 145z" />
    <glyph glyph-name="Oslash" unicode="&#xd8;" horiz-adv-x="845" 
d="M746 480.5q28 -65.5 28 -136.5q0 -95 -48 -177t-128.5 -130.5t-174.5 -48.5q-60 0 -115.5 20.5t-101.5 57.5l-58 -66h-61l85 97q-48 50 -74.5 113.5t-26.5 133.5q0 95 48 176.5t129 130t175 48.5q58 0 111.5 -19t99.5 -54l54 61h61l-80 -92q49 -49 77 -114.5zM143 230.5
q22 -54.5 61 -96.5l398 455q-38 30 -84 46t-95 16q-81 0 -150.5 -42t-110.5 -112.5t-41 -152.5q0 -59 22 -113.5zM572.5 78q69.5 42 110.5 113t41 153q0 60 -23.5 115.5t-64.5 98.5l-398 -455q39 -32 86.5 -49.5t98.5 -17.5q80 0 149.5 42z" />
    <glyph glyph-name="Ugrave" unicode="&#xd9;" horiz-adv-x="713" 
d="M215 24.5q-62 36.5 -97 101t-35 146.5v415h50v-415q0 -68 28.5 -122t79.5 -84t115 -30q65 0 115.5 30t79 84t28.5 122v415h50v-415q0 -82 -35 -146.5t-97 -101t-141 -36.5t-141 36.5zM204 877l54 12l124 -143h-52z" />
    <glyph glyph-name="Uacute" unicode="&#xda;" horiz-adv-x="713" 
d="M215 24.5q-62 36.5 -97 101t-35 146.5v415h50v-415q0 -68 28.5 -122t79.5 -84t115 -30q65 0 115.5 30t79 84t28.5 122v415h50v-415q0 -82 -35 -146.5t-97 -101t-141 -36.5t-141 36.5zM452 889l54 -12l-126 -131h-51z" />
    <glyph glyph-name="Ucircumflex" unicode="&#xdb;" horiz-adv-x="713" 
d="M215 24.5q-62 36.5 -97 101t-35 146.5v415h50v-415q0 -68 28.5 -122t79.5 -84t115 -30q65 0 115.5 30t79 84t28.5 122v415h50v-415q0 -82 -35 -146.5t-97 -101t-141 -36.5t-141 36.5zM330 883h52l106 -137h-48l-84 99l-82 -99h-48z" />
    <glyph glyph-name="Udieresis" unicode="&#xdc;" horiz-adv-x="713" 
d="M215 24.5q-62 36.5 -97 101t-35 146.5v415h50v-415q0 -68 28.5 -122t79.5 -84t115 -30q65 0 115.5 30t79 84t28.5 122v415h50v-415q0 -82 -35 -146.5t-97 -101t-141 -36.5t-141 36.5zM235 788.5q-10 10.5 -10 24.5t10 24.5t25 10.5q14 0 24.5 -10.5t10.5 -24.5
t-10.5 -24.5t-24.5 -10.5q-15 0 -25 10.5zM427 788.5q-10 10.5 -10 24.5t10 24.5t25 10.5q14 0 24.5 -10.5t10.5 -24.5t-10.5 -24.5t-24.5 -10.5q-15 0 -25 10.5z" />
    <glyph glyph-name="Yacute" unicode="&#xdd;" horiz-adv-x="737" 
d="M343 279l-279 408h63l242 -356l242 356h62l-279 -408v-279h-51v279zM465 889l54 -12l-126 -131h-51z" />
    <glyph glyph-name="Thorn" unicode="&#xde;" horiz-adv-x="689" 
d="M142 687v-128h235q69 0 124.5 -27t87 -75.5t31.5 -110.5t-31.5 -110.5t-87 -75.5t-124.5 -27h-236v-133h-50v687h51zM472.5 201.5q45.5 20.5 71.5 58t26 86.5t-26 86.5t-71.5 58t-104.5 20.5h-227v-330h227q59 0 104.5 20.5z" />
    <glyph glyph-name="germandbls" unicode="&#xdf;" horiz-adv-x="525" 
d="M91 616q26 42 70.5 66.5t98.5 24.5t98.5 -24.5t70 -66t25.5 -91.5q0 -55 -24.5 -97.5t-66.5 -62.5q55 -23 86.5 -70t31.5 -105q0 -52 -25.5 -95.5t-69 -69t-95.5 -25.5h-94v48h74q44 0 80.5 20t58 54t21.5 75q0 62 -45.5 101t-116.5 39h-72v48h64q62 0 102.5 38t40.5 95
q0 39 -19.5 71t-52.5 51t-72 19q-40 0 -73 -19t-52.5 -52t-19.5 -72v-516h-50v524q0 50 26 92z" />
    <glyph glyph-name="agrave" unicode="&#xe0;" horiz-adv-x="534" 
d="M422.5 470q53.5 -59 53.5 -155v-315h-49v83q-28 -45 -83.5 -70t-113.5 -25q-82 0 -134.5 46t-52.5 120q0 50 26.5 89t73.5 60.5t106 21.5q81 0 178 -34v24q0 70 -38 119.5t-120 49.5q-74 0 -156 -46l-20 41q46 25 93 37.5t88 12.5q95 0 148.5 -59zM316.5 48.5
q40.5 14.5 71 43.5t39.5 70v87q-93 31 -171 31q-72 0 -118.5 -35t-46.5 -90q0 -53 42 -87t104 -34q39 0 79.5 14.5zM139 707l54 12l124 -143h-52z" />
    <glyph glyph-name="aacute" unicode="&#xe1;" horiz-adv-x="534" 
d="M422.5 470q53.5 -59 53.5 -155v-315h-49v83q-28 -45 -83.5 -70t-113.5 -25q-82 0 -134.5 46t-52.5 120q0 50 26.5 89t73.5 60.5t106 21.5q81 0 178 -34v24q0 70 -38 119.5t-120 49.5q-74 0 -156 -46l-20 41q46 25 93 37.5t88 12.5q95 0 148.5 -59zM316.5 48.5
q40.5 14.5 71 43.5t39.5 70v87q-93 31 -171 31q-72 0 -118.5 -35t-46.5 -90q0 -53 42 -87t104 -34q39 0 79.5 14.5zM387 719l54 -12l-126 -131h-51z" />
    <glyph glyph-name="acircumflex" unicode="&#xe2;" horiz-adv-x="534" 
d="M422.5 470q53.5 -59 53.5 -155v-315h-49v83q-28 -45 -83.5 -70t-113.5 -25q-82 0 -134.5 46t-52.5 120q0 50 26.5 89t73.5 60.5t106 21.5q81 0 178 -34v24q0 70 -38 119.5t-120 49.5q-74 0 -156 -46l-20 41q46 25 93 37.5t88 12.5q95 0 148.5 -59zM316.5 48.5
q40.5 14.5 71 43.5t39.5 70v87q-93 31 -171 31q-72 0 -118.5 -35t-46.5 -90q0 -53 42 -87t104 -34q39 0 79.5 14.5zM265 713h52l106 -137h-48l-84 99l-82 -99h-48z" />
    <glyph glyph-name="atilde" unicode="&#xe3;" horiz-adv-x="534" 
d="M422.5 470q53.5 -59 53.5 -155v-315h-49v83q-28 -45 -83.5 -70t-113.5 -25q-82 0 -134.5 46t-52.5 120q0 50 26.5 89t73.5 60.5t106 21.5q81 0 178 -34v24q0 70 -38 119.5t-120 49.5q-74 0 -156 -46l-20 41q46 25 93 37.5t88 12.5q95 0 148.5 -59zM316.5 48.5
q40.5 14.5 71 43.5t39.5 70v87q-93 31 -171 31q-72 0 -118.5 -35t-46.5 -90q0 -53 42 -87t104 -34q39 0 79.5 14.5zM318.5 591q-15.5 9 -40.5 28q-17 15 -28 22t-24 7q-20 0 -34 -19.5t-20 -55.5l-39 7q7 54 31 83t62 29q21 0 36.5 -9t40.5 -28q17 -15 28 -22t24 -7
q39 0 53 75l39 -7q-7 -54 -30.5 -83t-61.5 -29q-21 0 -36.5 9z" />
    <glyph glyph-name="adieresis" unicode="&#xe4;" horiz-adv-x="534" 
d="M422.5 470q53.5 -59 53.5 -155v-315h-49v83q-28 -45 -83.5 -70t-113.5 -25q-82 0 -134.5 46t-52.5 120q0 50 26.5 89t73.5 60.5t106 21.5q81 0 178 -34v24q0 70 -38 119.5t-120 49.5q-74 0 -156 -46l-20 41q46 25 93 37.5t88 12.5q95 0 148.5 -59zM316.5 48.5
q40.5 14.5 71 43.5t39.5 70v87q-93 31 -171 31q-72 0 -118.5 -35t-46.5 -90q0 -53 42 -87t104 -34q39 0 79.5 14.5zM170 618.5q-10 10.5 -10 24.5t10 24.5t25 10.5q14 0 24.5 -10.5t10.5 -24.5t-10.5 -24.5t-24.5 -10.5q-15 0 -25 10.5zM362 618.5q-10 10.5 -10 24.5
t10 24.5t25 10.5q14 0 24.5 -10.5t10.5 -24.5t-10.5 -24.5t-24.5 -10.5q-15 0 -25 10.5z" />
    <glyph glyph-name="aring" unicode="&#xe5;" horiz-adv-x="534" 
d="M422.5 470q53.5 -59 53.5 -155v-315h-49v83q-28 -45 -83.5 -70t-113.5 -25q-82 0 -134.5 46t-52.5 120q0 50 26.5 89t73.5 60.5t106 21.5q81 0 178 -34v24q0 70 -38 119.5t-120 49.5q-74 0 -156 -46l-20 41q46 25 93 37.5t88 12.5q95 0 148.5 -59zM316.5 48.5
q40.5 14.5 71 43.5t39.5 70v87q-93 31 -171 31q-72 0 -118.5 -35t-46.5 -90q0 -53 42 -87t104 -34q39 0 79.5 14.5zM218.5 619.5q-30.5 30.5 -30.5 72.5t30.5 72.5t72.5 30.5t72.5 -30.5t30.5 -72.5t-30.5 -72.5t-72.5 -30.5t-72.5 30.5zM337 646q20 20 20 46t-20 46t-46 20
t-46 -20t-20 -46t20 -46t46 -20t46 20z" />
    <glyph glyph-name="ae" unicode="&#xe6;" horiz-adv-x="969" 
d="M786.5 52q49.5 18 78.5 50l32 -34q-32 -35 -92.5 -57.5t-120.5 -22.5q-70 0 -130.5 39t-93.5 104q-26 -65 -85 -104t-135 -39q-89 0 -143 45.5t-54 120.5q0 50 26.5 89t73.5 60.5t106 21.5q83 0 178 -34v24q0 70 -38 119.5t-120 49.5q-74 0 -156 -46l-20 41
q46 25 93 37.5t88 12.5q72 0 121 -35t68 -96q33 60 91 95.5t128 35.5q74 0 129.5 -36t85.5 -102t30 -153h-450q5 -56 33.5 -103t74.5 -74t99 -27t102.5 18zM584 457.5q-45 -25.5 -73.5 -71t-33.5 -102.5h401q-5 89 -57 144t-138 55q-54 0 -99 -25.5zM428 249q-99 31 -171 31
t-118.5 -35t-46.5 -90q0 -53 42 -87t104 -34q39 0 79.5 14.5t71 43.5t39.5 70v87z" />
    <glyph glyph-name="ccedilla" unicode="&#xe7;" horiz-adv-x="527" 
d="M407.5 9q-44.5 -20 -94.5 -21l-14 -34q4 1 13 1q29 0 48 -18.5t19 -46.5q0 -34 -27.5 -58t-66.5 -24q-22 0 -44 7.5t-39 20.5l16 36q29 -24 66 -24q22 0 38 13t16 31q0 15 -11.5 25t-29.5 10q-9 0 -18.5 -3t-15.5 -8l-16 17l24 57q-65 8 -116 45t-80 95.5t-29 128.5
q0 76 34 137.5t94 97t133 35.5q51 0 97 -20t82 -56l-34 -34q-29 30 -66.5 47t-78.5 17q-60 0 -108 -29t-75.5 -80.5t-27.5 -114.5q0 -64 27.5 -115t75.5 -80.5t108 -29.5q41 0 79 17t67 48l34 -34q-35 -36 -79.5 -56z" />
    <glyph glyph-name="egrave" unicode="&#xe8;" horiz-adv-x="587" 
d="M404.5 52q49.5 18 78.5 50l32 -34q-32 -35 -92.5 -57.5t-120.5 -22.5q-68 0 -127.5 36.5t-94.5 99t-35 136.5q0 75 34 136.5t92.5 97t128.5 35.5q74 0 129.5 -36t85.5 -102t30 -153h-450q5 -56 33.5 -103t74.5 -74t99 -27t102.5 18zM202 457.5q-45 -25.5 -73.5 -71
t-33.5 -102.5h401q-5 89 -57.5 144t-137.5 55q-54 0 -99 -25.5zM148 707l54 12l124 -143h-52z" />
    <glyph glyph-name="eacute" unicode="&#xe9;" horiz-adv-x="587" 
d="M404.5 52q49.5 18 78.5 50l32 -34q-32 -35 -92.5 -57.5t-120.5 -22.5q-68 0 -127.5 36.5t-94.5 99t-35 136.5q0 75 34 136.5t92.5 97t128.5 35.5q74 0 129.5 -36t85.5 -102t30 -153h-450q5 -56 33.5 -103t74.5 -74t99 -27t102.5 18zM202 457.5q-45 -25.5 -73.5 -71
t-33.5 -102.5h401q-5 89 -57.5 144t-137.5 55q-54 0 -99 -25.5zM396 719l54 -12l-126 -131h-51z" />
    <glyph glyph-name="ecircumflex" unicode="&#xea;" horiz-adv-x="587" 
d="M404.5 52q49.5 18 78.5 50l32 -34q-32 -35 -92.5 -57.5t-120.5 -22.5q-68 0 -127.5 36.5t-94.5 99t-35 136.5q0 75 34 136.5t92.5 97t128.5 35.5q74 0 129.5 -36t85.5 -102t30 -153h-450q5 -56 33.5 -103t74.5 -74t99 -27t102.5 18zM202 457.5q-45 -25.5 -73.5 -71
t-33.5 -102.5h401q-5 89 -57.5 144t-137.5 55q-54 0 -99 -25.5zM274 713h52l106 -137h-48l-84 99l-82 -99h-48z" />
    <glyph glyph-name="edieresis" unicode="&#xeb;" horiz-adv-x="587" 
d="M404.5 52q49.5 18 78.5 50l32 -34q-32 -35 -92.5 -57.5t-120.5 -22.5q-68 0 -127.5 36.5t-94.5 99t-35 136.5q0 75 34 136.5t92.5 97t128.5 35.5q74 0 129.5 -36t85.5 -102t30 -153h-450q5 -56 33.5 -103t74.5 -74t99 -27t102.5 18zM202 457.5q-45 -25.5 -73.5 -71
t-33.5 -102.5h401q-5 89 -57.5 144t-137.5 55q-54 0 -99 -25.5zM179 618.5q-10 10.5 -10 24.5t10 24.5t25 10.5q14 0 24.5 -10.5t10.5 -24.5t-10.5 -24.5t-24.5 -10.5q-15 0 -25 10.5zM371 618.5q-10 10.5 -10 24.5t10 24.5t25 10.5q14 0 24.5 -10.5t10.5 -24.5t-10.5 -24.5
t-24.5 -10.5q-15 0 -25 10.5z" />
    <glyph glyph-name="igrave" unicode="&#xec;" horiz-adv-x="178" 
d="M64 517h49v-517h-49v517zM-63 707l54 12l124 -143h-52z" />
    <glyph glyph-name="iacute" unicode="&#xed;" horiz-adv-x="178" 
d="M64 517h49v-517h-49v517zM185 719l54 -12l-126 -131h-51z" />
    <glyph glyph-name="icircumflex" unicode="&#xee;" horiz-adv-x="178" 
d="M64 517h49v-517h-49v517zM63 713h52l106 -137h-48l-84 99l-82 -99h-48z" />
    <glyph glyph-name="idieresis" unicode="&#xef;" horiz-adv-x="178" 
d="M64 517h49v-517h-49v517zM-32 618.5q-10 10.5 -10 24.5t10 24.5t25 10.5q14 0 24.5 -10.5t10.5 -24.5t-10.5 -24.5t-24.5 -10.5q-15 0 -25 10.5zM160 618.5q-10 10.5 -10 24.5t10 24.5t25 10.5q14 0 24.5 -10.5t10.5 -24.5t-10.5 -24.5t-24.5 -10.5q-15 0 -25 10.5z" />
    <glyph glyph-name="eth" unicode="&#xf0;" horiz-adv-x="589" 
d="M493 445q49 -89 49 -185q0 -79 -31.5 -140.5t-87.5 -96.5t-128 -35t-128.5 33t-88.5 92t-32 134q0 74 31 131.5t86 90t125 32.5q51 0 96 -21t78 -65q-49 93 -150 179l-125 -56l-19 43l104 46q-49 37 -93 65l48 22q48 -31 90 -66l97 43l19 -43l-76 -34q87 -80 136 -169z
M396 62q45 27 70.5 75.5t25.5 110.5q0 59 -24.5 106.5t-69.5 74t-104 26.5q-57 0 -102 -27t-70.5 -74.5t-25.5 -107.5q0 -61 25.5 -109t70.5 -75t102 -27t102 27z" />
    <glyph glyph-name="ntilde" unicode="&#xf1;" 
d="M383.5 504.5q44.5 -24.5 69 -68.5t24.5 -100v-336h-49v329q0 67 -42.5 110.5t-108.5 43.5q-46 0 -83.5 -20t-59 -55t-21.5 -78v-330h-49v517h49v-88q20 45 66 72.5t104 27.5q56 0 100.5 -24.5zM298.5 591q-15.5 9 -40.5 28q-17 15 -28 22t-24 7q-20 0 -34 -19.5
t-20 -55.5l-39 7q7 54 31 83t62 29q21 0 36.5 -9t40.5 -28q17 -15 28 -22t24 -7q39 0 53 75l39 -7q-7 -54 -30.5 -83t-61.5 -29q-21 0 -36.5 9z" />
    <glyph glyph-name="ograve" unicode="&#xf2;" horiz-adv-x="624" 
d="M179.5 25q-61.5 37 -98 99t-36.5 135t36.5 135t98 98.5t133.5 36.5q71 0 132.5 -36.5t97.5 -98.5t36 -135t-36 -135t-97.5 -99t-132.5 -37q-72 0 -133.5 37zM420.5 64.5q49.5 30.5 79 82.5t29.5 112t-29.5 111.5t-79 82t-107.5 30.5t-108.5 -30.5t-80 -82t-29.5 -111.5
t29.5 -112t80 -82.5t108.5 -30.5t107.5 30.5zM161 707l54 12l124 -143h-52z" />
    <glyph glyph-name="oacute" unicode="&#xf3;" horiz-adv-x="624" 
d="M179.5 25q-61.5 37 -98 99t-36.5 135t36.5 135t98 98.5t133.5 36.5q71 0 132.5 -36.5t97.5 -98.5t36 -135t-36 -135t-97.5 -99t-132.5 -37q-72 0 -133.5 37zM420.5 64.5q49.5 30.5 79 82.5t29.5 112t-29.5 111.5t-79 82t-107.5 30.5t-108.5 -30.5t-80 -82t-29.5 -111.5
t29.5 -112t80 -82.5t108.5 -30.5t107.5 30.5zM409 719l54 -12l-126 -131h-51z" />
    <glyph glyph-name="ocircumflex" unicode="&#xf4;" horiz-adv-x="624" 
d="M179.5 25q-61.5 37 -98 99t-36.5 135t36.5 135t98 98.5t133.5 36.5q71 0 132.5 -36.5t97.5 -98.5t36 -135t-36 -135t-97.5 -99t-132.5 -37q-72 0 -133.5 37zM420.5 64.5q49.5 30.5 79 82.5t29.5 112t-29.5 111.5t-79 82t-107.5 30.5t-108.5 -30.5t-80 -82t-29.5 -111.5
t29.5 -112t80 -82.5t108.5 -30.5t107.5 30.5zM287 713h52l106 -137h-48l-84 99l-82 -99h-48z" />
    <glyph glyph-name="otilde" unicode="&#xf5;" horiz-adv-x="624" 
d="M179.5 25q-61.5 37 -98 99t-36.5 135t36.5 135t98 98.5t133.5 36.5q71 0 132.5 -36.5t97.5 -98.5t36 -135t-36 -135t-97.5 -99t-132.5 -37q-72 0 -133.5 37zM420.5 64.5q49.5 30.5 79 82.5t29.5 112t-29.5 111.5t-79 82t-107.5 30.5t-108.5 -30.5t-80 -82t-29.5 -111.5
t29.5 -112t80 -82.5t108.5 -30.5t107.5 30.5zM340.5 591q-15.5 9 -40.5 28q-17 15 -28 22t-24 7q-20 0 -34 -19.5t-20 -55.5l-39 7q7 54 31 83t62 29q21 0 36.5 -9t40.5 -28q17 -15 28 -22t24 -7q39 0 53 75l39 -7q-7 -54 -30.5 -83t-61.5 -29q-21 0 -36.5 9z" />
    <glyph glyph-name="odieresis" unicode="&#xf6;" horiz-adv-x="624" 
d="M179.5 25q-61.5 37 -98 99t-36.5 135t36.5 135t98 98.5t133.5 36.5q71 0 132.5 -36.5t97.5 -98.5t36 -135t-36 -135t-97.5 -99t-132.5 -37q-72 0 -133.5 37zM420.5 64.5q49.5 30.5 79 82.5t29.5 112t-29.5 111.5t-79 82t-107.5 30.5t-108.5 -30.5t-80 -82t-29.5 -111.5
t29.5 -112t80 -82.5t108.5 -30.5t107.5 30.5zM192 618.5q-10 10.5 -10 24.5t10 24.5t25 10.5q14 0 24.5 -10.5t10.5 -24.5t-10.5 -24.5t-24.5 -10.5q-15 0 -25 10.5zM384 618.5q-10 10.5 -10 24.5t10 24.5t25 10.5q14 0 24.5 -10.5t10.5 -24.5t-10.5 -24.5t-24.5 -10.5
q-15 0 -25 10.5z" />
    <glyph glyph-name="divide" unicode="&#xf7;" horiz-adv-x="607" 
d="M272.5 469.5q-11.5 11.5 -11.5 27.5q0 15 11.5 26t27.5 11q15 0 26 -11.5t11 -25.5q0 -16 -11 -27.5t-26 -11.5q-16 0 -27.5 11.5zM69 358h459v-48h-459v48zM272.5 145.5q-11.5 11.5 -11.5 27.5q0 15 11.5 26t27.5 11q15 0 26 -11.5t11 -25.5q0 -16 -11 -27.5t-26 -11.5
q-16 0 -27.5 11.5z" />
    <glyph glyph-name="oslash" unicode="&#xf8;" horiz-adv-x="627" 
d="M561 358q19 -47 19 -99q0 -73 -36.5 -135t-98 -99t-132.5 -37q-82 0 -152 49l-31 -37h-60l56 66q-38 37 -59.5 87.5t-21.5 105.5q0 73 36.5 135t98 98.5t133.5 36.5q44 0 85.5 -14.5t75.5 -41.5l37 44h60l-63 -74q34 -38 53 -85zM111.5 174q16.5 -41 45.5 -72l286 335
q-27 22 -60.5 34t-69.5 12q-58 0 -108.5 -30.5t-80 -82t-29.5 -111.5q0 -44 16.5 -85zM421 64.5q50 30.5 79.5 82.5t29.5 112q0 41 -14 78.5t-40 68.5l-284 -333q55 -39 121 -39q58 0 108 30.5z" />
    <glyph glyph-name="ugrave" unicode="&#xf9;" 
d="M470 517v-517h-49v87q-20 -45 -65.5 -72t-104.5 -27q-56 0 -100 24.5t-68.5 68.5t-24.5 100v336h49v-329q0 -68 42 -111t109 -43q46 0 83.5 20t58.5 55t21 78v330h49zM106 707l54 12l124 -143h-52z" />
    <glyph glyph-name="uacute" unicode="&#xfa;" 
d="M470 517v-517h-49v87q-20 -45 -65.5 -72t-104.5 -27q-56 0 -100 24.5t-68.5 68.5t-24.5 100v336h49v-329q0 -68 42 -111t109 -43q46 0 83.5 20t58.5 55t21 78v330h49zM354 719l54 -12l-126 -131h-51z" />
    <glyph glyph-name="ucircumflex" unicode="&#xfb;" 
d="M470 517v-517h-49v87q-20 -45 -65.5 -72t-104.5 -27q-56 0 -100 24.5t-68.5 68.5t-24.5 100v336h49v-329q0 -68 42 -111t109 -43q46 0 83.5 20t58.5 55t21 78v330h49zM232 713h52l106 -137h-48l-84 99l-82 -99h-48z" />
    <glyph glyph-name="udieresis" unicode="&#xfc;" 
d="M470 517v-517h-49v87q-20 -45 -65.5 -72t-104.5 -27q-56 0 -100 24.5t-68.5 68.5t-24.5 100v336h49v-329q0 -68 42 -111t109 -43q46 0 83.5 20t58.5 55t21 78v330h49zM137 618.5q-10 10.5 -10 24.5t10 24.5t25 10.5q14 0 24.5 -10.5t10.5 -24.5t-10.5 -24.5t-24.5 -10.5
q-15 0 -25 10.5zM329 618.5q-10 10.5 -10 24.5t10 24.5t25 10.5q14 0 24.5 -10.5t10.5 -24.5t-10.5 -24.5t-24.5 -10.5q-15 0 -25 10.5z" />
    <glyph glyph-name="yacute" unicode="&#xfd;" horiz-adv-x="576" 
d="M62 -163l13 46q34 -16 68 -16q66 0 93 48l31 70l-228 532h53l201 -471l191 471h53l-240 -587q-23 -56 -60.5 -82.5t-92.5 -27.5q-45 0 -82 17zM389 719l54 -12l-126 -131h-51z" />
    <glyph glyph-name="thorn" unicode="&#xfe;" horiz-adv-x="592" 
d="M430.5 493q53.5 -36 85 -98t31.5 -136t-31.5 -136.5t-85 -98.5t-117.5 -36q-65 0 -117 31t-82 86v-277h-49v871h49v-286q30 55 82 85.5t117 30.5q64 0 117.5 -36zM401 64q44 30 70 82t26 113t-26 112.5t-70 81.5t-97 30q-55 0 -98 -28.5t-67.5 -79.5t-24.5 -116
t24.5 -116.5t67.5 -80t98 -28.5q53 0 97 30z" />
    <glyph glyph-name="ydieresis" unicode="&#xff;" horiz-adv-x="576" 
d="M62 -163l13 46q34 -16 68 -16q66 0 93 48l31 70l-228 532h53l201 -471l191 471h53l-240 -587q-23 -56 -60.5 -82.5t-92.5 -27.5q-45 0 -82 17zM172 618.5q-10 10.5 -10 24.5t10 24.5t25 10.5q14 0 24.5 -10.5t10.5 -24.5t-10.5 -24.5t-24.5 -10.5q-15 0 -25 10.5z
M364 618.5q-10 10.5 -10 24.5t10 24.5t25 10.5q14 0 24.5 -10.5t10.5 -24.5t-10.5 -24.5t-24.5 -10.5q-15 0 -25 10.5z" />
    <glyph glyph-name="Amacron" unicode="&#x100;" horiz-adv-x="791" 
d="M671 0l-75 169h-401l-75 -169h-55l303 687h55l303 -687h-55zM216 217h359l-179 408zM241 812h310v-42h-310v42z" />
    <glyph glyph-name="amacron" unicode="&#x101;" horiz-adv-x="534" 
d="M422.5 470q53.5 -59 53.5 -155v-315h-49v83q-28 -45 -83.5 -70t-113.5 -25q-82 0 -134.5 46t-52.5 120q0 50 26.5 89t73.5 60.5t106 21.5q81 0 178 -34v24q0 70 -38 119.5t-120 49.5q-74 0 -156 -46l-20 41q46 25 93 37.5t88 12.5q95 0 148.5 -59zM316.5 48.5
q40.5 14.5 71 43.5t39.5 70v87q-93 31 -171 31q-72 0 -118.5 -35t-46.5 -90q0 -53 42 -87t104 -34q39 0 79.5 14.5zM136 642h310v-42h-310v42z" />
    <glyph glyph-name="Abreve" unicode="&#x102;" horiz-adv-x="791" 
d="M671 0l-75 169h-401l-75 -169h-55l303 687h55l303 -687h-55zM216 217h359l-179 408zM317 774q-38 15 -68 45l33 33q23 -22 52.5 -34.5t60.5 -12.5t61 12.5t52 34.5l33 -33q-29 -29 -67 -44.5t-79 -15.5q-40 0 -78 15z" />
    <glyph glyph-name="abreve" unicode="&#x103;" horiz-adv-x="534" 
d="M422.5 470q53.5 -59 53.5 -155v-315h-49v83q-28 -45 -83.5 -70t-113.5 -25q-82 0 -134.5 46t-52.5 120q0 50 26.5 89t73.5 60.5t106 21.5q81 0 178 -34v24q0 70 -38 119.5t-120 49.5q-74 0 -156 -46l-20 41q46 25 93 37.5t88 12.5q95 0 148.5 -59zM316.5 48.5
q40.5 14.5 71 43.5t39.5 70v87q-93 31 -171 31q-72 0 -118.5 -35t-46.5 -90q0 -53 42 -87t104 -34q39 0 79.5 14.5zM213 604q-38 15 -68 45l33 33q23 -22 52.5 -34.5t60.5 -12.5t61 12.5t52 34.5l33 -33q-29 -29 -67 -44.5t-79 -15.5q-40 0 -78 15z" />
    <glyph glyph-name="Aogonek" unicode="&#x104;" horiz-adv-x="791" 
d="M805 -144q-35 -29 -84 -29q-45 0 -73.5 28t-28.5 74q0 27 13 49t34 33l-70 158h-401l-75 -169h-55l303 687h55l303 -687q-30 0 -47 -17.5t-17 -48.5q0 -30 17 -46.5t47 -16.5q36 0 55 21zM216 217h359l-179 408z" />
    <glyph glyph-name="aogonek" unicode="&#x105;" horiz-adv-x="534" 
d="M555 -144q-35 -29 -84 -29q-45 0 -73.5 28t-28.5 74q0 30 16 54t42 33v67q-28 -45 -83.5 -70t-113.5 -25q-82 0 -134.5 46t-52.5 120q0 50 26.5 89t73.5 60.5t106 21.5q81 0 178 -34v24q0 70 -38 119.5t-120 49.5q-74 0 -156 -46l-20 41q46 25 93 37.5t88 12.5
q95 0 148.5 -59t53.5 -155v-315q-30 0 -47 -17.5t-17 -48.5q0 -30 17 -46.5t47 -16.5q36 0 55 21zM316.5 48.5q40.5 14.5 71 43.5t39.5 70v87q-93 31 -171 31q-72 0 -118.5 -35t-46.5 -90q0 -53 42 -87t104 -34q39 0 79.5 14.5z" />
    <glyph glyph-name="Cacute" unicode="&#x106;" horiz-adv-x="735" 
d="M248 36.5q-81 48.5 -129 130.5t-48 177t48 176.5t129 130t175 48.5q70 0 134 -27.5t113 -77.5l-35 -35q-42 43 -97 67.5t-115 24.5q-81 0 -150.5 -42t-110.5 -112.5t-41 -152.5t41 -153t110.5 -113t150.5 -42q60 0 115 24.5t97 67.5l35 -35q-49 -49 -113 -77t-134 -28
q-94 0 -175 48.5zM519 889l54 -12l-126 -131h-51z" />
    <glyph glyph-name="cacute" unicode="&#x107;" horiz-adv-x="527" 
d="M174 23.5q-60 35.5 -94 97.5t-34 138t34 137.5t94 97t133 35.5q51 0 97 -20t82 -56l-34 -34q-29 30 -66.5 47t-78.5 17q-60 0 -108 -29t-75.5 -80.5t-27.5 -114.5q0 -64 27.5 -115t75.5 -80.5t108 -29.5q41 0 79 17t67 48l34 -34q-36 -37 -82.5 -57t-97.5 -20
q-73 0 -133 35.5zM384 719l54 -12l-126 -131h-51z" />
    <glyph glyph-name="Ccaron" unicode="&#x10c;" horiz-adv-x="735" 
d="M248 36.5q-81 48.5 -129 130.5t-48 177t48 176.5t129 130t175 48.5q70 0 134 -27.5t113 -77.5l-35 -35q-42 43 -97 67.5t-115 24.5q-81 0 -150.5 -42t-110.5 -112.5t-41 -152.5t41 -153t110.5 -113t150.5 -42q60 0 115 24.5t97 67.5l35 -35q-49 -49 -113 -77t-134 -28
q-94 0 -175 48.5zM293 883h48l82 -99l84 99h48l-106 -137h-52z" />
    <glyph glyph-name="ccaron" unicode="&#x10d;" horiz-adv-x="527" 
d="M174 23.5q-60 35.5 -94 97.5t-34 138t34 137.5t94 97t133 35.5q51 0 97 -20t82 -56l-34 -34q-29 30 -66.5 47t-78.5 17q-60 0 -108 -29t-75.5 -80.5t-27.5 -114.5q0 -64 27.5 -115t75.5 -80.5t108 -29.5q41 0 79 17t67 48l34 -34q-36 -37 -82.5 -57t-97.5 -20
q-73 0 -133 35.5zM158 713h48l82 -99l84 99h48l-106 -137h-52z" />
    <glyph glyph-name="Dcaron" unicode="&#x10e;" horiz-adv-x="755" 
d="M325 687q104 0 185.5 -44t127.5 -122t46 -177t-46 -177.5t-127.5 -122.5t-185.5 -44h-234v687h234zM484.5 86q70.5 38 110 105.5t39.5 152.5t-39.5 152.5t-110 105t-159.5 37.5h-184v-591h184q89 0 159.5 38zM195 883h48l82 -99l84 99h48l-106 -137h-52z" />
    <glyph glyph-name="dcaron" unicode="&#x10f;" horiz-adv-x="628" 
d="M478 699h49v-699h-49v105q-30 -55 -81.5 -86t-116.5 -31q-64 0 -117.5 36t-85 98.5t-31.5 136.5t31.5 136t85 98t117.5 36q65 0 116.5 -30.5t81.5 -85.5v286zM659.5 685.5q10.5 -13.5 10.5 -37.5q0 -25 -14.5 -55t-45.5 -72l-28 20q38 44 49 88q-16 0 -26 10t-10 25
q0 14 10.5 24.5t25.5 10.5q18 0 28.5 -13.5zM387 62.5q43 28.5 67 80t24 116.5t-24 116t-67 79.5t-98 28.5q-53 0 -97 -30t-70 -81.5t-26 -112.5t26 -113t70 -82t97 -30q55 0 98 28.5z" />
    <glyph glyph-name="Dcroat" unicode="&#x110;" horiz-adv-x="805" 
d="M561.5 643q81.5 -44 127.5 -122t46 -177t-46 -177.5t-127.5 -122.5t-185.5 -44h-234v326h-76v48h76v313h234q104 0 185.5 -44zM535.5 86q70.5 38 109.5 105t39 153q0 85 -39 152.5t-109.5 105t-159.5 37.5h-184v-265h223l-1 -48h-222v-278h184q89 0 159.5 38z" />
    <glyph glyph-name="dcroat" unicode="&#x111;" horiz-adv-x="592" 
d="M600 590h-73v-590h-49v105q-30 -55 -81.5 -86t-116.5 -31q-64 0 -117.5 36t-85 98.5t-31.5 136.5t31.5 136t85 98t117.5 36q65 0 116.5 -30.5t81.5 -85.5v177h-175v40h175v69h49v-69h73v-40zM387 62.5q43 28.5 67 80t24 116.5t-24 116t-67 79.5t-98 28.5q-53 0 -97 -30
t-70 -81.5t-26 -112.5t26 -113t70 -82t97 -30q55 0 98 28.5z" />
    <glyph glyph-name="Emacron" unicode="&#x112;" horiz-adv-x="625" 
d="M556 638h-414v-264h380v-48h-380v-277h414v-49h-465v687h465v-49zM170 812h310v-42h-310v42z" />
    <glyph glyph-name="emacron" unicode="&#x113;" horiz-adv-x="587" 
d="M404.5 52q49.5 18 78.5 50l32 -34q-32 -35 -92.5 -57.5t-120.5 -22.5q-68 0 -127.5 36.5t-94.5 99t-35 136.5q0 75 34 136.5t92.5 97t128.5 35.5q74 0 129.5 -36t85.5 -102t30 -153h-450q5 -56 33.5 -103t74.5 -74t99 -27t102.5 18zM202 457.5q-45 -25.5 -73.5 -71
t-33.5 -102.5h401q-5 89 -57.5 144t-137.5 55q-54 0 -99 -25.5zM145 642h310v-42h-310v42z" />
    <glyph glyph-name="Edotaccent" unicode="&#x116;" horiz-adv-x="625" 
d="M556 638h-414v-264h380v-48h-380v-277h414v-49h-465v687h465v-49zM299 788.5q-10 10.5 -10 24.5t10 24.5t25 10.5q14 0 24.5 -10.5t10.5 -24.5t-10.5 -24.5t-24.5 -10.5q-15 0 -25 10.5z" />
    <glyph glyph-name="edotaccent" unicode="&#x117;" horiz-adv-x="587" 
d="M404.5 52q49.5 18 78.5 50l32 -34q-32 -35 -92.5 -57.5t-120.5 -22.5q-68 0 -127.5 36.5t-94.5 99t-35 136.5q0 75 34 136.5t92.5 97t128.5 35.5q74 0 129.5 -36t85.5 -102t30 -153h-450q5 -56 33.5 -103t74.5 -74t99 -27t102.5 18zM202 457.5q-45 -25.5 -73.5 -71
t-33.5 -102.5h401q-5 89 -57.5 144t-137.5 55q-54 0 -99 -25.5zM275 618.5q-10 10.5 -10 24.5t10 24.5t25 10.5q14 0 24.5 -10.5t10.5 -24.5t-10.5 -24.5t-24.5 -10.5q-15 0 -25 10.5z" />
    <glyph glyph-name="Eogonek" unicode="&#x118;" horiz-adv-x="625" 
d="M635 -144q-35 -29 -84 -29q-45 0 -73.5 28t-28.5 74q0 43 31 71h-389v687h465v-49h-414v-264h380v-48h-380v-277h414v-49q-30 0 -47 -17.5t-17 -48.5q0 -30 17 -46.5t47 -16.5q36 0 55 21z" />
    <glyph glyph-name="eogonek" unicode="&#x119;" horiz-adv-x="610" 
d="M404.5 52q49.5 18 78.5 50l32 -34q-21 -24 -57 -42.5t-79 -28.5q-16 -18 -16 -47t17 -46t48 -17q36 0 55 21l24 -36q-37 -29 -84 -29q-45 0 -74 28.5t-29 73.5q0 22 10 44q-9 -1 -28 -1q-68 0 -127.5 36.5t-94.5 99t-35 136.5q0 75 34 136.5t92.5 97t128.5 35.5
q74 0 129.5 -36t85.5 -102t30 -153h-450q5 -56 33.5 -103t74.5 -74t99 -27t102.5 18zM202 457.5q-45 -25.5 -73.5 -71t-33.5 -102.5h401q-5 89 -57.5 144t-137.5 55q-54 0 -99 -25.5z" />
    <glyph glyph-name="Ecaron" unicode="&#x11a;" horiz-adv-x="625" 
d="M556 638h-414v-264h380v-48h-380v-277h414v-49h-465v687h465v-49zM194 883h48l82 -99l84 99h48l-106 -137h-52z" />
    <glyph glyph-name="ecaron" unicode="&#x11b;" horiz-adv-x="587" 
d="M404.5 52q49.5 18 78.5 50l32 -34q-32 -35 -92.5 -57.5t-120.5 -22.5q-68 0 -127.5 36.5t-94.5 99t-35 136.5q0 75 34 136.5t92.5 97t128.5 35.5q74 0 129.5 -36t85.5 -102t30 -153h-450q5 -56 33.5 -103t74.5 -74t99 -27t102.5 18zM202 457.5q-45 -25.5 -73.5 -71
t-33.5 -102.5h401q-5 89 -57.5 144t-137.5 55q-54 0 -99 -25.5zM170 713h48l82 -99l84 99h48l-106 -137h-52z" />
    <glyph glyph-name="Gbreve" unicode="&#x11e;" horiz-adv-x="764" 
d="M413 348h275v-256q-51 -48 -121 -76t-144 -28q-93 0 -174 49t-129.5 131t-48.5 176t48.5 176t129.5 130.5t174 48.5q74 0 144.5 -27.5t120.5 -75.5l-35 -35q-44 42 -105 66t-125 24q-81 0 -150.5 -42t-110.5 -112.5t-41 -152.5t41 -153t110.5 -113t150.5 -42q59 0 115 20
t100 56v187h-225v49zM344 774q-38 15 -68 45l33 33q23 -22 52.5 -34.5t60.5 -12.5t61 12.5t52 34.5l33 -33q-29 -29 -67 -44.5t-79 -15.5q-40 0 -78 15z" />
    <glyph glyph-name="gbreve" unicode="&#x11f;" horiz-adv-x="595" 
d="M531 517v-462q0 -66 -31 -117.5t-85.5 -80.5t-124.5 -29q-58 0 -115.5 19.5t-93.5 49.5l23 41q32 -29 82 -46.5t98 -17.5q89 0 143.5 50t54.5 131v106q-29 -59 -83.5 -91t-123.5 -32q-63 0 -116 33t-83.5 89.5t-30.5 123.5t30.5 123.5t83.5 89t116 32.5q70 0 124 -31.5
t83 -91.5v111h49zM385 109.5q45 25.5 71 71t26 103.5q0 57 -26 102.5t-71 71t-100 25.5q-52 0 -95 -26.5t-68.5 -72.5t-25.5 -100q0 -55 25.5 -100.5t68.5 -72.5t95 -27q55 0 100 25.5zM216 604q-38 15 -68 45l33 33q23 -22 52.5 -34.5t60.5 -12.5t61 12.5t52 34.5l33 -33
q-29 -29 -67 -44.5t-79 -15.5q-40 0 -78 15z" />
    <glyph glyph-name="uni0122" unicode="&#x122;" horiz-adv-x="764" 
d="M413 348h275v-256q-51 -48 -121 -76t-144 -28q-93 0 -174 49t-129.5 131t-48.5 176t48.5 176t129.5 130.5t174 48.5q74 0 144.5 -27.5t120.5 -75.5l-35 -35q-44 42 -105 66t-125 24q-81 0 -150.5 -42t-110.5 -112.5t-41 -152.5t41 -153t110.5 -113t150.5 -42q59 0 115 20
t100 56v187h-225v49zM423 -162q-16 0 -26 10t-10 25q0 14 10 24.5t26 10.5q18 0 28.5 -13.5t10.5 -37.5q0 -26 -14.5 -56t-46.5 -71l-28 20q39 46 50 88z" />
    <glyph glyph-name="uni0123" unicode="&#x123;" horiz-adv-x="595" 
d="M266.5 622.5q-10.5 13.5 -10.5 37.5q0 26 14.5 56t46.5 71l28 -20q-39 -46 -50 -88q16 0 26 -10t10 -25q0 -14 -10 -24.5t-26 -10.5q-18 0 -28.5 13.5zM531 517v-462q0 -66 -31 -117.5t-85.5 -80.5t-124.5 -29q-58 0 -115.5 19.5t-93.5 49.5l23 41q32 -29 82 -46.5
t98 -17.5q89 0 143.5 50t54.5 131v106q-29 -59 -83.5 -91t-123.5 -32q-63 0 -116 33t-83.5 89.5t-30.5 123.5t30.5 123.5t83.5 89t116 32.5q70 0 124 -31.5t83 -91.5v111h49zM385 109.5q45 25.5 71 71t26 103.5q0 57 -26 102.5t-71 71t-100 25.5q-52 0 -95 -26.5
t-68.5 -72.5t-25.5 -100q0 -55 25.5 -100.5t68.5 -72.5t95 -27q55 0 100 25.5z" />
    <glyph glyph-name="Imacron" unicode="&#x12a;" horiz-adv-x="233" 
d="M91 687h50v-687h-50v687zM-38 812h310v-42h-310v42z" />
    <glyph glyph-name="imacron" unicode="&#x12b;" horiz-adv-x="178" 
d="M64 517h49v-517h-49v517zM-66 642h310v-42h-310v42z" />
    <glyph glyph-name="Iogonek" unicode="&#x12e;" horiz-adv-x="233" 
d="M220 -144q-35 -29 -84 -29q-45 0 -73.5 28t-28.5 74q0 30 15.5 53.5t41.5 33.5v671h50v-687q-30 0 -47 -17.5t-17 -48.5q0 -30 17 -46.5t47 -16.5q36 0 55 21z" />
    <glyph glyph-name="iogonek" unicode="&#x12f;" horiz-adv-x="178" 
d="M64 618.5q-10 10.5 -10 24.5t10 24.5t25 10.5q14 0 24.5 -10.5t10.5 -24.5t-10.5 -24.5t-24.5 -10.5q-15 0 -25 10.5zM192 -144q-35 -29 -84 -29q-45 0 -73.5 28t-28.5 74q0 30 16 54t42 33v501h49v-517q-30 0 -47 -17.5t-17 -48.5q0 -30 17 -46.5t47 -16.5q36 0 55 21z
" />
    <glyph glyph-name="Idotaccent" unicode="&#x130;" horiz-adv-x="233" 
d="M91 687h50v-687h-50v687zM91 788.5q-10 10.5 -10 24.5t10 24.5t25 10.5q14 0 24.5 -10.5t10.5 -24.5t-10.5 -24.5t-24.5 -10.5q-15 0 -25 10.5z" />
    <glyph glyph-name="dotlessi" unicode="&#x131;" horiz-adv-x="178" 
d="M64 517h49v-517h-49v517z" />
    <glyph glyph-name="uni0136" unicode="&#x136;" horiz-adv-x="671" 
d="M91 687h50v-413l379 413h66l-286 -312l307 -375h-64l-278 339l-124 -134v-205h-50v687zM349 -162q-16 0 -26 10t-10 25q0 14 10 24.5t26 10.5q18 0 28.5 -13.5t10.5 -37.5q0 -26 -14.5 -56t-46.5 -71l-28 20q39 46 50 88z" />
    <glyph glyph-name="uni0137" unicode="&#x137;" horiz-adv-x="529" 
d="M65 699h49v-498l311 316h65l-232 -237l220 -280h-62l-192 246l-110 -111v-135h-49v699zM247 -162q-16 0 -26 10t-10 25q0 14 10 24.5t26 10.5q18 0 28.5 -13.5t10.5 -37.5q0 -26 -14.5 -56t-46.5 -71l-28 20q39 46 50 88z" />
    <glyph glyph-name="Lacute" unicode="&#x139;" horiz-adv-x="596" 
d="M141 49h389v-49h-439v687h50v-638zM213 889l54 -12l-126 -131h-51z" />
    <glyph glyph-name="lacute" unicode="&#x13a;" horiz-adv-x="179" 
d="M65 699h49v-699h-49v699zM186 901l54 -12l-126 -131h-51z" />
    <glyph glyph-name="Lcaron" unicode="&#x13d;" horiz-adv-x="596" 
d="M141 49h389v-49h-439v687h50v-638zM250 629q-16 0 -26 10t-10 25q0 14 10 24.5t26 10.5q18 0 28.5 -13.5t10.5 -37.5q0 -26 -14.5 -56t-46.5 -71l-28 20q39 46 50 88z" />
    <glyph glyph-name="lcaron" unicode="&#x13e;" horiz-adv-x="216" 
d="M65 699h49v-699h-49v699zM227 629q-16 0 -26 10t-10 25t10.5 25t25.5 10q18 0 28.5 -13.5t10.5 -37.5q0 -26 -14.5 -56t-46.5 -71l-28 20q39 46 50 88z" />
    <glyph glyph-name="Lslash" unicode="&#x141;" horiz-adv-x="695" 
d="M240 49h389v-49h-439v310l-124 -64v52l124 64v325h50v-299l125 64v-52l-125 -64v-287z" />
    <glyph glyph-name="lslash" unicode="&#x142;" horiz-adv-x="290" 
d="M249 403v-52l-80 -41v-310h-49v285l-79 -41v52l79 41v362h49v-337z" />
    <glyph glyph-name="Nacute" unicode="&#x143;" horiz-adv-x="737" 
d="M91 687h50l454 -607v607h50v-687h-50l-454 607v-607h-50v687zM464 889l54 -12l-126 -131h-51z" />
    <glyph glyph-name="nacute" unicode="&#x144;" 
d="M383.5 504.5q44.5 -24.5 69 -68.5t24.5 -100v-336h-49v329q0 67 -42.5 110.5t-108.5 43.5q-46 0 -83.5 -20t-59 -55t-21.5 -78v-330h-49v517h49v-88q20 45 66 72.5t104 27.5q56 0 100.5 -24.5zM367 719l54 -12l-126 -131h-51z" />
    <glyph glyph-name="uni0145" unicode="&#x145;" horiz-adv-x="737" 
d="M91 687h50l454 -607v607h50v-687h-50l-454 607v-607h-50v687zM368 -162q-16 0 -26 10t-10 25q0 14 10 24.5t26 10.5q18 0 28.5 -13.5t10.5 -37.5q0 -26 -14.5 -56t-46.5 -71l-28 20q39 46 50 88z" />
    <glyph glyph-name="uni0146" unicode="&#x146;" 
d="M383.5 504.5q44.5 -24.5 69 -68.5t24.5 -100v-336h-49v329q0 67 -42.5 110.5t-108.5 43.5q-46 0 -83.5 -20t-59 -55t-21.5 -78v-330h-49v517h49v-88q20 45 66 72.5t104 27.5q56 0 100.5 -24.5zM271 -162q-16 0 -26 10t-10 25q0 14 10 24.5t26 10.5q18 0 28.5 -13.5
t10.5 -37.5q0 -26 -14.5 -56t-46.5 -71l-28 20q39 46 50 88z" />
    <glyph glyph-name="Ncaron" unicode="&#x147;" horiz-adv-x="737" 
d="M91 687h50l454 -607v607h50v-687h-50l-454 607v-607h-50v687zM238 883h48l82 -99l84 99h48l-106 -137h-52z" />
    <glyph glyph-name="ncaron" unicode="&#x148;" 
d="M383.5 504.5q44.5 -24.5 69 -68.5t24.5 -100v-336h-49v329q0 67 -42.5 110.5t-108.5 43.5q-46 0 -83.5 -20t-59 -55t-21.5 -78v-330h-49v517h49v-88q20 45 66 72.5t104 27.5q56 0 100.5 -24.5zM141 713h48l82 -99l84 99h48l-106 -137h-52z" />
    <glyph glyph-name="Omacron" unicode="&#x14c;" horiz-adv-x="844" 
d="M249 37q-81 49 -129.5 131t-48.5 176t48.5 176t129.5 130.5t174 48.5t174 -48.5t129 -130.5t48 -176t-48 -176t-129 -131t-174 -49t-174 49zM572 78q69 42 110 113t41 153t-41 152.5t-110 112.5t-149 42q-81 0 -150.5 -42t-110.5 -112.5t-41 -152.5t41 -153t110.5 -113
t150.5 -42q80 0 149 42zM268 812h310v-42h-310v42z" />
    <glyph glyph-name="omacron" unicode="&#x14d;" horiz-adv-x="624" 
d="M179.5 25q-61.5 37 -98 99t-36.5 135t36.5 135t98 98.5t133.5 36.5q71 0 132.5 -36.5t97.5 -98.5t36 -135t-36 -135t-97.5 -99t-132.5 -37q-72 0 -133.5 37zM420.5 64.5q49.5 30.5 79 82.5t29.5 112t-29.5 111.5t-79 82t-107.5 30.5t-108.5 -30.5t-80 -82t-29.5 -111.5
t29.5 -112t80 -82.5t108.5 -30.5t107.5 30.5zM158 642h310v-42h-310v42z" />
    <glyph glyph-name="Ohungarumlaut" unicode="&#x150;" horiz-adv-x="844" 
d="M249 37q-81 49 -129.5 131t-48.5 176t48.5 176t129.5 130.5t174 48.5t174 -48.5t129 -130.5t48 -176t-48 -176t-129 -131t-174 -49t-174 49zM572 78q69 42 110 113t41 153t-41 152.5t-110 112.5t-149 42q-81 0 -150.5 -42t-110.5 -112.5t-41 -152.5t41 -153t110.5 -113
t150.5 -42q80 0 149 42zM432 889l53 -12l-126 -131h-51zM609 888l54 -12l-126 -130h-52z" />
    <glyph glyph-name="ohungarumlaut" unicode="&#x151;" horiz-adv-x="624" 
d="M179.5 25q-61.5 37 -98 99t-36.5 135t36.5 135t98 98.5t133.5 36.5q71 0 132.5 -36.5t97.5 -98.5t36 -135t-36 -135t-97.5 -99t-132.5 -37q-72 0 -133.5 37zM420.5 64.5q49.5 30.5 79 82.5t29.5 112t-29.5 111.5t-79 82t-107.5 30.5t-108.5 -30.5t-80 -82t-29.5 -111.5
t29.5 -112t80 -82.5t108.5 -30.5t107.5 30.5zM322 719l53 -12l-126 -131h-51zM499 718l54 -12l-126 -130h-52z" />
    <glyph glyph-name="OE" unicode="&#x152;" horiz-adv-x="1036" 
d="M119 515q48 79 129 125.5t175 46.5h545v-49h-415v-264h380v-48h-380v-277h415v-49h-545q-95 0 -175.5 45t-128.5 123.5t-48 172.5q0 95 48 174zM162 192q41 -67 110.5 -105.5t150.5 -38.5h80v591h-80q-81 0 -150.5 -40t-110.5 -108.5t-41 -149.5q0 -82 41 -149z" />
    <glyph glyph-name="oe" unicode="&#x153;" horiz-adv-x="1071" 
d="M888.5 52q49.5 18 78.5 50l32 -34q-32 -35 -92.5 -57.5t-120.5 -22.5q-75 0 -138.5 44t-94.5 115q-31 -70 -97 -114.5t-143 -44.5q-72 0 -133.5 37t-98 99.5t-36.5 135.5t36.5 134.5t98 98t133.5 36.5q78 0 143 -43t97 -113q30 70 92.5 113t138.5 43q74 0 129.5 -36
t85.5 -102t30 -153h-449q5 -56 33.5 -103t74 -74t98.5 -27t102.5 18zM420.5 65q49.5 31 79 83t29.5 112t-29.5 111t-79 81.5t-107.5 30.5q-59 0 -109 -30t-79.5 -81.5t-29.5 -111.5t29.5 -112t80 -83t108.5 -31t107.5 31zM686.5 457.5q-44.5 -25.5 -73 -71t-33.5 -102.5h400
q-5 89 -57.5 144t-137.5 55q-54 0 -98.5 -25.5z" />
    <glyph glyph-name="Racute" unicode="&#x154;" horiz-adv-x="689" 
d="M588.5 363.5q-31.5 -48.5 -86.5 -76t-124 -27.5l182 -260h-59l-182 260h-178v-260h-50v687h286q69 0 124.5 -27t87 -75.5t31.5 -110.5t-31.5 -110.5zM472.5 329.5q45.5 20.5 71.5 58t26 86.5q0 48 -26 85.5t-71.5 58t-104.5 20.5h-227v-329h227q59 0 104.5 20.5zM401 889
l54 -12l-126 -131h-51z" />
    <glyph glyph-name="racute" unicode="&#x155;" horiz-adv-x="353" 
d="M187.5 494q54.5 35 125.5 35v-46q-58 0 -103.5 -25t-71 -69t-25.5 -100v-289h-49v517h49v-113q20 55 74.5 90zM282 719l54 -12l-126 -131h-51z" />
    <glyph glyph-name="uni0156" unicode="&#x156;" horiz-adv-x="689" 
d="M588.5 363.5q-31.5 -48.5 -86.5 -76t-124 -27.5l182 -260h-59l-182 260h-178v-260h-50v687h286q69 0 124.5 -27t87 -75.5t31.5 -110.5t-31.5 -110.5zM472.5 329.5q45.5 20.5 71.5 58t26 86.5q0 48 -26 85.5t-71.5 58t-104.5 20.5h-227v-329h227q59 0 104.5 20.5z
M305 -162q-16 0 -26 10t-10 25q0 14 10 24.5t26 10.5q18 0 28.5 -13.5t10.5 -37.5q0 -26 -14.5 -56t-46.5 -71l-28 20q39 46 50 88z" />
    <glyph glyph-name="uni0157" unicode="&#x157;" horiz-adv-x="353" 
d="M187.5 494q54.5 35 125.5 35v-46q-58 0 -103.5 -25t-71 -69t-25.5 -100v-289h-49v517h49v-113q20 55 74.5 90zM186 -162q-16 0 -26 10t-10 25q0 14 10 24.5t26 10.5q18 0 28.5 -13.5t10.5 -37.5q0 -26 -14.5 -56t-46.5 -71l-28 20q39 46 50 88z" />
    <glyph glyph-name="Rcaron" unicode="&#x158;" horiz-adv-x="689" 
d="M588.5 363.5q-31.5 -48.5 -86.5 -76t-124 -27.5l182 -260h-59l-182 260h-178v-260h-50v687h286q69 0 124.5 -27t87 -75.5t31.5 -110.5t-31.5 -110.5zM472.5 329.5q45.5 20.5 71.5 58t26 86.5q0 48 -26 85.5t-71.5 58t-104.5 20.5h-227v-329h227q59 0 104.5 20.5zM175 883
h48l82 -99l84 99h48l-106 -137h-52z" />
    <glyph glyph-name="rcaron" unicode="&#x159;" horiz-adv-x="353" 
d="M187.5 494q54.5 35 125.5 35v-46q-58 0 -103.5 -25t-71 -69t-25.5 -100v-289h-49v517h49v-113q20 55 74.5 90zM56 713h48l82 -99l84 99h48l-106 -137h-52z" />
    <glyph glyph-name="Sacute" unicode="&#x15a;" horiz-adv-x="640" 
d="M187.5 17.5q-70.5 28.5 -122.5 80.5l31 39q47 -47 109.5 -73.5t131.5 -26.5q55 0 96.5 18t64.5 50t23 71q0 56 -47 90t-154 59q-118 27 -171.5 67.5t-53.5 111.5q0 56 29 100.5t80 70t115 25.5q66 0 126.5 -25.5t111.5 -72.5l-31 -39q-44 42 -98.5 65.5t-111.5 23.5
q-49 0 -88 -19t-60.5 -51.5t-21.5 -73.5q0 -50 46.5 -80t152.5 -56q117 -28 171.5 -72t54.5 -120q0 -54 -29 -97.5t-82 -68.5t-124 -25q-78 0 -148.5 28.5zM424 889l54 -12l-126 -131h-51z" />
    <glyph glyph-name="sacute" unicode="&#x15b;" horiz-adv-x="478" 
d="M141 8.5q-57 20.5 -102 56.5l28 37q45 -32 93 -50t93 -18q56 0 94.5 26.5t38.5 64.5q0 42 -34 68t-109 48q-93 29 -132.5 63t-39.5 86q0 39 23.5 71t63 50t87.5 18q46 0 94 -15.5t91 -42.5l-27 -38q-37 24 -78.5 37t-79.5 13q-52 0 -88.5 -25t-36.5 -62t33.5 -61.5
t113.5 -49.5q87 -27 127.5 -61.5t40.5 -92.5q0 -40 -24.5 -72.5t-66.5 -51.5t-91 -19q-55 0 -112 20.5zM342 719l54 -12l-126 -131h-51z" />
    <glyph glyph-name="Scedilla" unicode="&#x15e;" horiz-adv-x="640" 
d="M543.5 84q-27.5 -43 -79 -68.5t-119.5 -26.5l-15 -35q4 1 13 1q29 0 48 -18.5t19 -46.5q0 -34 -27.5 -58t-66.5 -24q-22 0 -44 7.5t-39 20.5l16 36q29 -24 66 -24q22 0 38 13t16 31q0 15 -11.5 25t-29.5 10q-9 0 -18.5 -3t-15.5 -8l-16 17l24 57q-69 6 -129.5 33.5
t-107.5 74.5l31 39q47 -47 109.5 -73.5t131.5 -26.5q55 0 96.5 18t64.5 50t23 71q0 56 -47 90t-154 59q-118 27 -171.5 67.5t-53.5 111.5q0 56 29 100.5t80 70t115 25.5q66 0 126.5 -25.5t111.5 -72.5l-31 -39q-44 42 -98.5 65.5t-111.5 23.5q-49 0 -88 -19t-60.5 -51.5
t-21.5 -73.5q0 -50 46.5 -80t152.5 -56q117 -28 171.5 -72t54.5 -120q0 -53 -27.5 -96z" />
    <glyph glyph-name="scedilla" unicode="&#x15f;" horiz-adv-x="478" 
d="M411 59.5q-24 -32.5 -64.5 -51.5t-89.5 -20l-14 -34q4 1 13 1q29 0 48 -18.5t19 -46.5q0 -34 -27.5 -58t-66.5 -24q-22 0 -44 7.5t-39 20.5l16 36q29 -24 66 -24q22 0 38 13t16 31q0 15 -11.5 25t-29.5 10q-9 0 -18.5 -3t-15.5 -8l-16 17l24 57q-47 6 -92.5 25.5
t-83.5 49.5l28 37q45 -32 93 -50t93 -18q56 0 94.5 26.5t38.5 64.5q0 42 -34 68t-109 48q-93 29 -132.5 63t-39.5 86q0 39 23.5 71t63 50t87.5 18q46 0 94 -15.5t91 -42.5l-27 -38q-37 24 -78.5 37t-79.5 13q-52 0 -88.5 -25t-36.5 -62t33.5 -61.5t113.5 -49.5
q87 -27 127.5 -61.5t40.5 -92.5q0 -39 -24 -71.5z" />
    <glyph glyph-name="Scaron" unicode="&#x160;" horiz-adv-x="640" 
d="M187.5 17.5q-70.5 28.5 -122.5 80.5l31 39q47 -47 109.5 -73.5t131.5 -26.5q55 0 96.5 18t64.5 50t23 71q0 56 -47 90t-154 59q-118 27 -171.5 67.5t-53.5 111.5q0 56 29 100.5t80 70t115 25.5q66 0 126.5 -25.5t111.5 -72.5l-31 -39q-44 42 -98.5 65.5t-111.5 23.5
q-49 0 -88 -19t-60.5 -51.5t-21.5 -73.5q0 -50 46.5 -80t152.5 -56q117 -28 171.5 -72t54.5 -120q0 -54 -29 -97.5t-82 -68.5t-124 -25q-78 0 -148.5 28.5zM198 883h48l82 -99l84 99h48l-106 -137h-52z" />
    <glyph glyph-name="scaron" unicode="&#x161;" horiz-adv-x="478" 
d="M141 8.5q-57 20.5 -102 56.5l28 37q45 -32 93 -50t93 -18q56 0 94.5 26.5t38.5 64.5q0 42 -34 68t-109 48q-93 29 -132.5 63t-39.5 86q0 39 23.5 71t63 50t87.5 18q46 0 94 -15.5t91 -42.5l-27 -38q-37 24 -78.5 37t-79.5 13q-52 0 -88.5 -25t-36.5 -62t33.5 -61.5
t113.5 -49.5q87 -27 127.5 -61.5t40.5 -92.5q0 -40 -24.5 -72.5t-66.5 -51.5t-91 -19q-55 0 -112 20.5zM116 713h48l82 -99l84 99h48l-106 -137h-52z" />
    <glyph glyph-name="uni0162" unicode="&#x162;" horiz-adv-x="671" 
d="M356 0l-19 -46q4 1 13 1q29 0 48 -18.5t19 -46.5q0 -34 -27.5 -58t-66.5 -24q-22 0 -44 7.5t-39 20.5l16 36q29 -24 66 -24q22 0 38 13t16 31q0 15 -11.5 25t-29.5 10q-9 0 -18.5 -3t-15.5 -8l-16 17l28 67h-2v638h-245v49h540v-49h-245v-638h-5z" />
    <glyph glyph-name="uni0163" unicode="&#x163;" horiz-adv-x="375" 
d="M304 -63.5q19 -18.5 19 -46.5q0 -34 -27.5 -58t-66.5 -24q-22 0 -44 7.5t-39 20.5l16 36q29 -24 66 -24q22 0 38 13t16 31q0 15 -11.5 25t-29.5 10q-9 0 -18.5 -3t-15.5 -8l-16 17l24 58q-39 9 -63 44t-24 85v351h-88v46h88v142h49v-142h133v-46h-133v-351
q0 -37 18.5 -61.5t47.5 -24.5q18 0 36 6.5t32 18.5l25 -38q-36 -27 -78 -32l-15 -35q4 1 13 1q29 0 48 -18.5z" />
    <glyph glyph-name="Tcaron" unicode="&#x164;" horiz-adv-x="671" 
d="M311 638h-245v49h540v-49h-245v-638h-50v638zM206 883h48l82 -99l84 99h48l-106 -137h-52z" />
    <glyph glyph-name="tcaron" unicode="&#x165;" horiz-adv-x="409" 
d="M429.5 685.5q10.5 -13.5 10.5 -37.5q0 -25 -14 -55.5t-46 -71.5l-28 20q38 44 49 88q-16 0 -26 10t-10 25q0 14 10.5 24.5t25.5 10.5q18 0 28.5 -13.5zM279 40.5q18 6.5 32 18.5l25 -38q-42 -33 -96 -33q-49 0 -80.5 37t-31.5 95v351h-88v46h88v142h49v-142h133v-46h-133
v-351q0 -37 18.5 -61.5t47.5 -24.5q18 0 36 6.5z" />
    <glyph glyph-name="Umacron" unicode="&#x16a;" horiz-adv-x="713" 
d="M215 24.5q-62 36.5 -97 101t-35 146.5v415h50v-415q0 -68 28.5 -122t79.5 -84t115 -30q65 0 115.5 30t79 84t28.5 122v415h50v-415q0 -82 -35 -146.5t-97 -101t-141 -36.5t-141 36.5zM202 812h310v-42h-310v42z" />
    <glyph glyph-name="umacron" unicode="&#x16b;" 
d="M470 517v-517h-49v87q-20 -45 -65.5 -72t-104.5 -27q-56 0 -100 24.5t-68.5 68.5t-24.5 100v336h49v-329q0 -68 42 -111t109 -43q46 0 83.5 20t58.5 55t21 78v330h49zM103 642h310v-42h-310v42z" />
    <glyph glyph-name="Uring" unicode="&#x16e;" horiz-adv-x="713" 
d="M215 24.5q-62 36.5 -97 101t-35 146.5v415h50v-415q0 -68 28.5 -122t79.5 -84t115 -30q65 0 115.5 30t79 84t28.5 122v415h50v-415q0 -82 -35 -146.5t-97 -101t-141 -36.5t-141 36.5zM283.5 789.5q-30.5 30.5 -30.5 72.5t30.5 72.5t72.5 30.5t72.5 -30.5t30.5 -72.5
t-30.5 -72.5t-72.5 -30.5t-72.5 30.5zM402 816q20 20 20 46t-20 46t-46 20t-46 -20t-20 -46t20 -46t46 -20t46 20z" />
    <glyph glyph-name="uring" unicode="&#x16f;" 
d="M470 517v-517h-49v87q-20 -45 -65.5 -72t-104.5 -27q-56 0 -100 24.5t-68.5 68.5t-24.5 100v336h49v-329q0 -68 42 -111t109 -43q46 0 83.5 20t58.5 55t21 78v330h49zM185.5 619.5q-30.5 30.5 -30.5 72.5t30.5 72.5t72.5 30.5t72.5 -30.5t30.5 -72.5t-30.5 -72.5
t-72.5 -30.5t-72.5 30.5zM304 646q20 20 20 46t-20 46t-46 20t-46 -20t-20 -46t20 -46t46 -20t46 20z" />
    <glyph glyph-name="Uhungarumlaut" unicode="&#x170;" horiz-adv-x="713" 
d="M215 24.5q-62 36.5 -97 101t-35 146.5v415h50v-415q0 -68 28.5 -122t79.5 -84t115 -30q65 0 115.5 30t79 84t28.5 122v415h50v-415q0 -82 -35 -146.5t-97 -101t-141 -36.5t-141 36.5zM365 889l53 -12l-126 -131h-51zM542 888l54 -12l-126 -130h-52z" />
    <glyph glyph-name="uhungarumlaut" unicode="&#x171;" 
d="M470 517v-517h-49v87q-20 -45 -65.5 -72t-104.5 -27q-56 0 -100 24.5t-68.5 68.5t-24.5 100v336h49v-329q0 -68 42 -111t109 -43q46 0 83.5 20t58.5 55t21 78v330h49zM267 719l53 -12l-126 -131h-51zM444 718l54 -12l-126 -130h-52z" />
    <glyph glyph-name="Uogonek" unicode="&#x172;" horiz-adv-x="713" 
d="M629 687v-415q0 -82 -35 -146.5t-97 -101t-141 -36.5q-30 0 -47 -17.5t-17 -48.5q0 -30 17 -46.5t47 -16.5q36 0 55 21l24 -36q-35 -29 -84 -29q-45 0 -73.5 28t-28.5 74q0 24 11 45t29 33q-94 21 -150 96t-56 181v415h50v-415q0 -68 28.5 -122t79.5 -84t115 -30
q65 0 115.5 30t79 84t28.5 122v415h50z" />
    <glyph glyph-name="uogonek" unicode="&#x173;" 
d="M549 -144q-35 -29 -84 -29q-45 0 -73.5 28t-28.5 74q0 30 16 54t42 33v71q-20 -45 -65.5 -72t-104.5 -27q-56 0 -100 24.5t-68.5 68.5t-24.5 100v336h49v-329q0 -68 42 -111t109 -43q46 0 83.5 20t58.5 55t21 78v330h49v-517q-30 0 -47 -17.5t-17 -48.5q0 -30 17 -46.5
t47 -16.5q36 0 55 21z" />
    <glyph glyph-name="Wcircumflex" unicode="&#x174;" horiz-adv-x="1105" 
d="M65 687h55l204 -605l201 605h55l201 -605l204 605h55l-232 -687h-51l-204 614l-205 -614h-51zM527 883h52l106 -137h-48l-84 99l-82 -99h-48z" />
    <glyph glyph-name="wcircumflex" unicode="&#x175;" horiz-adv-x="818" 
d="M40 517h51l146 -452l151 452h42l150 -452l147 452h51l-171 -517h-54l-144 438l-145 -438h-54zM383 713h52l106 -137h-48l-84 99l-82 -99h-48z" />
    <glyph glyph-name="Ycircumflex" unicode="&#x176;" horiz-adv-x="737" 
d="M343 279l-279 408h63l242 -356l242 356h62l-279 -408v-279h-51v279zM343 883h52l106 -137h-48l-84 99l-82 -99h-48z" />
    <glyph glyph-name="ycircumflex" unicode="&#x177;" horiz-adv-x="576" 
d="M62 -163l13 46q34 -16 68 -16q66 0 93 48l31 70l-228 532h53l201 -471l191 471h53l-240 -587q-23 -56 -60.5 -82.5t-92.5 -27.5q-45 0 -82 17zM267 713h52l106 -137h-48l-84 99l-82 -99h-48z" />
    <glyph glyph-name="Ydieresis" unicode="&#x178;" horiz-adv-x="737" 
d="M343 279l-279 408h63l242 -356l242 356h62l-279 -408v-279h-51v279zM248 788.5q-10 10.5 -10 24.5t10 24.5t25 10.5q14 0 24.5 -10.5t10.5 -24.5t-10.5 -24.5t-24.5 -10.5q-15 0 -25 10.5zM440 788.5q-10 10.5 -10 24.5t10 24.5t25 10.5q14 0 24.5 -10.5t10.5 -24.5
t-10.5 -24.5t-24.5 -10.5q-15 0 -25 10.5z" />
    <glyph glyph-name="Zacute" unicode="&#x179;" horiz-adv-x="648" 
d="M68 41l442 597h-435v49h500v-41l-443 -597h447v-49h-511v41zM420 889l54 -12l-126 -131h-51z" />
    <glyph glyph-name="zacute" unicode="&#x17a;" horiz-adv-x="494" 
d="M43 40l341 429h-335v48h400v-40l-341 -429h343v-48h-408v40zM346 719l54 -12l-126 -131h-51z" />
    <glyph glyph-name="Zdotaccent" unicode="&#x17b;" horiz-adv-x="648" 
d="M68 41l442 597h-435v49h500v-41l-443 -597h447v-49h-511v41zM299 788.5q-10 10.5 -10 24.5t10 24.5t25 10.5q14 0 24.5 -10.5t10.5 -24.5t-10.5 -24.5t-24.5 -10.5q-15 0 -25 10.5z" />
    <glyph glyph-name="zdotaccent" unicode="&#x17c;" horiz-adv-x="494" 
d="M43 40l341 429h-335v48h400v-40l-341 -429h343v-48h-408v40zM225 618.5q-10 10.5 -10 24.5t10 24.5t25 10.5q14 0 24.5 -10.5t10.5 -24.5t-10.5 -24.5t-24.5 -10.5q-15 0 -25 10.5z" />
    <glyph glyph-name="Zcaron" unicode="&#x17d;" horiz-adv-x="648" 
d="M68 41l442 597h-435v49h500v-41l-443 -597h447v-49h-511v41zM194 883h48l82 -99l84 99h48l-106 -137h-52z" />
    <glyph glyph-name="zcaron" unicode="&#x17e;" horiz-adv-x="494" 
d="M43 40l341 429h-335v48h400v-40l-341 -429h343v-48h-408v40zM120 713h48l82 -99l84 99h48l-106 -137h-52z" />
    <glyph glyph-name="uni0237" unicode="&#x237;" horiz-adv-x="179" 
d="M-42.5 -173.5q-22.5 4.5 -37.5 11.5l8 43q14 -5 33.5 -9t36.5 -4q29 0 48 22.5t19 56.5v570h49v-570q0 -55 -32 -90t-81 -35q-21 0 -43.5 4.5z" />
    <glyph glyph-name="circumflex" unicode="&#x2c6;" horiz-adv-x="346" 
d="M146 713h52l106 -137h-48l-84 99l-82 -99h-48z" />
    <glyph glyph-name="caron" unicode="&#x2c7;" horiz-adv-x="346" 
d="M42 713h48l82 -99l84 99h48l-106 -137h-52z" />
    <glyph glyph-name="breve" unicode="&#x2d8;" horiz-adv-x="377" 
d="M110 604q-38 15 -68 45l33 33q23 -22 52.5 -34.5t60.5 -12.5t61 12.5t52 34.5l33 -33q-29 -29 -67 -44.5t-79 -15.5q-40 0 -78 15z" />
    <glyph glyph-name="dotaccent" unicode="&#x2d9;" horiz-adv-x="174" 
d="M62 618.5q-10 10.5 -10 24.5t10 24.5t25 10.5q14 0 24.5 -10.5t10.5 -24.5t-10.5 -24.5t-24.5 -10.5q-15 0 -25 10.5z" />
    <glyph glyph-name="ring" unicode="&#x2da;" horiz-adv-x="302" 
d="M78.5 619.5q-30.5 30.5 -30.5 72.5t30.5 72.5t72.5 30.5t72.5 -30.5t30.5 -72.5t-30.5 -72.5t-72.5 -30.5t-72.5 30.5zM197 646q20 20 20 46t-20 46t-46 20t-46 -20t-20 -46t20 -46t46 -20t46 20z" />
    <glyph glyph-name="ogonek" unicode="&#x2db;" horiz-adv-x="276" 
d="M77.5 -145q-28.5 28 -28.5 74q0 34 20 59.5t51 31.5l36 -20q-30 0 -47 -17.5t-17 -48.5q0 -30 17 -46.5t47 -16.5q36 0 55 21l24 -36q-35 -29 -84 -29q-45 0 -73.5 28z" />
    <glyph glyph-name="tilde" unicode="&#x2dc;" horiz-adv-x="409" 
d="M232.5 591q-15.5 9 -40.5 28q-17 15 -28 22t-24 7q-20 0 -34 -19.5t-20 -55.5l-39 7q7 54 31 83t62 29q21 0 36.5 -9t40.5 -28q17 -15 28 -22t24 -7q39 0 53 75l39 -7q-7 -54 -30.5 -83t-61.5 -29q-21 0 -36.5 9z" />
    <glyph glyph-name="hungarumlaut" unicode="&#x2dd;" horiz-adv-x="437" 
d="M165 719l53 -12l-126 -131h-51zM342 718l54 -12l-126 -130h-52z" />
    <glyph glyph-name="uni0307" unicode="&#x307;" horiz-adv-x="0" 
d="M-114.5 635q-10.5 11 -10.5 26t10.5 25.5t26.5 10.5q15 0 25.5 -11t10.5 -25q0 -15 -10.5 -26t-25.5 -11q-16 0 -26.5 11z" />
    <glyph glyph-name="uni0326" unicode="&#x326;" horiz-adv-x="0" 
d="M-87 -162q-16 0 -26 10t-10 25q0 14 10 24.5t26 10.5q18 0 28.5 -13.5t10.5 -37.5q0 -26 -14.5 -56t-46.5 -71l-28 20q39 46 50 88z" />
    <glyph glyph-name="Wgrave" unicode="&#x1e80;" horiz-adv-x="1105" 
d="M65 687h55l204 -605l201 605h55l201 -605l204 605h55l-232 -687h-51l-204 614l-205 -614h-51zM401 877l54 12l124 -143h-52z" />
    <glyph glyph-name="wgrave" unicode="&#x1e81;" horiz-adv-x="819" 
d="M40 517h51l146 -452l151 452h42l150 -452l147 452h51l-171 -517h-54l-144 438l-145 -438h-54zM247 707l54 12l124 -143h-52z" />
    <glyph glyph-name="Wacute" unicode="&#x1e82;" horiz-adv-x="1105" 
d="M65 687h55l204 -605l201 605h55l201 -605l204 605h55l-232 -687h-51l-204 614l-205 -614h-51zM649 889l54 -12l-126 -131h-51z" />
    <glyph glyph-name="wacute" unicode="&#x1e83;" horiz-adv-x="818" 
d="M40 517h51l146 -452l151 452h42l150 -452l147 452h51l-171 -517h-54l-144 438l-145 -438h-54zM505 719l54 -12l-126 -131h-51z" />
    <glyph glyph-name="Wdieresis" unicode="&#x1e84;" horiz-adv-x="1105" 
d="M65 687h55l204 -605l201 605h55l201 -605l204 605h55l-232 -687h-51l-204 614l-205 -614h-51zM432 788.5q-10 10.5 -10 24.5t10 24.5t25 10.5q14 0 24.5 -10.5t10.5 -24.5t-10.5 -24.5t-24.5 -10.5q-15 0 -25 10.5zM624 788.5q-10 10.5 -10 24.5t10 24.5t25 10.5
q14 0 24.5 -10.5t10.5 -24.5t-10.5 -24.5t-24.5 -10.5q-15 0 -25 10.5z" />
    <glyph glyph-name="wdieresis" unicode="&#x1e85;" horiz-adv-x="818" 
d="M40 517h51l146 -452l151 452h42l150 -452l147 452h51l-171 -517h-54l-144 438l-145 -438h-54zM288 618.5q-10 10.5 -10 24.5t10 24.5t25 10.5q14 0 24.5 -10.5t10.5 -24.5t-10.5 -24.5t-24.5 -10.5q-15 0 -25 10.5zM480 618.5q-10 10.5 -10 24.5t10 24.5t25 10.5
q14 0 24.5 -10.5t10.5 -24.5t-10.5 -24.5t-24.5 -10.5q-15 0 -25 10.5z" />
    <glyph glyph-name="uni1EB8" unicode="&#x1eb8;" horiz-adv-x="625" 
d="M296 -151.5q-10 10.5 -10 24.5t10 24.5t25 10.5q14 0 24.5 -10.5t10.5 -24.5t-10.5 -24.5t-24.5 -10.5q-15 0 -25 10.5zM556 638h-414v-264h380v-48h-380v-277h414v-49h-465v687h465v-49z" />
    <glyph glyph-name="uni1EB9" unicode="&#x1eb9;" horiz-adv-x="610" 
d="M404.5 52q49.5 18 78.5 50l32 -34q-32 -35 -92.5 -57.5t-120.5 -22.5q-68 0 -127.5 36.5t-94.5 99t-35 136.5q0 75 34 136.5t92.5 97t128.5 35.5q74 0 129.5 -36t85.5 -102t30 -153h-450q5 -56 33.5 -103t74.5 -74t99 -27t102.5 18zM202 457.5q-45 -25.5 -73.5 -71
t-33.5 -102.5h401q-5 89 -57.5 144t-137.5 55q-54 0 -99 -25.5zM265 -151.5q-10 10.5 -10 24.5t10 24.5t25 10.5q14 0 24.5 -10.5t10.5 -24.5t-10.5 -24.5t-24.5 -10.5q-15 0 -25 10.5z" />
    <glyph glyph-name="uni1EBC" unicode="&#x1ebc;" horiz-adv-x="625" 
d="M556 638h-414v-264h380v-48h-380v-277h414v-49h-465v687h465v-49zM352.5 761q-15.5 9 -40.5 28q-17 15 -28 22t-24 7q-20 0 -34 -19.5t-20 -55.5l-39 7q7 54 31 83t62 29q21 0 36.5 -9t40.5 -28q17 -15 28 -22t24 -7q39 0 53 75l39 -7q-7 -54 -30.5 -83t-61.5 -29
q-21 0 -36.5 9z" />
    <glyph glyph-name="uni1EBD" unicode="&#x1ebd;" horiz-adv-x="587" 
d="M404.5 52q49.5 18 78.5 50l32 -34q-32 -35 -92.5 -57.5t-120.5 -22.5q-68 0 -127.5 36.5t-94.5 99t-35 136.5q0 75 34 136.5t92.5 97t128.5 35.5q74 0 129.5 -36t85.5 -102t30 -153h-450q5 -56 33.5 -103t74.5 -74t99 -27t102.5 18zM202 457.5q-45 -25.5 -73.5 -71
t-33.5 -102.5h401q-5 89 -57.5 144t-137.5 55q-54 0 -99 -25.5zM327.5 591q-15.5 9 -40.5 28q-17 15 -28 22t-24 7q-20 0 -34 -19.5t-20 -55.5l-39 7q7 54 31 83t62 29q21 0 36.5 -9t40.5 -28q17 -15 28 -22t24 -7q39 0 53 75l39 -7q-7 -54 -30.5 -83t-61.5 -29
q-21 0 -36.5 9z" />
    <glyph glyph-name="Ygrave" unicode="&#x1ef2;" horiz-adv-x="737" 
d="M343 279l-279 408h63l242 -356l242 356h62l-279 -408v-279h-51v279zM217 877l54 12l124 -143h-52z" />
    <glyph glyph-name="ygrave" unicode="&#x1ef3;" horiz-adv-x="576" 
d="M62 -163l13 46q34 -16 68 -16q66 0 93 48l31 70l-228 532h53l201 -471l191 471h53l-240 -587q-23 -56 -60.5 -82.5t-92.5 -27.5q-45 0 -82 17zM141 707l54 12l124 -143h-52z" />
    <glyph glyph-name="uni2002" unicode="&#x2002;" horiz-adv-x="500" 
 />
    <glyph glyph-name="uni2003" unicode="&#x2003;" horiz-adv-x="1000" 
 />
    <glyph glyph-name="uni2004" unicode="&#x2004;" horiz-adv-x="333" 
 />
    <glyph glyph-name="uni2005" unicode="&#x2005;" horiz-adv-x="250" 
 />
    <glyph glyph-name="uni2006" unicode="&#x2006;" horiz-adv-x="166" 
 />
    <glyph glyph-name="endash" unicode="&#x2013;" horiz-adv-x="585" 
d="M60 296h465v-48h-465v48z" />
    <glyph glyph-name="emdash" unicode="&#x2014;" horiz-adv-x="890" 
d="M60 296h770v-48h-770v48z" />
    <glyph glyph-name="quoteleft" unicode="&#x2018;" horiz-adv-x="230" 
d="M112 552q16 0 27 -11t11 -27t-11 -27t-28 -11q-19 0 -30 15t-11 40q0 27 15 59t49 76l30 -22q-41 -45 -52 -92z" />
    <glyph glyph-name="quoteright" unicode="&#x2019;" horiz-adv-x="229" 
d="M118 580q-17 0 -28 11t-11 27t11 27t28 11q19 0 30.5 -15t11.5 -40q0 -27 -15.5 -59t-49.5 -76l-29 22q39 45 52 92z" />
    <glyph glyph-name="quotesinglbase" unicode="&#x201a;" horiz-adv-x="229" 
d="M118 -12q-17 0 -28 11t-11 27t11 27t28 11q19 0 30.5 -15t11.5 -40q0 -27 -15.5 -59t-49.5 -76l-29 22q39 45 52 92z" />
    <glyph glyph-name="quotedblleft" unicode="&#x201c;" horiz-adv-x="417" 
d="M112 552q16 0 27 -11t11 -27t-11 -27t-28 -11q-19 0 -30 15t-11 40q0 27 15 59t49 76l30 -22q-41 -45 -52 -92zM298 552q17 0 28 -11t11 -27t-11 -27t-28 -11q-19 0 -30.5 15t-11.5 40q0 27 15.5 59t49.5 76l29 -22q-39 -45 -52 -92z" />
    <glyph glyph-name="quotedblright" unicode="&#x201d;" horiz-adv-x="417" 
d="M118 580q-17 0 -28 11t-11 27t11 27t28 11q19 0 30.5 -15t11.5 -40q0 -27 -15.5 -59t-49.5 -76l-29 22q39 45 52 92zM306 580q-17 0 -28 11t-11 27t11 27t28 11q19 0 30.5 -15t11.5 -40q0 -27 -15.5 -59t-49.5 -76l-29 22q39 45 52 92z" />
    <glyph glyph-name="quotedblbase" unicode="&#x201e;" horiz-adv-x="417" 
d="M118 -12q-17 0 -28 11t-11 27t11 27t28 11q19 0 30.5 -15t11.5 -40q0 -27 -15.5 -59t-49.5 -76l-29 22q39 45 52 92zM306 -12q-17 0 -28 11t-11 27t11 27t28 11q19 0 30.5 -15t11.5 -40q0 -27 -15.5 -59t-49.5 -76l-29 22q39 45 52 92z" />
    <glyph glyph-name="bullet" unicode="&#x2022;" horiz-adv-x="354" 
d="M101.5 222q-31.5 32 -31.5 76t31.5 75.5t76.5 31.5q44 0 75.5 -31.5t31.5 -75.5t-31.5 -76t-75.5 -32q-45 0 -76.5 32z" />
    <glyph glyph-name="ellipsis" unicode="&#x2026;" horiz-adv-x="595" 
d="M84 -0.5q-11 11.5 -11 27.5q0 15 11 26t28 11q15 0 26 -11.5t11 -25.5q0 -16 -11 -27.5t-26 -11.5q-17 0 -28 11.5zM271 -0.5q-11 11.5 -11 27.5q0 15 11 26t28 11q15 0 26 -11.5t11 -25.5q0 -16 -11 -27.5t-26 -11.5q-17 0 -28 11.5zM457 -0.5q-11 11.5 -11 27.5
q0 15 11 26t28 11q15 0 26 -11.5t11 -25.5q0 -16 -11 -27.5t-26 -11.5q-17 0 -28 11.5z" />
    <glyph glyph-name="uni202F" unicode="&#x202f;" horiz-adv-x="278" 
 />
    <glyph glyph-name="perthousand" unicode="&#x2030;" horiz-adv-x="1207" 
d="M146.5 371q-34.5 22 -53.5 60.5t-19 87.5q0 50 19.5 89.5t54 62t77.5 22.5q66 0 108 -48.5t42 -123.5t-42 -123.5t-109 -48.5q-43 0 -77.5 22zM625 687h57l-470 -687h-57zM300.5 427.5q29.5 36.5 29.5 92.5q0 57 -30 94t-76 37t-75.5 -37t-29.5 -94q0 -56 30 -92.5
t76 -36.5t75.5 36.5zM532 12q-34 22 -53 61.5t-19 88.5q0 75 42 123.5t108 48.5q44 0 78.5 -22t53.5 -61t19 -88t-19.5 -88.5t-54 -62t-78.5 -22.5q-43 0 -77 22zM904.5 12q-34.5 22 -53.5 61.5t-19 88.5t19 88t53.5 61.5t78.5 22.5q66 0 108 -48.5t42 -122.5
q0 -49 -19.5 -88.5t-54 -62t-77.5 -22.5t-77.5 22zM686 68.5q30 36.5 30 93.5t-30 93.5t-77 36.5q-46 0 -75 -36.5t-29 -92.5q0 -57 29.5 -94t75.5 -37t76 36.5zM1058.5 68.5q29.5 36.5 29.5 93.5t-30 93.5t-76 36.5t-75.5 -36.5t-29.5 -92.5q0 -57 30 -94t76 -37t75.5 36.5
z" />
    <glyph glyph-name="guilsinglleft" unicode="&#x2039;" horiz-adv-x="336" 
d="M61 250l165 194l48 -9l-157 -185l157 -187l-48 -9z" />
    <glyph glyph-name="guilsinglright" unicode="&#x203a;" horiz-adv-x="336" 
d="M62 63l157 187l-157 185l48 9l165 -194l-165 -196z" />
    <glyph glyph-name="Euro" unicode="&#x20ac;" horiz-adv-x="860" 
d="M647 60.5q55 24.5 97 67.5l35 -35q-49 -49 -113 -77t-134 -28q-78 0 -147.5 33.5t-119.5 92.5t-71 133h-109v46h99q-4 23 -4 51q0 38 7 70h-102v46h115q24 69 74 123.5t117 85t141 30.5q70 0 134 -27.5t113 -77.5l-35 -35q-42 43 -97 67.5t-115 24.5q-92 0 -168 -53
t-111 -138h328v-46h-343q-8 -37 -8 -70q0 -28 4 -51h347v-46h-335q20 -60 63 -108t101 -75.5t122 -27.5q60 0 115 24.5z" />
    <glyph glyph-name="trademark" unicode="&#x2122;" horiz-adv-x="774" 
d="M168 533h-93v47h236v-47h-93v-253h-50v253zM372 580h48l105 -181l103 181h50v-300h-50v214l-103 -181l-105 181v-214h-48v300z" />
    <glyph glyph-name="minus" unicode="&#x2212;" horiz-adv-x="644" 
d="M92 358h459v-48h-459v48z" />
    <glyph glyph-name="a.alt" horiz-adv-x="592" 
d="M528 517v-517h-49v116q-29 -60 -80.5 -94t-118.5 -34q-68 0 -121.5 34.5t-83 96t-29.5 140.5t29.5 140t83 95.5t121.5 34.5q67 0 118.5 -34t80.5 -94v116h49zM388 62.5q43 28.5 67 80t24 116.5t-24 116t-67 79.5t-98 28.5q-56 0 -100 -28.5t-68.5 -79.5t-24.5 -116
t24.5 -116.5t68.5 -80t100 -28.5q55 0 98 28.5z" />
    <glyph glyph-name="aacute.alt" horiz-adv-x="592" 
d="M528 517v-517h-49v116q-29 -60 -80.5 -94t-118.5 -34q-68 0 -121.5 34.5t-83 96t-29.5 140.5t29.5 140t83 95.5t121.5 34.5q67 0 118.5 -34t80.5 -94v116h49zM388 62.5q43 28.5 67 80t24 116.5t-24 116t-67 79.5t-98 28.5q-56 0 -100 -28.5t-68.5 -79.5t-24.5 -116
t24.5 -116.5t68.5 -80t100 -28.5q55 0 98 28.5zM393 719l54 -12l-126 -131h-51z" />
    <glyph glyph-name="abreve.alt" horiz-adv-x="592" 
d="M528 517v-517h-49v116q-29 -60 -80.5 -94t-118.5 -34q-68 0 -121.5 34.5t-83 96t-29.5 140.5t29.5 140t83 95.5t121.5 34.5q67 0 118.5 -34t80.5 -94v116h49zM388 62.5q43 28.5 67 80t24 116.5t-24 116t-67 79.5t-98 28.5q-56 0 -100 -28.5t-68.5 -79.5t-24.5 -116
t24.5 -116.5t68.5 -80t100 -28.5q55 0 98 28.5zM219 604q-38 15 -68 45l33 33q23 -22 52.5 -34.5t60.5 -12.5t61 12.5t52 34.5l33 -33q-29 -29 -67 -44.5t-79 -15.5q-40 0 -78 15z" />
    <glyph glyph-name="acircumflex.alt" horiz-adv-x="592" 
d="M528 517v-517h-49v116q-29 -60 -80.5 -94t-118.5 -34q-68 0 -121.5 34.5t-83 96t-29.5 140.5t29.5 140t83 95.5t121.5 34.5q67 0 118.5 -34t80.5 -94v116h49zM388 62.5q43 28.5 67 80t24 116.5t-24 116t-67 79.5t-98 28.5q-56 0 -100 -28.5t-68.5 -79.5t-24.5 -116
t24.5 -116.5t68.5 -80t100 -28.5q55 0 98 28.5zM271 713h52l106 -137h-48l-84 99l-82 -99h-48z" />
    <glyph glyph-name="adieresis.alt" horiz-adv-x="592" 
d="M528 517v-517h-49v116q-29 -60 -80.5 -94t-118.5 -34q-68 0 -121.5 34.5t-83 96t-29.5 140.5t29.5 140t83 95.5t121.5 34.5q67 0 118.5 -34t80.5 -94v116h49zM388 62.5q43 28.5 67 80t24 116.5t-24 116t-67 79.5t-98 28.5q-56 0 -100 -28.5t-68.5 -79.5t-24.5 -116
t24.5 -116.5t68.5 -80t100 -28.5q55 0 98 28.5zM176 618.5q-10 10.5 -10 24.5t10 24.5t25 10.5q14 0 24.5 -10.5t10.5 -24.5t-10.5 -24.5t-24.5 -10.5q-15 0 -25 10.5zM368 618.5q-10 10.5 -10 24.5t10 24.5t25 10.5q14 0 24.5 -10.5t10.5 -24.5t-10.5 -24.5t-24.5 -10.5
q-15 0 -25 10.5z" />
    <glyph glyph-name="agrave.alt" horiz-adv-x="592" 
d="M528 517v-517h-49v116q-29 -60 -80.5 -94t-118.5 -34q-68 0 -121.5 34.5t-83 96t-29.5 140.5t29.5 140t83 95.5t121.5 34.5q67 0 118.5 -34t80.5 -94v116h49zM388 62.5q43 28.5 67 80t24 116.5t-24 116t-67 79.5t-98 28.5q-56 0 -100 -28.5t-68.5 -79.5t-24.5 -116
t24.5 -116.5t68.5 -80t100 -28.5q55 0 98 28.5zM145 707l54 12l124 -143h-52z" />
    <glyph glyph-name="amacron.alt" horiz-adv-x="592" 
d="M528 517v-517h-49v116q-29 -60 -80.5 -94t-118.5 -34q-68 0 -121.5 34.5t-83 96t-29.5 140.5t29.5 140t83 95.5t121.5 34.5q67 0 118.5 -34t80.5 -94v116h49zM388 62.5q43 28.5 67 80t24 116.5t-24 116t-67 79.5t-98 28.5q-56 0 -100 -28.5t-68.5 -79.5t-24.5 -116
t24.5 -116.5t68.5 -80t100 -28.5q55 0 98 28.5zM142 642h310v-42h-310v42z" />
    <glyph glyph-name="aogonek.alt" horiz-adv-x="592" 
d="M607 -144q-35 -29 -84 -29q-45 0 -73.5 28t-28.5 74q0 30 16 54t42 33v100q-29 -60 -80.5 -94t-118.5 -34q-68 0 -121.5 34.5t-83 96t-29.5 140.5t29.5 140t83 95.5t121.5 34.5q67 0 118.5 -34t80.5 -94v116h49v-517q-30 0 -47 -17.5t-17 -48.5q0 -30 17 -46.5t47 -16.5
q36 0 55 21zM388 62.5q43 28.5 67 80t24 116.5t-24 116t-67 79.5t-98 28.5q-56 0 -100 -28.5t-68.5 -79.5t-24.5 -116t24.5 -116.5t68.5 -80t100 -28.5q55 0 98 28.5z" />
    <glyph glyph-name="aring.alt" horiz-adv-x="592" 
d="M528 517v-517h-49v116q-29 -60 -80.5 -94t-118.5 -34q-68 0 -121.5 34.5t-83 96t-29.5 140.5t29.5 140t83 95.5t121.5 34.5q67 0 118.5 -34t80.5 -94v116h49zM388 62.5q43 28.5 67 80t24 116.5t-24 116t-67 79.5t-98 28.5q-56 0 -100 -28.5t-68.5 -79.5t-24.5 -116
t24.5 -116.5t68.5 -80t100 -28.5q55 0 98 28.5zM224.5 619.5q-30.5 30.5 -30.5 72.5t30.5 72.5t72.5 30.5t72.5 -30.5t30.5 -72.5t-30.5 -72.5t-72.5 -30.5t-72.5 30.5zM343 646q20 20 20 46t-20 46t-46 20t-46 -20t-20 -46t20 -46t46 -20t46 20z" />
    <glyph glyph-name="atilde.alt" horiz-adv-x="592" 
d="M528 517v-517h-49v116q-29 -60 -80.5 -94t-118.5 -34q-68 0 -121.5 34.5t-83 96t-29.5 140.5t29.5 140t83 95.5t121.5 34.5q67 0 118.5 -34t80.5 -94v116h49zM388 62.5q43 28.5 67 80t24 116.5t-24 116t-67 79.5t-98 28.5q-56 0 -100 -28.5t-68.5 -79.5t-24.5 -116
t24.5 -116.5t68.5 -80t100 -28.5q55 0 98 28.5zM324.5 591q-15.5 9 -40.5 28q-17 15 -28 22t-24 7q-20 0 -34 -19.5t-20 -55.5l-39 7q7 54 31 83t62 29q21 0 36.5 -9t40.5 -28q17 -15 28 -22t24 -7q39 0 53 75l39 -7q-7 -54 -30.5 -83t-61.5 -29q-21 0 -36.5 9z" />
    </font>
</defs>
</svg>
